<?xml version="1.0" encoding="utf-8"?>
<!-- Generator: Adobe Illustrator 16.0.0, SVG Export Plug-In . SVG Version: 6.00 Build 0)  -->
<!DOCTYPE svg PUBLIC "-//W3C//DTD SVG 1.1//EN" "http://www.w3.org/Graphics/SVG/1.1/DTD/svg11.dtd">
<svg version="1.1" id="Layer_3" xmlns="http://www.w3.org/2000/svg" xmlns:xlink="http://www.w3.org/1999/xlink" x="0px" y="0px"
	 width="100px" height="100px" viewBox="0 0 100 100" enable-background="new 0 0 100 100" xml:space="preserve">
<g>
	<path d="M50,1.125C23.007,1.125,1.125,23.008,1.125,50S23.007,98.875,50,98.875S98.875,76.992,98.875,50S76.993,1.125,50,1.125z
		 M71.258,68.679C56.076,85.957,34.251,91.598,22.511,81.284c-11.74-10.318-8.951-32.688,6.23-49.965
		C43.925,14.042,65.749,8.401,77.489,18.716C89.229,29.032,86.439,51.403,71.258,68.679z"/>
	<path d="M64.805,28.056c-6.666-5.836-20.706-2.711-29.683,7.539c-8.977,10.249-10.85,23.291-4.184,29.127
		c6.664,5.838,19.344,2.257,28.319-7.991C68.234,46.479,71.469,33.894,64.805,28.056z M50.777,48.717
		c-2.724,3.779-7.061,5.306-9.687,3.412c-2.627-1.894-2.547-6.49,0.176-10.271c2.724-3.776,7.063-5.302,9.688-3.408
		C53.58,40.343,53.5,44.938,50.777,48.717z"/>
</g>
</svg>
