<?xml version="1.0" encoding="utf-8"?>
<!-- Generator: Adobe Illustrator 16.0.0, SVG Export Plug-In . SVG Version: 6.00 Build 0)  -->
<!DOCTYPE svg PUBLIC "-//W3C//DTD SVG 1.1//EN" "http://www.w3.org/Graphics/SVG/1.1/DTD/svg11.dtd">
<svg version="1.1" id="Layer_6" xmlns="http://www.w3.org/2000/svg" xmlns:xlink="http://www.w3.org/1999/xlink" x="0px" y="0px"
	 width="100px" height="100px" viewBox="0 0 100 100" enable-background="new 0 0 100 100" xml:space="preserve">
<g>
	<rect x="52.775" y="44.451" width="4.161" height="12.486"/>
	<rect x="73.584" y="44.451" width="4.161" height="12.486"/>
	<path d="M50,1.125C23.008,1.125,1.125,23.008,1.125,50S23.008,98.875,50,98.875S98.875,76.992,98.875,50S76.992,1.125,50,1.125z
		 M33.354,62.484H15.319V38.9h11.099v-9.709h6.936V62.484z M43.064,62.484h-6.937V38.9h6.937V62.484z M43.064,36.129h-6.937v-6.938
		h6.937V36.129z M63.872,70.809H45.838V65.26h11.099v-2.775H45.838V38.9h18.034V70.809z M66.647,70.809V65.26h11.098v-2.775H66.647
		V38.9h18.033v31.908H66.647z"/>
	<rect x="22.256" y="44.451" width="4.162" height="12.486"/>
</g>
</svg>
