<?xml version="1.0" encoding="utf-8"?>
<!-- Generator: Adobe Illustrator 16.0.0, SVG Export Plug-In . SVG Version: 6.00 Build 0)  -->
<!DOCTYPE svg PUBLIC "-//W3C//DTD SVG 1.1//EN" "http://www.w3.org/Graphics/SVG/1.1/DTD/svg11.dtd">
<svg version="1.1" id="Layer_3" xmlns="http://www.w3.org/2000/svg" xmlns:xlink="http://www.w3.org/1999/xlink" x="0px" y="0px"
	 width="100px" height="100px" viewBox="0 0 100 100" enable-background="new 0 0 100 100" xml:space="preserve">
<g>
	<path d="M48.052,39.9c-4.895-8.658-10.127-15.959-11.181-17.408c-8.416,4.016-14.719,11.764-16.74,21.088c0.084,0,0.184,0,0.299,0
		C23.246,43.58,34.914,43.354,48.052,39.9z"/>
	<path d="M70.135,27.109C64.753,22.391,57.707,19.525,50,19.525c-2.37,0-4.676,0.273-6.893,0.789
		c1.242,1.678,6.471,8.9,11.242,17.631C64.664,34.045,69.284,28.273,70.135,27.109z"/>
	<path d="M58.838,47.113c0.208,0.488,0.41,0.975,0.609,1.459c2.366-0.291,4.725-0.404,6.967-0.404
		c6.951,0,12.768,1.088,14.141,1.365c-0.118-7.033-2.627-13.494-6.753-18.607c-1.068,1.383-6.229,7.498-16.925,11.904
		C57.564,44.24,58.223,45.672,58.838,47.113z"/>
	<path d="M52.094,50.143c0.336-0.109,0.675-0.207,1.016-0.307c-0.728-1.633-1.513-3.268-2.336-4.879
		c-13.566,4.027-26.732,4.342-30.523,4.342c-0.35,0-0.617-0.002-0.801-0.006c-0.006,0.252-0.013,0.504-0.013,0.754
		c0.001,7.752,2.91,14.834,7.693,20.223C28.422,68.137,36.82,55.076,52.094,50.143z"/>
	<path d="M50,1.125C23.007,1.125,1.125,23.008,1.125,50S23.007,98.875,50,98.875S98.875,76.992,98.875,50S76.993,1.125,50,1.125z
		 M50,86.129c-19.948,0-36.176-16.207-36.177-36.129C13.825,30.078,30.052,13.873,50,13.871C69.948,13.873,86.175,30.078,86.176,50
		C86.175,69.922,69.948,86.129,50,86.129z"/>
	<path d="M61.452,53.756c3.801,10.484,5.448,19.082,5.857,21.432c6.692-4.609,11.461-11.811,12.84-20.141
		c-1.16-0.354-6.158-1.752-12.544-1.752C65.66,53.295,63.585,53.428,61.452,53.756z"/>
	<path d="M55.308,55.268c-16.741,5.826-23.077,17.236-23.949,18.949c5.164,3.979,11.628,6.352,18.642,6.352
		c4.183,0,8.172-0.844,11.805-2.371c-0.489-2.842-2.268-12.012-6.463-22.943C55.331,55.26,55.32,55.264,55.308,55.268z"/>
</g>
</svg>
