<?xml version="1.0" encoding="utf-8"?>
<!-- Generator: Adobe Illustrator 16.0.0, SVG Export Plug-In . SVG Version: 6.00 Build 0)  -->
<!DOCTYPE svg PUBLIC "-//W3C//DTD SVG 1.1//EN" "http://www.w3.org/Graphics/SVG/1.1/DTD/svg11.dtd">
<svg version="1.1" id="Layer_3" xmlns="http://www.w3.org/2000/svg" xmlns:xlink="http://www.w3.org/1999/xlink" x="0px" y="0px"
	 width="100px" height="100px" viewBox="0 0 100 100" enable-background="new 0 0 100 100" xml:space="preserve">
<path d="M50,1.125C23.008,1.125,1.125,23.007,1.125,50S23.008,98.875,50,98.875S98.875,76.993,98.875,50S76.992,1.125,50,1.125z
	 M29.402,67.487c-8.895,0-16.105-7.829-16.105-17.487s7.211-17.487,16.105-17.487S45.508,40.342,45.508,50
	S38.297,67.487,29.402,67.487z M70.133,67.07c-9.152,0-16.57-7.735-16.57-17.279c0-9.542,7.418-17.278,16.57-17.278
	c9.15,0,16.57,7.736,16.57,17.278C86.703,59.335,79.283,67.07,70.133,67.07z"/>
</svg>
