<?xml version="1.0" encoding="utf-8"?>
<!-- Generator: Adobe Illustrator 16.0.0, SVG Export Plug-In . SVG Version: 6.00 Build 0)  -->
<!DOCTYPE svg PUBLIC "-//W3C//DTD SVG 1.1//EN" "http://www.w3.org/Graphics/SVG/1.1/DTD/svg11.dtd">
<svg version="1.1" id="Layer_3" xmlns="http://www.w3.org/2000/svg" xmlns:xlink="http://www.w3.org/1999/xlink" x="0px" y="0px"
	 width="100px" height="100px" viewBox="0 0 100 100" enable-background="new 0 0 100 100" xml:space="preserve">
<g>
	<path fill-rule="evenodd" clip-rule="evenodd" d="M77.076,40.383c-1.786-5.089-4.751-9.362-8.946-12.752
		c-5.285-4.27-11.347-6.415-18.139-6.469c-0.377,0-0.755-0.011-1.131,0.002c-2.13,0.069-4.222,0.39-6.277,0.943
		c-4.928,1.327-9.188,3.815-12.794,7.418c-3.606,3.603-6.095,7.864-7.459,12.776c-0.765,2.754-1.067,5.567-0.984,8.423
		c0.023,0.801,0.085,1.598,0.28,2.378c0.434,1.72,1.486,2.775,3.273,3.035c1.186,0.172,2.313-0.066,3.398-0.535
		c1.661-0.717,3.063-1.804,4.316-3.092c1.602-1.648,2.79-3.558,3.564-5.721c1-2.797,1.369-5.703,1.382-8.654
		c0.006-1.492-0.071-2.989-0.181-4.478c-0.104-1.399-0.285-2.793-0.456-4.186c-0.074-0.612,0.083-0.777,0.679-0.605
		c0.471,0.136,0.939,0.279,1.408,0.424c3.047,0.935,5.938,2.2,8.563,4.033c3.572,2.496,6.718,5.466,9.631,8.693
		c2.67,2.959,5.063,6.136,7.382,9.374c1.104,1.542,2.347,2.958,3.838,4.139c1.438,1.139,3.006,2.014,4.84,2.338
		c1.691,0.299,3.146-0.34,4.057-1.794c0.559-0.89,0.861-1.874,1.057-2.895c0.385-2.014,0.35-4.042,0.166-6.07
		C78.337,44.807,77.843,42.564,77.076,40.383z"/>
	<path fill-rule="evenodd" clip-rule="evenodd" d="M50,1.125C23.007,1.125,1.125,23.007,1.125,50S23.007,98.875,50,98.875
		S98.875,76.993,98.875,50S76.993,1.125,50,1.125z M86.229,51.708c-0.061,1.442-0.219,2.874-0.455,4.297
		c-0.62,3.75-1.804,7.316-3.562,10.683c-2.927,5.603-7.024,10.161-12.307,13.633c-5.502,3.616-11.554,5.57-18.13,5.906
		c-0.063,0.003-0.126,0.025-0.189,0.038c-1.058,0-2.115,0-3.174,0c-0.047-0.013-0.096-0.034-0.144-0.036
		c-1.435-0.063-2.858-0.219-4.275-0.454c-3.75-0.622-7.315-1.804-10.683-3.563c-5.603-2.926-10.16-7.023-13.633-12.305
		c-3.615-5.502-5.57-11.555-5.906-18.13c-0.003-0.063-0.023-0.126-0.037-0.19c0-1.057,0-2.116,0-3.173
		c0.012-0.033,0.034-0.065,0.035-0.099c0.049-0.64,0.08-1.28,0.142-1.919c0.259-2.745,0.831-5.425,1.728-8.033
		c2.431-7.076,6.628-12.885,12.605-17.378c5.918-4.448,12.604-6.831,20-7.213c0.057-0.003,0.111-0.024,0.168-0.037
		c1.059,0,2.116,0,3.174,0c0.049,0.013,0.097,0.034,0.146,0.037c1.435,0.063,2.858,0.219,4.275,0.454
		c3.757,0.624,7.328,1.809,10.702,3.574c5.637,2.947,10.212,7.081,13.687,12.408c3.569,5.474,5.499,11.489,5.831,18.017
		c0.004,0.063,0.023,0.126,0.037,0.19c0,1.057,0,2.116,0,3.173C86.253,51.627,86.23,51.667,86.229,51.708z"/>
</g>
</svg>
