<?xml version="1.0" encoding="utf-8"?>
<!-- Generator: Adobe Illustrator 16.0.0, SVG Export Plug-In . SVG Version: 6.00 Build 0)  -->
<!DOCTYPE svg PUBLIC "-//W3C//DTD SVG 1.1//EN" "http://www.w3.org/Graphics/SVG/1.1/DTD/svg11.dtd">
<svg version="1.1" id="Layer_3" xmlns="http://www.w3.org/2000/svg" xmlns:xlink="http://www.w3.org/1999/xlink" x="0px" y="0px"
	 width="100px" height="100px" viewBox="0 0 100 100" enable-background="new 0 0 100 100" xml:space="preserve">
<path d="M50,1.125C23.007,1.125,1.125,23.007,1.125,50S23.007,98.875,50,98.875S98.875,76.993,98.875,50S76.993,1.125,50,1.125z
	 M61.783,13.565c6.478,0,11.727,5.246,11.727,11.72c0,6.479-5.249,11.728-11.727,11.728c-6.469,0-11.721-5.249-11.72-11.728
	C50.063,18.813,55.314,13.565,61.783,13.565z M39.578,17.032c4.777,0,8.654,3.872,8.654,8.65c0,4.775-3.877,8.647-8.654,8.647
	c-4.775,0-8.648-3.872-8.648-8.647C30.929,20.904,34.802,17.032,39.578,17.032z M22.873,19.233c3.438,0,6.225,2.787,6.225,6.227
	c0,3.438-2.786,6.226-6.225,6.226s-6.227-2.787-6.227-6.226S19.434,19.233,22.873,19.233z M78.798,86.435H45.466V70.81H27.535V57.93
	H14.202V41.331h0.013c0.164-4.748,4.053-8.545,8.838-8.545c4.008,0,7.387,2.664,8.477,6.317c2.191-2.008,5.1-3.244,8.303-3.244
	c5.055,0,9.391,3.047,11.281,7.403c2.939-2.596,6.788-4.185,11.017-4.185c9.014,0,16.333,7.159,16.639,16.093h0.03V86.435z"/>
</svg>
