<?xml version="1.0" encoding="utf-8"?>
<!-- Generator: Adobe Illustrator 16.0.0, SVG Export Plug-In . SVG Version: 6.00 Build 0)  -->
<!DOCTYPE svg PUBLIC "-//W3C//DTD SVG 1.1//EN" "http://www.w3.org/Graphics/SVG/1.1/DTD/svg11.dtd">
<svg version="1.1" id="Layer_3" xmlns="http://www.w3.org/2000/svg" xmlns:xlink="http://www.w3.org/1999/xlink" x="0px" y="0px"
	 width="100px" height="100px" viewBox="0 0 100 100" enable-background="new 0 0 100 100" xml:space="preserve">
<path fill-rule="evenodd" clip-rule="evenodd" d="M50,1.125C23.007,1.125,1.125,23.007,1.125,50S23.007,98.875,50,98.875
	S98.875,76.993,98.875,50S76.993,1.125,50,1.125z M64.843,57.589c-0.704,0.506-0.842,0.908-0.569,1.733
	c2.719,8.225,5.389,16.466,8.071,24.704c0.077,0.234,0.144,0.472,0.276,0.905c-0.434-0.302-0.707-0.486-0.974-0.679
	C64.723,79.21,57.789,74.176,50.882,69.11c-0.651-0.477-1.081-0.517-1.762-0.021c-7.11,5.175-14.251,10.312-21.384,15.457
	c-0.177,0.126-0.361,0.238-0.68,0.447c1.021-3.157,1.987-6.16,2.961-9.159c1.83-5.638,3.653-11.277,5.514-16.904
	c0.216-0.652,0.038-0.955-0.477-1.325c-7.022-5.056-14.029-10.132-21.04-15.204c-0.229-0.165-0.455-0.331-0.667-0.693
	c0.635,0,1.271,0,1.906,0c8.257,0,16.514-0.012,24.771,0.02c0.822,0.002,1.173-0.238,1.43-1.038
	c2.668-8.332,5.384-16.649,8.088-24.97c0.062-0.188,0.143-0.369,0.278-0.714c0.143,0.363,0.249,0.601,0.329,0.848
	c2.744,8.277,5.498,16.551,8.206,24.841c0.26,0.795,0.618,1.035,1.44,1.033c8.599-0.021,17.198,0,25.798,0.01
	c0.278,0,0.557,0,1.058,0c-0.393,0.312-0.618,0.503-0.856,0.677C78.816,47.479,71.845,52.556,64.843,57.589z"/>
</svg>
