<?xml version="1.0" encoding="utf-8"?>
<!-- Generator: Adobe Illustrator 16.0.0, SVG Export Plug-In . SVG Version: 6.00 Build 0)  -->
<!DOCTYPE svg PUBLIC "-//W3C//DTD SVG 1.1//EN" "http://www.w3.org/Graphics/SVG/1.1/DTD/svg11.dtd">
<svg version="1.1" id="Layer_3" xmlns="http://www.w3.org/2000/svg" xmlns:xlink="http://www.w3.org/1999/xlink" x="0px" y="0px"
	 width="100px" height="100px" viewBox="0 0 100 100" enable-background="new 0 0 100 100" xml:space="preserve">
<g>
	<path d="M70.076,51.83c-7.308-4.373-16.602-6.766-26.209-6.766c-6.133,0-10.347,0.874-14.473,2.007
		c-1.525,0.43-2.283,1.504-2.283,3.065c0,1.591,1.289,2.878,2.867,2.878c0.67,0,1.07-0.212,1.786-0.409
		c3.32-0.884,7.333-1.535,11.979-1.535c9.062,0,17.338,2.354,23.308,5.897c0.542,0.314,1.042,0.637,1.84,0.637
		c1.595,0,2.86-1.284,2.86-2.874C71.751,53.425,71.3,52.532,70.076,51.83z"/>
	<path d="M65.719,62.585c-6.159-3.692-13.317-5.535-21.35-5.535c-4.689,0-9.205,0.591-13.737,1.624
		c-1.107,0.211-1.997,0.979-1.997,2.521c0,1.199,0.93,2.306,2.323,2.306c0.451,0,1.208-0.232,1.81-0.362
		c3.696-0.77,7.649-1.273,11.577-1.273c7.039,0,13.672,1.691,18.992,4.91c0.555,0.338,0.96,0.544,1.555,0.544
		c1.206,0,2.281-0.972,2.281-2.295C67.173,63.667,66.636,63.121,65.719,62.585z"/>
	<path d="M50,1.125C23.007,1.125,1.125,23.007,1.125,50S23.007,98.875,50,98.875S98.875,76.993,98.875,50S76.993,1.125,50,1.125z
		 M50,86.704C29.73,86.704,13.294,70.271,13.294,50c0-20.272,16.436-36.704,36.706-36.704S86.706,29.728,86.706,50
		C86.706,70.271,70.271,86.704,50,86.704z"/>
	<path d="M75.015,39.534c-8.283-4.865-19.623-7.082-30.4-7.082c-6.35,0-12.189,0.718-17.422,2.26
		c-1.333,0.394-2.57,1.514-2.57,3.509c0,1.958,1.502,3.507,3.461,3.507c0.676,0,1.349-0.267,1.883-0.401
		c4.63-1.257,9.685-1.763,14.662-1.763c9.971,0,20.28,2.194,26.925,6.177c0.7,0.384,1.144,0.566,1.892,0.566
		c1.854,0,3.461-1.438,3.461-3.439C76.906,41.12,76.132,40.167,75.015,39.534z"/>
</g>
</svg>
