<?xml version="1.0" encoding="UTF-8" standalone="no"?>
<!-- Created with Inkscape (http://www.inkscape.org/) -->

<svg
   xmlns:dc="http://purl.org/dc/elements/1.1/"
   xmlns:cc="http://creativecommons.org/ns#"
   xmlns:rdf="http://www.w3.org/1999/02/22-rdf-syntax-ns#"
   xmlns:svg="http://www.w3.org/2000/svg"
   xmlns="http://www.w3.org/2000/svg"
   xmlns:sodipodi="http://sodipodi.sourceforge.net/DTD/sodipodi-0.dtd"
   xmlns:inkscape="http://www.inkscape.org/namespaces/inkscape"
   id="svg2985"
   version="1.1"
   inkscape:version="0.48.4 r9939"
   width="284"
   height="160"
   sodipodi:docname="noDisponible.svg"
   inkscape:export-filename="C:\xampp\htdocs\RchWeb.net\RCh\images\noDisponible.png"
   inkscape:export-xdpi="90"
   inkscape:export-ydpi="90">
  <metadata
     id="metadata2991">
    <rdf:RDF>
      <cc:Work
         rdf:about="">
        <dc:format>image/svg+xml</dc:format>
        <dc:type
           rdf:resource="http://purl.org/dc/dcmitype/StillImage" />
        <dc:title></dc:title>
      </cc:Work>
    </rdf:RDF>
  </metadata>
  <defs
     id="defs2989" />
  <sodipodi:namedview
     pagecolor="#ffffff"
     bordercolor="#666666"
     borderopacity="1"
     objecttolerance="10"
     gridtolerance="10"
     guidetolerance="10"
     inkscape:pageopacity="0"
     inkscape:pageshadow="2"
     inkscape:window-width="1145"
     inkscape:window-height="596"
     id="namedview2987"
     showgrid="false"
     fit-margin-top="0"
     fit-margin-left="0"
     fit-margin-right="0"
     fit-margin-bottom="0"
     inkscape:zoom="1.6283374"
     inkscape:cx="177.87777"
     inkscape:cy="80"
     inkscape:window-x="1515"
     inkscape:window-y="87"
     inkscape:window-maximized="0"
     inkscape:current-layer="svg2985" />
  <g
     id="g4342">
    <rect
       y="0.49482483"
       x="-0.22069018"
       height="159.00728"
       width="283.00125"
       id="rect3000"
       style="fill:#4c1385;fill-opacity:1;fill-rule:evenodd;stroke:#000000;stroke-width:0.99872863px;stroke-linecap:butt;stroke-linejoin:miter;stroke-opacity:1" />
    <g
       id="g4296">
      <g
         id="g3139"
         transform="translate(-0.73125939,0)"
         style="fill:#ffffff;stroke:#ffffff;stroke-opacity:1;stroke-width:1;stroke-miterlimit:4;stroke-dasharray:none;fill-opacity:1">
        <g
           id="flowRoot2995"
           style="font-size:18px;font-style:normal;font-variant:normal;font-weight:bold;font-stretch:normal;text-align:start;line-height:125%;letter-spacing:0px;word-spacing:0px;writing-mode:lr-tb;text-anchor:start;fill:#ffffff;stroke:#ffffff;stroke-opacity:1;font-family:Arial;-inkscape-font-specification:Arial Bold;stroke-width:1;stroke-miterlimit:4;stroke-dasharray:none;fill-opacity:1"
           transform="matrix(0.93969262,-0.34202014,0.34202014,0.93969262,7.1069177,90.864166)">
          <path
             id="path3033"
             d="m 25.355469,32.509073 0,-12.884766 2.601562,0 0,12.884766 z"
             inkscape:connector-curvature="0"
             style="fill:#ffffff;stroke:#ffffff;stroke-opacity:1;stroke-width:1;stroke-miterlimit:4;stroke-dasharray:none;fill-opacity:1" />
          <path
             id="path3035"
             d="m 30.391602,32.509073 0,-12.884766 3.893554,0 2.337891,8.789062 2.311523,-8.789062 3.902344,0 0,12.884766 -2.416992,0 0,-10.142579 -2.557617,10.142579 -2.504883,0 -2.548828,-10.142579 0,10.142579 z"
             inkscape:connector-curvature="0"
             style="fill:#ffffff;stroke:#ffffff;stroke-opacity:1;stroke-width:1;stroke-miterlimit:4;stroke-dasharray:none;fill-opacity:1" />
          <path
             id="path3037"
             d="m 57.057617,32.509073 -2.830078,0 -1.125,-2.926758 -5.150391,0 -1.063476,2.926758 -2.759766,0 5.018555,-12.884766 2.750976,0 z m -4.790039,-5.097657 -1.775391,-4.78125 -1.740234,4.78125 z"
             inkscape:connector-curvature="0"
             style="fill:#ffffff;stroke:#ffffff;stroke-opacity:1;stroke-width:1;stroke-miterlimit:4;stroke-dasharray:none;fill-opacity:1" />
          <path
             id="path3039"
             d="m 64.44043,27.771768 0,-2.170899 5.607422,0 0,5.132813 c -0.544935,0.527345 -1.334485,0.9917 -2.368653,1.393066 -1.034189,0.401368 -2.081551,0.602051 -3.14209,0.602051 -1.347662,0 -2.522465,-0.282715 -3.524414,-0.848144 -1.001956,-0.565429 -1.754885,-1.374022 -2.258789,-2.425782 -0.503907,-1.051753 -0.75586,-2.195795 -0.755859,-3.432129 -10e-7,-1.341789 0.281249,-2.53417 0.84375,-3.577148 0.562498,-1.042958 1.385739,-1.842762 2.469726,-2.399414 0.826167,-0.427722 1.854487,-0.641589 3.084961,-0.641602 1.599601,1.3e-5 2.849111,0.335462 3.748536,1.006348 0.899402,0.67091 1.478014,1.598155 1.735839,2.781738 l -2.583984,0.483399 c -0.181651,-0.632803 -0.522959,-1.132314 -1.023926,-1.498535 -0.500985,-0.366201 -1.126473,-0.549306 -1.876465,-0.549317 -1.136724,1.1e-5 -2.040532,0.360362 -2.711425,1.081055 -0.670903,0.720712 -1.006352,1.790047 -1.006348,3.208008 -4e-6,1.529302 0.33984,2.676273 1.019531,3.440918 0.679682,0.76465 1.570307,1.146974 2.671875,1.146972 0.544914,2e-6 1.0913,-0.106931 1.63916,-0.3208 0.547842,-0.213865 1.018057,-0.473142 1.410645,-0.777832 l 0,-1.634766 z"
             inkscape:connector-curvature="0"
             style="fill:#ffffff;stroke:#ffffff;stroke-opacity:1;stroke-width:1;stroke-miterlimit:4;stroke-dasharray:none;fill-opacity:1" />
          <path
             id="path3041"
             d="m 72.438477,32.509073 0,-12.884766 9.55371,0 0,2.179687 -6.952148,0 0,2.856446 6.46875,0 0,2.170898 -6.46875,0 0,3.506836 7.198242,0 0,2.170899 z"
             inkscape:connector-curvature="0"
             style="fill:#ffffff;stroke:#ffffff;stroke-opacity:1;stroke-width:1;stroke-miterlimit:4;stroke-dasharray:none;fill-opacity:1" />
          <path
             id="path3043"
             d="m 84.488281,32.509073 0,-12.884766 2.53125,0 5.273438,8.604492 0,-8.604492 2.416992,0 0,12.884766 -2.610352,0 -5.194336,-8.402344 0,8.402344 z"
             inkscape:connector-curvature="0"
             style="fill:#ffffff;stroke:#ffffff;stroke-opacity:1;stroke-width:1;stroke-miterlimit:4;stroke-dasharray:none;fill-opacity:1" />
          <path
             id="path3045"
             d="m 102.48828,32.509073 0,-12.884766 2.53125,0 5.27344,8.604492 0,-8.604492 2.41699,0 0,12.884766 -2.61035,0 -5.19434,-8.402344 0,8.402344 z"
             inkscape:connector-curvature="0"
             style="fill:#ffffff;stroke:#ffffff;stroke-opacity:1;stroke-width:1;stroke-miterlimit:4;stroke-dasharray:none;fill-opacity:1" />
          <path
             id="path3047"
             d="m 114.94238,26.145791 c 0,-1.312492 0.19629,-2.414053 0.58887,-3.304687 0.29297,-0.65624 0.69287,-1.245106 1.19971,-1.766602 0.50683,-0.521472 1.06201,-0.908191 1.66552,-1.160156 0.80273,-0.339831 1.72851,-0.509753 2.77735,-0.509766 1.89843,1.3e-5 3.41747,0.58888 4.55713,1.766602 1.13963,1.177744 1.70946,2.815438 1.70947,4.913086 -1e-5,2.080082 -0.56544,3.707522 -1.69629,4.882324 -1.13087,1.174805 -2.64259,1.762207 -4.53516,1.762207 -1.91602,0 -3.43945,-0.584472 -4.57031,-1.753418 -1.13086,-1.168942 -1.69629,-2.778804 -1.69629,-4.82959 z m 2.68067,-0.08789 c -1e-5,1.458989 0.33691,2.564945 1.01074,3.317871 0.67382,0.752932 1.52929,1.129396 2.56641,1.129394 1.0371,2e-6 1.88817,-0.373532 2.55322,-1.120605 0.66503,-0.747067 0.99755,-1.867671 0.99756,-3.361817 -1e-5,-1.476554 -0.32374,-2.578115 -0.97119,-3.304687 -0.64747,-0.726552 -1.50734,-1.089833 -2.57959,-1.089844 -1.07228,1.1e-5 -1.93653,0.367687 -2.59278,1.103028 -0.65625,0.73536 -0.98438,1.844246 -0.98437,3.32666 z"
             inkscape:connector-curvature="0"
             style="fill:#ffffff;stroke:#ffffff;stroke-opacity:1;stroke-width:1;stroke-miterlimit:4;stroke-dasharray:none;fill-opacity:1" />
          <path
             id="path3049"
             d="m 134.44531,19.624307 4.75489,0 c 1.07225,1.3e-5 1.88964,0.08204 2.45214,0.246094 0.75585,0.222668 1.40331,0.618176 1.94239,1.186523 0.53905,0.56837 0.9492,1.26417 1.23047,2.087402 0.28123,0.823251 0.42186,1.838387 0.42187,3.045411 -1e-5,1.060552 -0.13185,1.974613 -0.39551,2.742187 -0.32227,0.937503 -0.78223,1.696291 -1.37988,2.276367 -0.45118,0.439454 -1.06056,0.782227 -1.82813,1.028321 -0.57422,0.18164 -1.3418,0.272461 -2.30273,0.272461 l -4.89551,0 z m 2.60156,2.179687 0,8.53418 1.94239,0 c 0.72655,2e-6 1.25097,-0.04101 1.57324,-0.123047 0.42187,-0.105466 0.77196,-0.284177 1.05029,-0.536133 0.27831,-0.25195 0.50537,-0.6665 0.68116,-1.243652 0.17577,-0.577144 0.26366,-1.363764 0.26367,-2.359863 -10e-6,-0.996086 -0.0879,-1.760734 -0.26367,-2.293945 -0.17579,-0.533194 -0.42189,-0.94921 -0.73829,-1.248047 -0.31641,-0.298818 -0.71778,-0.500966 -1.2041,-0.606446 -0.36329,-0.08202 -1.0752,-0.123036 -2.13574,-0.123047 z"
             inkscape:connector-curvature="0"
             style="fill:#ffffff;stroke:#ffffff;stroke-opacity:1;stroke-width:1;stroke-miterlimit:4;stroke-dasharray:none;fill-opacity:1" />
          <path
             id="path3051"
             d="m 147.38281,32.509073 0,-12.884766 2.60156,0 0,12.884766 z"
             inkscape:connector-curvature="0"
             style="fill:#ffffff;stroke:#ffffff;stroke-opacity:1;stroke-width:1;stroke-miterlimit:4;stroke-dasharray:none;fill-opacity:1" />
          <path
             id="path3053"
             d="m 151.79492,28.31669 2.53125,-0.246094 c 0.15234,0.849613 0.46142,1.473636 0.92725,1.87207 0.46581,0.39844 1.09423,0.597659 1.88525,0.597657 0.83789,2e-6 1.46923,-0.177244 1.89404,-0.531739 0.4248,-0.354489 0.6372,-0.769039 0.63721,-1.243652 -1e-5,-0.304683 -0.0894,-0.563961 -0.26806,-0.777832 -0.17872,-0.213863 -0.49073,-0.399897 -0.93604,-0.558106 -0.30469,-0.105463 -0.99903,-0.292963 -2.08301,-0.5625 -1.39453,-0.345697 -2.37305,-0.770501 -2.93554,-1.274414 -0.79102,-0.708976 -1.18653,-1.573233 -1.18653,-2.592773 0,-0.65624 0.18604,-1.270009 0.55811,-1.841309 0.37207,-0.571277 0.9082,-1.006335 1.6084,-1.305175 0.70019,-0.298816 1.5454,-0.44823 2.53564,-0.448243 1.61718,1.3e-5 2.83446,0.354505 3.65186,1.063477 0.81737,0.708996 1.24657,1.655284 1.28759,2.838867 l -2.60156,0.114258 c -0.11133,-0.6621 -0.3501,-1.138173 -0.71631,-1.428223 -0.36622,-0.290028 -0.91553,-0.435047 -1.64795,-0.435058 -0.75586,1.1e-5 -1.34766,0.155284 -1.77539,0.46582 -0.27539,0.199229 -0.41309,0.46583 -0.41308,0.799805 -1e-5,0.304697 0.1289,0.565439 0.38672,0.782226 0.32812,0.2754 1.12499,0.562509 2.39062,0.861328 1.26562,0.298836 2.20165,0.607918 2.80811,0.927246 0.60643,0.319343 1.08104,0.755866 1.42382,1.309571 0.34277,0.553716 0.51415,1.237797 0.51416,2.052246 -1e-5,0.738284 -0.20508,1.42969 -0.61523,2.074219 -0.41017,0.644532 -0.99024,1.123535 -1.74023,1.437011 -0.75001,0.313477 -1.68458,0.470215 -2.80372,0.470215 -1.62891,0 -2.87988,-0.376464 -3.75293,-1.129394 -0.87304,-0.752928 -1.39453,-1.850095 -1.56445,-3.291504 z"
             inkscape:connector-curvature="0"
             style="fill:#ffffff;stroke:#ffffff;stroke-opacity:1;stroke-width:1;stroke-miterlimit:4;stroke-dasharray:none;fill-opacity:1" />
          <path
             id="path3055"
             d="m 164.47754,32.509073 0,-12.884766 4.1748,0 c 1.58203,1.3e-5 2.61328,0.06447 3.09375,0.193359 0.73828,0.193372 1.35644,0.613782 1.8545,1.261231 0.49803,0.647472 0.74706,1.483896 0.74707,2.509277 -1e-5,0.791024 -0.14357,1.456062 -0.43067,1.995117 -0.28712,0.539069 -0.65186,0.962409 -1.09424,1.27002 -0.44239,0.307622 -0.89209,0.511235 -1.34912,0.61084 -0.6211,0.123052 -1.52051,0.184575 -2.69824,0.18457 l -1.69629,0 0,4.860352 z m 2.60156,-10.705079 0,3.65625 1.42383,0 c 1.02538,8e-6 1.71093,-0.06737 2.05664,-0.202148 0.3457,-0.134758 0.61669,-0.345696 0.81299,-0.632812 0.19628,-0.287102 0.29442,-0.621086 0.29443,-1.001954 -1e-5,-0.46874 -0.1377,-0.855459 -0.41308,-1.160156 -0.2754,-0.304677 -0.62403,-0.495107 -1.0459,-0.571289 -0.31056,-0.05858 -0.93458,-0.08788 -1.87207,-0.08789 z"
             inkscape:connector-curvature="0"
             style="fill:#ffffff;stroke:#ffffff;stroke-opacity:1;stroke-width:1;stroke-miterlimit:4;stroke-dasharray:none;fill-opacity:1" />
          <path
             id="path3057"
             d="m 175.97363,26.145791 c 0,-1.312492 0.19629,-2.414053 0.58887,-3.304687 0.29297,-0.65624 0.69287,-1.245106 1.19971,-1.766602 0.50683,-0.521472 1.06201,-0.908191 1.66552,-1.160156 0.80273,-0.339831 1.72851,-0.509753 2.77735,-0.509766 1.89843,1.3e-5 3.41747,0.58888 4.55713,1.766602 1.13963,1.177744 1.70946,2.815438 1.70947,4.913086 -1e-5,2.080082 -0.56544,3.707522 -1.69629,4.882324 -1.13087,1.174805 -2.64259,1.762207 -4.53516,1.762207 -1.91602,0 -3.43945,-0.584472 -4.57031,-1.753418 -1.13086,-1.168942 -1.69629,-2.778804 -1.69629,-4.82959 z m 2.68067,-0.08789 c -1e-5,1.458989 0.33691,2.564945 1.01074,3.317871 0.67382,0.752932 1.52929,1.129396 2.56641,1.129394 1.0371,2e-6 1.88817,-0.373532 2.55322,-1.120605 0.66503,-0.747067 0.99755,-1.867671 0.99756,-3.361817 -1e-5,-1.476554 -0.32374,-2.578115 -0.97119,-3.304687 -0.64747,-0.726552 -1.50734,-1.089833 -2.57959,-1.089844 -1.07228,1.1e-5 -1.93653,0.367687 -2.59278,1.103028 -0.65625,0.73536 -0.98438,1.844246 -0.98437,3.32666 z"
             inkscape:connector-curvature="0"
             style="fill:#ffffff;stroke:#ffffff;stroke-opacity:1;stroke-width:1;stroke-miterlimit:4;stroke-dasharray:none;fill-opacity:1" />
          <path
             id="path3059"
             d="m 190.51953,32.509073 0,-12.884766 2.53125,0 5.27344,8.604492 0,-8.604492 2.41699,0 0,12.884766 -2.61035,0 -5.19434,-8.402344 0,8.402344 z"
             inkscape:connector-curvature="0"
             style="fill:#ffffff;stroke:#ffffff;stroke-opacity:1;stroke-width:1;stroke-miterlimit:4;stroke-dasharray:none;fill-opacity:1" />
          <path
             id="path3061"
             d="m 203.42187,32.509073 0,-12.884766 2.60157,0 0,12.884766 z"
             inkscape:connector-curvature="0"
             style="fill:#ffffff;stroke:#ffffff;stroke-opacity:1;stroke-width:1;stroke-miterlimit:4;stroke-dasharray:none;fill-opacity:1" />
          <path
             id="path3063"
             d="m 208.50195,19.624307 5.15039,0 c 1.01953,1.3e-5 1.77978,0.04249 2.28077,0.127441 0.50096,0.08497 0.9492,0.26222 1.34472,0.531739 0.3955,0.269543 0.72509,0.628429 0.98877,1.07666 0.26366,0.448253 0.3955,0.950694 0.39551,1.507324 -1e-5,0.603525 -0.16261,1.157235 -0.48779,1.661133 -0.32521,0.503914 -0.76613,0.881843 -1.32276,1.133789 0.78515,0.228522 1.38866,0.61817 1.81055,1.168945 0.42186,0.550787 0.6328,1.198247 0.63281,1.942383 -1e-5,0.585941 -0.13624,1.155764 -0.40869,1.709473 -0.27247,0.553712 -0.64454,0.996094 -1.11621,1.327148 -0.47169,0.331055 -1.05323,0.534668 -1.74463,0.61084 -0.4336,0.04687 -1.4795,0.07617 -3.13769,0.08789 l -4.38575,0 z m 2.60157,2.144531 0,2.979492 1.70507,0 c 1.01367,8e-6 1.64355,-0.01464 1.88965,-0.04395 0.44531,-0.05273 0.7954,-0.206535 1.0503,-0.461426 0.25487,-0.254874 0.38231,-0.590323 0.38232,-1.006347 -1e-5,-0.398428 -0.10987,-0.722158 -0.32959,-0.971192 -0.21974,-0.249013 -0.5464,-0.399891 -0.97998,-0.452636 -0.25782,-0.02929 -0.99903,-0.04394 -2.22363,-0.04395 z m 0,5.124024 0,3.445312 2.4082,0 c 0.93749,2e-6 1.53222,-0.02636 1.78418,-0.0791 0.38671,-0.07031 0.70165,-0.241697 0.94482,-0.514161 0.24316,-0.272457 0.36474,-0.637203 0.36475,-1.094238 -1e-5,-0.386714 -0.0938,-0.714839 -0.28125,-0.984375 -0.18751,-0.269526 -0.45851,-0.465815 -0.81299,-0.588867 -0.3545,-0.123041 -1.12354,-0.184565 -2.30713,-0.18457 z"
             inkscape:connector-curvature="0"
             style="fill:#ffffff;stroke:#ffffff;stroke-opacity:1;stroke-width:1;stroke-miterlimit:4;stroke-dasharray:none;fill-opacity:1" />
          <path
             id="path3065"
             d="m 221.57129,32.509073 0,-12.779297 2.60156,0 0,10.608398 6.46875,0 0,2.170899 z"
             inkscape:connector-curvature="0"
             style="fill:#ffffff;stroke:#ffffff;stroke-opacity:1;stroke-width:1;stroke-miterlimit:4;stroke-dasharray:none;fill-opacity:1" />
          <path
             id="path3067"
             d="m 232.50488,32.509073 0,-12.884766 9.55371,0 0,2.179687 -6.95214,0 0,2.856446 6.46875,0 0,2.170898 -6.46875,0 0,3.506836 7.19824,0 0,2.170899 z"
             inkscape:connector-curvature="0"
             style="fill:#ffffff;stroke:#ffffff;stroke-opacity:1;stroke-width:1;stroke-miterlimit:4;stroke-dasharray:none;fill-opacity:1" />
        </g>
      </g>
      <g
         id="g3114"
         transform="translate(-0.73125939,0)"
         style="fill:#ffffff;fill-opacity:1">
        <g
           id="flowRoot3003"
           style="font-size:12px;font-style:normal;font-variant:normal;font-weight:normal;font-stretch:normal;text-align:start;line-height:125%;letter-spacing:0px;word-spacing:0px;writing-mode:lr-tb;text-anchor:start;fill:#ffffff;fill-opacity:1;stroke:none;font-family:Fredoka One;-inkscape-font-specification:Fredoka One"
           transform="translate(32.74086,21.581523)">
          <path
             id="path3070"
             d="m 24.534424,116.86518 c 0.208,0.42384 0.312004,0.89576 0.312012,1.41577 -8e-6,0.52003 -0.104012,0.99006 -0.312012,1.4101 -0.208015,0.42005 -0.475959,0.75409 -0.803833,1.00214 -0.664068,0.51196 -1.352056,0.76794 -2.063965,0.76794 l -1.5,0 0,1.35608 c -3e-6,0.18384 -0.006,0.32178 -0.01813,0.41382 -0.01209,0.092 -0.05011,0.198 -0.114075,0.31787 -0.112063,0.21606 -0.424074,0.3241 -0.936035,0.3241 -0.559816,0 -0.887818,-0.14795 -0.984009,-0.44385 -0.04785,-0.13599 -0.07178,-0.344 -0.07178,-0.62403 l 0,-6.65991 c -1e-6,-0.18407 0.006,-0.32213 0.01794,-0.41418 0.01196,-0.092 0.04993,-0.19799 0.113891,-0.31787 0.11206,-0.21606 0.424072,-0.32409 0.936036,-0.3241 l 2.567871,0 c 0.704096,1e-5 1.388178,0.25599 2.052246,0.76794 0.327874,0.24806 0.595818,0.58412 0.803833,1.00818 z m -2.856079,2.47193 c 0.239986,0 0.476008,-0.088 0.708069,-0.26404 0.23205,-0.17602 0.348078,-0.44 0.348083,-0.79193 -5e-6,-0.35192 -0.116033,-0.61792 -0.348083,-0.79798 -0.232061,-0.18004 -0.47199,-0.27007 -0.719788,-0.27008 l -1.5,0 0,2.12403 1.511719,0 z"
             inkscape:connector-curvature="0"
             style="fill:#ffffff;fill-opacity:1" />
          <path
             id="path3072"
             d="m 29.764282,114.98103 c 1.184076,10e-6 2.212091,0.42798 3.084046,1.28393 0.871939,0.85597 1.307913,1.91798 1.307922,3.18604 -9e-6,1.26807 -0.416024,2.34808 -1.248047,3.24005 -0.832038,0.89197 -1.856024,1.33795 -3.07196,1.33795 -1.215946,0 -2.249942,-0.44 -3.10199,-1.32001 -0.852052,-0.88 -1.278077,-1.92791 -1.278076,-3.14373 -1e-6,-0.66406 0.119994,-1.28613 0.359985,-1.86621 0.239989,-0.58008 0.559996,-1.0661 0.960022,-1.45807 0.400022,-0.39196 0.860044,-0.69995 1.380066,-0.92395 0.520016,-0.22399 1.056026,-0.33599 1.608032,-0.336 z M 27.5802,119.5052 c -2e-6,0.71192 0.229978,1.28986 0.689942,1.73382 0.459957,0.44398 0.973995,0.66596 1.542114,0.66596 0.56811,0 1.080133,-0.216 1.536072,-0.64801 0.455926,-0.43201 0.683892,-1.01196 0.683899,-1.73987 -7e-6,-0.7279 -0.229988,-1.31188 -0.689942,-1.75195 -0.459967,-0.44006 -0.973943,-0.66009 -1.541931,-0.6601 -0.567997,10e-6 -1.080021,0.22199 -1.536072,0.66596 -0.456057,0.44397 -0.684084,1.02203 -0.684082,1.73419 z"
             inkscape:connector-curvature="0"
             style="fill:#ffffff;fill-opacity:1" />
          <path
             id="path3074"
             d="m 41.673096,122.39717 c 0.119865,0.28784 0.179802,0.49585 0.179809,0.62402 -7e-6,0.30395 -0.248054,0.55994 -0.74414,0.76794 -0.255866,0.11206 -0.461799,0.16809 -0.617798,0.16809 -0.156012,0 -0.284003,-0.038 -0.383972,-0.11407 -0.09998,-0.076 -0.174017,-0.15411 -0.222107,-0.23419 -0.08008,-0.15186 -0.392095,-0.87586 -0.936035,-2.172 l -0.372071,0.0242 -1.511719,0 0,1.35608 c -2e-6,0.18384 -0.006,0.32178 -0.01813,0.41382 -0.01209,0.092 -0.05011,0.198 -0.114075,0.31787 -0.112063,0.21606 -0.424074,0.3241 -0.936035,0.3241 -0.559815,0 -0.887818,-0.14795 -0.984009,-0.44385 -0.04785,-0.13599 -0.07178,-0.344 -0.07178,-0.62403 l 0,-6.65991 c 0,-0.18407 0.006,-0.32213 0.01794,-0.41418 0.01196,-0.092 0.04993,-0.19799 0.113892,-0.31787 0.11206,-0.21606 0.424071,-0.32409 0.936035,-0.3241 l 2.592041,0 c 0.704097,1e-5 1.388056,0.25599 2.05188,0.76794 0.320062,0.24806 0.5841,0.58406 0.792114,1.008 0.208001,0.42396 0.312005,0.89594 0.312012,1.41595 -7e-6,0.90406 -0.300056,1.64808 -0.900146,2.23206 0.176018,0.42408 0.448113,1.05213 0.816284,1.88416 z m -4.608033,-3.06006 1.535889,0 c 0.231929,0 0.463924,-0.088 0.695984,-0.26404 0.232051,-0.17602 0.348078,-0.44 0.348084,-0.79193 -6e-6,-0.35192 -0.116033,-0.61792 -0.348084,-0.79798 -0.23206,-0.18004 -0.472111,-0.27007 -0.720154,-0.27008 l -1.511719,0 z"
             inkscape:connector-curvature="0"
             style="fill:#ffffff;fill-opacity:1" />
          <path
             id="path3076"
             d="m 46.626099,115.07698 2.21997,0.0121 c 1.160152,1e-5 2.18017,0.41804 3.060059,1.25409 0.879875,0.83607 1.319816,1.86408 1.319824,3.08404 -8e-6,1.21998 -0.43,2.26594 -1.289978,3.13788 -0.859991,0.87195 -1.901921,1.30793 -3.125793,1.30793 l -2.196167,0 c -0.488038,0 -0.791993,-0.1 -0.911866,-0.29993 -0.09595,-0.16797 -0.143921,-0.42395 -0.14392,-0.76795 l 0,-6.67199 c -10e-7,-0.19213 0.006,-0.33215 0.01794,-0.42005 0.01196,-0.0879 0.04993,-0.19188 0.113891,-0.31201 0.11206,-0.21605 0.424072,-0.32409 0.936036,-0.32409 z m 2.21997,6.67199 c 0.575924,0 1.095943,-0.21398 1.560059,-0.64197 0.464105,-0.42797 0.696161,-0.96593 0.696167,-1.61389 -6e-6,-0.64794 -0.226019,-1.18993 -0.67804,-1.62597 -0.452031,-0.43603 -0.982121,-0.65405 -1.590271,-0.65406 l -1.151733,0 0,4.53589 1.163818,0 z"
             inkscape:connector-curvature="0"
             style="fill:#ffffff;fill-opacity:1" />
          <path
             id="path3078"
             d="m 56.119751,121.76106 3.695801,0 c 0.184075,0 0.322137,0.006 0.414184,0.0179 0.09203,0.012 0.197991,0.05 0.317871,0.11426 0.216058,0.11182 0.32409,0.42371 0.324097,0.93567 -7e-6,0.56006 -0.148078,0.88806 -0.444214,0.98401 -0.135993,0.0481 -0.344,0.0721 -0.624023,0.0721 l -4.751953,0 c -0.559816,0 -0.887818,-0.15198 -0.984009,-0.45593 -0.04785,-0.12793 -0.07178,-0.33191 -0.07178,-0.61194 l 0,-6.672 c -10e-7,-0.40819 0.07599,-0.68627 0.227966,-0.83423 0.151977,-0.14794 0.440001,-0.22191 0.864075,-0.22192 l 4.727783,0 c 0.184075,10e-6 0.322137,0.006 0.414184,0.0179 0.09203,0.012 0.197991,0.0501 0.317871,0.11426 0.216058,0.11183 0.32409,0.42372 0.324097,0.93567 -7e-6,0.56007 -0.148078,0.88807 -0.444214,0.98401 -0.135993,0.0481 -0.344,0.0721 -0.624023,0.0721 l -3.683716,0 0,1.21216 2.375977,0 c 0.183832,1e-5 0.321772,0.006 0.413818,0.0179 0.09204,0.012 0.198114,0.0499 0.318237,0.11389 0.215815,0.11206 0.323725,0.42407 0.323731,0.93603 -6e-6,0.56007 -0.151984,0.88807 -0.455933,0.98401 -0.135992,0.0479 -0.343999,0.0718 -0.624023,0.0718 l -2.351807,0 z"
             inkscape:connector-curvature="0"
             style="fill:#ffffff;fill-opacity:1" />
          <path
             id="path3080"
             d="m 68.391846,122.39717 c 0.119865,0.28784 0.179802,0.49585 0.179809,0.62402 -7e-6,0.30395 -0.248054,0.55994 -0.74414,0.76794 -0.255866,0.11206 -0.461799,0.16809 -0.617798,0.16809 -0.156012,0 -0.284003,-0.038 -0.383972,-0.11407 -0.09998,-0.076 -0.174017,-0.15411 -0.222107,-0.23419 -0.08008,-0.15186 -0.392095,-0.87586 -0.936035,-2.172 l -0.372071,0.0242 -1.511719,0 0,1.35608 c -2e-6,0.18384 -0.006,0.32178 -0.01813,0.41382 -0.01209,0.092 -0.05011,0.198 -0.114075,0.31787 -0.112063,0.21606 -0.424074,0.3241 -0.936035,0.3241 -0.559815,0 -0.887818,-0.14795 -0.984009,-0.44385 -0.04785,-0.13599 -0.07178,-0.344 -0.07178,-0.62403 l 0,-6.65991 c 0,-0.18407 0.006,-0.32213 0.01794,-0.41418 0.01196,-0.092 0.04993,-0.19799 0.113892,-0.31787 0.11206,-0.21606 0.424071,-0.32409 0.936035,-0.3241 l 2.592041,0 c 0.704097,1e-5 1.388056,0.25599 2.05188,0.76794 0.320062,0.24806 0.5841,0.58406 0.792114,1.008 0.208001,0.42396 0.312005,0.89594 0.312012,1.41595 -7e-6,0.90406 -0.300056,1.64808 -0.900146,2.23206 0.176018,0.42408 0.448113,1.05213 0.816284,1.88416 z m -4.608033,-3.06006 1.535889,0 c 0.231929,0 0.463924,-0.088 0.695984,-0.26404 0.232051,-0.17602 0.348078,-0.44 0.348084,-0.79193 -6e-6,-0.35192 -0.116033,-0.61792 -0.348084,-0.79798 -0.23206,-0.18004 -0.472111,-0.27007 -0.720154,-0.27008 l -1.511719,0 z"
             inkscape:connector-curvature="0"
             style="fill:#ffffff;fill-opacity:1" />
          <path
             id="path3082"
             d="m 71.354126,121.76106 3.695801,0 c 0.184075,0 0.322137,0.006 0.414184,0.0179 0.09203,0.012 0.197991,0.05 0.317871,0.11426 0.216058,0.11182 0.32409,0.42371 0.324097,0.93567 -7e-6,0.56006 -0.148078,0.88806 -0.444214,0.98401 -0.135993,0.0481 -0.344,0.0721 -0.624023,0.0721 l -4.751953,0 c -0.559816,0 -0.887818,-0.15198 -0.984009,-0.45593 -0.04785,-0.12793 -0.07178,-0.33191 -0.07178,-0.61194 l 0,-6.672 c -10e-7,-0.40819 0.07599,-0.68627 0.227966,-0.83423 0.151977,-0.14794 0.440001,-0.22191 0.864075,-0.22192 l 4.727783,0 c 0.184075,10e-6 0.322137,0.006 0.414184,0.0179 0.09203,0.012 0.197991,0.0501 0.317871,0.11426 0.216058,0.11183 0.32409,0.42372 0.324097,0.93567 -7e-6,0.56007 -0.148078,0.88807 -0.444214,0.98401 -0.135993,0.0481 -0.344,0.0721 -0.624023,0.0721 l -3.683716,0 0,1.21216 2.375977,0 c 0.183832,1e-5 0.321772,0.006 0.413818,0.0179 0.09203,0.012 0.198114,0.0499 0.318237,0.11389 0.215815,0.11206 0.323725,0.42407 0.323731,0.93603 -6e-6,0.56007 -0.151984,0.88807 -0.455933,0.98401 -0.135992,0.0479 -0.343999,0.0718 -0.624023,0.0718 l -2.351807,0 z"
             inkscape:connector-curvature="0"
             style="fill:#ffffff;fill-opacity:1" />
          <path
             id="path3084"
             d="m 82.389893,121.58125 0.216064,-0.15601 c 0.271966,-0.16015 0.463983,-0.24023 0.57605,-0.24023 0.24804,0 0.516106,0.224 0.804199,0.67199 0.176018,0.28004 0.26403,0.50403 0.264038,0.672 -8e-6,0.16797 -0.05402,0.30799 -0.162048,0.42005 -0.10804,0.11206 -0.234077,0.21209 -0.378113,0.30011 -0.14405,0.088 -0.28205,0.17199 -0.414001,0.25195 -0.131965,0.0799 -0.401984,0.18396 -0.810059,0.31201 -0.408087,0.12805 -0.802129,0.19208 -1.182129,0.19208 -0.380009,0 -0.763981,-0.05 -1.151916,-0.15015 -0.387943,-0.1001 -0.787906,-0.26813 -1.199891,-0.50409 -0.411989,-0.23596 -0.781984,-0.52392 -1.109985,-0.86389 -0.328004,-0.33996 -0.598023,-0.77594 -0.810059,-1.30792 -0.212036,-0.53198 -0.318054,-1.10998 -0.318054,-1.73401 0,-0.62402 0.104004,-1.19006 0.312012,-1.69812 0.208007,-0.50805 0.473998,-0.92803 0.797974,-1.25995 0.323972,-0.3319 0.693967,-0.60992 1.109985,-0.83405 0.784176,-0.43187 1.572261,-0.64781 2.364258,-0.64782 0.375971,1e-5 0.757929,0.058 1.145874,0.17395 0.387933,0.11597 0.681878,0.23389 0.881836,0.35376 l 0.288208,0.16809 c 0.144035,0.0881 0.255974,0.16016 0.335815,0.21606 0.208,0.16798 0.312004,0.35798 0.312012,0.57001 -8e-6,0.21204 -0.08399,0.43403 -0.251953,0.66595 -0.312019,0.43214 -0.592048,0.6482 -0.840088,0.6482 -0.143806,0 -0.347785,-0.088 -0.611939,-0.26404 -0.335943,-0.27197 -0.783941,-0.40795 -1.343994,-0.40796 -0.520024,1e-5 -1.031986,0.17994 -1.535888,0.5398 -0.239994,0.17603 -0.440006,0.42407 -0.600037,0.74414 -0.160037,0.32007 -0.240054,0.68207 -0.240051,1.086 -3e-6,0.40393 0.08001,0.76593 0.240051,1.08599 0.160031,0.32008 0.364072,0.57203 0.612122,0.75586 0.488033,0.35206 0.995967,0.52808 1.523803,0.52808 0.248042,0 0.482051,-0.032 0.702027,-0.096 0.219965,-0.064 0.377923,-0.12793 0.473877,-0.19189 z"
             inkscape:connector-curvature="0"
             style="fill:#ffffff;fill-opacity:1" />
          <path
             id="path3086"
             d="m 90.486084,115.41316 c 0.0642,-0.12011 0.172296,-0.20416 0.32428,-0.25214 0.151971,-0.048 0.343926,-0.0719 0.575866,-0.072 0.231927,10e-6 0.415948,0.02 0.552063,0.0601 0.136101,0.0401 0.240105,0.088 0.312012,0.14392 0.07189,0.0559 0.127861,0.13587 0.167908,0.23987 0.04003,0.13624 0.06005,0.34424 0.06006,0.62402 l 0,6.66028 c -7e-6,0.18384 -0.006,0.32178 -0.01794,0.41382 -0.01197,0.092 -0.04993,0.198 -0.113891,0.31787 -0.112069,0.21606 -0.42408,0.3241 -0.936036,0.3241 -0.560064,0 -0.888067,-0.14795 -0.984008,-0.44385 -0.0481,-0.13599 -0.07215,-0.344 -0.07214,-0.62403 l 0,-2.43603 -3.17981,0 0,2.44812 c -2e-6,0.18384 -0.006,0.32178 -0.01813,0.41382 -0.01209,0.092 -0.05011,0.198 -0.114075,0.31787 -0.112063,0.21606 -0.424074,0.3241 -0.936035,0.3241 -0.559815,0 -0.887818,-0.14795 -0.984009,-0.44385 -0.04785,-0.13599 -0.07178,-0.344 -0.07178,-0.62403 l 0,-6.65991 c 0,-0.18407 0.006,-0.32213 0.01794,-0.41418 0.01196,-0.092 0.04993,-0.19799 0.113892,-0.31787 0.11206,-0.21606 0.424071,-0.32409 0.936035,-0.3241 0.560057,1e-5 0.892088,0.14796 0.996094,0.44385 0.04004,0.13624 0.06006,0.34424 0.06006,0.62402 l 0,2.44812 3.17981,0 0,-2.45984 c -6e-6,-0.18407 0.006,-0.32213 0.01794,-0.41418 0.01196,-0.092 0.04992,-0.19799 0.113892,-0.31787 z"
             inkscape:connector-curvature="0"
             style="fill:#ffffff;fill-opacity:1" />
          <path
             id="path3088"
             d="m 97.56897,114.98103 c 1.184076,10e-6 2.21209,0.42798 3.08405,1.28393 0.87193,0.85597 1.30791,1.91798 1.30792,3.18604 -10e-6,1.26807 -0.41603,2.34808 -1.24805,3.24005 -0.832038,0.89197 -1.856023,1.33795 -3.07196,1.33795 -1.215946,0 -2.249941,-0.44 -3.10199,-1.32001 -0.852051,-0.88 -1.278076,-1.92791 -1.278076,-3.14373 0,-0.66406 0.119995,-1.28613 0.359986,-1.86621 0.239989,-0.58008 0.559996,-1.0661 0.960022,-1.45807 0.400022,-0.39196 0.860043,-0.69995 1.380065,-0.92395 0.520017,-0.22399 1.056027,-0.33599 1.608033,-0.336 z m -2.184082,4.52417 c -3e-6,0.71192 0.229978,1.28986 0.689941,1.73382 0.459957,0.44398 0.973995,0.66596 1.542114,0.66596 0.56811,0 1.080134,-0.216 1.536072,-0.64801 0.455926,-0.43201 0.683892,-1.01196 0.683899,-1.73987 -7e-6,-0.7279 -0.229987,-1.31188 -0.689941,-1.75195 -0.459967,-0.44006 -0.973944,-0.66009 -1.541931,-0.6601 -0.567998,10e-6 -1.080021,0.22199 -1.536072,0.66596 -0.456058,0.44397 -0.684085,1.02203 -0.684082,1.73419 z"
             inkscape:connector-curvature="0"
             style="fill:#ffffff;fill-opacity:1" />
          <path
             id="path3090"
             d="m 102.87756,122.64912 c -0.208,-0.2561 -0.31201,-0.48614 -0.31201,-0.69013 0,-0.20397 0.172,-0.47393 0.51599,-0.80987 0.19995,-0.19214 0.41193,-0.28821 0.63593,-0.28821 0.224,0 0.53607,0.20008 0.93622,0.60022 0.11205,0.13599 0.27209,0.26599 0.4801,0.39002 0.208,0.12402 0.3999,0.18603 0.57568,0.18603 0.74414,0 1.11621,-0.30407 1.11621,-0.91223 0,-0.18384 -0.10199,-0.33777 -0.30597,-0.46179 -0.20398,-0.12402 -0.45801,-0.21405 -0.76208,-0.27008 -0.30408,-0.056 -0.63208,-0.14606 -0.98401,-0.27008 -0.35193,-0.12402 -0.67993,-0.27002 -0.98401,-0.43799 -0.30408,-0.16797 -0.5581,-0.43396 -0.76208,-0.79798 -0.20398,-0.364 -0.30597,-0.80199 -0.30597,-1.31396 0,-0.7041 0.26202,-1.31811 0.78607,-1.84204 0.52405,-0.52392 1.2381,-0.78588 2.14215,-0.78589 0.47998,1e-5 0.91796,0.062 1.31397,0.18603 0.39599,0.12404 0.66991,0.25001 0.82177,0.37793 l 0.29993,0.22815 c 0.24804,0.23195 0.37206,0.42793 0.37207,0.58796 -1e-5,0.16004 -0.096,0.37995 -0.28784,0.65972 -0.27198,0.40016 -0.55201,0.60023 -0.84009,0.60022 -0.16797,1e-5 -0.37598,-0.0801 -0.62402,-0.24023 -0.0239,-0.0159 -0.0699,-0.0558 -0.13788,-0.11975 -0.068,-0.064 -0.13007,-0.11596 -0.18622,-0.15601 -0.16797,-0.10399 -0.38196,-0.156 -0.64197,-0.156 -0.26001,0 -0.47601,0.062 -0.64801,0.18603 -0.172,0.12403 -0.258,0.29603 -0.25799,0.51599 -1e-5,0.21998 0.10204,0.39796 0.30615,0.53394 0.2041,0.13599 0.45812,0.22797 0.76208,0.27594 0.30395,0.048 0.63592,0.12195 0.99591,0.22192 0.35998,0.1 0.69195,0.22199 0.99591,0.36603 0.30395,0.14405 0.55798,0.39405 0.76209,0.75 0.20409,0.35596 0.30615,0.79395 0.30615,1.31397 0,0.52002 -0.10401,0.97802 -0.31201,1.37402 -0.20801,0.396 -0.48011,0.70203 -0.81628,0.91809 -0.64796,0.42407 -1.33997,0.63611 -2.07605,0.63611 -0.37598,0 -0.73194,-0.046 -1.06787,-0.13806 -0.33594,-0.092 -0.60792,-0.20606 -0.81592,-0.34204 -0.42408,-0.25611 -0.7201,-0.50415 -0.88806,-0.74415 z"
             inkscape:connector-curvature="0"
             style="fill:#ffffff;fill-opacity:1" />
          <path
             id="path3092"
             d="m 113.84485,115.07698 2.21997,0.0121 c 1.16015,1e-5 2.18017,0.41804 3.06006,1.25409 0.87987,0.83607 1.31981,1.86408 1.31982,3.08404 -1e-5,1.21998 -0.43,2.26594 -1.28998,3.13788 -0.85999,0.87195 -1.90192,1.30793 -3.12579,1.30793 l -2.19617,0 c -0.48803,0 -0.79199,-0.1 -0.91186,-0.29993 -0.096,-0.16797 -0.14392,-0.42395 -0.14392,-0.76795 l 0,-6.67199 c 0,-0.19213 0.006,-0.33215 0.0179,-0.42005 0.012,-0.0879 0.0499,-0.19188 0.11389,-0.31201 0.11206,-0.21605 0.42407,-0.32409 0.93604,-0.32409 z m 2.21997,6.67199 c 0.57592,0 1.09594,-0.21398 1.56006,-0.64197 0.4641,-0.42797 0.69616,-0.96593 0.69616,-1.61389 0,-0.64794 -0.22601,-1.18993 -0.67803,-1.62597 -0.45204,-0.43603 -0.98213,-0.65405 -1.59028,-0.65406 l -1.15173,0 0,4.53589 1.16382,0 z"
             inkscape:connector-curvature="0"
             style="fill:#ffffff;fill-opacity:1" />
          <path
             id="path3094"
             d="m 123.3385,121.76106 3.6958,0 c 0.18408,0 0.32214,0.006 0.41419,0.0179 0.092,0.012 0.19799,0.05 0.31787,0.11426 0.21605,0.11182 0.32409,0.42371 0.32409,0.93567 0,0.56006 -0.14807,0.88806 -0.44421,0.98401 -0.13599,0.0481 -0.344,0.0721 -0.62402,0.0721 l -4.75196,0 c -0.55981,0 -0.88781,-0.15198 -0.98401,-0.45593 -0.0478,-0.12793 -0.0718,-0.33191 -0.0718,-0.61194 l 0,-6.672 c 0,-0.40819 0.076,-0.68627 0.22796,-0.83423 0.15198,-0.14794 0.44001,-0.22191 0.86408,-0.22192 l 4.72778,0 c 0.18408,10e-6 0.32214,0.006 0.41419,0.0179 0.092,0.012 0.19799,0.0501 0.31787,0.11426 0.21605,0.11183 0.32409,0.42372 0.32409,0.93567 0,0.56007 -0.14807,0.88807 -0.44421,0.98401 -0.13599,0.0481 -0.344,0.0721 -0.62402,0.0721 l -3.68372,0 0,1.21216 2.37598,0 c 0.18383,1e-5 0.32177,0.006 0.41382,0.0179 0.092,0.012 0.19811,0.0499 0.31823,0.11389 0.21582,0.11206 0.32373,0.42407 0.32373,0.93603 0,0.56007 -0.15198,0.88807 -0.45593,0.98401 -0.13599,0.0479 -0.344,0.0718 -0.62402,0.0718 l -2.35181,0 z"
             inkscape:connector-curvature="0"
             style="fill:#ffffff;fill-opacity:1" />
          <path
             id="path3096"
             d="m 138.41724,116.86518 c 0.208,0.42384 0.312,0.89576 0.31201,1.41577 -1e-5,0.52003 -0.10401,0.99006 -0.31201,1.4101 -0.20802,0.42005 -0.47596,0.75409 -0.80384,1.00214 -0.66406,0.51196 -1.35205,0.76794 -2.06396,0.76794 l -1.5,0 0,1.35608 c 0,0.18384 -0.006,0.32178 -0.0181,0.41382 -0.0121,0.092 -0.0501,0.198 -0.11407,0.31787 -0.11207,0.21606 -0.42408,0.3241 -0.93604,0.3241 -0.55981,0 -0.88782,-0.14795 -0.98401,-0.44385 -0.0478,-0.13599 -0.0718,-0.344 -0.0718,-0.62403 l 0,-6.65991 c -1e-5,-0.18407 0.006,-0.32213 0.0179,-0.41418 0.012,-0.092 0.0499,-0.19799 0.11389,-0.31787 0.11206,-0.21606 0.42407,-0.32409 0.93604,-0.3241 l 2.56787,0 c 0.70409,1e-5 1.38818,0.25599 2.05224,0.76794 0.32788,0.24806 0.59582,0.58412 0.80384,1.00818 z m -2.85608,2.47193 c 0.23998,0 0.47601,-0.088 0.70807,-0.26404 0.23205,-0.17602 0.34807,-0.44 0.34808,-0.79193 -1e-5,-0.35192 -0.11603,-0.61792 -0.34808,-0.79798 -0.23206,-0.18004 -0.47199,-0.27007 -0.71979,-0.27008 l -1.5,0 0,2.12403 1.51172,0 z"
             inkscape:connector-curvature="0"
             style="fill:#ffffff;fill-opacity:1" />
          <path
             id="path3098"
             d="m 146.25122,122.39717 c 0.11987,0.28784 0.1798,0.49585 0.17981,0.62402 -1e-5,0.30395 -0.24805,0.55994 -0.74414,0.76794 -0.25587,0.11206 -0.4618,0.16809 -0.6178,0.16809 -0.15601,0 -0.284,-0.038 -0.38397,-0.11407 -0.1,-0.076 -0.17402,-0.15411 -0.22211,-0.23419 -0.0801,-0.15186 -0.39209,-0.87586 -0.93603,-2.172 l -0.37207,0.0242 -1.51172,0 0,1.35608 c 0,0.18384 -0.006,0.32178 -0.0181,0.41382 -0.0121,0.092 -0.0501,0.198 -0.11407,0.31787 -0.11207,0.21606 -0.42408,0.3241 -0.93604,0.3241 -0.55981,0 -0.88782,-0.14795 -0.98401,-0.44385 -0.0478,-0.13599 -0.0718,-0.344 -0.0718,-0.62403 l 0,-6.65991 c -1e-5,-0.18407 0.006,-0.32213 0.0179,-0.41418 0.012,-0.092 0.0499,-0.19799 0.11389,-0.31787 0.11206,-0.21606 0.42407,-0.32409 0.93604,-0.3241 l 2.59204,0 c 0.70409,1e-5 1.38805,0.25599 2.05188,0.76794 0.32006,0.24806 0.5841,0.58406 0.79211,1.008 0.208,0.42396 0.31201,0.89594 0.31201,1.41595 0,0.90406 -0.30005,1.64808 -0.90014,2.23206 0.17602,0.42408 0.44811,1.05213 0.81628,1.88416 z m -4.60803,-3.06006 1.53589,0 c 0.23193,0 0.46392,-0.088 0.69598,-0.26404 0.23205,-0.17602 0.34808,-0.44 0.34808,-0.79193 0,-0.35192 -0.11603,-0.61792 -0.34808,-0.79798 -0.23206,-0.18004 -0.47211,-0.27007 -0.72015,-0.27008 l -1.51172,0 z"
             inkscape:connector-curvature="0"
             style="fill:#ffffff;fill-opacity:1" />
          <path
             id="path3100"
             d="m 151.21741,114.98103 c 1.18407,10e-6 2.21209,0.42798 3.08404,1.28393 0.87194,0.85597 1.30792,1.91798 1.30792,3.18604 0,1.26807 -0.41602,2.34808 -1.24804,3.24005 -0.83204,0.89197 -1.85603,1.33795 -3.07196,1.33795 -1.21595,0 -2.24994,-0.44 -3.10199,-1.32001 -0.85205,-0.88 -1.27808,-1.92791 -1.27808,-3.14373 0,-0.66406 0.12,-1.28613 0.35999,-1.86621 0.23999,-0.58008 0.55999,-1.0661 0.96002,-1.45807 0.40002,-0.39196 0.86004,-0.69995 1.38006,-0.92395 0.52002,-0.22399 1.05603,-0.33599 1.60804,-0.336 z m -2.18408,4.52417 c -1e-5,0.71192 0.22997,1.28986 0.68994,1.73382 0.45995,0.44398 0.97399,0.66596 1.54211,0.66596 0.56811,0 1.08013,-0.216 1.53607,-0.64801 0.45593,-0.43201 0.68389,-1.01196 0.6839,-1.73987 -1e-5,-0.7279 -0.22999,-1.31188 -0.68994,-1.75195 -0.45997,-0.44006 -0.97394,-0.66009 -1.54193,-0.6601 -0.568,10e-6 -1.08002,0.22199 -1.53607,0.66596 -0.45606,0.44397 -0.68409,1.02203 -0.68408,1.73419 z"
             inkscape:connector-curvature="0"
             style="fill:#ffffff;fill-opacity:1" />
          <path
             id="path3102"
             d="m 162.88599,116.86518 c 0.208,0.42384 0.312,0.89576 0.31201,1.41577 -1e-5,0.52003 -0.10401,0.99006 -0.31201,1.4101 -0.20802,0.42005 -0.47596,0.75409 -0.80384,1.00214 -0.66406,0.51196 -1.35205,0.76794 -2.06396,0.76794 l -1.5,0 0,1.35608 c 0,0.18384 -0.006,0.32178 -0.0181,0.41382 -0.0121,0.092 -0.0501,0.198 -0.11407,0.31787 -0.11207,0.21606 -0.42408,0.3241 -0.93604,0.3241 -0.55981,0 -0.88782,-0.14795 -0.98401,-0.44385 -0.0478,-0.13599 -0.0718,-0.344 -0.0718,-0.62403 l 0,-6.65991 c -1e-5,-0.18407 0.006,-0.32213 0.0179,-0.41418 0.012,-0.092 0.0499,-0.19799 0.11389,-0.31787 0.11206,-0.21606 0.42407,-0.32409 0.93604,-0.3241 l 2.56787,0 c 0.70409,1e-5 1.38818,0.25599 2.05224,0.76794 0.32788,0.24806 0.59582,0.58412 0.80384,1.00818 z m -2.85608,2.47193 c 0.23998,0 0.47601,-0.088 0.70807,-0.26404 0.23205,-0.17602 0.34807,-0.44 0.34808,-0.79193 -1e-5,-0.35192 -0.11603,-0.61792 -0.34808,-0.79798 -0.23206,-0.18004 -0.47199,-0.27007 -0.71979,-0.27008 l -1.5,0 0,2.12403 1.51172,0 z"
             inkscape:connector-curvature="0"
             style="fill:#ffffff;fill-opacity:1" />
          <path
             id="path3104"
             d="m 163.98792,116.14521 c -1e-5,-0.18407 0.006,-0.32213 0.0179,-0.41418 0.012,-0.092 0.0499,-0.19799 0.11389,-0.31787 0.11206,-0.21606 0.42407,-0.32409 0.93604,-0.3241 0.56005,1e-5 0.89208,0.14796 0.99609,0.44385 0.04,0.13624 0.0601,0.34424 0.0601,0.62402 l 0,6.672 c 0,0.19214 -0.006,0.33221 -0.0181,0.42023 -0.0121,0.088 -0.0501,0.19195 -0.11407,0.31182 -0.11207,0.21607 -0.42408,0.3241 -0.93604,0.3241 -0.55981,0 -0.88782,-0.15198 -0.98401,-0.45593 -0.0478,-0.12793 -0.0718,-0.33191 -0.0718,-0.61194 z"
             inkscape:connector-curvature="0"
             style="fill:#ffffff;fill-opacity:1" />
          <path
             id="path3106"
             d="m 169.20569,121.76106 3.6958,0 c 0.18407,0 0.32214,0.006 0.41418,0.0179 0.092,0.012 0.19799,0.05 0.31787,0.11426 0.21606,0.11182 0.32409,0.42371 0.3241,0.93567 -1e-5,0.56006 -0.14808,0.88806 -0.44421,0.98401 -0.136,0.0481 -0.344,0.0721 -0.62403,0.0721 l -4.75195,0 c -0.55981,0 -0.88782,-0.15198 -0.98401,-0.45593 -0.0478,-0.12793 -0.0718,-0.33191 -0.0718,-0.61194 l 0,-6.672 c -1e-5,-0.40819 0.076,-0.68627 0.22796,-0.83423 0.15198,-0.14794 0.44,-0.22191 0.86408,-0.22192 l 4.72778,0 c 0.18407,10e-6 0.32214,0.006 0.41418,0.0179 0.092,0.012 0.19799,0.0501 0.31787,0.11426 0.21606,0.11183 0.32409,0.42372 0.3241,0.93567 -10e-6,0.56007 -0.14808,0.88807 -0.44421,0.98401 -0.136,0.0481 -0.344,0.0721 -0.62403,0.0721 l -3.68371,0 0,1.21216 2.37598,0 c 0.18383,1e-5 0.32177,0.006 0.41381,0.0179 0.092,0.012 0.19812,0.0499 0.31824,0.11389 0.21582,0.11206 0.32373,0.42407 0.32373,0.93603 0,0.56007 -0.15198,0.88807 -0.45593,0.98401 -0.13599,0.0479 -0.344,0.0718 -0.62402,0.0718 l -2.35181,0 z"
             inkscape:connector-curvature="0"
             style="fill:#ffffff;fill-opacity:1" />
          <path
             id="path3108"
             d="m 175.8136,115.07698 2.21997,0.0121 c 1.16015,1e-5 2.18017,0.41804 3.06006,1.25409 0.87987,0.83607 1.31981,1.86408 1.31982,3.08404 -1e-5,1.21998 -0.43,2.26594 -1.28998,3.13788 -0.85999,0.87195 -1.90192,1.30793 -3.12579,1.30793 l -2.19617,0 c -0.48803,0 -0.79199,-0.1 -0.91186,-0.29993 -0.0959,-0.16797 -0.14392,-0.42395 -0.14392,-0.76795 l 0,-6.67199 c 0,-0.19213 0.006,-0.33215 0.0179,-0.42005 0.012,-0.0879 0.0499,-0.19188 0.11389,-0.31201 0.11206,-0.21605 0.42407,-0.32409 0.93604,-0.32409 z m 2.21997,6.67199 c 0.57592,0 1.09594,-0.21398 1.56006,-0.64197 0.4641,-0.42797 0.69616,-0.96593 0.69616,-1.61389 0,-0.64794 -0.22601,-1.18993 -0.67803,-1.62597 -0.45204,-0.43603 -0.98213,-0.65405 -1.59028,-0.65406 l -1.15173,0 0,4.53589 1.16382,0 z"
             inkscape:connector-curvature="0"
             style="fill:#ffffff;fill-opacity:1" />
          <path
             id="path3110"
             d="m 188.25928,115.71308 3.23987,6.69617 c 0.13597,0.27197 0.20397,0.47595 0.20397,0.61194 0,0.28784 -0.23206,0.54785 -0.69616,0.78003 -0.27198,0.13598 -0.48597,0.20398 -0.64197,0.20398 -0.15601,0 -0.284,-0.036 -0.38397,-0.10803 -0.1,-0.072 -0.17195,-0.14808 -0.21588,-0.22815 -0.044,-0.0801 -0.10597,-0.20008 -0.18604,-0.35999 l -0.62402,-1.29602 -3.3241,0 -0.62402,1.29602 c -0.0798,0.15991 -0.14179,0.27588 -0.18585,0.3479 -0.0441,0.072 -0.11609,0.14606 -0.21607,0.22211 -0.1,0.076 -0.22797,0.11407 -0.38397,0.11407 -0.15601,0 -0.37,-0.068 -0.64197,-0.20398 -0.46387,-0.22412 -0.6958,-0.4801 -0.6958,-0.76794 0,-0.13599 0.068,-0.33997 0.20398,-0.61194 l 3.23987,-6.70825 c 0.0879,-0.18383 0.22186,-0.33178 0.40191,-0.44385 0.18005,-0.11205 0.37006,-0.16808 0.57001,-0.16809 0.43213,1e-5 0.75219,0.20802 0.96021,0.62402 z m -0.97229,2.87989 -0.79175,1.64428 1.59595,0 z"
             inkscape:connector-curvature="0"
             style="fill:#ffffff;fill-opacity:1" />
          <path
             id="path3112"
             d="m 193.4386,115.07698 2.21997,0.0121 c 1.16015,1e-5 2.18017,0.41804 3.06006,1.25409 0.87987,0.83607 1.31981,1.86408 1.31982,3.08404 -1e-5,1.21998 -0.43,2.26594 -1.28998,3.13788 -0.85999,0.87195 -1.90192,1.30793 -3.12579,1.30793 l -2.19617,0 c -0.48803,0 -0.79199,-0.1 -0.91186,-0.29993 -0.0959,-0.16797 -0.14392,-0.42395 -0.14392,-0.76795 l 0,-6.67199 c 0,-0.19213 0.006,-0.33215 0.0179,-0.42005 0.012,-0.0879 0.0499,-0.19188 0.11389,-0.31201 0.11206,-0.21605 0.42407,-0.32409 0.93604,-0.32409 z m 2.21997,6.67199 c 0.57592,0 1.09594,-0.21398 1.56006,-0.64197 0.4641,-0.42797 0.69616,-0.96593 0.69616,-1.61389 0,-0.64794 -0.22601,-1.18993 -0.67803,-1.62597 -0.45204,-0.43603 -0.98213,-0.65405 -1.59028,-0.65406 l -1.15173,0 0,4.53589 1.16382,0 z"
             inkscape:connector-curvature="0"
             style="fill:#ffffff;fill-opacity:1" />
        </g>
      </g>
    </g>
  </g>
</svg>
