<?xml version="1.0" standalone="no"?>
<!DOCTYPE svg PUBLIC "-//W3C//DTD SVG 1.1//EN" "http://www.w3.org/Graphics/SVG/1.1/DTD/svg11.dtd" >
<svg>
<metadata>
Created by FontForge 20090914 at Wed Jul 16 19:12:34 2014
 By www-data
Copyright (c) 2012 by Kimberly Geswein. All rights reserved.
</metadata>
<defs>
<font id="SetFiretotheRain" horiz-adv-x="470" >
  <font-face 
    font-family="Set Fire to the Rain"
    font-weight="400"
    font-stretch="normal"
    units-per-em="1024"
    panose-1="2 0 5 6 0 0 0 2 0 4"
    ascent="819"
    descent="-205"
    x-height="556.502"
    cap-height="761.999"
    bbox="-151.995 -423.483 1069.94 966.145"
    underline-thickness="0"
    underline-position="0"
    unicode-range="U+0020-U+2665"
  />
<missing-glyph horiz-adv-x="991" 
 />
    <glyph glyph-name=".notdef" horiz-adv-x="991" 
 />
    <glyph glyph-name="space" unicode=" " horiz-adv-x="512" 
 />
    <glyph glyph-name="exclam" unicode="!" horiz-adv-x="210" 
d="M99 3c-14.667 10.667 -22.168 22.5 -22.501 35.5s3.33398 24.5 11.001 34.5s17.5 17.333 29.5 22s23 4 33 -2c18 -14 27.667 -28 29 -42s-2 -25.833 -10 -35.5s-18.833 -16 -32.5 -19s-26.167 -0.833008 -37.5 6.5zM56.999 697c-2.66699 16 1.66602 29.166 12.999 39.499
s24 16 38 17s26.833 -3.33301 38.5 -13s16.5 -26.167 14.5 -49.5l8 -399c-2 -16 -7 -28 -15 -36s-17.167 -11.667 -27.5 -11s-20.666 5.33398 -30.999 14.001s-18.5 21.667 -24.5 39z" />
    <glyph glyph-name="quotedbl" unicode="&#x22;" horiz-adv-x="295" 
d="M118 416c2 -10.667 0 -20.6689 -6 -30.002s-13.833 -16.5 -23.5 -21.5s-20 -7 -31 -6s-20.5 6.16699 -28.5 15.5c-5.33301 44.667 -7.5 81.834 -6.5 111.501s4 53.334 9 71.001s11.333 30 19 37s15.667 10.167 24 9.5s16.333 -4.16699 24 -10.5
s14.167 -13.833 19.5 -22.5c0 -6 0.166992 -16.167 0.5 -30.5s0.5 -29.833 0.5 -46.5s-0.166992 -32.167 -0.5 -46.5s-0.5 -24.5 -0.5 -30.5zM256 418.998c2 -10.667 0 -20.6689 -6 -30.002s-13.833 -16.5 -23.5 -21.5s-20 -7 -31 -6s-20.5 6.16699 -28.5 15.5
c-5.33301 44.667 -7.5 81.834 -6.5 111.501s4 53.334 9 71.001s11.333 30 19 37s15.667 10.167 24 9.5s16.333 -4.16699 24 -10.5s14.167 -13.833 19.5 -22.5c0 -6 0.166992 -16.167 0.5 -30.5s0.5 -29.833 0.5 -46.5s-0.166992 -32.167 -0.5 -46.5s-0.5 -24.5 -0.5 -30.5z
" />
    <glyph glyph-name="numbersign" unicode="#" horiz-adv-x="901" 
d="M606 27c-4 16 -6.3291 32.3359 -6.99609 49.0029s-1.83398 31.667 -3.50098 45s-4.83398 24.166 -9.50098 32.499s-12.667 12.833 -24 13.5c-4.66699 -0.666992 -12.667 -2 -24 -4s-23.166 -4.33301 -35.499 -7l-35.5 -8c-11.333 -2.66699 -19.333 -4.33398 -24 -5.00098
c-1.33301 0 -0.666016 -5.33301 2.00098 -16s5.66699 -23.5 9 -38.5s5.83301 -30.667 7.5 -47s0.666992 -30.333 -3 -42s-10.834 -19.334 -21.501 -23.001s-27 -0.5 -49 9.5c-0.666992 0.666992 -2.66699 7.5 -6 20.5l-10.5 42.5l-10.5 42.5c-3.33301 13 -5 20.167 -5 21.5
l-187 -34c-14.667 0 -25.334 5.5 -32.001 16.5s-10 23.333 -10 37s3.66699 26 11 37s17.666 16.5 30.999 16.5l145 38l-23 162l-168 -45c-7.33301 -2 -15.333 -1.16699 -24 2.5s-16 9 -22 16s-10.333 15.333 -13 25s-2 19.167 2 28.5s12.333 18 25 26s31 14.333 55 19
c12.667 3.33301 24 6.16602 34 8.49902l29.5 7c9.66699 2.33301 19.334 5 29.001 8s21.167 6.83301 34.5 11.5c2.66699 26 2.16699 49.833 -1.5 71.5s-7.16699 45.167 -10.5 70.5c-2.66699 20.667 0.333008 38.834 9 54.501s18.667 27.5 30 35.5s22.166 10.833 32.499 8.5
s16.166 -11.166 17.499 -26.499l18 -203c1.33301 -1.33301 5.5 -1.5 12.5 -0.5s15.667 2.33301 26 4s21.333 3.83398 33 6.50098l32 7.5l25 6c7 1.66699 10.833 2.5 11.5 2.5c-1.33301 6 -3.16602 18.333 -5.49902 37s-4.16602 39.167 -5.49902 61.5s-1.33301 44.333 0 66
s5 38.667 11 51s15 17.666 27 15.999s28.333 -14.5 49 -38.5l26 -170l217 64c20.667 -1.33301 33.5 -7.33301 38.5 -18s5.33301 -22.167 1 -34.5s-11.333 -24 -21 -35s-18.5 -17.167 -26.5 -18.5l-172 -47l22 -166l164 41c15.333 4 27.333 2.83301 36 -3.5
s13.667 -14.5 15 -24.5s-1.16699 -20.5 -7.5 -31.5s-16.5 -19.5 -30.5 -25.5c-4.66699 -1.33301 -15.667 -5.16602 -33 -11.499l-56 -20l-56 -20c-17.333 -6.33301 -28 -10.166 -32 -11.499c0 -2.66699 1.33301 -8.83398 4 -18.501s5.16699 -20.834 7.5 -33.501
s3.66602 -25.834 3.99902 -39.501s-1.83398 -26 -6.50098 -37s-12.667 -20 -24 -27s-27.333 -9.83301 -48 -8.5zM380.004 398.003l3.49902 -32.001c1.66699 -15.333 3.83398 -31.666 6.50098 -48.999s5.66699 -33.5 9 -48.5s7 -25.167 11 -30.5
c9.33301 -1.33301 21.5 -1 36.5 1s30.167 4.66699 45.5 8s29.833 6.83301 43.5 10.5s23.5 6.16699 29.5 7.5l-33 166c-4 -0.666992 -13.5 -2.66699 -28.5 -6l-47.5 -10.5l-47.5 -10.5c-15 -3.33301 -24.5 -5.33301 -28.5 -6z" />
    <glyph glyph-name="dollar" unicode="$" horiz-adv-x="453" 
d="M281 -92c-10.667 -26.667 -23.168 -41.8398 -37.501 -45.5068s-27.5 9.5 -39.5 39.5l-24 130c-44 18.667 -78.167 38.834 -102.5 60.501s-40.5 41.667 -48.5 60s-8.5 33.833 -1.5 46.5s19.833 19.667 38.5 21l117 -89l-34 242c-18.667 8.66699 -34.5 21.834 -47.5 39.501
s-23 37.334 -30 59.001s-11 44 -12 67s1 44.5 6 64.5s12.833 37 23.5 51s24.667 23 42 27v96c0 8.66699 2.83301 14.667 8.5 18s12.167 4.83301 19.5 4.5s14.5 -2.16602 21.5 -5.49902s12.167 -7.33301 15.5 -12l10 -91c26 0 50.5 -4 73.5 -12s43.5 -18.167 61.5 -30.5
s32.833 -26.333 44.5 -42s19.167 -31.5 22.5 -47.5s1.83301 -31.5 -4.5 -46.5s-18.833 -27.833 -37.5 -38.5c-3.33301 8.66699 -7.16602 19.834 -11.499 33.501s-11.5 27.334 -21.5 41.001s-23.833 25.667 -41.5 36s-41.5 16.833 -71.5 19.5
c-2 -9.33301 -2.33301 -21.333 -1 -36s3.5 -30.334 6.5 -47.001l9.5 -50.5c3.33301 -17 6 -32.5 8 -46.5c51.333 -36.667 92 -71.5 122 -104.5s51.167 -63.833 63.5 -92.5s17 -55.167 14 -79.5s-12 -46.166 -27 -65.499s-34.667 -36.166 -59 -50.499
s-51.5 -25.833 -81.5 -34.5zM253.999 107.994c32 0 55.3311 4.16797 69.998 12.501s23.334 19.166 26.001 32.499s0.333984 28.333 -6.99902 45s-17.333 32.834 -30 48.501s-26.5 30.167 -41.5 43.5s-29.167 23.666 -42.5 30.999zM140.997 592.995
c-10 -2.66699 -16.833 -10.6699 -20.5 -24.0029s-5 -27.166 -4 -41.499s4.16699 -26.666 9.5 -36.999s12 -13.5 20 -9.5c0.666992 4.66699 1 12.334 1 23.001s-0.333008 22 -1 34s-1.5 23.333 -2.5 34s-1.83301 17.667 -2.5 21z" />
    <glyph glyph-name="percent" unicode="%" horiz-adv-x="579" 
d="M377 726c3.33301 14 9.5 23.334 18.5 28.001s18 5.66699 27 3s16.5 -8.66699 22.5 -18s7 -21 3 -35c-34 -119.333 -61.833 -220.5 -83.5 -303.5l-53.5 -205.5c-14 -54 -25.5 -95.667 -34.5 -125s-17.833 -50 -26.5 -62s-18.667 -17.333 -30 -16
s-26.333 5.66602 -45 12.999zM365 37.001c-13.333 8.66699 -21.8291 23.8359 -25.4961 45.5029s-3.33398 45.167 0.999023 70.5s12 50.666 23 75.999s24.667 46.166 41 62.499s34.666 26.166 54.999 29.499s42.166 -4.33398 65.499 -23.001c20 -16 33.167 -35.667 39.5 -59
s7.33301 -47.166 3 -71.499s-13 -47.666 -26 -69.999s-28.667 -40.5 -47 -54.5s-38.833 -22.333 -61.5 -25s-45.334 3.66602 -68.001 18.999zM472.004 201.003c-8 6.66699 -14.999 7.66406 -20.999 2.99707s-10.5 -11.667 -13.5 -21s-4.33301 -19 -4 -29
s3.16602 -16.667 8.49902 -20c7.33301 -5.33301 14.166 -5.66602 20.499 -0.999023s11 11.334 14 20.001s4.33301 17.834 4 27.501s-3.16602 16.5 -8.49902 20.5zM169.005 400c-31.333 -6 -57 -4 -77 6s-34.667 24.5 -44 43.5s-13.833 40.667 -13.5 65s5 47.833 14 70.5
s22.333 42.667 40 60s38.834 28.666 63.501 33.999c-2 4.66699 -3.83301 10.334 -5.5 17.001s-2.33398 13.334 -2.00098 20.001s1.5 13 3.5 19s5.33301 11 10 15c12.667 10 25.167 13.167 37.5 9.5s23.833 -12 34.5 -25s20 -29.5 28 -49.5s13.833 -41.5 17.5 -64.5
s4.83398 -46.5 3.50098 -70.5s-6 -46.333 -14 -67s-19.833 -38.334 -35.5 -53.001s-35.834 -24.667 -60.501 -30zM175.005 596c-9.33301 -2 -18.332 -6.99805 -26.999 -14.998s-15.834 -17.167 -21.501 -27.5s-8.66699 -20.833 -9 -31.5s3.16699 -19.667 10.5 -27
c12 -2.66699 21.833 -1.83398 29.5 2.49902s13.667 10.5 18 18.5s7.33301 16.833 9 26.5s2.16699 18.667 1.5 27s-2 15.166 -4 20.499s-4.33301 7.33301 -7 6z" />
    <glyph glyph-name="ampersand" unicode="&#x26;" horiz-adv-x="530" 
d="M92 18c-27.333 12 -45.832 26.1699 -55.499 42.5029s-13.834 34 -12.501 53s7 38.667 17 59s21.333 40.5 34 60.5l37.5 58.5c12.333 19 21.5 36.5 27.5 52.5c-42.667 46 -70 89.833 -82 131.5s-13.667 79.5 -5 113.5s25 63.5 49 88.5s50.5 44 79.5 57s58 19.167 87 18.5
s53 -9.5 72 -26.5s30.333 -43.167 34 -78.5s-5.5 -81 -27.5 -137l-95 -155c2.66699 -5.33301 9.33398 -13.333 20.001 -24s22.5 -21.834 35.5 -33.501s26 -22.667 39 -33s23.167 -17.5 30.5 -21.5c7.33301 3.33301 12.666 9.83301 15.999 19.5s6 20.667 8 33
s3.83301 24.833 5.5 37.5s4.16699 23.5 7.5 32.5s8 15.333 14 19s14.333 2.5 25 -3.5c9.33301 -2 15.5 -8 18.5 -18s4.16699 -22 3.5 -36s-2.33398 -29 -5.00098 -45s-5.5 -31.167 -8.5 -45.5s-5.5 -27 -7.5 -38s-2 -18.167 0 -21.5l67 -80c4 -9.33301 4 -17.5 0 -24.5
s-9.5 -12.833 -16.5 -17.5s-14 -7.83398 -21 -9.50098s-11.5 -1.83398 -13.5 -0.500977c-1.33301 1.33301 -4.16602 5 -8.49902 11s-9.33301 12.333 -15 19s-11.5 13 -17.5 19s-11.333 10 -16 12c-2.66699 1.33301 -9 -1.66699 -19 -9l-38 -27
c-15.333 -10.667 -33 -21.667 -53 -33s-41.333 -20.5 -64 -27.5s-46.5 -10.5 -71.5 -10.5s-50.167 6 -75.5 18zM199.001 297.003c-36.667 -43.333 -62.501 -80.498 -77.501 -111.498s-21.667 -55.833 -20 -74.5s10.334 -31.334 26.001 -38.001s35.5 -7.66699 59.5 -3
s51 14.667 81 30s60 35.666 90 60.999l-79.5 64.5c-25.667 21.667 -52.167 45.5 -79.5 71.5zM169 451.005c2 -2.66699 6.83008 -7.83398 14.4971 -15.501s12.834 -12.5 15.501 -14.5c41.333 43.333 69.833 80.5 85.5 111.5s22.834 56.333 21.501 76s-9 33.834 -23 42.501
s-30.167 12.5 -48.5 11.5s-36.666 -6.5 -54.999 -16.5s-32.333 -24.167 -42 -42.5s-13 -40.333 -10 -66s16.833 -54.5 41.5 -86.5z" />
    <glyph glyph-name="quotesingle" unicode="'" horiz-adv-x="143" 
d="M118 416c2 -10.667 0 -20.6689 -6 -30.002s-13.833 -16.5 -23.5 -21.5s-20 -7 -31 -6s-20.5 6.16699 -28.5 15.5c-5.33301 44.667 -7.5 81.834 -6.5 111.501s4 53.334 9 71.001s11.333 30 19 37s15.667 10.167 24 9.5s16.333 -4.16699 24 -10.5
s14.167 -13.833 19.5 -22.5c0 -6 0.166992 -16.167 0.5 -30.5s0.5 -29.833 0.5 -46.5s-0.166992 -32.167 -0.5 -46.5s-0.5 -24.5 -0.5 -30.5z" />
    <glyph glyph-name="parenleft" unicode="(" horiz-adv-x="248" 
d="M144 -40c-51.333 56 -88.332 119 -110.999 189s-32.667 141.5 -30 214.5s17.167 145 43.5 216s62.833 135.5 109.5 193.5c16 16 30.5 25 43.5 27s23.333 0.833008 31 -3.5s11.5 -10.333 11.5 -18s-5 -13.167 -15 -16.5c-38 -48 -68.167 -97.833 -90.5 -149.5
s-38.333 -103 -48 -154s-13.667 -100.5 -12 -148.5s7.66699 -92 18 -132s24.166 -75.167 41.499 -105.5s37 -53.5 59 -69.5c5.33301 -7.33301 7.33301 -15 6 -23s-4.66602 -14.5 -9.99902 -19.5s-12.333 -7.83301 -21 -8.5s-17.334 2 -26.001 8z" />
    <glyph glyph-name="parenright" unicode=")" horiz-adv-x="265" 
d="M102 -51c-8.66699 -6 -17.334 -8.66699 -26.001 -8s-15.667 3.5 -21 8.5s-8.66602 11.5 -9.99902 19.5s0.666992 15.667 6 23c21.333 16 40.833 39.167 58.5 69.5s31.667 65.5 42 105.5s16.333 84 18 132s-2.33301 97.5 -12 148.5s-25.667 102.333 -48 154
s-52.5 101.5 -90.5 149.5c-10 3.33301 -15 8.83301 -15 16.5s3.83301 13.667 11.5 18s18 5.5 31 3.5s27.5 -11 43.5 -27c46.667 -58 83.167 -122.5 109.5 -193.5s40.833 -143 43.5 -216s-7.33301 -144.5 -30 -214.5s-59.667 -133 -111 -189z" />
    <glyph glyph-name="asterisk" unicode="*" horiz-adv-x="480" 
d="M347 314c-0.666992 -43.333 -3.16797 -75.999 -7.50098 -97.999s-10 -36.5 -17 -43.5s-14.833 -7.83301 -23.5 -2.5s-18.167 13.833 -28.5 25.5s-20.833 25.167 -31.5 40.5s-21 29.333 -31 42c-11.333 -2 -23.833 -4.5 -37.5 -7.5s-27.167 -4.83301 -40.5 -5.5
s-26.166 0.5 -38.499 3.5s-22.833 10.167 -31.5 21.5c-9.33301 11.333 -10.5 21.833 -3.5 31.5s16.5 19 28.5 28s23.667 18.333 35 28s17 20.167 17 31.5c-18.667 20 -31.167 36.833 -37.5 50.5s-8.16602 24.167 -5.49902 31.5s8.83398 12.166 18.501 14.499s21 2.5 34 0.5
s26.5 -5.66699 40.5 -11s26.667 -11.666 38 -18.999c8.66699 -6 17.167 -4.83301 25.5 3.5s16.833 18.666 25.5 30.999s18 23.666 28 33.999s21.333 14.5 34 12.5c4 -0.666992 8.5 -2.16699 13.5 -4.5s8.66699 -7.5 11 -15.5s2.66602 -20.167 0.999023 -36.5
s-7.16699 -39.166 -16.5 -68.499c12 -2 26.167 -6 42.5 -12s30.166 -13.667 41.499 -23s17.833 -20 19.5 -32s-5.83301 -25 -22.5 -39c-2 -2 -8 -4.5 -18 -7.5s-31 -4.5 -63 -4.5z" />
    <glyph glyph-name="plus" unicode="+" horiz-adv-x="358" 
d="M192 117c-7.33301 0 -15 -0.164062 -23 -0.49707s-15.333 3 -22 10s-12.167 19.667 -16.5 38s-5.83301 46.166 -4.5 83.499c-14 0 -28.167 1.33301 -42.5 4s-29.166 5 -44.499 7c-15.333 21.333 -22 37.833 -20 49.5s8.66699 19.834 20 24.501s25.166 6.66699 41.499 6
s31.5 -2.33398 45.5 -5.00098c-4 6 -6.83301 15 -8.5 27s-1.83398 24.833 -0.500977 38.5s3.83301 27.167 7.5 40.5s8.66699 24.166 15 32.499s14.166 13 23.499 14s20.333 -3.83301 33 -14.5c0.666992 -4.66699 1.5 -13.167 2.5 -25.5s2.33301 -25.666 4 -39.999l5 -41.5
c1.66699 -13.333 3.5 -23.666 5.5 -30.999c42 2 73.5 -0.833008 94.5 -8.5s31.5 -16.667 31.5 -27s-10.5 -20.5 -31.5 -30.5s-52.5 -16.667 -94.5 -20c-4.66699 -6 -7.16699 -13.5 -7.5 -22.5s0.333984 -18.333 2.00098 -28s3.5 -19.334 5.5 -29.001s3 -18.334 3 -26.001
s-1.66699 -13.834 -5 -18.501s-9.66602 -7 -18.999 -7z" />
    <glyph glyph-name="comma" unicode="," horiz-adv-x="142" 
d="M18 -83c8.66699 3.33301 16.334 10.002 23.001 20.002s11.5 21.333 14.5 34s3.5 26 1.5 40s-7.33301 27 -16 39c-6.66699 17.333 -7.5 30.833 -2.5 40.5s12.167 15.667 21.5 18s19.166 1.16602 29.499 -3.50098s17.833 -12.334 22.5 -23.001
c12.667 -25.333 19 -51 19 -77s-4.83301 -48 -14.5 -66s-23 -29.833 -40 -35.5s-36.5 -1.16699 -58.5 13.5z" />
    <glyph glyph-name="hyphen" unicode="-" horiz-adv-x="439" 
d="M53 270c-20 14 -29.8301 28.5 -29.4971 43.5s12.166 26.167 35.499 33.5l348 2c9.33301 -3.33301 15.666 -9.33301 18.999 -18s3.5 -17.667 0.5 -27s-8.83301 -18 -17.5 -26s-20.334 -12.667 -35.001 -14z" />
    <glyph glyph-name="period" unicode="." horiz-adv-x="148" 
d="M53 6c-13.333 11.333 -22.166 24.332 -26.499 38.999s-4.33301 27.834 0 39.501s12.833 20.167 25.5 25.5s29 4.33301 49 -3c16 -14.667 24.167 -29.5 24.5 -44.5s-3.33398 -28 -11.001 -39s-17.667 -18.5 -30 -22.5s-22.833 -2.33301 -31.5 5z" />
    <glyph glyph-name="slash" unicode="/" horiz-adv-x="434" 
d="M74 22c-8 -9.33301 -16.833 -12 -26.5 -8s-17.667 10.667 -24 20s-10.5 19.5 -12.5 30.5s0.333008 19.167 7 24.5l340 659c6 10 13.5 15.333 22.5 16s17.5 -2 25.5 -8s14.333 -15 19 -27s5 -25.667 1 -41z" />
    <glyph glyph-name="zero" unicode="0" horiz-adv-x="540" 
d="M196 6c-34 8 -63.168 24.499 -87.501 49.499s-44 55.333 -59 91s-25.333 74.834 -31 117.501s-6.66699 86 -3 130s11.834 87 24.501 129s30.167 79.667 52.5 113s49.333 61 81 83s67.834 35 108.501 39c44.667 -2.66699 83.5 -16.5 116.5 -41.5s60 -56.667 81 -95
s35.833 -81.5 44.5 -129.5s11.167 -96.167 7.5 -144.5s-13.334 -95 -29.001 -140s-37.5 -84 -65.5 -117s-62 -57.5 -102 -73.5s-86.333 -19.667 -139 -11zM370.999 621.999c-34.667 30 -67.002 44.498 -97.002 43.498s-56.667 -12.333 -80 -34s-42.833 -51.167 -58.5 -88.5
s-26.5 -77.166 -32.5 -119.499s-6.66699 -84.666 -2 -126.999s15.334 -79.166 32.001 -110.499s39.834 -55 69.501 -71s67.167 -18.667 112.5 -8c28 11.333 51 30 69 56s31.5 55.667 40.5 89s14 68.666 15 105.999s-1 73.166 -6 107.499s-13 65.333 -24 93
s-23.833 48.834 -38.5 63.501z" />
    <glyph glyph-name="one" unicode="1" horiz-adv-x="244" 
d="M220 71c2 -15.333 0.000976562 -28.3301 -5.99902 -38.9971s-13.667 -17.5 -23 -20.5s-19.166 -2 -29.499 3s-18.833 15.5 -25.5 31.5c-2 46.667 -3.16699 95.834 -3.5 147.501s-0.333008 103.834 0 156.501l1 156.5c0.333008 51.667 0.166016 100.5 -0.500977 146.5
c0 -2 -3.83301 -5 -11.5 -9s-16.834 -7.83301 -27.501 -11.5s-21.834 -6.33398 -33.501 -8.00098s-21.167 -0.666992 -28.5 3s-11.666 10.667 -12.999 21s3 25.5 13 45.5c32.667 19.333 60.5 35.166 83.5 47.499s41.833 17.166 56.5 14.499s25.5 -14.667 32.5 -36
s10.833 -55.666 11.5 -102.999s0.166992 -94.333 -1.5 -141s-3 -92.834 -4 -138.501s-1 -90.834 0 -135.501s4.16699 -88.334 9.5 -131.001z" />
    <glyph glyph-name="two" unicode="2" horiz-adv-x="552" 
d="M96 16c-14 -3.33301 -25.167 -2.00195 -33.5 3.99805s-13.833 13.833 -16.5 23.5s-2.5 20 0.5 31s9.5 19.833 19.5 26.5l208 432c16 36.667 23.333 65.167 22 85.5s-8 34.333 -20 42s-27.5 9.66699 -46.5 6s-38.333 -11.334 -58 -23.001s-37.667 -26.167 -54 -43.5
s-27.5 -35.666 -33.5 -54.999c-8 -3.33301 -15.833 -3.83301 -23.5 -1.5s-14.334 6.16602 -20.001 11.499s-9.66699 11.833 -12 19.5s-1.5 15.5 2.5 23.5c14 40 35 72.167 63 96.5s58.333 41.166 91 50.499s64.667 11.333 96 6s56.666 -18 75.999 -38s30.333 -47 33 -81
s-8.33301 -75 -33 -123l-185 -402c27.333 -2.66699 54.833 -3 82.5 -1s55.334 4.83301 83.001 8.5s55.334 6.83398 83.001 9.50098s55.5 3 83.5 1c4 0.666992 8.33301 -1.66602 13 -6.99902s8.5 -12.166 11.5 -20.499s4.33301 -17.166 4 -26.499
s-3.33301 -17.666 -9 -24.999s-14.667 -12.833 -27 -16.5s-29.5 -3.83398 -51.5 -0.500977z" />
    <glyph glyph-name="three" unicode="3" horiz-adv-x="502" 
d="M267 488c53.333 0.666992 96.333 -8.83008 129 -28.4971s56.334 -44.834 71.001 -75.501s21 -64.5 19 -101.5s-11 -73 -27 -108s-38 -66.333 -66 -94s-61 -47.5 -99 -59.5s-79.833 -13.833 -125.5 -5.5s-94.167 31.166 -145.5 68.499
c-2.66699 7.33301 -1.83398 14.333 2.49902 21s10.166 12.667 17.499 18s15.333 9.83301 24 13.5s16 6.16699 22 7.5c26 -20 53.5 -32.333 82.5 -37s56.5 -3.33398 82.5 3.99902s49.5 19.833 70.5 37.5s37 38.167 48 61.5s15.667 48.666 14 75.999s-12.167 55 -31.5 83
c-17.333 16 -36.333 26.667 -57 32s-41.167 8 -61.5 8s-39.666 -1 -57.999 -3s-34 -2.33301 -47 -1s-22.667 5.83301 -29 13.5s-7.5 21.5 -3.5 41.5c16 8.66699 33.333 21 52 37s36.334 34 53.001 54s31.167 41.167 43.5 63.5s20.166 43.833 23.499 64.5
c-6 0.666992 -17.333 -0.166016 -34 -2.49902s-35.5 -4.5 -56.5 -6.5s-42.5 -3.5 -64.5 -4.5s-41.5 0 -58.5 3s-29.833 8.5 -38.5 16.5s-9.66699 20 -3 36c3.33301 8.66699 8.16602 15 14.499 19s13.333 6.66699 21 8s15.5 2 23.5 2s15.667 0.333008 23 1
c38.667 3.33301 74.334 5.83301 107.001 7.5s61 0.666992 85 -3s42.667 -10.667 56 -21s19.833 -25.833 19.5 -46.5s-8.33301 -47.167 -24 -79.5s-40.5 -72.5 -74.5 -120.5z" />
    <glyph glyph-name="four" unicode="4" horiz-adv-x="464" 
d="M303 306l-129.501 0.000976562c-45.667 0 -89.5 -3 -131.5 -9c-4 3.33301 -8.33301 6.66602 -13 9.99902s-8 8 -10 14s-2 13.833 0 23.5s7.33301 23.167 16 40.5c6 2 15.667 12.833 29 32.5s28.5 43.334 45.5 71.001l56 89c20.333 31.667 41 60.667 62 87
s41.5 47.5 61.5 63.5s38.333 22.667 55 20c8 -2 14.5 -8 19.5 -18s9 -27.833 12 -53.5s5 -61.167 6 -106.5s1.16699 -104.333 0.5 -177l60 4c6.66699 -28 10.167 -48 10.5 -60s-2.5 -19.667 -8.5 -23s-15 -4.83301 -27 -4.5s-26.333 -0.833984 -43 -3.50098l8 -276
c2 -5.33301 -0.166992 -11.333 -6.5 -18s-14.166 -11.667 -23.499 -15s-18.833 -3.5 -28.5 -0.5s-16.5 11.5 -20.5 25.5v284zM291.999 633.001c-12 -11.333 -25.5 -28.333 -40.5 -51l-45 -71.5l-43 -72c-13.667 -23 -25.5 -40.833 -35.5 -53.5
c10 -0.666992 22.167 -1 36.5 -1s29.5 0.333008 45.5 1s31.5 1.66699 46.5 3s27.833 3 38.5 5z" />
    <glyph glyph-name="five" unicode="5" horiz-adv-x="464" 
d="M51 4c-15.333 2.66699 -25.8291 8.16797 -31.4961 16.501s-8.33398 17.666 -8.00098 27.999s3 21.333 8 33s11.167 22.167 18.5 31.5c51.333 -16.667 96.666 -23.334 135.999 -20.001s72.333 12.833 99 28.5s47.334 35.334 62.001 59.001s23.167 47.334 25.5 71.001
s-1.33398 45.5 -11.001 65.5s-25.334 34 -47.001 42s-49.334 8.16699 -83.001 0.5s-73.167 -27.5 -118.5 -59.5c-6.66699 -6.66699 -14.334 -10.334 -23.001 -11.001s-16.834 0.5 -24.501 3.5s-14.5 7.16699 -20.5 12.5s-10 10.666 -12 15.999c4 14 5.5 34.667 4.5 62
s-2.33301 57.333 -4 90s-2.66699 65.834 -3 99.501s2.66699 64 9 91s16.833 48.167 31.5 63.5s36 21.333 64 18l243 3c12.667 -3.33301 21 -10.333 25 -21s4.83301 -21.667 2.5 -33s-7.33301 -21.333 -15 -30s-16.5 -12.667 -26.5 -12c-17.333 -2 -36.166 -3.5 -56.499 -4.5
s-41 -1.66699 -62 -2s-41.833 -0.5 -62.5 -0.5h-56c-2 -12 -3.33301 -27.667 -4 -47s-1 -39.333 -1 -60s0.5 -41 1.5 -61s2.5 -36.667 4.5 -50c38.667 17.333 75.667 26.833 111 28.5s67.5 -2.83301 96.5 -13.5s53.667 -26.5 74 -47.5s35 -45.5 44 -73.5
s11.5 -58.5 7.5 -91.5s-16.333 -66.833 -37 -101.5c-16.667 -32 -39 -57.667 -67 -77s-58.667 -33.5 -92 -42.5s-67.666 -13.5 -102.999 -13.5s-68.333 3 -99 9z" />
    <glyph glyph-name="six" unicode="6" horiz-adv-x="472" 
d="M143 12c-36.667 20 -66.668 49.6641 -90.001 88.9971s-37.333 88.666 -42 147.999s2 129 20 209s50 170.333 96 271c2.66699 12 8.66699 20.667 18 26s18.833 6.83301 28.5 4.5s17.834 -8.5 24.501 -18.5s9 -24 7 -42c-15.333 -34.667 -30.5 -72.667 -45.5 -114
s-27.667 -83 -38 -125s-17.5 -83 -21.5 -123s-3.33301 -76.167 2 -108.5s16.333 -59.333 33 -81s41 -35.167 73 -40.5c-18.667 44 -29.5 84 -32.5 120s-0.5 67.833 7.5 95.5s20.167 50.834 36.5 69.501s34.333 32.667 54 42s39.834 13.833 60.501 13.5
s39.667 -5.66602 57 -15.999s31.5 -25.666 42.5 -45.999s16.5 -46.166 16.5 -77.499c2 -25.333 -0.666992 -52 -8 -80s-17.833 -55 -31.5 -81s-30.334 -50 -50.001 -72s-41.167 -39.667 -64.5 -53s-48 -21.333 -74 -24s-52.333 2 -79 14zM280.999 130.997
c25.333 12 44.332 28.665 56.999 49.998s20.334 43.5 23.001 66.5s1.66699 44.833 -3 65.5s-11.667 35.834 -21 45.501s-19.833 11.834 -31.5 6.50098s-22.5 -22 -32.5 -50c-4 -12 -6.66699 -26.167 -8 -42.5s-1.5 -33 -0.5 -50s3 -33.5 6 -49.5s6.5 -30 10.5 -42z" />
    <glyph glyph-name="seven" unicode="7" horiz-adv-x="451" 
d="M410 53c-1.33301 -14 -5.82617 -25.1631 -13.4932 -33.4961s-16.5 -13.5 -26.5 -15.5s-20.167 -0.5 -30.5 4.5s-18.5 13.833 -24.5 26.5c-9.33301 49.333 -13 99.666 -11 150.999s5.66699 102.666 11 153.999l15.5 153.5c5 51 5.83301 101.167 2.5 150.5
c-25.333 0.666992 -50.333 0.5 -75 -0.5s-49.334 -2.16699 -74.001 -3.5s-49.334 -2 -74.001 -2s-49.334 2 -74.001 6c-12 8.66699 -19.333 17.834 -22 27.501s-2.16699 18.5 1.5 26.5s10 15.167 19 21.5s19.167 10.833 30.5 13.5c24.667 -4 50.667 -5.5 78 -4.5
s54.166 2.66699 80.499 5l76 7c24.333 2.33301 45.833 2.66602 64.5 0.999023s33.667 -6.16699 45 -13.5s17.666 -19.333 18.999 -36c3.33301 -52 3.16602 -104.833 -0.500977 -158.5s-7.83398 -107.334 -12.501 -161.001s-8.16699 -107.334 -10.5 -161.001
s-0.5 -106.5 5.5 -158.5z" />
    <glyph glyph-name="eight" unicode="8" horiz-adv-x="517" 
d="M166 18c-36.667 12.667 -65.167 33.502 -85.5 62.502s-33 60.667 -38 95s-2.33301 68.833 8 103.5s28.166 64.334 53.499 89.001c0.666992 0.666992 -3.5 5 -12.5 13s-19 18.833 -30 32.5s-21.5 30.167 -31.5 49.5s-16.333 40.833 -19 64.5s0 49.167 8 76.5
s25 56.333 51 87c14.667 18 31.334 32 50.001 42s37.334 17 56.001 21s36.334 5.33301 53.001 4s30.667 -4.5 42 -9.5s18.833 -11.5 22.5 -19.5s2.16699 -16.667 -4.5 -26c-6 -8 -14.333 -12.833 -25 -14.5s-22.334 -2.83398 -35.001 -3.50098
s-25.834 -1.83398 -39.501 -3.50098s-26.5 -6.33398 -38.5 -14.001s-22.5 -19.334 -31.5 -35.001s-15.167 -37.5 -18.5 -65.5c0.666992 -38.667 6.66699 -68 18 -88s25.666 -32.833 42.999 -38.5s36.333 -5 57 2s40.667 18.167 60 33.5s36.833 33.833 52.5 55.5
s27 44.5 34 68.5s8.83301 48 5.5 72s-14.666 46.333 -33.999 67c2.66699 5.33301 7.83398 8.33301 15.501 9s15.667 0.166992 24 -1.5s15.833 -4 22.5 -7s10.667 -5.5 12 -7.5c26.667 -58 38.5 -113 35.5 -165s-22.167 -106.333 -57.5 -163c35.333 -28 60 -59 74 -93
s19.667 -67.667 17 -101s-12.834 -64.666 -30.501 -93.999s-40.667 -53.5 -69 -72.5s-60.833 -31.5 -97.5 -37.5s-75.667 -2 -117 12zM183 93.002c24 -12.667 47.5 -17.333 70.5 -14s44 11.666 63 24.999s35 30.5 48 51.5s21.5 43.167 25.5 66.5s2.83301 46.5 -3.5 69.5
s-19.5 43.167 -39.5 60.5c-24.667 6 -49.667 7 -75 3s-48.5 -11.667 -69.5 -23s-38.833 -26 -53.5 -44s-24 -37.667 -28 -59s-1.33301 -43.666 8 -66.999s27.333 -46.333 54 -69z" />
    <glyph glyph-name="nine" unicode="9" horiz-adv-x="562" 
d="M510 66c0 -18.667 -4.49805 -33.5 -13.498 -44.5s-19.833 -17.5 -32.5 -19.5s-25 1 -37 9s-21 22 -27 42l4 427c-48 -35.333 -91.833 -59.666 -131.5 -72.999s-74.834 -18.5 -105.501 -15.5s-56.667 12.5 -78 28.5s-37.833 35.5 -49.5 58.5s-18.334 48.167 -20.001 75.5
s1.66602 53.5 9.99902 78.5s22.166 47.667 41.499 68s44 35 74 44s65.833 10.833 107.5 5.5s89.167 -20.666 142.5 -45.999c8.66699 4.66699 18.334 8.5 29.001 11.5s20.667 2.16699 30 -2.5s17.333 -14.334 24 -29.001s10.667 -37.334 12 -68.001
c-1.33301 -88 -0.166016 -179.5 3.50098 -274.5s9.16699 -186.833 16.5 -275.5zM358.002 650c-41.333 15.333 -77.333 22.832 -108 22.499s-56.167 -5.5 -76.5 -15.5s-35.5 -23.5 -45.5 -40.5s-14.833 -34.167 -14.5 -51.5s6 -33.5 17 -48.5s27.167 -25.667 48.5 -32
s48 -6.66602 80 -0.999023s69.333 20.167 112 43.5c2 22.667 2 43 0 61s-6.33301 38.667 -13 62z" />
    <glyph glyph-name="colon" unicode=":" horiz-adv-x="178" 
d="M75 195c-13.333 4.66699 -21.999 11.1689 -25.999 19.502s-4.83301 17 -2.5 26s7 17.167 14 24.5s15 12.166 24 14.499s18 1.33301 27 -3s16.5 -13.833 22.5 -28.5c6.66699 -23.333 4.16699 -39.833 -7.5 -49.5s-28.834 -10.834 -51.501 -3.50098zM75.001 359.002
c-13.333 4.66699 -21.999 11.1689 -25.999 19.502s-4.83301 17 -2.5 26s7 17.167 14 24.5s15 12.166 24 14.499s18 1.33301 27 -3s16.5 -13.833 22.5 -28.5c6.66699 -23.333 4.16699 -39.833 -7.5 -49.5s-28.834 -10.834 -51.501 -3.50098z" />
    <glyph glyph-name="semicolon" unicode=";" horiz-adv-x="208" 
d="M56 217c-8.66699 5.33301 -13.833 12.6641 -15.5 21.9971s-1 18.333 2 27s8.33301 15.334 16 20.001s16.834 5.33398 27.501 2.00098c11.333 -2 19.666 -8.16699 24.999 -18.5s7 -20.666 5 -30.999s-8 -18.5 -18 -24.5s-24 -5 -42 3zM45.001 -86.002
c8.66699 3.33301 16.334 10.002 23.001 20.002s11.5 21.333 14.5 34s3.5 26 1.5 40s-7.33301 27 -16 39c-6.66699 17.333 -7.5 30.833 -2.5 40.5s12.167 15.667 21.5 18s19.166 1.16602 29.499 -3.50098s17.833 -12.334 22.5 -23.001c12.667 -25.333 19 -51 19 -77
s-4.83301 -48 -14.5 -66s-23 -29.833 -40 -35.5s-36.5 -1.16699 -58.5 13.5z" />
    <glyph glyph-name="less" unicode="&#x3c;" horiz-adv-x="528" 
d="M458 223c-2 -18 -3.33398 -33.499 -4.00098 -46.499s-3.83398 -22.833 -9.50098 -29.5s-15.167 -9.5 -28.5 -8.5s-33.166 6.83301 -59.499 17.5s-60.833 26.667 -103.5 48l-160 83c-24 14.667 -37.333 29.667 -40 45s0.833008 30 10.5 44s23 26.833 40 38.5
s33.167 20.5 48.5 26.5l204 141c14 12.667 26.833 17.667 38.5 15s21.334 -8.66699 29.001 -18s12.667 -19.833 15 -31.5s0.5 -19.834 -5.5 -24.501l-255 -186l280 -114v0z" />
    <glyph glyph-name="equal" unicode="=" horiz-adv-x="434" 
d="M98 206c-16 2 -28.002 7.16895 -36.002 15.502s-12.167 17.333 -12.5 27s2.83398 18.667 9.50098 27s16 13.5 28 15.5c16.667 -0.666992 35.834 -0.833984 57.501 -0.500977s44.5 0.666016 68.5 0.999023l73 1c24.667 0.333008 48.667 0.166016 72 -0.500977
c10 0.666992 18 -1.66602 24 -6.99902s10.167 -12 12.5 -20s2.5 -16.667 0.5 -26s-6.33301 -18 -13 -26zM87.998 344.002c-16 2 -28.002 7.16895 -36.002 15.502s-12.167 17.333 -12.5 27s2.83398 18.667 9.50098 27s16 13.5 28 15.5
c16.667 -0.666992 35.834 -0.833984 57.501 -0.500977s44.5 0.666016 68.5 0.999023l73 1c24.667 0.333008 48.667 0.166016 72 -0.500977c10 0.666992 18 -1.66602 24 -6.99902s10.167 -12 12.5 -20s2.5 -16.667 0.5 -26s-6.33301 -18 -13 -26z" />
    <glyph glyph-name="greater" unicode="&#x3e;" horiz-adv-x="433" 
d="M16 223l279.998 113.999l-255 186c-6 4.66699 -7.83301 12.834 -5.5 24.501s7.33301 22.167 15 31.5s17.334 15.333 29.001 18s24.5 -2.33301 38.5 -15l204 -141c14.667 -6 30.667 -14.833 48 -26.5s30.833 -24.5 40.5 -38.5s13.167 -28.667 10.5 -44
s-16 -30.333 -40 -45l-160 -83c-42.667 -21.333 -77.167 -37.333 -103.5 -48s-46.166 -16.5 -59.499 -17.5s-22.833 1.83301 -28.5 8.5s-9 16.5 -10 29.5z" />
    <glyph glyph-name="question" unicode="?" horiz-adv-x="445" 
d="M295 7c-17.333 -6.66699 -33.833 -5 -49.5 5s-24.834 24.333 -27.501 43c11.333 14.667 22.333 24.5 33 29.5s20.334 6.5 29.001 4.5s16 -6.33301 22 -13s10 -14.334 12 -23.001s1.5 -17.167 -1.5 -25.5s-8.83301 -15.166 -17.5 -20.499zM196 297
c-14.667 14 -22.335 29.3311 -23.002 45.998s2.83301 34.167 10.5 52.5s18.334 37 32.001 56l42 56l39.5 52.5c12 16.667 20.667 31.834 26 45.501s5.66602 25.5 0.999023 35.5s-17 17.333 -37 22c-13.333 2.66699 -29.5 0.666992 -48.5 -6s-38.333 -15.5 -58 -26.5
s-38.334 -23 -56.001 -36s-32.167 -24.5 -43.5 -34.5c-14.667 0 -26 0.333008 -34 1s-16.333 6.33398 -25 17.001c-1.33301 14.667 6 30.834 22 48.501s36.667 34.5 62 50.5s53.5 30.333 84.5 43s61 21.667 90 27s55.333 6 79 2s40.667 -14.833 51 -32.5
s12.5 -43.167 6.5 -76.5s-24.333 -76.333 -55 -129c-14 -23.333 -27.667 -43.5 -41 -60.5s-24.166 -33.167 -32.499 -48.5s-13.166 -31.333 -14.499 -48s3 -36.334 13 -59.001c-5.33301 -9.33301 -12.166 -15.5 -20.499 -18.5s-17 -4 -26 -3s-17.5 3.66699 -25.5 8
s-14.333 9.5 -19 15.5z" />
    <glyph glyph-name="at" unicode="@" horiz-adv-x="718" 
d="M669 232c22 -12 30.1543 -28.667 24.4873 -50s-21 -43.5 -46 -66.5s-57.167 -44.833 -96.5 -65.5s-81.5 -36.5 -126.5 -47.5s-90.667 -15.167 -137 -12.5s-88.5 15.834 -126.5 39.501s-70 59.834 -96 108.501s-41.333 113.334 -46 194.001
c-3.33301 62 2.83398 117.333 18.501 166s37.334 90.334 65.001 125.001s59.834 62.167 96.501 82.5s74.334 33.5 113.001 39.5s77 4.5 115 -4.5s72.333 -25.667 103 -50s55.834 -56.333 75.501 -96s30.5 -87.5 32.5 -143.5c0 -28.667 -3.33301 -58.334 -10 -89.001
s-15.667 -59 -27 -85s-24.666 -48 -39.999 -66s-32.166 -29 -50.499 -33s-37.833 1 -58.5 15s-41.667 40.333 -63 79c-44.667 -30.667 -82 -46.167 -112 -46.5s-53.667 8.83398 -71 27.501s-28.666 44.167 -33.999 76.5s-5.16602 65.666 0.500977 99.999
s16 67.166 31 98.499s34.167 55.666 57.5 72.999s50.166 24.5 80.499 21.5s63.833 -21.167 100.5 -54.5c4 -6.66699 5.66699 -19.667 5 -39s-2 -40.333 -4 -63s-3.83301 -45 -5.5 -67s-1.83398 -38.667 -0.500977 -50c12.667 -42.667 26.167 -68 40.5 -76
s27.333 -4.83301 39 9.5s21.334 37 29.001 68s11.334 64 11.001 99s-6 69.333 -17 103s-28.833 60.5 -53.5 80.5c-57.333 29.333 -108.666 43.666 -153.999 42.999s-84.666 -11.834 -117.999 -33.501s-60.5 -51.167 -81.5 -88.5s-35.667 -77.833 -44 -121.5
s-10.166 -88 -5.49902 -133s16.167 -85.667 34.5 -122s43.333 -66.166 75 -89.499s70.334 -35.166 116.001 -35.499s98.5 13.167 158.5 40.5s127.333 73.666 202 138.999zM373.987 535c-13.333 16.667 -25.999 25.332 -37.999 25.999s-23 -3.83301 -33 -13.5
s-18.667 -23.167 -26 -40.5s-13 -36 -17 -56s-6 -39.667 -6 -59s2.5 -35.833 7.5 -49.5s12.667 -23.167 23 -28.5s24.166 -3.66602 41.499 5.00098c12.667 8 23 22.167 31 42.5s14 42 18 65s5.83301 44.833 5.5 65.5s-2.5 35 -6.5 43z" />
    <glyph glyph-name="A" unicode="A" horiz-adv-x="549" 
d="M106 15c-11.333 9.33301 -18.666 22.166 -21.999 38.499s-4.16602 34 -2.49902 53s4.66699 38.333 9 58s8 37.5 11 53.5s4.33301 29.167 4 39.5s-4.16602 15.5 -11.499 15.5l-40 -5c-24.667 14 -41 27.833 -49 41.5s-8.66699 25.334 -2 35.001s20.334 16.667 41.001 21
s47.334 4.16602 80.001 -0.500977c3.33301 6.66699 6.16602 14.834 8.49902 24.501s5.16602 24.667 8.49902 45l13 82.5c5.33301 34.667 13 80.334 23 137.001c4.66699 32 12.5 56.333 23.5 73s23.667 27.167 38 31.5s29.166 3.5 44.499 -2.5s30 -15.333 44 -28
s26.167 -27.667 36.5 -45s17.5 -35 21.5 -53c2 -4.66699 5 -13.667 9 -27s8.16699 -28.5 12.5 -45.5l14 -54l14.5 -54l12.5 -45c3.66699 -13 6.5 -22.167 8.5 -27.5c4 0 10.833 1.33301 20.5 4s20.5 5.16699 32.5 7.5s23.667 3.83301 35 4.5s21 -1.33301 29 -6
s12.833 -12.834 14.5 -24.501s-1.5 -28.5 -9.5 -50.5l-98 -24l41 -265c0.666992 -4 -2.83301 -7.66699 -10.5 -11s-16.834 -5.83301 -27.501 -7.5s-21.167 -1.66699 -31.5 0s-17.833 5.5 -22.5 11.5c-4.66699 12 -8.66699 29 -12 51s-6.33301 45.167 -9 69.5l-8 72.5
c-2.66699 24 -5.66699 44.333 -9 61l-6 6c-14 2 -27.667 2.66699 -41 2s-27 -1.66699 -41 -3s-29 -3.33301 -45 -6s-33.333 -5 -52 -7l-34 -237c-2 -6 -5.5 -10.667 -10.5 -14s-10.833 -5.5 -17.5 -6.5s-13.334 -0.5 -20.001 1.5s-12.667 5 -18 9zM225 365
c23.333 0 45.835 0.669922 67.502 2.00293s44.5 2.66602 68.5 3.99902v6c-8.66699 19.333 -15.334 40.666 -20.001 63.999l-14.5 70.5c-5 23.667 -11 46.5 -18 68.5s-17.167 41 -30.5 57c-4.66699 -6 -9 -16 -13 -30s-7.83301 -29.833 -11.5 -47.5
s-6.83398 -36.334 -9.50098 -56.001l-7.5 -56.5l-6.5 -49c-2 -14.667 -3.66699 -25.667 -5 -33z" />
    <glyph glyph-name="B" unicode="B" horiz-adv-x="598" 
d="M161 16c-14 14 -22.998 38.999 -26.998 74.999s-6 80.833 -6 134.5s-0.166992 115 -0.5 184s-4.16602 143.5 -11.499 223.5c-6.66699 -21.333 -9.5 -42.166 -8.5 -62.499s1.83301 -38.333 2.5 -54s-0.5 -28 -3.5 -37s-11.5 -12.833 -25.5 -11.5
c-18.667 12.667 -32.167 28 -40.5 46s-12.5 37.167 -12.5 57.5s4 40.666 12 60.999s19 39 33 56s30.333 31.333 49 43s39 18.834 61 21.501c38 5.33301 74.333 5.5 109 0.5s65.5 -14.5 92.5 -28.5s49.167 -31.833 66.5 -53.5s27.666 -46.5 30.999 -74.5s-1.5 -59 -14.5 -93
s-35.833 -70 -68.5 -108c39.333 -6.66699 72.333 -18.5 99 -35.5s47.167 -36.667 61.5 -59s22.666 -46.333 24.999 -72s-0.833984 -50.667 -9.50098 -75s-22.834 -47 -42.501 -68s-44.167 -37.833 -73.5 -50.5s-63.666 -20.334 -102.999 -23.001s-83 2.33301 -131 15
c-6 -2 -9.83301 -4.66699 -11.5 -8s-3.83398 -6.16602 -6.50098 -8.49902s-7.16699 -3.5 -13.5 -3.5s-17.166 2.66699 -32.499 8zM221.002 130.999c48.667 -16.667 90.999 -25.334 126.999 -26.001s65.667 3.66602 89 12.999s40.5 22.333 51.5 39s15.833 33.834 14.5 51.501
s-8.5 34.5 -21.5 50.5s-32 28.333 -57 37s-55.667 12.334 -92 11.001s-78.166 -11 -125.499 -29zM215.001 401.999c2.66699 -4 10.501 -4.5 23.501 -1.5s27.833 9 44.5 18s33.167 20.5 49.5 34.5s29.333 30.167 39 48.5s14.167 38.333 13.5 60s-9.66699 44.5 -27 68.5
c-8 9.33301 -18 16.666 -30 21.999s-24.5 9 -37.5 11s-26.333 2.5 -40 1.5s-26.5 -2.5 -38.5 -4.5c0 -42 0.666992 -83.667 2 -125s1.66602 -85.666 0.999023 -132.999z" />
    <glyph glyph-name="C" unicode="C" 
d="M382 22c-70.667 -16.667 -130.334 -17.0029 -179.001 -1.00293s-87.167 42.5 -115.5 79.5s-47.5 81.5 -57.5 133.5s-12 105.667 -6 161s19.167 109.333 39.5 162s46.5 98 78.5 136c28.667 32 59.667 51 93 57s64.5 1.5 93.5 -13.5s54 -39 75 -72
s33.833 -72.5 38.5 -118.5c2.66699 -6 2 -13 -2 -21s-9.83301 -14.5 -17.5 -19.5s-16 -7.16699 -25 -6.5s-16.833 6.66699 -23.5 18c-12 44.667 -26.5 77 -43.5 97s-34.167 31.5 -51.5 34.5s-34.333 -0.5 -51 -10.5s-30.667 -22.333 -42 -37
c-35.333 -59.333 -58.833 -116.166 -70.5 -170.499s-14.167 -103.5 -7.5 -147.5s21 -81.167 43 -111.5s48.667 -51.166 80 -62.499s66 -11.5 104 -0.5s76.333 35.833 115 74.5c12 -8 19.5 -17.5 22.5 -28.5s3 -22.5 0 -34.5s-8.33301 -23.833 -16 -35.5
s-16.167 -22.167 -25.5 -31.5c-8.66699 -8.66699 -17.167 -15.667 -25.5 -21s-16.166 -8.66602 -23.499 -9.99902z" />
    <glyph glyph-name="D" unicode="D" horiz-adv-x="691" 
d="M166 9c-13.333 4.66699 -22.6631 12.1689 -27.9961 22.502s-7.83301 20.833 -7.5 31.5s2.66602 20.167 6.99902 28.5s9.16602 13.5 14.499 15.5c-6.66699 77.333 -12 143.833 -16 199.5l-10 141c-2.66699 38.333 -4.66699 69.333 -6 93s-2.33301 43 -3 58
s-1.33398 26.5 -2.00098 34.5s-1.66699 15.667 -3 23c-18.667 -3.33301 -37 -5.5 -55 -6.5s-32.333 1.33301 -43 7s-16.167 15.334 -16.5 29.001s8.16699 33.5 25.5 59.5c119.333 7.33301 220.666 2.66602 303.999 -14.001s151.166 -40.834 203.499 -72.501
s90 -69.167 113 -112.5s33.333 -88.5 31 -135.5s-16.333 -93.5 -42 -139.5s-60.667 -87.833 -105 -125.5s-97.166 -68.834 -158.499 -93.501s-129 -39 -203 -43zM234.003 118.002c44.667 7.33301 85.834 20.667 123.501 40s70.667 42.166 99 68.499s51.166 55 68.499 86
s28 62 32 93s0.5 61.167 -10.5 90.5s-30.667 55.333 -59 78s-66 40.834 -113 54.501s-104.833 20.834 -173.5 21.501c4 -42 7.16699 -85.667 9.5 -131s4.5 -90.833 6.5 -136.5s4.16699 -90.834 6.5 -135.501s5.83301 -87.667 10.5 -129z" />
    <glyph glyph-name="E" unicode="E" horiz-adv-x="467" 
d="M162 16c-34.667 16 -61.835 36.6689 -81.502 62.002s-32.834 53.5 -39.501 84.5s-7.5 63.833 -2.5 98.5s14.5 69.667 28.5 105c-27.333 40.667 -44.333 79 -51 115s-6 69 2 99s22 56.667 42 80s43 42.5 69 57.5s53.833 25.667 83.5 32s58 7.5 85 3.5
s51.333 -13.333 73 -28s37.834 -35.334 48.501 -62.001c5.33301 -10.667 6.5 -19.834 3.5 -27.501s-8.33301 -13.834 -16 -18.501s-16.334 -7.66699 -26.001 -9s-18.834 -1 -27.501 1c-14.667 24.667 -32.834 40.167 -54.501 46.5s-43.5 6.5 -65.5 0.5
s-42.667 -16.833 -62 -32.5s-34.666 -33.834 -45.999 -54.501s-17.166 -42.167 -17.499 -64.5s8.16699 -42.833 25.5 -61.5c17.333 12 36.833 22.167 58.5 30.5s43.5 13.833 65.5 16.5s43 2.33398 63 -0.999023s37.5 -10.666 52.5 -21.999s26.167 -26.666 33.5 -45.999
s9 -43.666 5 -72.999c-13.333 -16.667 -28.666 -29.334 -45.999 -38.001s-35.166 -14.667 -53.499 -18s-36.5 -4.83301 -54.5 -4.5s-34.167 1.33301 -48.5 3s-26.333 3.16699 -36 4.5s-15.167 1.33301 -16.5 0c-16.667 -33.333 -23.667 -62.5 -21 -87.5
s11.667 -45.5 27 -61.5s34.833 -27.5 58.5 -34.5s48 -9.83301 73 -8.5s48.667 7.16602 71 17.499s39.833 24.833 52.5 43.5c18 0 29.833 -5.83301 35.5 -17.5s5.83398 -25.5 0.500977 -41.5s-16 -32.667 -32 -50s-36.5 -31.5 -61.5 -42.5s-54.167 -17.167 -87.5 -18.5
s-70 6 -110 22zM220.999 388.002c6 -6 16.1689 -8.83301 30.502 -8.5s28.5 2 42.5 5s25.5 5.66699 34.5 8s10.5 2.5 4.5 0.5c-5.33301 2.66699 -12.5 4.66699 -21.5 6s-18.833 1.83301 -29.5 1.5s-21.334 -1.5 -32.001 -3.5s-20.334 -5 -29.001 -9z" />
    <glyph glyph-name="F" unicode="F" horiz-adv-x="377" 
d="M87 3c-7.33301 14 -12.667 32.998 -16 56.998s-5.83301 49.333 -7.5 76s-3.16699 52.834 -4.5 78.501s-3.33301 47.167 -6 64.5c-9.33301 6 -16.333 13.667 -21 23s-7.16699 19.166 -7.5 29.499s1.5 20.833 5.5 31.5s10 20.334 18 29.001
c-4 54.667 -6.33301 109.667 -7 165s-0.333984 111 0.999023 167c1.33301 8.66699 9.5 15.834 24.5 21.501s33.833 10 56.5 13s47.167 5 73.5 6s51.166 1.33301 74.499 1s43.5 -1 60.5 -2s27.5 -1.83301 31.5 -2.5c13.333 -2.66699 22.833 -8 28.5 -16
s8.33398 -17 8.00098 -27s-3.16602 -19.833 -8.49902 -29.5s-12.666 -17.167 -21.999 -22.5c-12 -2 -29 -2.16699 -51 -0.5s-44.5 3 -67.5 4s-44.667 0.666992 -65 -1s-34.5 -6.83398 -42.5 -15.501c-1.33301 -20 -1.66602 -41 -0.999023 -63s1.5 -44.167 2.5 -66.5
s2.33301 -44.333 4 -66s3.5 -41.5 5.5 -59.5c10 -0.666992 23 -0.166992 39 1.5l50 5c17.333 1.66699 34.166 2 50.499 1s30 -4.5 41 -10.5s18 -15.667 21 -29s0.166992 -31.666 -8.5 -54.999l-183 -19c-1.33301 -8 -0.5 -21.833 2.5 -41.5s6.16699 -41.667 9.5 -66
s5.5 -49.166 6.5 -74.499s-1.16699 -47.5 -6.5 -66.5s-14.833 -32.833 -28.5 -41.5s-33.834 -8.33398 -60.501 0.999023z" />
    <glyph glyph-name="G" unicode="G" horiz-adv-x="666" 
d="M167 12c-33.333 16.667 -60.0068 41.999 -80.0068 75.999s-34 72.333 -42 115s-10.333 88.167 -7 136.5s11.833 95.333 25.5 141s32.167 88.5 55.5 128.5s50.833 73.167 82.5 99.5s67 44 106 53s81.5 5.5 127.5 -10.5c8 -2 15.5 -7.5 22.5 -16.5s11.333 -19 13 -30
s-0.333008 -21.333 -6 -31s-16.834 -15.834 -33.501 -18.501c-14 8.66699 -29 15 -45 19s-32.167 4.66699 -48.5 2s-32.666 -9 -48.999 -19s-31.5 -24.333 -45.5 -43c-42.667 -83.333 -71.667 -155.5 -87 -216.5s-21.166 -112.333 -17.499 -154s14.834 -74.5 33.501 -98.5
s40.334 -40.333 65.001 -49s50.5 -10.667 77.5 -6s50.833 14.5 71.5 29.5s36 34.667 46 59s10.333 51.833 1 82.5c-6.66699 12 -17.167 19.833 -31.5 23.5s-29.166 6.66699 -44.499 9s-29.333 5.83301 -42 10.5s-20.667 14 -24 28c-5.33301 22 -5.66602 38.667 -0.999023 50
s12.667 18.833 24 22.5s24.833 4.33398 40.5 2.00098s31.667 -5.66602 48 -9.99902s32 -8.83301 47 -13.5s27.5 -7.66699 37.5 -9c16.667 -4 32.834 -3.83301 48.501 0.5s30.5 8 44.5 11s27.333 3 40 0s24.334 -14.167 35.001 -33.5c6.66699 -11.333 7.66699 -21.5 3 -30.5
s-12.167 -16.667 -22.5 -23s-21.5 -11.5 -33.5 -15.5s-21.667 -6.66699 -29 -8c-6 -1.33301 -11.5 -1.83301 -16.5 -1.5s-10.167 0.166016 -15.5 -0.500977c9.33301 -41.333 9.5 -78.166 0.5 -110.499s-24 -60 -45 -83s-46.167 -41.5 -75.5 -55.5s-59.333 -23.667 -90 -29
s-60.667 -6.5 -90 -3.5s-54 9.83301 -74 20.5z" />
    <glyph glyph-name="H" unicode="H" horiz-adv-x="590" 
d="M164 27c-4 -12 -10.999 -20.4941 -20.999 -25.4941s-20.333 -7 -31 -6s-20.5 4.66699 -29.5 11s-14.5 14.833 -16.5 25.5l2 174c-19.333 13.333 -33.166 31 -41.499 53s-12.5 43.833 -12.5 65.5s3.66699 41 11 58s17.666 27.167 30.999 30.5l-1 302
c-2.66699 15.333 0.666016 26.166 9.99902 32.499s20.166 9.66602 32.499 9.99902s23.833 -1.83398 34.5 -6.50098s16.667 -10.334 18 -17.001l1 -307c48.667 17.333 95 22.333 139 15s87 -21.666 129 -42.999l-1 328c-0.666992 12 2.66602 21.333 9.99902 28
s16.166 10.5 26.499 11.5s21 -0.833008 32 -5.5s19.5 -12 25.5 -22c-1.33301 -24.667 -2.5 -50.834 -3.5 -78.501s-1.66699 -55.834 -2 -84.501s0 -56.834 1 -84.501s3.16699 -53.834 6.5 -78.501l20 14c9.33301 6.66699 18.833 10.834 28.5 12.501s18 -1.5 25 -9.5
s10.5 -25 10.5 -51l-65 -54c1.33301 -32.667 3 -63.334 5 -92.001c1.33301 -25.333 3 -50.5 5 -75.5s4 -44.833 6 -59.5c1.33301 -10.667 0.333008 -22.167 -3 -34.5s-9 -23.5 -17 -33.5s-18.333 -17.5 -31 -22.5s-28 -5.5 -46 -1.5l-19 270
c-13.333 -13.333 -30.666 -25.166 -51.999 -35.499s-44.166 -19.333 -68.499 -27s-49.166 -14 -74.499 -19s-48.333 -8.5 -69 -10.5c-2 -25.333 -3 -51 -3 -77s-0.666992 -52.667 -2 -80zM163.001 279.006c46 4.66699 81.6699 10.832 107.003 18.499
s42.166 15.5 50.499 23.5s9.66602 15.167 3.99902 21.5s-16.5 10.833 -32.5 13.5s-35.833 2.33398 -59.5 -0.999023s-48.834 -11 -75.501 -23z" />
    <glyph glyph-name="I" unicode="I" horiz-adv-x="606" 
d="M61 4c-10.667 2.66699 -19.333 7.5 -26 14.5s-11 15 -13 24s-1.33301 18 2 27s10 16.5 20 22.5c8.66699 5.33301 22.667 8 42 8s39.666 -1.33301 60.999 -4s41.5 -5.33398 60.5 -8.00098s32.833 -3.66699 41.5 -3c2 42 3.5 87.167 4.5 135.5s1.16699 97.333 0.5 147
s-2.33398 98.667 -5.00098 147s-6.66699 93.5 -12 135.5h-140c-17.333 0.666992 -33.5 3.5 -48.5 8.5s-26.167 11.833 -33.5 20.5s-9.83301 19.167 -7.5 31.5s12.166 25.833 29.499 40.5c38.667 -2 76.334 -2.83301 113.001 -2.5s73 1 109 2s72.167 2.66699 108.5 5
s74.166 4.5 113.499 6.5c26 2 45.333 -1.16699 58 -9.5s20 -18.5 22 -30.5s-1 -24 -9 -36s-20 -20 -36 -24c-9.33301 0.666992 -22.166 1.83398 -38.499 3.50098s-33.166 2.66699 -50.499 3s-34 -0.5 -50 -2.5s-28.333 -6.33301 -37 -13l12 -551l176 17
c16.667 3.33301 30.667 2.66602 42 -2.00098s19.333 -11.334 24 -20.001s6.16699 -18.167 4.5 -28.5s-7.16699 -20 -16.5 -29s-22.5 -16 -39.5 -21s-37.833 -6.5 -62.5 -4.5c-58 -5.33301 -107.5 -9.66602 -148.5 -12.999s-75.333 -5.66602 -103 -6.99902
s-50.167 -2 -67.5 -2s-31.833 0.5 -43.5 1.5s-21.667 2.5 -30 4.5s-17.166 4 -26.499 6z" />
    <glyph glyph-name="J" unicode="J" horiz-adv-x="506" 
d="M388 753c26.667 -47.333 48.499 -98.668 65.499 -154.001s28.833 -110.666 35.5 -165.999s8 -108.833 4 -160.5s-13.5 -97 -28.5 -136s-35.667 -70.167 -62 -93.5s-58.5 -34.333 -96.5 -33s-81.833 16.833 -131.5 46.5s-105.834 77.834 -168.501 144.501
c-2.66699 8 -3 16.333 -1 25s5.5 16 10.5 22s11.333 10.333 19 13s15.834 2.66699 24.501 0c12.667 -2 27 -8.16699 43 -18.5s32.833 -22 50.5 -35l54.5 -39c18.667 -13 36.667 -23.167 54 -30.5s33.5 -10.5 48.5 -9.5s28.167 9.16699 39.5 24.5
c15.333 31.333 26 63.666 32 96.999s8.66699 66.5 8 99.5s-4.16699 65.5 -10.5 97.5s-13.666 62.5 -21.999 91.5s-17.333 56 -27 81l-25.5 66.5c-7.33301 15.333 -9.5 28.5 -6.5 39.5s9 19.5 18 25.5s20 9.33301 33 10s26.167 -2 39.5 -8z" />
    <glyph glyph-name="K" unicode="K" horiz-adv-x="546" 
d="M46 27c0.666992 63.333 0.332031 125.501 -1.00098 186.501s-3 120.833 -5 179.5s-3.66699 116.167 -5 172.5s-2 112.166 -2 167.499c7.33301 10 15.833 18 25.5 24s21.167 7.66699 34.5 5c14 -6.66699 24.167 -19 30.5 -37s10.333 -39.333 12 -64
s1.83398 -51.334 0.500977 -80.001l-4 -84c-1.33301 -27.333 -2 -53 -2 -77s2.33301 -43.333 7 -58c28 20 55 42.833 81 68.5s51.167 52.5 75.5 80.5l71.5 85l68 81c20.667 8 35.5 8.5 44.5 1.5s14 -17.167 15 -30.5s-1 -27.666 -6 -42.999s-11.167 -27 -18.5 -35l-213 -244
v-5c33.333 -2 65.833 -2 97.5 0s64.5 3.66699 98.5 5c20 1.33301 36.667 -3 50 -13s21.833 -21.833 25.5 -35.5s2 -27.334 -5 -41.001s-20.5 -23.167 -40.5 -28.5c-51.333 0 -104 0.5 -158 1.5s-114.333 2.5 -181 4.5c-0.666992 -10.667 -0.166992 -24.834 1.5 -42.501
s3 -36 4 -55s0.833008 -37.167 -0.5 -54.5s-5.5 -31.166 -12.5 -41.499s-17.5 -15.666 -31.5 -15.999s-33 7.16699 -57 22.5z" />
    <glyph glyph-name="L" unicode="L" horiz-adv-x="498" 
d="M71 33c-11.333 46 -18.8311 96.498 -22.498 151.498s-6.16699 110 -7.5 165s-2.83301 108.333 -4.5 160s-6.5 97.167 -14.5 136.5c-1.33301 25.333 2.5 46.666 11.5 63.999s19.333 29.333 31 36s23.167 7.33398 34.5 2.00098s19.333 -17.333 24 -36
c4.66699 -54 7.16699 -105.5 7.5 -154.5s0.333008 -97.667 0 -146s0.166992 -97.333 1.5 -147s5.66602 -102.5 12.999 -158.5c25.333 0 47.833 1 67.5 3s39.5 5 59.5 9s42 8.66699 66 14s53.333 11.333 88 18c14 -7.33301 25 -16.166 33 -26.499s12.833 -20.5 14.5 -30.5
s0.166992 -19.333 -4.5 -28s-12.667 -14.334 -24 -17.001c-16.667 -2.66699 -37.167 -6.5 -61.5 -11.5l-76.5 -15.5c-26.667 -5.33301 -53.334 -10 -80.001 -14s-51 -6.16699 -73 -6.5s-40.5 1.83398 -55.5 6.50098s-24.167 13.334 -27.5 26.001z" />
    <glyph glyph-name="M" unicode="M" horiz-adv-x="759" 
d="M737 44c4.66699 -16.667 2.49902 -30.668 -6.50098 -42.001s-20.167 -19.166 -33.5 -23.499s-26.666 -4.83301 -39.999 -1.5s-22.333 11.666 -27 24.999l-5 588c-26.667 -29.333 -51.167 -61.166 -73.5 -95.499s-43.5 -69.5 -63.5 -105.5l-58.5 -107
c-19 -35.333 -38.5 -68.666 -58.5 -99.999c-11.333 -12.667 -23.333 -20.334 -36 -23.001s-25 -2 -37 2s-23.167 10.5 -33.5 19.5s-18.5 19.5 -24.5 31.5l-112 285c-0.666992 -68 -0.666992 -125.833 0 -173.5s1.5 -87.5 2.5 -119.5s2.16699 -57.5 3.5 -76.5
s2.83301 -34.167 4.5 -45.5s3 -19.833 4 -25.5s1.83301 -11.167 2.5 -16.5c1.33301 -14.667 -3.16699 -25.5 -13.5 -32.5s-22.166 -10.5 -35.499 -10.5s-25.833 3.16699 -37.5 9.5s-18.167 15.5 -19.5 27.5l-26 698c0 5.33301 4 10.166 12 14.499s17 6.83301 27 7.5
s19.833 -1 29.5 -5s16.5 -11.667 20.5 -23c38 -70.667 73.833 -141.167 107.5 -211.5s65.834 -141.5 96.501 -213.5c21.333 30 43.166 64.167 65.499 102.5l67 114.5c22.333 38 44.666 74.167 66.999 108.5s44.5 62.5 66.5 84.5s43.833 36.333 65.5 43
s43.167 1.33398 64.5 -15.999l35 -694v0z" />
    <glyph glyph-name="N" unicode="N" horiz-adv-x="579" 
d="M162 42c6 -6 6.83496 -12.3311 2.50195 -18.998s-11.166 -12.5 -20.499 -17.5s-20.333 -8.5 -33 -10.5s-24.5 -1.83301 -35.5 0.5s-19.833 7.66602 -26.5 15.999s-8.66699 20.5 -6 36.5l-7 664c11.333 13.333 22.333 24.166 33 32.499s22.5 10.333 35.5 6
s28.333 -16.833 46 -37.5s39.5 -53.167 65.5 -97.5s57.167 -102.5 93.5 -174.5l129.5 -269c12 28 19.833 57 23.5 87s4.33398 60.833 2.00098 92.5s-6.33301 63.834 -12 96.501l-17 98c-5.66699 32.667 -10.334 65.167 -14.001 97.5s-4.83398 64.5 -3.50098 96.5
c13.333 14 26.166 19.333 38.499 16s23.5 -11.333 33.5 -24s18.833 -27.667 26.5 -45s14.167 -33 19.5 -47c4 -9.33301 7.83301 -26 11.5 -50s6.66699 -52.167 9 -84.5s3.83301 -67.5 4.5 -105.5s0 -76 -2 -114s-5.5 -74.667 -10.5 -110s-11.833 -66.5 -20.5 -93.5
s-19.334 -48.333 -32.001 -64s-27.667 -22.834 -45 -21.501c-18 -4.66699 -33 -2 -45 8s-23.167 26 -33.5 48s-21.333 50 -33 84s-26.5 73 -44.5 117s-40.167 92.333 -66.5 145s-59.5 109 -99.5 169z" />
    <glyph glyph-name="O" unicode="O" horiz-adv-x="564" 
d="M235 16c-37.333 9.33301 -69.501 26.998 -96.501 52.998s-49.167 57.167 -66.5 93.5s-29.666 76 -36.999 119s-9.83301 86.333 -7.5 130s9.66602 86 21.999 127s29.333 77.5 51 109.5s48.334 58 80.001 78s68.167 31 109.5 33
c40.667 -1.33301 76.667 -13.666 108 -36.999s57.5 -53.333 78.5 -90s36.833 -78.167 47.5 -124.5s15.5 -93.166 14.5 -140.499s-7.66699 -93.333 -20 -138s-31 -83.667 -56 -117s-56.333 -59 -94 -77s-82.167 -24.333 -133.5 -19zM242.999 106.998
c28.667 -6.66699 54.1631 -5.33398 76.4961 3.99902s41.833 23.833 58.5 43.5s30.334 43.834 41.001 72.501s18.334 58.834 23.001 90.501s6.33398 64 5.00098 97s-5.5 64.333 -12.5 94s-17.167 56 -30.5 79s-29.666 40.833 -48.999 53.5
c-37.333 12.667 -70 15.334 -98 8.00098s-52 -21.333 -72 -42s-35.833 -46.334 -47.5 -77.001s-19.5 -63.5 -23.5 -98.5s-4.16699 -70.333 -0.5 -106s11 -68.5 22 -98.5s25.5 -55.833 43.5 -77.5s39.333 -35.834 64 -42.501z" />
    <glyph glyph-name="P" unicode="P" horiz-adv-x="789" 
d="M423 16c0.666992 -5.33301 -3.50488 -11.334 -12.5049 -18.001s-19 -11.334 -30 -14.001s-21.167 -2 -30.5 2s-14.333 14 -15 30l-2 219c-15.333 0 -27.333 5.16699 -36 15.5s-13.667 22.833 -15 37.5s0.666992 29.334 6 44.001s14.333 26.667 27 36
c-3.33301 49.333 -6.16602 97 -8.49902 143s-2.83301 94 -1.5 144c-23.333 -4.66699 -44.166 -8.33398 -62.499 -11.001l-52.5 -8c-16.667 -2.66699 -33.334 -5.16699 -50.001 -7.5s-35 -5.5 -55 -9.5c-11.333 -4 -21.166 -2.83301 -29.499 3.5
s-14.166 14.666 -17.499 24.999s-3.66602 21 -0.999023 32s9.33398 19.167 20.001 24.5c124.667 29.333 235.334 44.666 332.001 45.999s176.667 -7.66699 240 -27s108.333 -46.666 135 -81.999s32.5 -74.666 17.5 -117.999s-52.333 -88.666 -112 -135.999
s-144.5 -92.666 -254.5 -135.999c0.666992 -3.33301 1.16699 -11 1.5 -23s0.5 -26.167 0.5 -42.5s0.166992 -33.833 0.5 -52.5s0.833008 -36.167 1.5 -52.5s1.16699 -30.333 1.5 -42s1.16602 -19.167 2.49902 -22.5zM408.995 368.999
c58 12.667 106.829 28.834 146.496 48.501s69.834 40.5 90.501 62.5s31.334 44 32.001 66s-9 41.5 -29 58.5s-50.833 30.333 -92.5 40s-94.167 13.167 -157.5 10.5c-0.666992 -20 -1 -42.333 -1 -67s0.333008 -49.834 1 -75.501s1.83398 -51 3.50098 -76
s3.83398 -47.5 6.50098 -67.5z" />
    <glyph glyph-name="Q" unicode="Q" horiz-adv-x="718" 
d="M132 23c-38 16.667 -66.1621 41.5 -84.4951 74.5s-29 70.167 -32 111.5s1.16699 85.333 12.5 132s27.666 92 48.999 136s46.833 85 76.5 123s61.667 69.167 96 93.5s70 40.166 107 47.499s73.833 2.33301 110.5 -15c36 -28 69 -59.667 99 -95s53 -74.333 69 -117
s23.167 -89 21.5 -139s-15.834 -103 -42.501 -159l125 -91c11.333 -8.66699 19.666 -21.167 24.999 -37.5s6.66602 -32.166 3.99902 -47.499s-9.83398 -28.333 -21.501 -39s-28.834 -14.334 -51.501 -11.001c-6.66699 0.666992 -13.5 4.66699 -20.5 12s-14.5 16 -22.5 26
l-25.5 32c-9 11.333 -18.667 21.333 -29 30s-21.5 15.167 -33.5 19.5s-24.667 4.83301 -38 1.5c-31.333 -27.333 -63.666 -49.666 -96.999 -66.999s-67 -29.833 -101 -37.5s-67.5 -10.167 -100.5 -7.5s-64.833 10.667 -95.5 24zM182.005 117
c16 -8 35.1631 -13.501 57.4961 -16.501s45.333 -3 69 0s47 9.66699 70 20s43.5 25.5 61.5 45.5c4 4.66699 1.16699 11.667 -8.5 21s-22.167 19.833 -37.5 31.5l-49 37.5c-17.333 13.333 -31.166 26.5 -41.499 39.5s-15.5 25.5 -15.5 37.5s9.33301 22.667 28 32
c20.667 10 39 14.5 55 13.5s30.5 -5.16699 43.5 -12.5s24.833 -16.5 35.5 -27.5l29.5 -31.5c9 -10 17.5 -18 25.5 -24s16.333 -7.66699 25 -5c10.667 23.333 16.167 50 16.5 80s-3.5 59 -11.5 87s-19.5 53.167 -34.5 75.5s-32.5 37.5 -52.5 45.5
c-8 0.666992 -17.667 2 -29 4s-19.833 6 -25.5 12s-6.66699 14.167 -3 24.5s16.167 24.5 37.5 42.5c-4 8 -9.16699 12.5 -15.5 13.5s-13.833 0.833008 -22.5 -0.5c-35.333 -3.33301 -69.166 -17 -101.499 -41s-61.166 -53.667 -86.499 -89s-46.166 -74.166 -62.499 -116.499
s-26.333 -83.166 -30 -122.499s0 -74.833 11 -106.5s31.5 -54.834 61.5 -69.501z" />
    <glyph glyph-name="R" unicode="R" horiz-adv-x="516" 
d="M139 59c2 -19.333 -2.16797 -33.4961 -12.501 -42.4961s-22.166 -13.333 -35.499 -13s-26 4.83301 -38 13.5s-18.333 21 -19 37c0 88.667 -1 169.167 -3 241.5s-3.16699 136.333 -3.5 192s0.833984 102.667 3.50098 141s8.66699 68.333 18 90s22.666 34.5 39.999 38.5
s40.666 -0.666992 69.999 -14c44.667 9.33301 84.5 10.666 119.5 3.99902s65.333 -18.834 91 -36.501s46.5 -39.5 62.5 -65.5s27 -53.667 33 -83s6.83301 -59.166 2.5 -89.499s-13.666 -58.5 -27.999 -84.5s-34 -48.833 -59 -68.5s-55.5 -33.5 -91.5 -41.5
c30.667 -20 62 -34.833 94 -44.5s60 -18.5 84 -26.5s41.667 -17.5 53 -28.5s11.666 -27.833 0.999023 -50.5c-8 -20.667 -18 -33.334 -30 -38.001s-26.167 -4.33398 -42.5 0.999023s-35.166 14.166 -56.499 26.499l-70.5 39c-25.667 13.667 -54 26.5 -85 38.5
s-64.167 20.667 -99.5 26zM129.999 357.004c49.333 -6 90.667 -4.33398 124 4.99902s59.833 23.166 79.5 41.499s32.834 39.5 39.501 63.5s8 48 4 72s-12.833 46.167 -26.5 66.5s-31.167 35.833 -52.5 46.5s-45.833 14.834 -73.5 12.501s-57.834 -14.166 -90.501 -35.499z
" />
    <glyph glyph-name="S" unicode="S" horiz-adv-x="633" 
d="M40 47c-7.33301 2 -14.168 7.16504 -20.501 15.498s-10.166 17.5 -11.499 27.5s1.33398 19.833 8.00098 29.5s19.334 16.5 38.001 20.5c96.667 -27.333 178.334 -40.833 245.001 -40.5s117 9 151 26s50.5 39.5 49.5 67.5s-20.5 56.333 -58.5 85
c-12.667 9.33301 -30.334 18 -53.001 26s-47.834 16 -75.501 24s-57 16 -88 24s-61.167 17 -90.5 27c-19.333 6 -36.833 16.333 -52.5 31s-28.834 31.834 -39.501 51.501s-18 41 -22 64s-3.83301 46 0.5 69s13.333 45.333 27 67s33.167 40.834 58.5 57.501
c23.333 12 49.166 22.167 77.499 30.5s57.5 14 87.5 17s59.833 2.83301 89.5 -0.5s57.5 -10.5 83.5 -21.5s49 -26.167 69 -45.5s35.333 -43.666 46 -72.999c1.33301 -9.33301 -1 -17.333 -7 -24s-15 -10.5 -27 -11.5s-26 2 -42 9s-33.333 20.167 -52 39.5
c-24 13.333 -52.5 20.666 -85.5 21.999s-65 -1.5 -96 -8.5s-58.833 -17.5 -83.5 -31.5s-40.667 -30.333 -48 -49s-3.5 -39 11.5 -61s46.5 -44 94.5 -66c98 -19.333 176.333 -42.5 235 -69.5s101.5 -55.333 128.5 -85s39.833 -59.667 38.5 -90s-13.166 -58.5 -35.499 -84.5
s-53.333 -48.667 -93 -68s-84.167 -33 -133.5 -41s-102 -9.33301 -158 -4s-111.333 20 -166 44z" />
    <glyph glyph-name="T" unicode="T" horiz-adv-x="573" 
d="M369 22c-8 -15.333 -17.335 -25 -28.002 -29s-21 -4.66699 -31 -2s-19.167 7.33398 -27.5 14.001s-14.166 13.334 -17.499 20.001l-14 625h-190c-13.333 0 -23.333 4.5 -30 13.5s-10.5 19.167 -11.5 30.5s1 22.666 6 33.999s12.833 19 23.5 23
c41.333 1.33301 84.333 2 129 2h135.5c45.667 0 91.667 0.5 138 1.5s91.5 3.5 135.5 7.5c16 -0.666992 27.333 -4 34 -10s10.334 -13 11.001 -21s-1 -16.5 -5 -25.5s-9 -17 -15 -24s-12.333 -12.5 -19 -16.5s-12 -5 -16 -3c-36 1.33301 -73 1.16602 -111 -0.500977
s-75 -5.5 -111 -11.5z" />
    <glyph glyph-name="U" unicode="U" horiz-adv-x="530" 
d="M322 1c-58 -8.66699 -106.33 1.8291 -144.997 31.4961s-69.334 75.334 -92.001 137.001s-38.167 137.667 -46.5 228s-11.5 192.166 -9.5 305.499c-2 16 1.83301 29 11.5 39s20.834 16.167 33.501 18.5s24.667 0.833008 36 -4.5s18 -15 20 -29
c5.33301 -31.333 8.83301 -67.666 10.5 -108.999s3.66699 -83.833 6 -127.5s5.33301 -87 9 -130s10 -82.167 19 -117.5s21.5 -65.166 37.5 -89.499s37 -39.5 63 -45.5c32.667 6.66699 58 22 76 46s30.833 53.333 38.5 88s11.5 73 11.5 115s-1.83301 84.667 -5.5 128
s-7.83398 85.333 -12.501 126s-7.33398 77.334 -8.00098 110.001c-1.33301 10.667 2.16699 19.334 10.5 26.001s18.166 10.5 29.499 11.5s22.5 -0.833008 33.5 -5.5s18.5 -13.334 22.5 -26.001c8 -24 15.333 -57.833 22 -101.5s11 -91.5 13 -143.5s1 -105.167 -3 -159.5
s-13 -104.5 -27 -150.5s-33.333 -84.667 -58 -116s-56.667 -49.666 -96 -54.999z" />
    <glyph glyph-name="V" unicode="V" horiz-adv-x="629" 
d="M355 11c-6.66699 1.33301 -12.4951 3.49707 -17.4951 6.49707s-11.167 10.167 -18.5 21.5s-17 29 -29 53l-49.5 101.5l-79.5 165.5l-119 247c-19.333 20 -27.833 37.667 -25.5 53s9.16602 27.333 20.499 36s24.333 13.167 39 13.5s24.667 -4.5 30 -14.5l265 -541l21 67
l28.5 91l31.5 105c10.667 36.667 20.667 72.834 30 108.501s17.666 69.834 24.999 102.501s12.666 61.334 15.999 86.001c1.33301 9.33301 6.66602 17 15.999 23s19.833 9.66699 31.5 11s23 0.166016 34 -3.50098s18.833 -10.5 23.5 -20.5
c-8.66699 -28 -18.334 -65.833 -29.001 -113.5l-34.5 -153.5c-12.333 -54.667 -26 -109.5 -41 -164.5s-31.167 -104.167 -48.5 -147.5s-36 -77.666 -56 -102.999s-41.333 -35.333 -64 -30z" />
    <glyph glyph-name="W" unicode="W" horiz-adv-x="1097" 
d="M760 12c-22 14 -42.502 32.333 -61.502 55s-37.333 45.834 -55 69.501l-52.5 68c-17.333 21.667 -36 38.5 -56 50.5l-125 -239c-20 -15.333 -39.333 -23 -58 -23s-36 5 -52 15s-30 23.833 -42 41.5s-21 36.5 -27 56.5l-213 624c-3.33301 9.33301 -1.33301 18 6 26
s16.166 14.167 26.499 18.5s20.666 6.5 30.999 6.5s16.833 -3.33301 19.5 -10l98.5 -263l67 -182.5l41.5 -116.5l22.5 -65.5c5 -15 8.33301 -24.833 10 -29.5s2.83398 -7.33398 3.50098 -8.00098l145 293c15.333 14 28.833 21 40.5 21s23 -5.16699 34 -15.5
s22.167 -24.5 33.5 -42.5s24.5 -37.833 39.5 -59.5s32.5 -44.5 52.5 -68.5s43.667 -46.667 71 -68l217 571c2.66699 7.33301 8 13.666 16 18.999s16.833 8.5 26.5 9.5s19 -0.5 28 -4.5s15.5 -12 19.5 -24c3.33301 -8.66699 3.83301 -18.834 1.5 -30.501
s-7.16602 -27.5 -14.499 -47.5l-29.5 -77l-45 -117.5l-60.5 -168c-22.667 -65 -48 -141.833 -76 -230.5c3.33301 -15.333 3 -28 -1 -38s-10.167 -17.167 -18.5 -21.5s-18.166 -6.16602 -29.499 -5.49902s-22.666 4.33398 -33.999 11.001z" />
    <glyph glyph-name="X" unicode="X" horiz-adv-x="535" 
d="M109 19c-5.33301 -11.333 -12.9971 -17.3369 -22.9971 -18.0039s-20 1.83301 -30 7.5s-18.5 13.834 -25.5 24.501s-9.83301 22.334 -8.5 35.001l164 317l-176 295c-10 14.667 -12.833 28.834 -8.5 42.501s12.5 23.5 24.5 29.5s26.333 6.33301 43 1
s32.667 -19.666 48 -42.999l19.5 -33l26 -45.5l28 -49.5l26.5 -45.5l20 -33.5c5.33301 -8.66699 8.66602 -13 9.99902 -13l162 239c7.33301 12.667 17.166 21.5 29.499 26.5s23.833 5.5 34.5 1.5s19 -12.333 25 -25s6.66699 -29.667 2 -51c-12 -22 -26.5 -45 -43.5 -69
l-52.5 -73.5l-53 -74.5c-17.333 -24.667 -32.333 -48.334 -45 -71.001l218 -338c-13.333 -28.667 -27.666 -44.834 -42.999 -48.501s-30.833 0.833008 -46.5 13.5s-31.334 31.334 -47.001 56.001s-30.834 51.334 -45.501 80.001l-42.5 84.5
c-13.667 27.667 -26.167 51.167 -37.5 70.5l-153 -292v0z" />
    <glyph glyph-name="Y" unicode="Y" horiz-adv-x="478" 
d="M169 416l-159.002 272.998c-5.33301 8.66699 -7.66602 17.334 -6.99902 26.001s3 16.5 7 23.5s9.66699 13 17 18s15.666 8.16699 24.999 9.5l168 -248l167 217c6.66699 12.667 15.834 22.334 27.501 29.001s22.667 9.66699 33 9s19 -5.33398 26 -14.001
s9.16699 -22 6.5 -40c-15.333 -30.667 -32.833 -59.667 -52.5 -87l-58 -77l-53 -68.5c-16.333 -21.667 -28.5 -42.167 -36.5 -61.5v-404c-7.33301 -10 -16.666 -17.167 -27.999 -21.5s-22.5 -5.66602 -33.5 -3.99902s-20.5 6.5 -28.5 14.5s-12.333 19.333 -13 34z" />
    <glyph glyph-name="Z" unicode="Z" horiz-adv-x="568" 
d="M60 12c-20.667 6.66699 -34.666 15.502 -41.999 26.502s-8.5 25.833 -3.5 44.5s15.5 42 31.5 70s37 62 63 102l92 140.5l118 185.5c4.66699 22.667 2.83398 39.334 -5.49902 50.001s-20 17 -35 19s-32.5 0.833008 -52.5 -3.5s-39.5 -9.5 -58.5 -15.5
s-36.333 -11.833 -52 -17.5s-26.834 -8.83398 -33.501 -9.50098c-17.333 -2 -31.5 0 -42.5 6s-18.167 14 -21.5 24s-2.83301 21 1.5 33s13.166 23 26.499 33c20 9.33301 38.833 17.166 56.5 23.499s36 11.666 55 15.999s39.833 7.83301 62.5 10.5s49 5 79 7
c42 -4 73.167 -13.833 93.5 -29.5s32.5 -35.5 36.5 -59.5s1.16699 -51.333 -8.5 -82s-23.5 -63.167 -41.5 -97.5s-38.667 -69.333 -62 -105l-71 -105.5l-67.5 -99c-21 -31.333 -38.167 -59.333 -51.5 -84l382 60c24 -12.667 38.333 -24.667 43 -36s4 -21.5 -2 -30.5
s-15.5 -16.5 -28.5 -22.5s-25.167 -10 -36.5 -12c-79.333 -18.667 -144 -32 -194 -40s-90.333 -12.833 -121 -14.5s-54 -1 -70 2s-29.333 6.5 -40 10.5z" />
    <glyph glyph-name="bracketleft" unicode="[" horiz-adv-x="385" 
d="M310 -133l-196.002 29c-20.667 -1.33301 -37.334 10.5 -50.001 35.5s-22.167 58.333 -28.5 100s-9.83301 89.667 -10.5 144s0.833008 110 4.5 167s9.16699 113.167 16.5 168.5s15.666 105.333 24.999 150s19.333 81.334 30 110.001s21.667 45 33 49l225 -4
c10.667 -0.666992 17.667 -5.5 21 -14.5s4.16602 -19 2.49902 -30s-5 -21.333 -10 -31s-10.5 -15.5 -16.5 -17.5l-181 -4c-7.33301 -56 -15.166 -111 -23.499 -165s-14.666 -109.5 -18.999 -166.5s-6.16602 -116.833 -5.49902 -179.5s6.33398 -131 17.001 -205
c1.33301 -6 10.833 -11.333 28.5 -16s37.667 -8.83398 60 -12.501s44.333 -7 66 -10s37.5 -5.83301 47.5 -8.5c8 -8.66699 12.833 -18.167 14.5 -28.5s0.666992 -20 -3 -29s-9.66699 -16.5 -18 -22.5s-18.166 -9 -29.499 -9z" />
    <glyph glyph-name="backslash" unicode="\" horiz-adv-x="423" 
d="M16 709c-4.66699 13.333 -4.66406 24.168 0.00292969 32.501s11.667 14.166 21 17.499s19.666 4.33301 30.999 3s21.666 -5.33301 30.999 -12l310 -662c6.66699 -8 9.16699 -18 7.5 -30s-5.83398 -22.833 -12.501 -32.5s-15.167 -16.167 -25.5 -19.5s-20.833 0 -31.5 10z
" />
    <glyph glyph-name="bracketright" unicode="]" horiz-adv-x="551" 
d="M41 -133c-11.333 0 -21.168 3 -29.501 9s-14.333 13.5 -18 22.5s-4.66699 18.667 -3 29s6.5 19.833 14.5 28.5c10 2.66699 25.833 5.5 47.5 8.5s43.667 6.33301 66 10s42.333 7.83398 60 12.501s27.167 10 28.5 16c10.667 74 16.334 142.333 17.001 205
s-1.16602 122.5 -5.49902 179.5s-10.666 112.5 -18.999 166.5s-16.166 109 -23.499 165l-181 4c-6 2 -11.5 7.83301 -16.5 17.5s-8.33301 20 -10 31s-0.833984 21 2.49902 30s10.333 13.833 21 14.5l225 4c10.667 -4 21.5 -20.333 32.5 -49s21.167 -65.334 30.5 -110.001
s17.666 -94.667 24.999 -150s12.833 -111.5 16.5 -168.5s5.16699 -112.667 4.5 -167s-4.16699 -102.333 -10.5 -144s-15.833 -75 -28.5 -100s-29.334 -36.833 -50.001 -35.5l-196 -29v0z" />
    <glyph glyph-name="asciicircum" unicode="^" horiz-adv-x="350" 
d="M164 415l-76 -85c-18.667 -0.666992 -33 0.833008 -43 4.5s-17 8.5 -21 14.5s-5.33301 12.5 -4 19.5s4 13.5 8 19.5c10.667 10 22.834 23.5 36.501 40.5s28 32.5 43 46.5s30.167 24.333 45.5 31s30 4.66699 44 -6c9.33301 -11.333 19.5 -22.333 30.5 -33l32 -32.5
c10.333 -11 20.166 -22.5 29.499 -34.5s17 -25.333 23 -40c0 -6.66699 -2.66699 -13 -8 -19s-11.833 -10.667 -19.5 -14s-16.167 -5.33301 -25.5 -6s-18 1 -26 5z" />
    <glyph glyph-name="underscore" unicode="_" horiz-adv-x="445" 
d="M393 104c12 2.66699 21.834 -1.66797 29.501 -13.001s11.5 -23.833 11.5 -37.5s-4.83301 -26.167 -14.5 -37.5s-25.834 -15.666 -48.501 -12.999l-304 4c-12.667 2 -23 8.16699 -31 18.5s-11.833 21.5 -11.5 33.5s5.5 22.5 15.5 31.5s27 12.833 51 11.5l302 2v0z" />
    <glyph glyph-name="grave" unicode="`" horiz-adv-x="210" 
d="M35 649c-12 10.667 -18.3311 20.5 -18.998 29.5s2 16.333 8 22s13.833 9.33398 23.5 11.001s19.167 0.5 28.5 -3.5c5.33301 -3.33301 11.666 -7 18.999 -11l23 -13l23 -13.5l19 -11.5c13.333 -8 21.666 -17.667 24.999 -29s2.5 -21 -2.5 -29s-14.167 -12.333 -27.5 -13
s-30 5.66602 -50 18.999z" />
    <glyph glyph-name="a" unicode="a" horiz-adv-x="575" 
d="M552 59c0 -19.333 -3.99414 -32.333 -11.9941 -39s-17.333 -10 -28 -10s-20.834 2.16699 -30.501 6.5s-15.834 8.5 -18.501 12.5l-53 114c-8.66699 -16 -18.667 -31.5 -30 -46.5s-24 -28.333 -38 -40s-29.167 -21.5 -45.5 -29.5s-33.833 -13 -52.5 -15
c-44.667 -1.33301 -81.834 5.5 -111.501 20.5s-53.334 35.167 -71.001 60.5s-29.334 54.5 -35.001 87.5s-6.5 67 -2.5 102s12.333 69.5 25 103.5s28.667 64.5 48 91.5s41.833 49.333 67.5 67s53.167 27.5 82.5 29.5s60.166 -4.83301 92.499 -20.5s65.5 -43.5 99.5 -83.5z
M160.006 125c30.667 -10.667 57.501 -13.168 80.501 -7.50098s42.5 16.5 58.5 32.5s28.167 36 36.5 60s13.5 49 15.5 75s0.833008 51.5 -3.5 76.5s-11.666 47 -21.999 66s-23.5 33.167 -39.5 42.5s-34.667 11.333 -56 6c-17.333 -4 -32.833 -14.167 -46.5 -30.5
s-25.167 -35.666 -34.5 -57.999s-16.333 -46.5 -21 -72.5s-6.83398 -51.333 -6.50098 -76s3.66602 -47.167 9.99902 -67.5s15.833 -35.833 28.5 -46.5z" />
    <glyph glyph-name="b" unicode="b" horiz-adv-x="498" 
d="M385 57c-39.333 -25.333 -78.167 -42.0078 -116.5 -50.0078s-72.833 -8.83301 -103.5 -2.5s-55.667 18.833 -75 37.5s-29.666 42.334 -30.999 71.001l-35 540c-1.33301 22.667 2 43.334 10 62.001s18 31.834 30 39.501s24.333 8.33398 37 2.00098
s22.667 -22.833 30 -49.5c-0.666992 -19.333 -2 -36.833 -4 -52.5s-3.5 -31.167 -4.5 -46.5s-0.833008 -31.166 0.5 -47.499s5 -34.5 11 -54.5c52 38.667 100 58.667 144 60s82 -9.66699 114 -33s57.333 -55.666 76 -96.999s28.5 -85.166 29.5 -131.499
s-7.33301 -91.666 -25 -135.999s-46.834 -81.5 -87.501 -111.5zM141.999 368.992c-3.33301 -6.66699 -6.33105 -18.1719 -8.99805 -34.5049s-4 -34.666 -4 -54.999s1.5 -41.333 4.5 -63s8.16699 -41.5 15.5 -59.5s17 -33 29 -45s27.333 -18.333 46 -19
c48.667 10.667 87.167 27.334 115.5 50.001s48.5 48 60.5 76s17.167 56.833 15.5 86.5s-8.33398 57 -20.001 82s-27.334 45.833 -47.001 62.5s-41 25.834 -64 27.501s-47 -5.66602 -72 -21.999s-48.5 -45.166 -70.5 -86.499z" />
    <glyph glyph-name="c" unicode="c" horiz-adv-x="461" 
d="M442 136c-17.333 -40.667 -39.501 -71.0049 -66.501 -91.0049s-55.833 -31.833 -86.5 -35.5s-61.5 0.166016 -92.5 11.499s-59 27.833 -84 49.5s-45.667 47.834 -62 78.501s-25.166 64 -26.499 100c-2.66699 22.667 -3.83398 46.5 -3.50098 71.5s2.83301 49.333 7.5 73
s12.167 46.334 22.5 68.001s24.5 40.834 42.5 57.501c22 18 45.833 29.5 71.5 34.5s50.334 5.33301 74.001 1s45.167 -11.833 64.5 -22.5s33.333 -22.5 42 -35.5s10.667 -25.833 6 -38.5s-18.667 -23 -42 -31c-34.667 20 -64.667 30.333 -90 31s-46 -5.16602 -62 -17.499
s-27.833 -29.666 -35.5 -51.999s-11.667 -46.5 -12 -72.5s3 -52.167 10 -78.5s17 -50 30 -71s29 -37.5 48 -49.5s40.167 -16.5 63.5 -13.5s49 14.833 77 35.5s57.667 53.667 89 99c7.33301 4 13.5 3.33301 18.5 -2s8.33301 -13.166 10 -23.499s1.5 -22.333 -0.5 -36
s-6.33301 -27.167 -13 -40.5z" />
    <glyph glyph-name="d" unicode="d" horiz-adv-x="575" 
d="M190 6c-43.333 10.667 -78.832 31.334 -106.499 62.001s-47.5 65.834 -59.5 105.501s-16.333 81.5 -13 125.5s14.166 84.833 32.499 122.5s44.166 69.667 77.499 96s74 41.833 122 46.5c23.333 2 48 1.66699 74 -1s49.667 -9.33398 71 -20.001l-13 197
c0 8 5.83301 14 17.5 18s24.5 5.66699 38.5 5s26.833 -4.33398 38.5 -11.001s17.5 -17 17.5 -31l65 -679c1.33301 -12.667 -1.83398 -22.667 -9.50098 -30s-17 -12 -28 -14s-22.167 -1.33301 -33.5 2s-19.333 9.33301 -24 18c-1.33301 2 -3.16602 6.66699 -5.49902 14
l-7.5 24l-7 23c-2 6.66699 -3.33301 10 -4 10c-26 -26 -51.167 -45.5 -75.5 -58.5s-47.166 -21.667 -68.499 -26s-40.5 -5.83301 -57.5 -4.5s-30.833 3.33301 -41.5 6zM113.001 231c9.33301 -36.667 21.6699 -66.168 37.0029 -88.501s32.166 -38.333 50.499 -48
s37.666 -13.667 57.999 -12s40.166 7.83398 59.499 18.501s37.666 25 54.999 43s32.333 39 45 63c6 12 9.5 25.5 10.5 40.5s0.333008 30.5 -2 46.5s-5.66602 32.167 -9.99902 48.5l-12.5 47.5c-18.667 36.667 -39.834 62.334 -63.501 77.001s-47.5 21.167 -71.5 19.5
s-47 -10.334 -69 -26.001s-40.667 -35.5 -56 -59.5s-26.166 -50.833 -32.499 -80.5s-5.83301 -59.5 1.5 -89.5z" />
    <glyph glyph-name="e" unicode="e" horiz-adv-x="486" 
d="M464 107c-12 -22.667 -27.9961 -41.5 -47.9961 -56.5s-42 -26.167 -66 -33.5s-49.167 -10.833 -75.5 -10.5s-51.833 4.5 -76.5 12.5s-47.834 19.333 -69.501 34s-39.834 32.667 -54.501 54c-24 42 -40.333 87 -49 135s-8.33398 93.333 0.999023 136s28.333 80 57 112
s68.667 53.333 120 64c48.667 3.33301 87.167 -2.5 115.5 -17.5s47.666 -35.333 57.999 -61s12.333 -54.167 6 -85.5s-19.833 -61.833 -40.5 -91.5s-48 -56 -82 -79s-73.333 -38.833 -118 -47.5c13.333 -22 28.5 -37.833 45.5 -47.5s34.833 -15.5 53.5 -17.5
s37.167 -0.833008 55.5 3.5s35.333 9.66602 51 15.999s29.5 12.333 41.5 18s20.667 9.5 26 11.5c24 7.33301 40.333 7.33301 49 0s8.66699 -23.666 0 -48.999zM199.004 464c-16 -12 -30.001 -25.668 -42.001 -41.001s-21.667 -31.666 -29 -48.999
s-12.166 -35.333 -14.499 -54s-1.83301 -37 1.5 -55c28 4 53.167 12.667 75.5 26s41 28.5 56 45.5s25.833 34.5 32.5 52.5s8.5 33.667 5.5 47s-11.5 23 -25.5 29s-34 5.66699 -60 -1z" />
    <glyph glyph-name="f" unicode="f" horiz-adv-x="461" 
d="M158 235c-2.66699 2 -9.33594 3.50098 -20.0029 4.50098l-36.5 3.5c-13.667 1.33301 -27.5 3.5 -41.5 6.5s-25.833 7.33301 -35.5 13s-15.667 13.167 -18 22.5s1.5 21.333 11.5 36c4.66699 8 11 14.167 19 18.5s16.667 7.5 26 9.5s18.833 3 28.5 3
s18.834 -0.666992 27.501 -2c-11.333 76 -12.833 139.833 -4.5 191.5s22.833 93.334 43.5 125.001s45.667 54.5 75 68.5s58.833 20.667 88.5 20s57.834 -7.33398 84.501 -20.001s48 -29.334 64 -50.001c9.33301 -7.33301 13 -16.666 11 -27.999s-7 -21.666 -15 -30.999
s-17.5 -15.833 -28.5 -19.5s-20.833 -0.833984 -29.5 8.49902c-27.333 31.333 -52.333 49.333 -75 54s-42.5 0.5 -59.5 -12.5s-31.167 -32.667 -42.5 -59s-19.333 -54.5 -24 -84.5s-5.66699 -59.833 -3 -89.5s9 -54.5 19 -74.5l156 1
c10.667 -6.66699 18.834 -15.5 24.501 -26.5s9 -22 10 -33s0 -20.833 -3 -29.5s-7.83301 -14.334 -14.5 -17.001l-137 -7c1.33301 -6 4.66602 -16.833 9.99902 -32.5s11 -33.5 17 -53.5s11.333 -41.167 16 -63.5s7 -43.5 7 -63.5
c-5.33301 -13.333 -13.5 -22.833 -24.5 -28.5s-22.167 -8.5 -33.5 -8.5s-22.166 3 -32.499 9s-17.5 14.667 -21.5 26z" />
    <glyph glyph-name="g" unicode="g" horiz-adv-x="588" 
d="M328 -404c-40 9.33301 -73.3291 24.3311 -99.9961 44.998s-45.334 41.167 -56.001 61.5s-12.334 38 -5.00098 53s25 21.5 53 19.5c31.333 -30 61.5 -50.167 90.5 -60.5s55.5 -12.166 79.5 -5.49902s44.333 21 61 43s28 50 34 84s5.83301 73.5 -0.5 118.5
s-20.5 93.833 -42.5 146.5c-18.667 -24.667 -40.667 -44.667 -66 -60s-52 -25.666 -80 -30.999s-56.333 -5.5 -85 -0.5s-55.334 15.667 -80.001 32s-46.5 38.166 -65.5 65.499s-32.833 61 -41.5 101c-4 49.333 -1.33301 94.833 8 136.5s23.833 78 43.5 109
s43.667 56.333 72 76s59.5 32.5 93.5 38.5s70.167 4.16699 108.5 -5.5s77.166 -27.834 116.499 -54.501c4.66699 -32 12.5 -70.167 23.5 -114.5l35 -142c12.333 -50.333 23.833 -102.166 34.5 -155.499s18.167 -105 22.5 -155s4.33301 -97 0 -141s-15.833 -82 -34.5 -114
s-45.667 -56.167 -81 -72.5s-81.333 -22.166 -138 -17.499zM124.004 296.998c0 -45.333 6.66602 -81.8301 19.999 -109.497s30.333 -47.834 51 -60.501s43 -18.334 67 -17.001s46.833 8 68.5 20s40.334 28.667 56.001 50s25.167 46 28.5 74
c-3.33301 13.333 -6.33301 28.166 -9 44.499s-5.66699 33 -9 50s-7 33.333 -11 49s-8.33301 29.5 -13 41.5c-13.333 17.333 -28.833 28.5 -46.5 33.5s-35.667 5.33301 -54 1s-36.333 -12.333 -54 -24s-33.5 -25.667 -47.5 -42s-25.333 -34 -34 -53s-13 -38.167 -13 -57.5z
" />
    <glyph glyph-name="h" unicode="h" horiz-adv-x="472" 
d="M144 14c-12 -14.667 -25.333 -24.0039 -40 -28.0039s-28 -3.5 -40 1.5s-21.333 14.333 -28 28s-7.66699 31.167 -3 52.5l-5 658c4.66699 10 12.167 17.833 22.5 23.5s21 8.5 32 8.5s20.833 -2.83301 29.5 -8.5s13.334 -14.5 14.001 -26.5v-267
c12.667 18 23.5 32.667 32.5 44s18.5 20.833 28.5 28.5s21.5 13.667 34.5 18s29.167 8.5 48.5 12.5c36.667 4.66699 66.5 -1.66602 89.5 -18.999s40.833 -41.166 53.5 -71.499s21.334 -64.666 26.001 -102.999s7.66699 -76.166 9 -113.499s1.83301 -72 1.5 -104
s0.833984 -56.333 3.50098 -73c5.33301 -20.667 4.66602 -38.334 -2.00098 -53.001s-15.834 -24.334 -27.501 -29.001s-24.334 -3.5 -38.001 3.5s-24.5 22.167 -32.5 45.5c-4 23.333 -6.5 49.333 -7.5 78s-1.5 57.834 -1.5 87.501s-0.5 58.5 -1.5 86.5s-3.5 53 -7.5 75
s-10.167 39.833 -18.5 53.5s-20.166 20.834 -35.499 21.501c-24.667 -6 -45.334 -17.333 -62.001 -34s-30.167 -37 -40.5 -61s-18.166 -50.333 -23.499 -79s-9 -58 -11 -88s-2.83301 -59.5 -2.5 -88.5s1.16602 -55.5 2.49902 -79.5z" />
    <glyph glyph-name="i" unicode="i" horiz-adv-x="194" 
d="M151 88c4.66699 -12.667 6.16895 -24.999 4.50195 -36.999s-5.5 -22.667 -11.5 -32s-13.5 -16.666 -22.5 -21.999s-18.167 -7.66602 -27.5 -6.99902s-18.166 4.83398 -26.499 12.501s-14.833 20.167 -19.5 37.5c-1.33301 4.66699 -2.5 16.167 -3.5 34.5
s-1.83301 39.833 -2.5 64.5s-1.33398 51.167 -2.00098 79.5s-1.33398 54.833 -2.00098 79.5s-1.33398 46.167 -2.00098 64.5s-1.66699 30.166 -3 35.499c-4.66699 32.667 -5 59.167 -1 79.5s10.167 35.666 18.5 45.999s17.833 16 28.5 17s20.5 -1.83301 29.5 -8.5
s16.167 -16.834 21.5 -30.501s7 -29.834 5 -48.501zM79.002 620.001c-14.667 11.333 -23.499 23.8311 -26.499 37.498s-2 25.834 3 36.501s13 18.334 24 23.001s22.833 4 35.5 -2c14.667 -8 23.667 -19.333 27 -34s2.66602 -28.167 -2.00098 -40.5s-12.5 -21.333 -23.5 -27
s-23.5 -3.5 -37.5 6.5z" />
    <glyph glyph-name="j" unicode="j" horiz-adv-x="268" 
d="M-100 -290c-20.667 6.66699 -34.9951 16.4951 -42.9951 29.4951s-10.667 25.833 -8 38.5s10.5 23.167 23.5 31.5s30.167 11.5 51.5 9.5c20 -17.333 39.5 -28.333 58.5 -33s36.833 -4.5 53.5 0.5s31.667 14.167 45 27.5s24.166 29 32.499 47s13.666 37.833 15.999 59.5
s1.16602 43.5 -3.50098 65.5l-100 378c-2.66699 12.667 0.833008 24.334 10.5 35.001s21.167 18.834 34.5 24.501s26.166 8.33398 38.499 8.00098s19.5 -4.83301 21.5 -13.5l87 -331c8 -32.667 12.667 -67.5 14 -104.5s-1.33398 -73.167 -8.00098 -108.5
s-17.834 -67.666 -33.501 -96.999s-36.667 -52.666 -63 -69.999s-58.166 -26.5 -95.499 -27.5s-81.333 9.16699 -132 30.5zM60.0049 580.995c-14.667 11.333 -23.499 23.8311 -26.499 37.498s-2 25.834 3 36.501s13 18.334 24 23.001s22.833 4 35.5 -2
c14.667 -8 23.667 -19.333 27 -34s2.66602 -28.167 -2.00098 -40.5s-12.5 -21.333 -23.5 -27s-23.5 -3.5 -37.5 6.5z" />
    <glyph glyph-name="k" unicode="k" horiz-adv-x="491" 
d="M155 33c0 -16 -5.00195 -27.833 -15.002 -35.5s-21.333 -11.5 -34 -11.5s-25 3.66699 -37 11s-20 18.333 -24 33l-31 568c-4 31.333 -4.16699 57.166 -0.5 77.499s9.16699 35.333 16.5 45s16 14.334 26 14.001s19.5 -5 28.5 -14s16.833 -22.167 23.5 -39.5
s10.334 -38 11.001 -62l14 -253c10.667 6 22.167 17.833 34.5 35.5l39 57.5c13.667 20.667 27.834 41 42.501 61s29.5 35.5 44.5 46.5s30.167 15.5 45.5 13.5s30.333 -14.667 45 -38c-1.33301 -20 -7.33301 -39.5 -18 -58.5s-23.5 -37.5 -38.5 -55.5
s-30.667 -35.333 -47 -52s-30.833 -32.667 -43.5 -48l216 -23c14 -2.66699 23.833 -9.33398 29.5 -20.001s8 -22.167 7 -34.5s-5 -24.166 -12 -35.499s-15.833 -19.333 -26.5 -24c-20.667 2 -44.5 5.5 -71.5 10.5s-54.667 9.16699 -83 12.5s-56 5 -83 5
s-50.833 -3.33301 -71.5 -10l13 -176v0z" />
    <glyph glyph-name="l" unicode="l" horiz-adv-x="210" 
d="M184 52c4.66699 -16.667 4.00488 -29.499 -1.99512 -38.499s-14.667 -14.5 -26 -16.5s-23.833 -0.833008 -37.5 3.5s-25.5 11.5 -35.5 21.5l-34 678c-4.66699 12 -4.83398 22.5 -0.500977 31.5s10.666 16 18.999 21s17.666 8.16699 27.999 9.5
s19.666 0.166016 27.999 -3.50098s14.666 -9.66699 18.999 -18s4.5 -19.5 0.5 -33.5l41 -655v0z" />
    <glyph glyph-name="m" unicode="m" horiz-adv-x="778" 
d="M169 39c-3.33301 -15.333 -11.0049 -26.332 -23.0049 -32.999s-24.833 -10 -38.5 -10s-26.667 3.33301 -39 10s-20.5 16 -24.5 28c-1.33301 35.333 -2.16602 75.333 -2.49902 120s-1.16602 89.5 -2.49902 134.5s-3.83301 88.167 -7.5 129.5s-9.16699 76 -16.5 104
c-1.33301 14.667 1 27.167 7 37.5s13.833 17.5 23.5 21.5s20.334 3.83301 32.001 -0.5s22.167 -13.5 31.5 -27.5l13 -96c22 36 47 60.667 75 74s54.5 16.666 79.5 9.99902s46.833 -22.667 65.5 -48s30 -58.666 34 -99.999c1.33301 11.333 7.66602 25.333 18.999 42
s25.833 33.5 43.5 50.5s37.334 32.333 59.001 46s43.5 23.334 65.5 29.001s43.333 5.66699 64 0s38.667 -19.5 54 -41.5c8 -12.667 14.833 -30.334 20.5 -53.001s10.334 -47.834 14.001 -75.501s7 -56.667 10 -87l8.5 -87.5c2.66699 -28 5.66699 -54 9 -78
s7.66602 -43.333 12.999 -58c2 -20 -1.16699 -37.167 -9.5 -51.5s-18.5 -24 -30.5 -29s-24.333 -4.66699 -37 1s-22.667 18.167 -30 37.5c2.66699 101.333 -1.16602 182.666 -11.499 243.999s-23.833 105 -40.5 131s-35.167 35.833 -55.5 29.5s-39 -26.5 -56 -60.5
s-31.167 -80.167 -42.5 -138.5s-16.333 -126.5 -15 -204.5c-4.66699 -13.333 -11.167 -23 -19.5 -29s-17.5 -9 -27.5 -9s-20.333 2.83301 -31 8.5s-20.334 13.5 -29.001 23.5c2 70 -1.16699 132.167 -9.5 186.5s-19.166 97.5 -32.499 129.5s-27.666 51.833 -42.999 59.5
s-29 0 -41 -23s-20.833 -62.667 -26.5 -119s-5.5 -132.166 0.5 -227.499z" />
    <glyph glyph-name="n" unicode="n" horiz-adv-x="543" 
d="M140 50c0 -20.667 -5.49805 -34.498 -16.498 -41.498s-23 -9.33301 -36 -7s-25 8.16602 -36 17.499s-17.167 20.333 -18.5 33c1.33301 68 1.5 140.5 0.5 217.5s-3.16699 157.833 -6.5 242.5c5.33301 18 14.5 29.333 27.5 34s25.5 3.16699 37.5 -4.5
s21.167 -21.334 27.5 -41.001s5.5 -44.834 -2.5 -75.501c42.667 62.667 82.667 103.667 120 123s71.666 23.333 102.999 12s58.833 -34.5 82.5 -69.5s43.167 -75.5 58.5 -121.5s25.833 -94.167 31.5 -144.5s5.83398 -96.5 0.500977 -138.5
c0.666992 -17.333 -4.5 -30.333 -15.5 -39s-23 -13.5 -36 -14.5s-24.833 2.16699 -35.5 9.5s-15.334 18.666 -14.001 33.999c4.66699 84 2.83398 152 -5.49902 204s-20.333 90.833 -36 116.5s-33.834 39.834 -54.501 42.501s-41.5 -2.83301 -62.5 -16.5
s-41 -34.167 -60 -61.5s-34.333 -58 -46 -92s-18.834 -70.167 -21.501 -108.5s2 -75.166 14 -110.499z" />
    <glyph glyph-name="o" unicode="o" horiz-adv-x="472" 
d="M125 18c-30 14.667 -53.166 35.167 -69.499 61.5s-27 55.333 -32 87s-5 64.667 0 99s13.5 67.666 25.5 99.999s26.667 61.833 44 88.5s36 48.334 56 65.001c36.667 28 70.667 44.667 102 50s59.333 2.33301 84 -9s46.167 -29.333 64.5 -54s32.666 -52.834 42.999 -84.501
s16.5 -65.667 18.5 -102s-0.5 -71.833 -7.5 -106.5s-18.667 -67 -35 -97s-38 -54.667 -65 -74s-59.333 -31.666 -97 -36.999s-81.5 -1 -131.5 13zM202.001 101c28 -2.66699 53.166 3.50098 75.499 18.501s40.833 34.667 55.5 59s25.334 51.833 32.001 82.5s8 60.167 4 88.5
s-13.333 54 -28 77s-35.667 39.167 -63 48.5c-16.667 3.33301 -34.167 -2 -52.5 -16s-35 -32.833 -50 -56.5s-27.333 -50.334 -37 -80.001s-14.5 -59 -14.5 -88s6 -55.5 18 -79.5s32 -42 60 -54z" />
    <glyph glyph-name="p" unicode="p" horiz-adv-x="562" 
d="M200 -207c4 -21.333 1.50098 -37.6709 -7.49902 -49.0039s-20 -17.833 -33 -19.5s-25.833 1.33301 -38.5 9s-20.667 19.5 -24 35.5c1.33301 42.667 2 92.667 2 150s-1 116.333 -3 177s-5 120.334 -9 179.001s-9.33301 110.334 -16 155.001
c-16.667 -7.33301 -30.334 -10 -41.001 -8s-18.167 6.83301 -22.5 14.5s-5.5 17.334 -3.5 29.001s7.33301 24.167 16 37.5c22 26.667 52.333 42.167 91 46.5s79.667 0.5 123 -11.5s86.5 -30.833 129.5 -56.5s80.167 -55 111.5 -88s54 -68.5 68 -106.5s14 -75 0 -111
c-9.33301 -25.333 -27 -48.666 -53 -69.999s-55.833 -39 -89.5 -53s-69 -23.667 -106 -29s-71.5 -4.33301 -103.5 3zM194.001 114.995c70.667 4 124.833 14.5 162.5 31.5s62.5 37.333 74.5 61s12.833 49 2.5 76s-27.833 52.333 -52.5 76s-54.667 44.167 -90 61.5
s-72.333 28 -111 32z" />
    <glyph glyph-name="q" unicode="q" horiz-adv-x="467" 
d="M455 -422c-24.667 4 -45.167 13.667 -61.5 29s-29.333 34.666 -39 57.999s-16.834 49.833 -21.501 79.5s-7.83398 60.5 -9.50098 92.5s-2.33398 64.5 -2.00098 97.5s0.833008 64.833 1.5 95.5c-34.667 -25.333 -69 -37.666 -103 -36.999s-65 10.334 -93 29.001
s-51.833 44.5 -71.5 77.5s-31.834 68.833 -36.501 107.5c-5.33301 68.667 -1.16602 127.834 12.501 177.501s32.834 89.5 57.501 119.5s53.334 49.833 86.001 59.5s65.5 9.16699 98.5 -1.5s64.5 -32 94.5 -64s55 -75 75 -129c4 -24.667 5.5 -55.834 4.5 -93.501
s-3.16699 -78 -6.5 -121l-10.5 -132.5c-3.66699 -45.333 -6.16699 -87.833 -7.5 -127.5s-1 -75.167 1 -106.5s7.33301 -54.5 16 -69.5s21.334 -20.333 38.001 -16s38.667 22.166 66 53.499c18 11.333 31.833 14.5 41.5 9.5s15.167 -14.5 16.5 -28.5s-1 -30.667 -7 -50
s-15.5 -37.5 -28.5 -54.5s-28.833 -31 -47.5 -42s-40 -15.167 -64 -12.5zM112 218c0 -17.333 4.00195 -32.998 12.002 -46.998s18.167 -25.5 30.5 -34.5s26.166 -15.333 41.499 -19s30.333 -4 45 -1s28 9.66699 40 20s21 24.833 27 43.5c19.333 52.667 27.5 99 24.5 139
s-12.333 72 -28 96s-35.167 39.167 -58.5 45.5s-45.5 2.16602 -66.5 -12.501s-38.333 -40.834 -52 -78.501s-18.834 -88.167 -15.501 -151.5z" />
    <glyph glyph-name="r" unicode="r" horiz-adv-x="429" 
d="M158 38c-4.66699 -10.667 -12.834 -19.1699 -24.501 -25.5029s-23.834 -9.5 -36.501 -9.5s-24.5 3.66699 -35.5 11s-18.5 19.666 -22.5 36.999c-1.33301 6.66699 -1.5 20.5 -0.5 41.5s1.16699 50.667 0.5 89s-2.66699 86 -6 143s-9.66602 125.167 -18.999 204.5
c14 12.667 27.5 17.334 40.5 14.001s24.833 -10.666 35.5 -21.999s19.334 -25.166 26.001 -41.499s10.334 -31.5 11.001 -45.5c3.33301 12.667 10.5 25.834 21.5 39.501s24.5 26.167 40.5 37.5s33.833 21 53.5 29s40 13 61 15s42 0 63 -6s40.5 -17.333 58.5 -34
c0.666992 -6 -0.333008 -12.333 -3 -19s-6.33398 -13 -11.001 -19s-10 -11.167 -16 -15.5s-12 -7.16602 -18 -8.49902c-38.667 8 -71.5 7.5 -98.5 -1.5s-49.167 -23.833 -66.5 -44.5s-30.333 -45.834 -39 -75.501s-14.667 -61.167 -18 -94.5s-4.5 -67.333 -3.5 -102
s3.16699 -67 6.5 -97z" />
    <glyph glyph-name="s" unicode="s" horiz-adv-x="434" 
d="M63 22c-8.66699 2 -16.9971 6.33301 -24.9971 13s-13.667 14.5 -17 23.5s-2.83301 18.833 1.5 29.5s14.5 21 30.5 31c8.66699 -8 23 -14.833 43 -20.5s41.833 -9.5 65.5 -11.5s47.167 -2.16699 70.5 -0.5s42.833 5.5 58.5 11.5s25.5 14.167 29.5 24.5
s-1.66699 23.166 -17 38.499c-44.667 30 -83.5 54.833 -116.5 74.5s-61 39 -84 58s-41.333 40 -55 63s-23.5 52.5 -29.5 88.5c-2 29.333 5 53.5 21 72.5s36.667 33.333 62 43s53.666 14.834 84.999 15.501s61.833 -2.83301 91.5 -10.5s56.5 -19.167 80.5 -34.5
s41.333 -34 52 -56c2 -10 1.5 -19.167 -1.5 -27.5s-7.5 -15.5 -13.5 -21.5s-13.5 -10.5 -22.5 -13.5s-18.5 -3.83301 -28.5 -2.5c-20.667 26 -43.167 44.833 -67.5 56.5s-47.333 17.834 -69 18.501s-39.834 -3.83301 -54.501 -13.5s-22.334 -22.834 -23.001 -39.501
s7.5 -36.334 24.5 -59.001s46.5 -47 88.5 -73c60 -36 104.5 -69.5 133.5 -100.5s45.333 -58.667 49 -83s-3.5 -45.166 -21.5 -62.499s-43.667 -30.333 -77 -39s-72.833 -12.667 -118.5 -12s-94.167 7 -145.5 19z" />
    <glyph glyph-name="t" unicode="t" horiz-adv-x="336" 
d="M213 377c-3.33301 -1.33301 -4.66992 -9.00098 -4.00293 -23.001s2.16699 -31.667 4.5 -53s5.16602 -45.333 8.49902 -72s5.66602 -53 6.99902 -79s1.16602 -50.5 -0.500977 -73.5s-5.83398 -41.833 -12.501 -56.5s-16.5 -23.834 -29.5 -27.501s-30.5 0.5 -52.5 12.5
l-24 372c-14.667 2.66699 -26.667 4 -36 4s-18.166 -0.5 -26.499 -1.5s-17.5 -2 -27.5 -3s-23 -0.833008 -39 0.5c-12 7.33301 -19.667 16.666 -23 27.999s-0.5 22.5 8.5 33.5s25 20.333 48 28s54.833 11.5 95.5 11.5c4.66699 2.66699 6 12.834 4 30.501
s-4.66699 38.5 -8 62.5s-5.83301 49 -7.5 75s0.166016 48.333 5.49902 67s15.5 31.334 30.5 38.001s37.5 3 67.5 -11c0.666992 -37.333 1.33398 -68.666 2.00098 -93.999s1.33398 -46.5 2.00098 -63.5s1.33398 -30.5 2.00098 -40.5s1.33398 -18.5 2.00098 -25.5
s1.33398 -13.333 2.00098 -19s1.33398 -12.5 2.00098 -20.5c14 -0.666992 26.833 -0.5 38.5 0.5l34 3c11 1 22.333 1.83301 34 2.5s24.5 0.666992 38.5 0c14.667 -3.33301 25.334 -9.33301 32.001 -18s9.83398 -18 9.50098 -28s-4.33301 -19.5 -12 -28.5
s-17.834 -15.833 -30.501 -20.5l-145 -11v0z" />
    <glyph glyph-name="u" unicode="u" horiz-adv-x="468" 
d="M191 3c-28.667 10 -52.668 26.1592 -72.001 48.4922s-35 48.333 -47 78s-21.167 61.5 -27.5 95.5s-10.666 68 -12.999 102s-3.33301 66.5 -3 97.5s1.16602 58.167 2.49902 81.5c1.33301 12.667 6.16602 22 14.499 28s18 9.16699 29 9.5s21.833 -1.83398 32.5 -6.50098
s19 -11 25 -19c4.66699 -6.66699 7.83398 -20.667 9.50098 -42s3 -46.166 4 -74.499s2.33301 -58 4 -89s5 -60 10 -87s12.167 -50.167 21.5 -69.5s22.666 -30.666 39.999 -33.999c26.667 0.666992 47.834 8.33398 63.501 23.001s27 33.834 34 57.501
s10.5 50.334 10.5 80.001s-2 59.834 -6 90.501s-9.16699 60.334 -15.5 89.001s-12.166 53.667 -17.499 75c-3.33301 16 -0.833008 26.333 7.5 31s18.833 5.83398 31.5 3.50098s25.667 -6.83301 39 -13.5s23 -13.667 29 -21c14 -29.333 25 -63.666 33 -102.999
s11.667 -79.666 11 -120.999s-5.66699 -81.833 -15 -121.5s-24 -74.334 -44 -104.001s-45.833 -52.5 -77.5 -68.5s-69.5 -21.333 -113.5 -16z" />
    <glyph glyph-name="v" unicode="v" horiz-adv-x="564" 
d="M368 42c-11.333 -20.667 -25.168 -33.665 -41.501 -38.998s-34.166 -0.333008 -53.499 15l-18.5 27.5c-11 16.333 -27.333 42.666 -49 78.999l-81.5 143l-116 219.5c-7.33301 11.333 -10 22.833 -8 34.5s6.83301 21.5 14.5 29.5s17.334 13.5 29.001 16.5
s23.5 2.16699 35.5 -2.5c6.66699 -2.66699 14.667 -10.834 24 -24.501s19.5 -30.5 30.5 -50.5l35 -66.5l37 -72.5l36 -69c11.667 -22 22.5 -40.5 32.5 -55.5s19 -25.667 27 -32s14.333 -5.83301 19 1.5c2 3.33301 5.16699 11 9.5 23l15 43.5l18 53.5l18 53.5l15 43.5
c4.33301 12 7.16602 19.667 8.49902 23l12 32.5c4.66699 13 10 26.333 16 40s12.833 26.167 20.5 37.5s16.167 19.5 25.5 24.5s19.5 5.83301 30.5 2.5s23.5 -13.333 37.5 -30c4 -4.66699 6.5 -10.5 7.5 -17.5s-0.333008 -17.333 -4 -31s-9.66699 -31.5 -18 -53.5
s-19.833 -50.833 -34.5 -86.5l-54 -130z" />
    <glyph glyph-name="w" unicode="w" horiz-adv-x="790" 
d="M214 18c-39.333 30 -70.4971 64.0039 -93.4971 102.004s-40.833 78.333 -53.5 121s-21.834 87 -27.501 133s-10.834 91.667 -15.501 137c2.66699 14.667 8.33398 27.167 17.001 37.5s18.667 17.333 30 21s23 3.33398 35 -0.999023s22.333 -13.833 31 -28.5
c-3.33301 -38 -3 -77 1 -117s10.5 -77.833 19.5 -113.5s19.667 -68 32 -97s25.333 -51.333 39 -67s27.167 -23.5 40.5 -23.5s25.666 11.333 36.999 34s21 57.834 29 105.501s13 110.834 15 189.501c0 8.66699 3.83301 16.167 11.5 22.5s16.834 11.166 27.501 14.499
s21.167 5.5 31.5 6.5s18.5 0.5 24.5 -1.5c8.66699 -14.667 15.667 -33.834 21 -57.501s10.166 -49 14.499 -76l13 -82c4.33301 -27.667 10.5 -52.834 18.5 -75.501s18.167 -41.5 30.5 -56.5s28.166 -23.5 47.499 -25.5c17.333 -1.33301 31 3.83398 41 15.501
s17.5 27.667 22.5 48s7.66699 43.833 8 70.5s-0.333984 54 -2.00098 82s-4 55.667 -7 83l-8 73.5c-2.33301 21.667 -3.83301 39.334 -4.5 53.001s0.666016 21.167 3.99902 22.5c20 9.33301 37.667 9.66602 53 0.999023s28.5 -23.667 39.5 -45s19.5 -47.5 25.5 -78.5
s9.33301 -63.833 10 -98.5s-1.16602 -69.834 -5.49902 -105.501s-11.666 -68.834 -21.999 -99.501s-23.5 -57.334 -39.5 -80.001s-35.333 -38.667 -58 -48c-34 -5.33301 -62.667 -5.5 -86 -0.5s-43.333 14.167 -60 27.5s-31.5 30.666 -44.5 51.999
s-26.5 45.666 -40.5 72.999c-8.66699 -23.333 -18.5 -47 -29.5 -71s-24.333 -44.167 -40 -60.5s-34.167 -27 -55.5 -32s-47 0.166992 -77 15.5z" />
    <glyph glyph-name="x" unicode="x" horiz-adv-x="535" 
d="M42 12c-10 7.33301 -16.668 14.835 -20.001 22.502s-2.66602 18.167 2.00098 31.5c12 12 27.167 29.5 45.5 52.5s36.166 47 53.499 72s33 49.5 47 73.5s22.667 43 26 57l-132 157c-7.33301 12.667 -9.16602 25.167 -5.49902 37.5s10.334 22.666 20.001 30.999
s20.667 14.166 33 17.499s24.166 2 35.499 -4c8 -4 18.167 -13.667 30.5 -29l38.5 -47.5c13.333 -16.333 26.166 -30.5 38.499 -42.5s22.5 -16.667 30.5 -14c4 3.33301 10.333 10.5 19 21.5l30 36.5c11.333 13.333 23.5 26.666 36.5 39.999s26 23.833 39 31.5
s25.167 11.334 36.5 11.001s21 -7.5 29 -21.5c6.66699 -16.667 7.5 -33 2.5 -49s-12.833 -31.333 -23.5 -46s-23 -28.834 -37 -42.501s-26.833 -26.834 -38.5 -39.501s-21 -24.667 -28 -36s-8.83301 -21.666 -5.5 -30.999c12 -17.333 25.5 -34.333 40.5 -51l44.5 -50
c14.667 -16.667 28.5 -33.667 41.5 -51s23.833 -35.666 32.5 -54.999c6.66699 -14 7 -27 1 -39s-15 -21 -27 -27s-25 -8.33301 -39 -7s-25.667 8 -35 20l-136 166c-6.66699 -4.66699 -14.667 -14.5 -24 -29.5l-31.5 -49.5c-11.667 -18 -24.167 -36.333 -37.5 -55
s-27.333 -34.5 -42 -47.5s-29.667 -21.5 -45 -25.5s-30.666 -0.333008 -45.999 11z" />
    <glyph glyph-name="y" unicode="y" horiz-adv-x="540" 
d="M66 -284c-8 9.33301 -11.001 20.9971 -9.00098 34.9971s6.66699 26.833 14 38.5s16.333 20 27 25s20 3.16699 28 -5.5c26.667 -44.667 51.834 -77 75.501 -97s45.667 -30.333 66 -31s38.666 6.5 54.999 21.5s30.5 35.167 42.5 60.5s22 54.166 30 86.499
s13.667 65.166 17 98.499s4 65.833 2 97.5s-6.33301 59.167 -13 82.5c-12.667 -16 -27.5 -32 -44.5 -48s-35.667 -29.5 -56 -40.5s-42.333 -18.167 -66 -21.5s-48.167 0 -73.5 10c-23.333 12.667 -42.666 30.834 -57.999 54.501s-27.833 50.667 -37.5 81
s-16.834 62.666 -21.501 96.999s-7.66699 68.166 -9 101.499s-1.66602 65 -0.999023 95s1.66699 56.333 3 79c6.66699 10.667 16 19.167 28 25.5s24 9.33301 36 9s22.667 -4.16602 32 -11.499s15 -19 17 -35c-0.666992 -13.333 -1.5 -31.666 -2.5 -54.999
s-1.33301 -48.666 -1 -75.999s1.66602 -55.333 3.99902 -84s7 -55 14 -79s16.333 -44.667 28 -62s26.834 -28.333 45.501 -33c30.667 4 55.5 14.833 74.5 32.5s33.5 39.334 43.5 65.001s16.5 53.834 19.5 84.501s4 61 3 91s-3.33301 58 -7 84s-6.83398 47.333 -9.50098 64
c4.66699 10.667 13 17.5 25 20.5s24.167 3.16699 36.5 0.5s23.666 -8 33.999 -16s16.166 -17.667 17.499 -29c28.667 -161.333 43.334 -300.666 44.001 -417.999s-8.16602 -214.5 -26.499 -291.5s-44.166 -135.333 -77.499 -175s-69.833 -62.667 -109.5 -69
s-80.5 2.5 -122.5 26.5s-81 61 -117 111z" />
    <glyph glyph-name="z" unicode="z" horiz-adv-x="429" 
d="M62 9c-6 2 -12.666 6.66992 -19.999 14.0029s-13.666 15.5 -18.999 24.5s-8.66602 18.167 -9.99902 27.5s1 17 7 23c56 50 100.667 93.833 134 131.5s58.666 70 75.999 97s28.666 49.667 33.999 68s8.33301 33.5 9 45.5c0.666992 8 -7.83301 13.667 -25.5 17
s-38.834 5.16602 -63.501 5.49902s-50 -0.166992 -76 -1.5s-47 -2.66602 -63 -3.99902c-26 18.667 -38 36.5 -36 53.5s18 31.5 48 43.5c83.333 7.33301 149.833 8.16602 199.5 2.49902s85.5 -17.167 107.5 -34.5s32.167 -39.833 30.5 -67.5s-12 -59.5 -31 -95.5
s-44.833 -75.5 -77.5 -118.5s-69 -88.5 -109 -136.5l212 16c14 -4.66699 23.5 -12.334 28.5 -23.001s6.16699 -21.834 3.5 -33.501s-9 -22.167 -19 -31.5s-23 -15.333 -39 -18z" />
    <glyph glyph-name="braceleft" unicode="{" horiz-adv-x="330" 
d="M386 -140c-32.667 -2 -67.667 0.337891 -105 7.00488s-71.166 18.334 -101.499 35.001s-54.5 38.5 -72.5 65.5s-23.667 59.833 -17 98.5c2 15.333 6.5 32.333 13.5 51s9.5 36.667 7.5 54c-1.33301 4 -6.5 7.66699 -15.5 11s-19 7.5 -30 12.5s-21.333 11.333 -31 19
s-15.5 17.5 -17.5 29.5c-2.66699 12.667 -0.5 23.667 6.5 33s16.333 17.666 28 24.999s24.167 14.333 37.5 21s25.5 14 36.5 22s19.167 16.833 24.5 26.5s6 21.5 2 35.5c-16.667 19.333 -32.834 41.5 -48.501 66.5s-27.834 51.5 -36.501 79.5s-12.334 56.5 -11.001 85.5
s11 57.167 29 84.5c4.66699 6.66699 13.334 15.5 26.001 26.5s27.167 22.167 43.5 33.5s33.666 21.833 51.999 31.5s35.5 16.5 51.5 20.5s30 4.16699 42 0.5s20 -12.834 24 -27.501c3.33301 -12.667 0.833008 -23 -7.5 -31s-19.666 -15.5 -33.999 -22.5l-47.5 -22.5
c-17.333 -8 -33.166 -18.833 -47.499 -32.5s-25.666 -30.667 -33.999 -51s-10.5 -46.5 -6.5 -78.5c2 -17.333 8.5 -32.833 19.5 -46.5s22.833 -27 35.5 -40s24 -26.333 34 -40s15 -29.167 15 -46.5c0 -23.333 -3.33301 -41.666 -10 -54.999s-15 -24.666 -25 -33.999
s-21.167 -18.333 -33.5 -27s-24.166 -19.334 -35.499 -32.001c-2.66699 -2.66699 -0.333984 -5.5 6.99902 -8.5s16.166 -6.33301 26.499 -10s20.333 -7.66699 30 -12s15.5 -8.83301 17.5 -13.5c0.666992 -18 -2.33301 -36.5 -9 -55.5l-19 -56.5
c-6 -18.667 -9.83301 -36.834 -11.5 -54.501s2.83301 -33.834 13.5 -48.501s29.5 -27.834 56.5 -39.501s66.167 -20.834 117.5 -27.501c8 -1.33301 14 -4.83301 18 -10.5s6.5 -11.834 7.5 -18.501s0.166992 -13.167 -2.5 -19.5s-7 -10.833 -13 -13.5z" />
    <glyph glyph-name="bar" unicode="|" horiz-adv-x="164" 
d="M150 27c-3.33301 -16.667 -10.333 -28.668 -21 -36.001s-22 -11 -34 -11s-23 2.83301 -33 8.5s-16 13.5 -18 23.5c-2 72 -4.16699 136.5 -6.5 193.5l-7 166l-7 166c-2.33301 57 -4.5 121.5 -6.5 193.5c6 9.33301 14.167 16.833 24.5 22.5s20.833 9 31.5 10
s20.167 -0.166992 28.5 -3.5s13.833 -9 16.5 -17c4.66699 -66 8.16699 -128 10.5 -186s4.33301 -115.167 6 -171.5s3.5 -113.666 5.5 -171.999s5.33301 -120.5 10 -186.5z" />
    <glyph glyph-name="braceright" unicode="}" horiz-adv-x="358" 
d="M-37 -144c-6 2.66699 -10.3291 7.16211 -12.9961 13.4951s-3.5 12.833 -2.5 19.5s3.5 12.834 7.5 18.501s10 9.16699 18 10.5c50.667 6.66699 89.667 15.834 117 27.501s46.333 24.834 57 39.501s15.167 30.834 13.5 48.501s-5.5 35.834 -11.5 54.501l-19 56.5
c-6.66699 19 -9.66699 37.5 -9 55.5c2 4.66699 7.83301 9.16699 17.5 13.5s19.667 8.33301 30 12s19.166 7 26.499 10s9.66602 5.83301 6.99902 8.5c-11.333 12.667 -23.166 23.334 -35.499 32.001s-23.5 17.667 -33.5 27s-18.333 20.666 -25 33.999s-10 31.666 -10 54.999
c0 17.333 5 32.833 15 46.5s21.333 27 34 40s24.5 26.333 35.5 40s17.5 29.167 19.5 46.5c3.33301 32 1 58.167 -7 78.5s-19.167 37.333 -33.5 51s-30.166 24.5 -47.499 32.5l-47.5 22.5c-14.333 7 -25.666 14.5 -33.999 22.5s-10.833 18.333 -7.5 31
c4 14.667 12 23.834 24 27.501s26 3.5 42 -0.5s33.167 -10.833 51.5 -20.5s35.666 -20.167 51.999 -31.5s30.666 -22.5 42.999 -33.5s21.166 -19.833 26.499 -26.5c18 -27.333 27.667 -55.5 29 -84.5s-2.33398 -57.5 -11.001 -85.5s-20.834 -54.5 -36.501 -79.5
s-31.834 -47.167 -48.501 -66.5c-4.66699 -14 -4.16699 -25.833 1.5 -35.5s14 -18.5 25 -26.5s23.167 -15.333 36.5 -22s25.833 -13.667 37.5 -21s21 -15.666 28 -24.999s9.16699 -20.333 6.5 -33c-2 -12 -7.83301 -21.833 -17.5 -29.5s-20 -14 -31 -19
s-21.167 -9.16699 -30.5 -12.5s-14.333 -7 -15 -11c-2 -17.333 0.5 -35.333 7.5 -54s11.5 -35.667 13.5 -51c6.66699 -38.667 1 -71.5 -17 -98.5s-42.167 -48.833 -72.5 -65.5s-64.166 -28.334 -101.499 -35.001s-72.333 -9 -105 -7z" />
    <glyph glyph-name="asciitilde" unicode="~" horiz-adv-x="377" 
d="M371 426c-5.33301 -25.333 -14.667 -45.1709 -28 -59.5039s-29.333 -23.166 -48 -26.499s-38.834 -1.33301 -60.501 6s-43.167 20.333 -64.5 39c-13.333 11.333 -24.333 16 -33 14s-16.167 -6.83301 -22.5 -14.5s-11.833 -16.834 -16.5 -27.501s-10.167 -19 -16.5 -25
s-14.166 -8.16699 -23.499 -6.5s-21 11.167 -35 28.5c12 40.667 26 69.834 42 87.501s33 27.334 51 29.001s36.5 -3.16602 55.5 -14.499s37.5 -26 55.5 -44c14 -8 26.167 -10.5 36.5 -7.5s19.5 8 27.5 15s15.167 14.667 21.5 23s12.5 14.333 18.5 18
s12.167 3.33398 18.5 -0.999023s13.5 -15.5 21.5 -33.5z" />
    <glyph glyph-name="uni00A0" unicode="&#xa0;" horiz-adv-x="606" 
d="M149 4c-22.667 -1.33301 -39.8281 0.504883 -51.4951 5.50488s-19.834 11.833 -24.501 20.5s-6.83398 18.667 -6.50098 30s1.16602 23 2.49902 35c6.66699 16 14.334 32.167 23.001 48.5s16 33.166 22 50.499s9.66699 35 11 53s-2 36.333 -10 55h-74
c-7.33301 0 -13.833 3.33301 -19.5 10s-9.66699 14.334 -12 23.001s-2.33301 16.667 0 24s8.16602 11.666 17.499 12.999c10 2 21.167 2.5 33.5 1.5s23.166 1.5 32.499 7.5c-23.333 37.333 -37.666 73.166 -42.999 107.499s-3.66602 66 5.00098 95s23 54.833 43 77.5
s43.333 41.167 70 55.5s55.5 24.333 86.5 30s62 6 93 1s60.667 -15.833 89 -32.5s53.166 -40.334 74.499 -71.001c6 -13.333 9.83301 -26.833 11.5 -40.5s1 -25.667 -2 -36s-8.83301 -18.333 -17.5 -24s-20.334 -6.83398 -35.001 -3.50098
c-16.667 39.333 -39.167 69.166 -67.5 89.499s-57.833 32.5 -88.5 36.5s-59.834 0.166992 -87.501 -11.5s-49.334 -29.834 -65.001 -54.501s-22.834 -55.5 -21.501 -92.5s16 -79.167 44 -126.5c7.33301 -0.666992 18 -0.5 32 0.5l47 3.5l53.5 4
c18.333 1.33301 35.333 2 51 2s29.334 -1.16699 41.001 -3.5s19.167 -5.83301 22.5 -10.5c0.666992 -3.33301 1 -8 1 -14s-0.666992 -12 -2 -18s-3.83301 -11.167 -7.5 -15.5s-8.83398 -6.83301 -15.501 -7.5l-200 -18c1.33301 -32.667 -0.333984 -63.834 -5.00098 -93.501
s-14.334 -59.167 -29.001 -88.5c50 16 92.333 26.167 127 30.5s66.5 4.83301 95.5 1.5s57.333 -9.66602 85 -18.999s59.834 -19.666 96.501 -30.999c12.667 -15.333 19.5 -28.666 20.5 -39.999s-1.66699 -21 -8 -29s-14.833 -13.833 -25.5 -17.5
s-21.334 -4.83398 -32.001 -3.50098c-36 18.667 -69.167 32 -99.5 40s-58.166 12.167 -83.499 12.5s-48.166 -2.16699 -68.499 -7.5s-38.666 -11.5 -54.999 -18.5s-30.666 -14 -42.999 -21s-22.833 -12.167 -31.5 -15.5z" />
    <glyph glyph-name="exclamdown" unicode="&#xa1;" horiz-adv-x="210" 
d="M99 755c-14.667 -10.666 -22.168 -22.499 -22.501 -35.498s3.33398 -24.498 11.001 -34.4971s17.5 -17.332 29.5 -21.999s23 -4 33 2c18 13.999 27.667 27.998 29 41.9971s-2 25.832 -10 35.498s-18.833 15.999 -32.5 18.999s-26.167 0.833008 -37.5 -6.5zM56.999 61.043
c-2.66699 -15.999 1.66602 -29.1631 12.999 -39.4961s24 -15.999 38 -16.999s26.833 3.33301 38.5 12.999s16.5 26.165 14.5 49.4971l8 398.976c-2 15.999 -7 27.998 -15 35.9971s-17.167 11.665 -27.5 10.998s-20.666 -5.33301 -30.999 -13.999
s-18.5 -21.665 -24.5 -38.9971z" />
    <glyph glyph-name="cent" unicode="&#xa2;" horiz-adv-x="491" 
d="M320 66l6.99902 -38.998c2.66699 -15.333 2.33398 -29.5 -0.999023 -42.5s-11.333 -23.167 -24 -30.5s-33.334 -8.33301 -62.001 -3l-13 115c-40 10 -74 24.833 -102 44.5s-50 42 -66 67s-25.667 51.667 -29 80s-0.333008 56 9 83s25.5 52.333 48.5 76
s52.833 43.5 89.5 59.5l-13 87c0 10 4.83301 17 14.5 21s20.167 5.5 31.5 4.5s21.833 -4.16699 31.5 -9.5s14.5 -12.666 14.5 -21.999l12 -90c7.33301 3.33301 18.833 4.16602 34.5 2.49902s32 -5 49 -10s33.167 -11.333 48.5 -19s26.333 -15.834 33 -24.501
s7.16699 -17.334 1.5 -26.001s-20.5 -16.667 -44.5 -24c-2 4 -8 8.5 -18 13.5s-21 9.66699 -33 14s-23.667 7.83301 -35 10.5s-20 3 -26 1c0 -38.667 3.33301 -80 10 -124s12.667 -86.667 18 -128c10.667 -1.33301 20.834 -0.166016 30.501 3.50098s19.167 8.66699 28.5 15
s18.666 13.333 27.999 21l28 22.5c4.66699 6 9.83398 9.16699 15.501 9.5s10.667 -1.5 15 -5.5s7.5 -9.83301 9.5 -17.5s2 -16.5 0 -26.5c-8 -18.667 -17.833 -33.834 -29.5 -45.501s-24 -21.167 -37 -28.5s-26 -13.5 -39 -18.5s-24.833 -10.5 -35.5 -16.5zM176.999 392.002
c-26 -16 -43.8311 -35.332 -53.498 -57.999s-12.667 -45.167 -9 -67.5s13.5 -43 29.5 -62s37 -33.5 63 -43.5c0 9.33301 -0.833008 25.166 -2.5 47.499s-3.83398 45.833 -6.50098 70.5s-5.83398 47.667 -9.50098 69s-7.5 36 -11.5 44z" />
    <glyph glyph-name="yen" unicode="&#xa5;" horiz-adv-x="478" 
d="M280 210l-0.00390625 -189.007c-7.33301 -10 -16.666 -17.167 -27.999 -21.5s-22.5 -5.66602 -33.5 -3.99902s-20.5 6.5 -28.5 14.5s-12.333 19.333 -13 34l-4 163l-52 -1c-16 2 -28 7.16699 -36 15.5s-12.167 17.333 -12.5 27s2.83398 18.667 9.50098 27
s16 13.5 28 15.5c8.66699 -0.666992 18.167 -1 28.5 -1h32.5l-1 55l-59 -1c-16 2 -28 7.16699 -36 15.5s-12.167 17.333 -12.5 27s2.83398 18.667 9.50098 27s16 13.5 28 15.5c8.66699 -0.666992 18.167 -1 28.5 -1h32.5l-151 261
c-5.33301 8.66699 -7.66602 17.334 -6.99902 26.001s3 16.5 7 23.5s9.66699 13 17 18s15.666 8.16699 24.999 9.5l168 -248l167 217c6.66699 12.667 15.834 22.334 27.501 29.001s22.667 9.66699 33 9s19 -5.33398 26 -14.001s9.16699 -22 6.5 -40
c-14.667 -30 -31.667 -58.333 -51 -85l-57 -75.5l-52.5 -67.5c-16.333 -21.333 -28.833 -41.666 -37.5 -60.999c15.333 0.666992 30.5 0.833984 45.5 0.500977s29.5 -0.5 43.5 -0.5c10 0.666992 18 -1.66602 24 -6.99902s10.167 -12 12.5 -20s2.5 -16.667 0.5 -26
s-6.33301 -18 -13 -26l-115 -3v-56c17.333 0.666992 34.5 0.833984 51.5 0.500977s33.5 -0.5 49.5 -0.5c10 0.666992 18 -1.66602 24 -6.99902s10.167 -12 12.5 -20s2.5 -16.667 0.5 -26s-6.33301 -18 -13 -26z" />
    <glyph glyph-name="dieresis" unicode="&#xa8;" horiz-adv-x="289" 
d="M52 584c-11.333 9.33301 -18.168 20.334 -20.501 33.001s-1.16602 24 3.50098 34s12.5 17.167 23.5 21.5s24.167 3.16602 39.5 -3.50098c16 -14.667 24.167 -28.667 24.5 -42s-3.16699 -24.5 -10.5 -33.5s-17 -14.667 -29 -17s-22.333 0.166992 -31 7.5zM199.998 584.001
c-13.333 11.333 -21.333 23.168 -24 35.501s-1.5 23.166 3.5 32.499s13 16 24 20s23.167 3 36.5 -3c16 -14.667 24.5 -28.667 25.5 -42s-1.83301 -24.5 -8.5 -33.5s-15.667 -14.667 -27 -17s-21.333 0.166992 -30 7.5z" />
    <glyph glyph-name="macron" unicode="&#xaf;" horiz-adv-x="453" 
d="M42 593c-20 14 -29.8301 28.5 -29.4971 43.5s12.166 26.167 35.499 33.5l348 2c9.33301 -3.33301 15.666 -9.33301 18.999 -18s3.5 -17.667 0.5 -27s-8.83301 -18 -17.5 -26s-20.334 -12.667 -35.001 -14z" />
    <glyph glyph-name="acute" unicode="&#xb4;" horiz-adv-x="199" 
d="M95 607c-20 -13.333 -36.665 -19.666 -49.998 -18.999s-22.5 5 -27.5 13s-5.83301 17.667 -2.5 29s11.666 21 24.999 29l19 11.5l23 13.5l23 13c7.33301 4 13.666 7.66699 18.999 11c8.66699 4 18 5.16699 28 3.5s18 -5.33398 24 -11.001s8.66699 -13 8 -22
s-7 -18.833 -19 -29.5z" />
    <glyph glyph-name="uni00B5" unicode="&#xb5;" horiz-adv-x="267" 
d="M177 6l-27.9971 17.9971c-12.667 8 -26.167 17.167 -40.5 27.5s-28.5 21.5 -42.5 33.5s-25.333 23.833 -34 35.5s-13.834 23 -15.501 34s2.5 20.833 12.5 29.5c10.667 9.33301 22.5 13.833 35.5 13.5s26.333 -3.66602 40 -9.99902s27.167 -14.666 40.5 -24.999
s26.166 -21.5 38.499 -33.5s23.5 -23.667 33.5 -35s18.667 -20.666 26 -27.999c0.666992 -10 0 -20.167 -2 -30.5s-5.83301 -19 -11.5 -26s-12.834 -11.333 -21.501 -13s-19 1.5 -31 9.5z" />
    <glyph glyph-name="cedilla" unicode="&#xb8;" horiz-adv-x="317" 
d="M112 -136c34.667 0 60.668 3.83398 78.001 11.501s26 15.667 26 24s-8.33301 15.5 -25 21.5s-41.334 7.66699 -74.001 5v97l63 4c-1.33301 -2 -2.16602 -5.16699 -2.49902 -9.5s-0.5 -9 -0.5 -14s0.333008 -9.83301 1 -14.5s1.66699 -8.33398 3 -11.001
c38.667 -9.33301 66 -20.5 82 -33.5s24 -26.5 24 -40.5s-6.16699 -27.667 -18.5 -41s-27.5 -24.666 -45.5 -33.999s-37.333 -15.833 -58 -19.5s-39.334 -2.83398 -56.001 2.49902z" />
    <glyph glyph-name="onequarter" unicode="&#xbc;" horiz-adv-x="790" 
d="M220 18c-2 11.333 -3.5 22.4971 -4.5 33.4971s-0.833008 25.167 0.5 42.5s3.83301 39.333 7.5 66s9.16699 61.667 16.5 105l28 159.5l41 228.5c1.33301 6.66699 6.33301 12.834 15 18.501s18 8.33398 28 8.00098s19.167 -5.16602 27.5 -14.499s12.5 -25.333 12.5 -48
l-89 -582c0 -13.333 -3.16699 -22.333 -9.5 -27s-14 -7 -23 -7s-18.167 1.83301 -27.5 5.5s-17 7.5 -23 11.5zM753 70.9971c-0.666992 -6 -4.16797 -13.6689 -10.501 -23.002s-14 -16.666 -23 -21.999s-18.667 -7.66602 -29 -6.99902s-19.5 8 -27.5 22l-22 155
c-14 1.33301 -32.167 1.83301 -54.5 1.5s-44.833 0.666992 -67.5 3s-43.167 7 -61.5 14s-30.166 18.5 -35.499 34.5v143c0 7.33301 5 13.833 15 19.5s20.833 9.16699 32.5 10.5s22.5 -0.166992 32.5 -4.5s15 -12.833 15 -25.5v-95l106 5c-3.33301 14 -5.33301 28 -6 42
s-0.333984 28 0.999023 42c6.66699 8 15 14.5 25 19.5s19.833 7.33301 29.5 7s18.334 -3.5 26.001 -9.5s12.5 -15.667 14.5 -29zM146.999 466.995c-8 -5.33301 -16.1689 -4.33594 -24.502 2.99707s-16.166 18.333 -23.499 33s-14.5 31.667 -21.5 51
s-13.167 38.833 -18.5 58.5s-9.83301 37.834 -13.5 54.501s-6.16699 29.667 -7.5 39c2.66699 7.33301 7.5 12.5 14.5 15.5s14.5 4.33301 22.5 4s15.333 -2.33301 22 -6s10.667 -8.16699 12 -13.5c8.66699 -35.333 19.834 -66.833 33.501 -94.5s24.667 -51.667 33 -72
s11.5 -36.666 9.5 -48.999s-14.667 -20.166 -38 -23.499z" />
    <glyph glyph-name="onehalf" unicode="&#xbd;" horiz-adv-x="754" 
d="M190 6c-4.66699 2 -8.66504 5.33398 -11.998 10.001s-6 10 -8 16s-3.33301 12.167 -4 18.5s-0.333984 11.5 0.999023 15.5l142 522c3.33301 13.333 11 22 23 26s24 4 36 0s22.167 -11.333 30.5 -22s10.166 -24 5.49902 -40c-23.333 -80 -42.833 -150 -58.5 -210
l-40 -153.5c-11 -42.333 -20.5 -76.833 -28.5 -103.5s-16 -46.834 -24 -60.501s-17 -21.667 -27 -24s-22 -0.5 -36 5.5zM517.002 59.001c-24 9.33301 -38 19.832 -42 31.499s-2.5 23.5 4.5 35.5s17.333 24.167 31 36.5s25.5 23.5 35.5 33.5l15.5 18.5
c6.33301 7.66699 12.166 16 17.499 25s9.66602 18 12.999 27s4 17.167 2 24.5c-0.666992 2.66699 -5.66699 2.16699 -15 -1.5l-33 -13c-12.667 -5 -26 -9.5 -40 -13.5s-26.167 -5.16699 -36.5 -3.5s-17.666 7.5 -21.999 17.5s-3.16602 26.333 3.50098 49
c5.33301 4.66699 12 9.83398 20 15.501s19 11.167 33 16.5s32.5 10 55.5 14s52.167 6.66699 87.5 8c20 0 34.167 -5 42.5 -15s12.666 -22.667 12.999 -38s-2.16699 -32.166 -7.5 -50.499s-12 -36.166 -20 -53.499s-16.333 -32.833 -25 -46.5s-15.667 -23.167 -21 -28.5
c9.33301 0.666992 19.833 1.66699 31.5 3s23 1.33301 34 0s20.333 -4.83301 28 -10.5s12.167 -14.834 13.5 -27.501c2.66699 -12.667 -0.333008 -23.167 -9 -31.5s-20.5 -14.666 -35.5 -18.999s-31.667 -7.33301 -50 -9s-36.166 -2.33398 -53.499 -2.00098
s-32.5 1.16602 -45.5 2.49902s-21.5 3 -25.5 5zM53.002 433c-2 10 -5.50391 25.668 -10.5039 47.001s-9.16699 43.666 -12.5 66.999s-4.66602 45 -3.99902 65s6 33.667 16 41c9.33301 0.666992 18.166 1.5 26.499 2.5s15.833 0.666992 22.5 -1
s12.334 -4.83398 17.001 -9.50098s8.33398 -12 11.001 -22l10.5 -37.5c4.33301 -15.667 8.33301 -32.5 12 -50.5s6.33398 -36 8.00098 -54s1.5 -34 -0.5 -48c-6.66699 -13.333 -14 -22.166 -22 -26.499s-16.167 -5.83301 -24.5 -4.5s-16.666 5 -24.999 11
s-16.5 12.667 -24.5 20z" />
    <glyph glyph-name="questiondown" unicode="&#xbf;" horiz-adv-x="445" 
d="M167.018 747c17.333 6.66699 33.832 4.99902 49.4971 -5c15.666 -9.99902 24.832 -24.332 27.499 -42.998c-11.333 -14.665 -22.332 -24.498 -32.998 -29.498c-10.666 -4.99902 -20.332 -6.49902 -28.998 -4.49902c-8.66699 1.99902 -16 6.33203 -21.999 12.999
c-6 6.66602 -10 14.332 -11.999 22.998c-2 8.66602 -1.5 17.166 1.5 25.499c2.99902 8.33301 8.83203 15.166 17.498 20.499zM266.012 457.017c14.666 -13.999 22.3301 -29.3281 22.9971 -45.9941c0.666992 -16.665 -2.83301 -34.1641 -10.5 -52.4961
c-7.66602 -18.333 -18.332 -36.999 -31.998 -55.998l-41.9971 -55.9961l-39.4971 -52.4971c-11.999 -16.665 -20.665 -31.8311 -25.998 -45.4971s-5.66602 -25.499 -1 -35.498c4.66699 -9.99902 17 -17.332 36.999 -21.999c13.333 -2.66602 29.499 -0.666016 48.498 6
s38.3311 15.499 57.9961 26.498s38.3311 22.998 55.9971 35.9971c17.665 12.999 32.1641 24.498 43.4971 34.4971c14.666 0 25.999 -0.333008 33.998 -1s16.332 -6.33301 24.998 -16.999c1.33301 -14.665 -6 -30.8311 -21.999 -48.4971
c-15.999 -17.665 -36.6641 -34.4971 -61.9951 -50.4961c-25.332 -15.999 -53.4971 -30.3311 -84.4951 -42.9971s-60.9961 -21.665 -89.9941 -26.998c-28.999 -5.33301 -55.3311 -6 -78.9961 -2c-23.665 3.99902 -40.6641 14.832 -50.9971 32.498
c-10.333 17.665 -12.5 43.1631 -6.50098 76.4941c6 33.3311 24.332 76.3281 54.9971 128.991c13.999 23.332 27.665 43.4971 40.998 60.4961s24.166 33.165 32.499 48.4971c8.33301 15.333 13.166 31.332 14.499 47.9971c1.33301 16.666 -3 36.3311 -12.999 58.9961
c5.33301 9.33301 12.166 15.499 20.499 18.498c8.33301 3 16.999 4 25.998 3s17.498 -3.66602 25.4971 -7.99902c8 -4.33301 14.333 -9.49902 18.999 -15.498z" />
    <glyph glyph-name="Agrave" unicode="&#xc0;" horiz-adv-x="549" 
d="M106 15c-11.333 9.33301 -18.666 22.166 -21.999 38.499s-4.16602 34 -2.49902 53s4.66699 38.333 9 58s8 37.5 11 53.5s4.33301 29.167 4 39.5s-4.16602 15.5 -11.499 15.5l-40 -5c-24.667 14 -41 27.833 -49 41.5s-8.66699 25.334 -2 35.001s20.334 16.667 41.001 21
s47.334 4.16602 80.001 -0.500977c3.33301 6.66699 6.16602 14.834 8.49902 24.501s5.16602 24.667 8.49902 45l13 82.5c5.33301 34.667 13 80.334 23 137.001c4.66699 32 12.5 56.333 23.5 73s23.667 27.167 38 31.5s29.166 3.5 44.499 -2.5s30 -15.333 44 -28
s26.167 -27.667 36.5 -45s17.5 -35 21.5 -53c2 -4.66699 5 -13.667 9 -27s8.16699 -28.5 12.5 -45.5l14 -54l14.5 -54l12.5 -45c3.66699 -13 6.5 -22.167 8.5 -27.5c4 0 10.833 1.33301 20.5 4s20.5 5.16699 32.5 7.5s23.667 3.83301 35 4.5s21 -1.33301 29 -6
s12.833 -12.834 14.5 -24.501s-1.5 -28.5 -9.5 -50.5l-98 -24l41 -265c0.666992 -4 -2.83301 -7.66699 -10.5 -11s-16.834 -5.83301 -27.501 -7.5s-21.167 -1.66699 -31.5 0s-17.833 5.5 -22.5 11.5c-4.66699 12 -8.66699 29 -12 51s-6.33301 45.167 -9 69.5l-8 72.5
c-2.66699 24 -5.66699 44.333 -9 61l-6 6c-14 2 -27.667 2.66699 -41 2s-27 -1.66699 -41 -3s-29 -3.33301 -45 -6s-33.333 -5 -52 -7l-34 -237c-2 -6 -5.5 -10.667 -10.5 -14s-10.833 -5.5 -17.5 -6.5s-13.334 -0.5 -20.001 1.5s-12.667 5 -18 9zM225 365
c23.333 0 45.835 0.669922 67.502 2.00293s44.5 2.66602 68.5 3.99902v6c-8.66699 19.333 -15.334 40.666 -20.001 63.999l-14.5 70.5c-5 23.667 -11 46.5 -18 68.5s-17.167 41 -30.5 57c-4.66699 -6 -9 -16 -13 -30s-7.83301 -29.833 -11.5 -47.5
s-6.83398 -36.334 -9.50098 -56.001l-7.5 -56.5l-6.5 -49c-2 -14.667 -3.66699 -25.667 -5 -33zM209.002 847.003c-12 10.667 -18.3311 20.5 -18.998 29.5s2 16.333 8 22s13.833 9.33398 23.5 11.001s19.167 0.5 28.5 -3.5c5.33301 -3.33301 11.666 -7 18.999 -11l23 -13
l23 -13.5l19 -11.5c13.333 -8 21.666 -17.667 24.999 -29s2.5 -21 -2.5 -29s-14.167 -12.333 -27.5 -13s-30 5.66602 -50 18.999z" />
    <glyph glyph-name="Aacute" unicode="&#xc1;" horiz-adv-x="549" 
d="M106 15c-11.333 9.33301 -18.666 22.166 -21.999 38.499s-4.16602 34 -2.49902 53s4.66699 38.333 9 58s8 37.5 11 53.5s4.33301 29.167 4 39.5s-4.16602 15.5 -11.499 15.5l-40 -5c-24.667 14 -41 27.833 -49 41.5s-8.66699 25.334 -2 35.001s20.334 16.667 41.001 21
s47.334 4.16602 80.001 -0.500977c3.33301 6.66699 6.16602 14.834 8.49902 24.501s5.16602 24.667 8.49902 45l13 82.5c5.33301 34.667 13 80.334 23 137.001c4.66699 32 12.5 56.333 23.5 73s23.667 27.167 38 31.5s29.166 3.5 44.499 -2.5s30 -15.333 44 -28
s26.167 -27.667 36.5 -45s17.5 -35 21.5 -53c2 -4.66699 5 -13.667 9 -27s8.16699 -28.5 12.5 -45.5l14 -54l14.5 -54l12.5 -45c3.66699 -13 6.5 -22.167 8.5 -27.5c4 0 10.833 1.33301 20.5 4s20.5 5.16699 32.5 7.5s23.667 3.83301 35 4.5s21 -1.33301 29 -6
s12.833 -12.834 14.5 -24.501s-1.5 -28.5 -9.5 -50.5l-98 -24l41 -265c0.666992 -4 -2.83301 -7.66699 -10.5 -11s-16.834 -5.83301 -27.501 -7.5s-21.167 -1.66699 -31.5 0s-17.833 5.5 -22.5 11.5c-4.66699 12 -8.66699 29 -12 51s-6.33301 45.167 -9 69.5l-8 72.5
c-2.66699 24 -5.66699 44.333 -9 61l-6 6c-14 2 -27.667 2.66699 -41 2s-27 -1.66699 -41 -3s-29 -3.33301 -45 -6s-33.333 -5 -52 -7l-34 -237c-2 -6 -5.5 -10.667 -10.5 -14s-10.833 -5.5 -17.5 -6.5s-13.334 -0.5 -20.001 1.5s-12.667 5 -18 9zM225 365
c23.333 0 45.835 0.669922 67.502 2.00293s44.5 2.66602 68.5 3.99902v6c-8.66699 19.333 -15.334 40.666 -20.001 63.999l-14.5 70.5c-5 23.667 -11 46.5 -18 68.5s-17.167 41 -30.5 57c-4.66699 -6 -9 -16 -13 -30s-7.83301 -29.833 -11.5 -47.5
s-6.83398 -36.334 -9.50098 -56.001l-7.5 -56.5l-6.5 -49c-2 -14.667 -3.66699 -25.667 -5 -33zM264.002 797.003c-20 -13.333 -36.665 -19.666 -49.998 -18.999s-22.5 5 -27.5 13s-5.83301 17.667 -2.5 29s11.666 21 24.999 29l19 11.5l23 13.5l23 13
c7.33301 4 13.666 7.66699 18.999 11c8.66699 4 18 5.16699 28 3.5s18 -5.33398 24 -11.001s8.66699 -13 8 -22s-7 -18.833 -19 -29.5z" />
    <glyph glyph-name="Acircumflex" unicode="&#xc2;" horiz-adv-x="549" 
d="M106 15c-11.333 9.33301 -18.666 22.166 -21.999 38.499s-4.16602 34 -2.49902 53s4.66699 38.333 9 58s8 37.5 11 53.5s4.33301 29.167 4 39.5s-4.16602 15.5 -11.499 15.5l-40 -5c-24.667 14 -41 27.833 -49 41.5s-8.66699 25.334 -2 35.001s20.334 16.667 41.001 21
s47.334 4.16602 80.001 -0.500977c3.33301 6.66699 6.16602 14.834 8.49902 24.501s5.16602 24.667 8.49902 45l13 82.5c5.33301 34.667 13 80.334 23 137.001c4.66699 32 12.5 56.333 23.5 73s23.667 27.167 38 31.5s29.166 3.5 44.499 -2.5s30 -15.333 44 -28
s26.167 -27.667 36.5 -45s17.5 -35 21.5 -53c2 -4.66699 5 -13.667 9 -27s8.16699 -28.5 12.5 -45.5l14 -54l14.5 -54l12.5 -45c3.66699 -13 6.5 -22.167 8.5 -27.5c4 0 10.833 1.33301 20.5 4s20.5 5.16699 32.5 7.5s23.667 3.83301 35 4.5s21 -1.33301 29 -6
s12.833 -12.834 14.5 -24.501s-1.5 -28.5 -9.5 -50.5l-98 -24l41 -265c0.666992 -4 -2.83301 -7.66699 -10.5 -11s-16.834 -5.83301 -27.501 -7.5s-21.167 -1.66699 -31.5 0s-17.833 5.5 -22.5 11.5c-4.66699 12 -8.66699 29 -12 51s-6.33301 45.167 -9 69.5l-8 72.5
c-2.66699 24 -5.66699 44.333 -9 61l-6 6c-14 2 -27.667 2.66699 -41 2s-27 -1.66699 -41 -3s-29 -3.33301 -45 -6s-33.333 -5 -52 -7l-34 -237c-2 -6 -5.5 -10.667 -10.5 -14s-10.833 -5.5 -17.5 -6.5s-13.334 -0.5 -20.001 1.5s-12.667 5 -18 9zM225 365
c23.333 0 45.835 0.669922 67.502 2.00293s44.5 2.66602 68.5 3.99902v6c-8.66699 19.333 -15.334 40.666 -20.001 63.999l-14.5 70.5c-5 23.667 -11 46.5 -18 68.5s-17.167 41 -30.5 57c-4.66699 -6 -9 -16 -13 -30s-7.83301 -29.833 -11.5 -47.5
s-6.83398 -36.334 -9.50098 -56.001l-7.5 -56.5l-6.5 -49c-2 -14.667 -3.66699 -25.667 -5 -33zM277.002 864.003l-76 -85c-18.667 -0.666992 -33 0.833008 -43 4.5s-17 8.5 -21 14.5s-5.33301 12.5 -4 19.5s4 13.5 8 19.5c10.667 10 22.834 23.5 36.501 40.5
s28 32.5 43 46.5s30.167 24.333 45.5 31s30 4.66699 44 -6c9.33301 -11.333 19.5 -22.333 30.5 -33l32 -32.5c10.333 -11 20.166 -22.5 29.499 -34.5s17 -25.333 23 -40c0 -6.66699 -2.66699 -13 -8 -19s-11.833 -10.667 -19.5 -14s-16.167 -5.33301 -25.5 -6s-18 1 -26 5z
" />
    <glyph glyph-name="Atilde" unicode="&#xc3;" horiz-adv-x="549" 
d="M106 15c-11.333 9.33301 -18.666 22.166 -21.999 38.499s-4.16602 34 -2.49902 53s4.66699 38.333 9 58s8 37.5 11 53.5s4.33301 29.167 4 39.5s-4.16602 15.5 -11.499 15.5l-40 -5c-24.667 14 -41 27.833 -49 41.5s-8.66699 25.334 -2 35.001s20.334 16.667 41.001 21
s47.334 4.16602 80.001 -0.500977c3.33301 6.66699 6.16602 14.834 8.49902 24.501s5.16602 24.667 8.49902 45l13 82.5c5.33301 34.667 13 80.334 23 137.001c4.66699 32 12.5 56.333 23.5 73s23.667 27.167 38 31.5s29.166 3.5 44.499 -2.5s30 -15.333 44 -28
s26.167 -27.667 36.5 -45s17.5 -35 21.5 -53c2 -4.66699 5 -13.667 9 -27s8.16699 -28.5 12.5 -45.5l14 -54l14.5 -54l12.5 -45c3.66699 -13 6.5 -22.167 8.5 -27.5c4 0 10.833 1.33301 20.5 4s20.5 5.16699 32.5 7.5s23.667 3.83301 35 4.5s21 -1.33301 29 -6
s12.833 -12.834 14.5 -24.501s-1.5 -28.5 -9.5 -50.5l-98 -24l41 -265c0.666992 -4 -2.83301 -7.66699 -10.5 -11s-16.834 -5.83301 -27.501 -7.5s-21.167 -1.66699 -31.5 0s-17.833 5.5 -22.5 11.5c-4.66699 12 -8.66699 29 -12 51s-6.33301 45.167 -9 69.5l-8 72.5
c-2.66699 24 -5.66699 44.333 -9 61l-6 6c-14 2 -27.667 2.66699 -41 2s-27 -1.66699 -41 -3s-29 -3.33301 -45 -6s-33.333 -5 -52 -7l-34 -237c-2 -6 -5.5 -10.667 -10.5 -14s-10.833 -5.5 -17.5 -6.5s-13.334 -0.5 -20.001 1.5s-12.667 5 -18 9zM225 365
c23.333 0 45.835 0.669922 67.502 2.00293s44.5 2.66602 68.5 3.99902v6c-8.66699 19.333 -15.334 40.666 -20.001 63.999l-14.5 70.5c-5 23.667 -11 46.5 -18 68.5s-17.167 41 -30.5 57c-4.66699 -6 -9 -16 -13 -30s-7.83301 -29.833 -11.5 -47.5
s-6.83398 -36.334 -9.50098 -56.001l-7.5 -56.5l-6.5 -49c-2 -14.667 -3.66699 -25.667 -5 -33zM448.002 889.003c-5.33301 -25.333 -14.667 -45.1709 -28 -59.5039s-29.333 -23.166 -48 -26.499s-38.834 -1.33301 -60.501 6s-43.167 20.333 -64.5 39
c-13.333 11.333 -24.333 16 -33 14s-16.167 -6.83301 -22.5 -14.5s-11.833 -16.834 -16.5 -27.501s-10.167 -19 -16.5 -25s-14.166 -8.16699 -23.499 -6.5s-21 11.167 -35 28.5c12 40.667 26 69.834 42 87.501s33 27.334 51 29.001s36.5 -3.16602 55.5 -14.499
s37.5 -26 55.5 -44c14 -8 26.167 -10.5 36.5 -7.5s19.5 8 27.5 15s15.167 14.667 21.5 23s12.5 14.333 18.5 18s12.167 3.33398 18.5 -0.999023s13.5 -15.5 21.5 -33.5z" />
    <glyph glyph-name="Adieresis" unicode="&#xc4;" horiz-adv-x="549" 
d="M106 15c-11.333 9.33301 -18.666 22.166 -21.999 38.499s-4.16602 34 -2.49902 53s4.66699 38.333 9 58s8 37.5 11 53.5s4.33301 29.167 4 39.5s-4.16602 15.5 -11.499 15.5l-40 -5c-24.667 14 -41 27.833 -49 41.5s-8.66699 25.334 -2 35.001s20.334 16.667 41.001 21
s47.334 4.16602 80.001 -0.500977c3.33301 6.66699 6.16602 14.834 8.49902 24.501s5.16602 24.667 8.49902 45l13 82.5c5.33301 34.667 13 80.334 23 137.001c4.66699 32 12.5 56.333 23.5 73s23.667 27.167 38 31.5s29.166 3.5 44.499 -2.5s30 -15.333 44 -28
s26.167 -27.667 36.5 -45s17.5 -35 21.5 -53c2 -4.66699 5 -13.667 9 -27s8.16699 -28.5 12.5 -45.5l14 -54l14.5 -54l12.5 -45c3.66699 -13 6.5 -22.167 8.5 -27.5c4 0 10.833 1.33301 20.5 4s20.5 5.16699 32.5 7.5s23.667 3.83301 35 4.5s21 -1.33301 29 -6
s12.833 -12.834 14.5 -24.501s-1.5 -28.5 -9.5 -50.5l-98 -24l41 -265c0.666992 -4 -2.83301 -7.66699 -10.5 -11s-16.834 -5.83301 -27.501 -7.5s-21.167 -1.66699 -31.5 0s-17.833 5.5 -22.5 11.5c-4.66699 12 -8.66699 29 -12 51s-6.33301 45.167 -9 69.5l-8 72.5
c-2.66699 24 -5.66699 44.333 -9 61l-6 6c-14 2 -27.667 2.66699 -41 2s-27 -1.66699 -41 -3s-29 -3.33301 -45 -6s-33.333 -5 -52 -7l-34 -237c-2 -6 -5.5 -10.667 -10.5 -14s-10.833 -5.5 -17.5 -6.5s-13.334 -0.5 -20.001 1.5s-12.667 5 -18 9zM225 365
c23.333 0 45.835 0.669922 67.502 2.00293s44.5 2.66602 68.5 3.99902v6c-8.66699 19.333 -15.334 40.666 -20.001 63.999l-14.5 70.5c-5 23.667 -11 46.5 -18 68.5s-17.167 41 -30.5 57c-4.66699 -6 -9 -16 -13 -30s-7.83301 -29.833 -11.5 -47.5
s-6.83398 -36.334 -9.50098 -56.001l-7.5 -56.5l-6.5 -49c-2 -14.667 -3.66699 -25.667 -5 -33zM149.002 784.003c-11.333 9.33301 -18.168 20.334 -20.501 33.001s-1.16602 24 3.50098 34s12.5 17.167 23.5 21.5s24.167 3.16602 39.5 -3.50098
c16 -14.667 24.167 -28.667 24.5 -42s-3.16699 -24.5 -10.5 -33.5s-17 -14.667 -29 -17s-22.333 0.166992 -31 7.5zM297 784.004c-13.333 11.333 -21.333 23.168 -24 35.501s-1.5 23.166 3.5 32.499s13 16 24 20s23.167 3 36.5 -3c16 -14.667 24.5 -28.667 25.5 -42
s-1.83301 -24.5 -8.5 -33.5s-15.667 -14.667 -27 -17s-21.333 0.166992 -30 7.5z" />
    <glyph glyph-name="Aring" unicode="&#xc5;" horiz-adv-x="549" 
d="M106 15c-11.333 9.33301 -18.666 22.166 -21.999 38.499s-4.16602 34 -2.49902 53s4.66699 38.333 9 58s8 37.5 11 53.5s4.33301 29.167 4 39.5s-4.16602 15.5 -11.499 15.5l-40 -5c-24.667 14 -41 27.833 -49 41.5s-8.66699 25.334 -2 35.001s20.334 16.667 41.001 21
s47.334 4.16602 80.001 -0.500977c3.33301 6.66699 6.16602 14.834 8.49902 24.501s5.16602 24.667 8.49902 45l13 82.5c5.33301 34.667 13 80.334 23 137.001c4.66699 32 12.5 56.333 23.5 73s23.667 27.167 38 31.5s29.166 3.5 44.499 -2.5s30 -15.333 44 -28
s26.167 -27.667 36.5 -45s17.5 -35 21.5 -53c2 -4.66699 5 -13.667 9 -27s8.16699 -28.5 12.5 -45.5l14 -54l14.5 -54l12.5 -45c3.66699 -13 6.5 -22.167 8.5 -27.5c4 0 10.833 1.33301 20.5 4s20.5 5.16699 32.5 7.5s23.667 3.83301 35 4.5s21 -1.33301 29 -6
s12.833 -12.834 14.5 -24.501s-1.5 -28.5 -9.5 -50.5l-98 -24l41 -265c0.666992 -4 -2.83301 -7.66699 -10.5 -11s-16.834 -5.83301 -27.501 -7.5s-21.167 -1.66699 -31.5 0s-17.833 5.5 -22.5 11.5c-4.66699 12 -8.66699 29 -12 51s-6.33301 45.167 -9 69.5l-8 72.5
c-2.66699 24 -5.66699 44.333 -9 61l-6 6c-14 2 -27.667 2.66699 -41 2s-27 -1.66699 -41 -3s-29 -3.33301 -45 -6s-33.333 -5 -52 -7l-34 -237c-2 -6 -5.5 -10.667 -10.5 -14s-10.833 -5.5 -17.5 -6.5s-13.334 -0.5 -20.001 1.5s-12.667 5 -18 9zM225 365
c23.333 0 45.835 0.669922 67.502 2.00293s44.5 2.66602 68.5 3.99902v6c-8.66699 19.333 -15.334 40.666 -20.001 63.999l-14.5 70.5c-5 23.667 -11 46.5 -18 68.5s-17.167 41 -30.5 57c-4.66699 -6 -9 -16 -13 -30s-7.83301 -29.833 -11.5 -47.5
s-6.83398 -36.334 -9.50098 -56.001l-7.5 -56.5l-6.5 -49c-2 -14.667 -3.66699 -25.667 -5 -33zM191.002 776.003c-31.333 6.66699 -53.5 18.165 -66.5 34.498s-18.333 33.5 -16 51.5s12 35 29 51s40.167 27 69.5 33c11.333 2.66699 22.333 5 33 7s20.834 3 30.501 3
s18.834 -1.83301 27.501 -5.5s16.667 -10.167 24 -19.5l-4 -5c27.333 -6 47.666 -14.833 60.999 -26.5s20.833 -24.167 22.5 -37.5s-2.33301 -26.666 -12 -39.999s-23.667 -24.666 -42 -33.999s-40.833 -15.5 -67.5 -18.5s-56.334 -0.833008 -89.001 6.5zM214.002 839.001
c15.333 -8 30.499 -11.668 45.499 -11.001s26.833 3.83398 35.5 9.50098s12.834 12.667 12.501 21s-8.16602 16.5 -23.499 24.5c-24.667 8 -44.834 10.667 -60.501 8s-26.5 -7.5 -32.5 -14.5s-7.16699 -14.5 -3.5 -22.5s12.5 -13 26.5 -15z" />
    <glyph glyph-name="AE" unicode="&#xc6;" horiz-adv-x="854" 
d="M106 15c-11.333 9.33301 -18.666 22.166 -21.999 38.499s-4.16602 34 -2.49902 53s4.66699 38.333 9 58s8 37.5 11 53.5s4.33301 29.167 4 39.5s-4.16602 15.5 -11.499 15.5l-40 -5c-24.667 14 -41 27.833 -49 41.5s-8.66699 25.334 -2 35.001s20.334 16.667 41.001 21
s47.334 4.16602 80.001 -0.500977c3.33301 6.66699 6.16602 14.834 8.49902 24.501s5.16602 24.667 8.49902 45l13 82.5c5.33301 34.667 13 80.334 23 137.001c4.66699 32 12.5 56.333 23.5 73s23.667 27.167 38 31.5s29.166 3.5 44.499 -2.5s30 -15.333 44 -28
s26.167 -27.667 36.5 -45s17.5 -35 21.5 -53c2 -4.66699 5 -13.667 9 -27s8.16699 -28.5 12.5 -45.5l14 -54l14.5 -54l12.5 -45c3.66699 -13 6.5 -22.167 8.5 -27.5c4 0 10.833 1.33301 20.5 4s20.5 5.16699 32.5 7.5s23.667 3.83301 35 4.5s21 -1.33301 29 -6
s12.833 -12.834 14.5 -24.501s-1.5 -28.5 -9.5 -50.5l-98 -24l41 -265c0.666992 -4 -2.83301 -7.66699 -10.5 -11s-16.834 -5.83301 -27.501 -7.5s-21.167 -1.66699 -31.5 0s-17.833 5.5 -22.5 11.5c-4.66699 12 -8.66699 29 -12 51s-6.33301 45.167 -9 69.5l-8 72.5
c-2.66699 24 -5.66699 44.333 -9 61l-6 6c-14 2 -27.667 2.66699 -41 2s-27 -1.66699 -41 -3s-29 -3.33301 -45 -6s-33.333 -5 -52 -7l-34 -237c-2 -6 -5.5 -10.667 -10.5 -14s-10.833 -5.5 -17.5 -6.5s-13.334 -0.5 -20.001 1.5s-12.667 5 -18 9zM225 365
c23.333 0 45.835 0.669922 67.502 2.00293s44.5 2.66602 68.5 3.99902v6c-8.66699 19.333 -15.334 40.666 -20.001 63.999l-14.5 70.5c-5 23.667 -11 46.5 -18 68.5s-17.167 41 -30.5 57c-4.66699 -6 -9 -16 -13 -30s-7.83301 -29.833 -11.5 -47.5
s-6.83398 -36.334 -9.50098 -56.001l-7.5 -56.5l-6.5 -49c-2 -14.667 -3.66699 -25.667 -5 -33zM553.002 22.0029c-34.667 16 -61.835 36.6689 -81.502 62.002s-32.834 53.5 -39.501 84.5s-7.5 63.833 -2.5 98.5s14.5 69.667 28.5 105c-27.333 40.667 -44.333 79 -51 115
s-6 69 2 99s22 56.667 42 80s43 42.5 69 57.5s53.833 25.667 83.5 32s58 7.5 85 3.5s51.333 -13.333 73 -28s37.834 -35.334 48.501 -62.001c5.33301 -10.667 6.5 -19.834 3.5 -27.501s-8.33301 -13.834 -16 -18.501s-16.334 -7.66699 -26.001 -9s-18.834 -1 -27.501 1
c-14.667 24.667 -32.834 40.167 -54.501 46.5s-43.5 6.5 -65.5 0.5s-42.667 -16.833 -62 -32.5s-34.666 -33.834 -45.999 -54.501s-17.166 -42.167 -17.499 -64.5s8.16699 -42.833 25.5 -61.5c17.333 12 36.833 22.167 58.5 30.5s43.5 13.833 65.5 16.5
s43 2.33398 63 -0.999023s37.5 -10.666 52.5 -21.999s26.167 -26.666 33.5 -45.999s9 -43.666 5 -72.999c-13.333 -16.667 -28.666 -29.334 -45.999 -38.001s-35.166 -14.667 -53.499 -18s-36.5 -4.83301 -54.5 -4.5s-34.167 1.33301 -48.5 3s-26.333 3.16699 -36 4.5
s-15.167 1.33301 -16.5 0c-16.667 -33.333 -23.667 -62.5 -21 -87.5s11.667 -45.5 27 -61.5s34.833 -27.5 58.5 -34.5s48 -9.83301 73 -8.5s48.667 7.16602 71 17.499s39.833 24.833 52.5 43.5c18 0 29.833 -5.83301 35.5 -17.5s5.83398 -25.5 0.500977 -41.5
s-16 -32.667 -32 -50s-36.5 -31.5 -61.5 -42.5s-54.167 -17.167 -87.5 -18.5s-70 6 -110 22zM612.001 394.005c6 -6 16.1689 -8.83301 30.502 -8.5s28.5 2 42.5 5s25.5 5.66699 34.5 8s10.5 2.5 4.5 0.5c-5.33301 2.66699 -12.5 4.66699 -21.5 6s-18.833 1.83301 -29.5 1.5
s-21.334 -1.5 -32.001 -3.5s-20.334 -5 -29.001 -9z" />
    <glyph glyph-name="Ccedilla" unicode="&#xc7;" 
d="M382 22c-70.667 -16.667 -130.334 -17.0029 -179.001 -1.00293s-87.167 42.5 -115.5 79.5s-47.5 81.5 -57.5 133.5s-12 105.667 -6 161s19.167 109.333 39.5 162s46.5 98 78.5 136c28.667 32 59.667 51 93 57s64.5 1.5 93.5 -13.5s54 -39 75 -72
s33.833 -72.5 38.5 -118.5c2.66699 -6 2 -13 -2 -21s-9.83301 -14.5 -17.5 -19.5s-16 -7.16699 -25 -6.5s-16.833 6.66699 -23.5 18c-12 44.667 -26.5 77 -43.5 97s-34.167 31.5 -51.5 34.5s-34.333 -0.5 -51 -10.5s-30.667 -22.333 -42 -37
c-35.333 -59.333 -58.833 -116.166 -70.5 -170.499s-14.167 -103.5 -7.5 -147.5s21 -81.167 43 -111.5s48.667 -51.166 80 -62.499s66 -11.5 104 -0.5s76.333 35.833 115 74.5c12 -8 19.5 -17.5 22.5 -28.5s3 -22.5 0 -34.5s-8.33301 -23.833 -16 -35.5
s-16.167 -22.167 -25.5 -31.5c-8.66699 -8.66699 -17.167 -15.667 -25.5 -21s-16.166 -8.66602 -23.499 -9.99902zM228 -112.003c34.667 0 60.668 3.83398 78.001 11.501s26 15.667 26 24s-8.33301 15.5 -25 21.5s-41.334 7.66699 -74.001 5v97l63 4
c-1.33301 -2 -2.16602 -5.16699 -2.49902 -9.5s-0.5 -9 -0.5 -14s0.333008 -9.83301 1 -14.5s1.66699 -8.33398 3 -11.001c38.667 -9.33301 66 -20.5 82 -33.5s24 -26.5 24 -40.5s-6.16699 -27.667 -18.5 -41s-27.5 -24.666 -45.5 -33.999s-37.333 -15.833 -58 -19.5
s-39.334 -2.83398 -56.001 2.49902z" />
    <glyph glyph-name="Egrave" unicode="&#xc8;" horiz-adv-x="467" 
d="M162 16c-34.667 16 -61.835 36.6689 -81.502 62.002s-32.834 53.5 -39.501 84.5s-7.5 63.833 -2.5 98.5s14.5 69.667 28.5 105c-27.333 40.667 -44.333 79 -51 115s-6 69 2 99s22 56.667 42 80s43 42.5 69 57.5s53.833 25.667 83.5 32s58 7.5 85 3.5
s51.333 -13.333 73 -28s37.834 -35.334 48.501 -62.001c5.33301 -10.667 6.5 -19.834 3.5 -27.501s-8.33301 -13.834 -16 -18.501s-16.334 -7.66699 -26.001 -9s-18.834 -1 -27.501 1c-14.667 24.667 -32.834 40.167 -54.501 46.5s-43.5 6.5 -65.5 0.5
s-42.667 -16.833 -62 -32.5s-34.666 -33.834 -45.999 -54.501s-17.166 -42.167 -17.499 -64.5s8.16699 -42.833 25.5 -61.5c17.333 12 36.833 22.167 58.5 30.5s43.5 13.833 65.5 16.5s43 2.33398 63 -0.999023s37.5 -10.666 52.5 -21.999s26.167 -26.666 33.5 -45.999
s9 -43.666 5 -72.999c-13.333 -16.667 -28.666 -29.334 -45.999 -38.001s-35.166 -14.667 -53.499 -18s-36.5 -4.83301 -54.5 -4.5s-34.167 1.33301 -48.5 3s-26.333 3.16699 -36 4.5s-15.167 1.33301 -16.5 0c-16.667 -33.333 -23.667 -62.5 -21 -87.5
s11.667 -45.5 27 -61.5s34.833 -27.5 58.5 -34.5s48 -9.83301 73 -8.5s48.667 7.16602 71 17.499s39.833 24.833 52.5 43.5c18 0 29.833 -5.83301 35.5 -17.5s5.83398 -25.5 0.500977 -41.5s-16 -32.667 -32 -50s-36.5 -31.5 -61.5 -42.5s-54.167 -17.167 -87.5 -18.5
s-70 6 -110 22zM220.999 388.002c6 -6 16.1689 -8.83301 30.502 -8.5s28.5 2 42.5 5s25.5 5.66699 34.5 8s10.5 2.5 4.5 0.5c-5.33301 2.66699 -12.5 4.66699 -21.5 6s-18.833 1.83301 -29.5 1.5s-21.334 -1.5 -32.001 -3.5s-20.334 -5 -29.001 -9zM168.001 847.002
c-12 10.667 -18.3311 20.5 -18.998 29.5s2 16.333 8 22s13.833 9.33398 23.5 11.001s19.167 0.5 28.5 -3.5c5.33301 -3.33301 11.666 -7 18.999 -11l23 -13l23 -13.5l19 -11.5c13.333 -8 21.666 -17.667 24.999 -29s2.5 -21 -2.5 -29s-14.167 -12.333 -27.5 -13
s-30 5.66602 -50 18.999z" />
    <glyph glyph-name="Eacute" unicode="&#xc9;" horiz-adv-x="467" 
d="M162 16c-34.667 16 -61.835 36.6689 -81.502 62.002s-32.834 53.5 -39.501 84.5s-7.5 63.833 -2.5 98.5s14.5 69.667 28.5 105c-27.333 40.667 -44.333 79 -51 115s-6 69 2 99s22 56.667 42 80s43 42.5 69 57.5s53.833 25.667 83.5 32s58 7.5 85 3.5
s51.333 -13.333 73 -28s37.834 -35.334 48.501 -62.001c5.33301 -10.667 6.5 -19.834 3.5 -27.501s-8.33301 -13.834 -16 -18.501s-16.334 -7.66699 -26.001 -9s-18.834 -1 -27.501 1c-14.667 24.667 -32.834 40.167 -54.501 46.5s-43.5 6.5 -65.5 0.5
s-42.667 -16.833 -62 -32.5s-34.666 -33.834 -45.999 -54.501s-17.166 -42.167 -17.499 -64.5s8.16699 -42.833 25.5 -61.5c17.333 12 36.833 22.167 58.5 30.5s43.5 13.833 65.5 16.5s43 2.33398 63 -0.999023s37.5 -10.666 52.5 -21.999s26.167 -26.666 33.5 -45.999
s9 -43.666 5 -72.999c-13.333 -16.667 -28.666 -29.334 -45.999 -38.001s-35.166 -14.667 -53.499 -18s-36.5 -4.83301 -54.5 -4.5s-34.167 1.33301 -48.5 3s-26.333 3.16699 -36 4.5s-15.167 1.33301 -16.5 0c-16.667 -33.333 -23.667 -62.5 -21 -87.5
s11.667 -45.5 27 -61.5s34.833 -27.5 58.5 -34.5s48 -9.83301 73 -8.5s48.667 7.16602 71 17.499s39.833 24.833 52.5 43.5c18 0 29.833 -5.83301 35.5 -17.5s5.83398 -25.5 0.500977 -41.5s-16 -32.667 -32 -50s-36.5 -31.5 -61.5 -42.5s-54.167 -17.167 -87.5 -18.5
s-70 6 -110 22zM220.999 388.002c6 -6 16.1689 -8.83301 30.502 -8.5s28.5 2 42.5 5s25.5 5.66699 34.5 8s10.5 2.5 4.5 0.5c-5.33301 2.66699 -12.5 4.66699 -21.5 6s-18.833 1.83301 -29.5 1.5s-21.334 -1.5 -32.001 -3.5s-20.334 -5 -29.001 -9zM228.001 805.002
c-20 -13.333 -36.665 -19.666 -49.998 -18.999s-22.5 5 -27.5 13s-5.83301 17.667 -2.5 29s11.666 21 24.999 29l19 11.5l23 13.5l23 13c7.33301 4 13.666 7.66699 18.999 11c8.66699 4 18 5.16699 28 3.5s18 -5.33398 24 -11.001s8.66699 -13 8 -22s-7 -18.833 -19 -29.5z
" />
    <glyph glyph-name="Ecircumflex" unicode="&#xca;" horiz-adv-x="467" 
d="M162 16c-34.667 16 -61.835 36.6689 -81.502 62.002s-32.834 53.5 -39.501 84.5s-7.5 63.833 -2.5 98.5s14.5 69.667 28.5 105c-27.333 40.667 -44.333 79 -51 115s-6 69 2 99s22 56.667 42 80s43 42.5 69 57.5s53.833 25.667 83.5 32s58 7.5 85 3.5
s51.333 -13.333 73 -28s37.834 -35.334 48.501 -62.001c5.33301 -10.667 6.5 -19.834 3.5 -27.501s-8.33301 -13.834 -16 -18.501s-16.334 -7.66699 -26.001 -9s-18.834 -1 -27.501 1c-14.667 24.667 -32.834 40.167 -54.501 46.5s-43.5 6.5 -65.5 0.5
s-42.667 -16.833 -62 -32.5s-34.666 -33.834 -45.999 -54.501s-17.166 -42.167 -17.499 -64.5s8.16699 -42.833 25.5 -61.5c17.333 12 36.833 22.167 58.5 30.5s43.5 13.833 65.5 16.5s43 2.33398 63 -0.999023s37.5 -10.666 52.5 -21.999s26.167 -26.666 33.5 -45.999
s9 -43.666 5 -72.999c-13.333 -16.667 -28.666 -29.334 -45.999 -38.001s-35.166 -14.667 -53.499 -18s-36.5 -4.83301 -54.5 -4.5s-34.167 1.33301 -48.5 3s-26.333 3.16699 -36 4.5s-15.167 1.33301 -16.5 0c-16.667 -33.333 -23.667 -62.5 -21 -87.5
s11.667 -45.5 27 -61.5s34.833 -27.5 58.5 -34.5s48 -9.83301 73 -8.5s48.667 7.16602 71 17.499s39.833 24.833 52.5 43.5c18 0 29.833 -5.83301 35.5 -17.5s5.83398 -25.5 0.500977 -41.5s-16 -32.667 -32 -50s-36.5 -31.5 -61.5 -42.5s-54.167 -17.167 -87.5 -18.5
s-70 6 -110 22zM220.999 388.002c6 -6 16.1689 -8.83301 30.502 -8.5s28.5 2 42.5 5s25.5 5.66699 34.5 8s10.5 2.5 4.5 0.5c-5.33301 2.66699 -12.5 4.66699 -21.5 6s-18.833 1.83301 -29.5 1.5s-21.334 -1.5 -32.001 -3.5s-20.334 -5 -29.001 -9zM236.001 864.002l-76 -85
c-18.667 -0.666992 -33 0.833008 -43 4.5s-17 8.5 -21 14.5s-5.33301 12.5 -4 19.5s4 13.5 8 19.5c10.667 10 22.834 23.5 36.501 40.5s28 32.5 43 46.5s30.167 24.333 45.5 31s30 4.66699 44 -6c9.33301 -11.333 19.5 -22.333 30.5 -33l32 -32.5
c10.333 -11 20.166 -22.5 29.499 -34.5s17 -25.333 23 -40c0 -6.66699 -2.66699 -13 -8 -19s-11.833 -10.667 -19.5 -14s-16.167 -5.33301 -25.5 -6s-18 1 -26 5z" />
    <glyph glyph-name="Edieresis" unicode="&#xcb;" horiz-adv-x="467" 
d="M162 16c-34.667 16 -61.835 36.6689 -81.502 62.002s-32.834 53.5 -39.501 84.5s-7.5 63.833 -2.5 98.5s14.5 69.667 28.5 105c-27.333 40.667 -44.333 79 -51 115s-6 69 2 99s22 56.667 42 80s43 42.5 69 57.5s53.833 25.667 83.5 32s58 7.5 85 3.5
s51.333 -13.333 73 -28s37.834 -35.334 48.501 -62.001c5.33301 -10.667 6.5 -19.834 3.5 -27.501s-8.33301 -13.834 -16 -18.501s-16.334 -7.66699 -26.001 -9s-18.834 -1 -27.501 1c-14.667 24.667 -32.834 40.167 -54.501 46.5s-43.5 6.5 -65.5 0.5
s-42.667 -16.833 -62 -32.5s-34.666 -33.834 -45.999 -54.501s-17.166 -42.167 -17.499 -64.5s8.16699 -42.833 25.5 -61.5c17.333 12 36.833 22.167 58.5 30.5s43.5 13.833 65.5 16.5s43 2.33398 63 -0.999023s37.5 -10.666 52.5 -21.999s26.167 -26.666 33.5 -45.999
s9 -43.666 5 -72.999c-13.333 -16.667 -28.666 -29.334 -45.999 -38.001s-35.166 -14.667 -53.499 -18s-36.5 -4.83301 -54.5 -4.5s-34.167 1.33301 -48.5 3s-26.333 3.16699 -36 4.5s-15.167 1.33301 -16.5 0c-16.667 -33.333 -23.667 -62.5 -21 -87.5
s11.667 -45.5 27 -61.5s34.833 -27.5 58.5 -34.5s48 -9.83301 73 -8.5s48.667 7.16602 71 17.499s39.833 24.833 52.5 43.5c18 0 29.833 -5.83301 35.5 -17.5s5.83398 -25.5 0.500977 -41.5s-16 -32.667 -32 -50s-36.5 -31.5 -61.5 -42.5s-54.167 -17.167 -87.5 -18.5
s-70 6 -110 22zM220.999 388.002c6 -6 16.1689 -8.83301 30.502 -8.5s28.5 2 42.5 5s25.5 5.66699 34.5 8s10.5 2.5 4.5 0.5c-5.33301 2.66699 -12.5 4.66699 -21.5 6s-18.833 1.83301 -29.5 1.5s-21.334 -1.5 -32.001 -3.5s-20.334 -5 -29.001 -9zM130.001 782.002
c-11.333 9.33301 -18.168 20.334 -20.501 33.001s-1.16602 24 3.50098 34s12.5 17.167 23.5 21.5s24.167 3.16602 39.5 -3.50098c16 -14.667 24.167 -28.667 24.5 -42s-3.16699 -24.5 -10.5 -33.5s-17 -14.667 -29 -17s-22.333 0.166992 -31 7.5zM277.999 782.003
c-13.333 11.333 -21.333 23.168 -24 35.501s-1.5 23.166 3.5 32.499s13 16 24 20s23.167 3 36.5 -3c16 -14.667 24.5 -28.667 25.5 -42s-1.83301 -24.5 -8.5 -33.5s-15.667 -14.667 -27 -17s-21.333 0.166992 -30 7.5z" />
    <glyph glyph-name="Igrave" unicode="&#xcc;" horiz-adv-x="606" 
d="M61 4c-10.667 2.66699 -19.333 7.5 -26 14.5s-11 15 -13 24s-1.33301 18 2 27s10 16.5 20 22.5c8.66699 5.33301 22.667 8 42 8s39.666 -1.33301 60.999 -4s41.5 -5.33398 60.5 -8.00098s32.833 -3.66699 41.5 -3c2 42 3.5 87.167 4.5 135.5s1.16699 97.333 0.5 147
s-2.33398 98.667 -5.00098 147s-6.66699 93.5 -12 135.5h-140c-17.333 0.666992 -33.5 3.5 -48.5 8.5s-26.167 11.833 -33.5 20.5s-9.83301 19.167 -7.5 31.5s12.166 25.833 29.499 40.5c38.667 -2 76.334 -2.83301 113.001 -2.5s73 1 109 2s72.167 2.66699 108.5 5
s74.166 4.5 113.499 6.5c26 2 45.333 -1.16699 58 -9.5s20 -18.5 22 -30.5s-1 -24 -9 -36s-20 -20 -36 -24c-9.33301 0.666992 -22.166 1.83398 -38.499 3.50098s-33.166 2.66699 -50.499 3s-34 -0.5 -50 -2.5s-28.333 -6.33301 -37 -13l12 -551l176 17
c16.667 3.33301 30.667 2.66602 42 -2.00098s19.333 -11.334 24 -20.001s6.16699 -18.167 4.5 -28.5s-7.16699 -20 -16.5 -29s-22.5 -16 -39.5 -21s-37.833 -6.5 -62.5 -4.5c-58 -5.33301 -107.5 -9.66602 -148.5 -12.999s-75.333 -5.66602 -103 -6.99902
s-50.167 -2 -67.5 -2s-31.833 0.5 -43.5 1.5s-21.667 2.5 -30 4.5s-17.166 4 -26.499 6zM238.001 847c-12 10.667 -18.3311 20.5 -18.998 29.5s2 16.333 8 22s13.833 9.33398 23.5 11.001s19.167 0.5 28.5 -3.5c5.33301 -3.33301 11.666 -7 18.999 -11l23 -13l23 -13.5
l19 -11.5c13.333 -8 21.666 -17.667 24.999 -29s2.5 -21 -2.5 -29s-14.167 -12.333 -27.5 -13s-30 5.66602 -50 18.999z" />
    <glyph glyph-name="Iacute" unicode="&#xcd;" horiz-adv-x="606" 
d="M61 4c-10.667 2.66699 -19.333 7.5 -26 14.5s-11 15 -13 24s-1.33301 18 2 27s10 16.5 20 22.5c8.66699 5.33301 22.667 8 42 8s39.666 -1.33301 60.999 -4s41.5 -5.33398 60.5 -8.00098s32.833 -3.66699 41.5 -3c2 42 3.5 87.167 4.5 135.5s1.16699 97.333 0.5 147
s-2.33398 98.667 -5.00098 147s-6.66699 93.5 -12 135.5h-140c-17.333 0.666992 -33.5 3.5 -48.5 8.5s-26.167 11.833 -33.5 20.5s-9.83301 19.167 -7.5 31.5s12.166 25.833 29.499 40.5c38.667 -2 76.334 -2.83301 113.001 -2.5s73 1 109 2s72.167 2.66699 108.5 5
s74.166 4.5 113.499 6.5c26 2 45.333 -1.16699 58 -9.5s20 -18.5 22 -30.5s-1 -24 -9 -36s-20 -20 -36 -24c-9.33301 0.666992 -22.166 1.83398 -38.499 3.50098s-33.166 2.66699 -50.499 3s-34 -0.5 -50 -2.5s-28.333 -6.33301 -37 -13l12 -551l176 17
c16.667 3.33301 30.667 2.66602 42 -2.00098s19.333 -11.334 24 -20.001s6.16699 -18.167 4.5 -28.5s-7.16699 -20 -16.5 -29s-22.5 -16 -39.5 -21s-37.833 -6.5 -62.5 -4.5c-58 -5.33301 -107.5 -9.66602 -148.5 -12.999s-75.333 -5.66602 -103 -6.99902
s-50.167 -2 -67.5 -2s-31.833 0.5 -43.5 1.5s-21.667 2.5 -30 4.5s-17.166 4 -26.499 6zM298.001 805c-20 -13.333 -36.665 -19.666 -49.998 -18.999s-22.5 5 -27.5 13s-5.83301 17.667 -2.5 29s11.666 21 24.999 29l19 11.5l23 13.5l23 13
c7.33301 4 13.666 7.66699 18.999 11c8.66699 4 18 5.16699 28 3.5s18 -5.33398 24 -11.001s8.66699 -13 8 -22s-7 -18.833 -19 -29.5z" />
    <glyph glyph-name="Icircumflex" unicode="&#xce;" horiz-adv-x="606" 
d="M61 4c-10.667 2.66699 -19.333 7.5 -26 14.5s-11 15 -13 24s-1.33301 18 2 27s10 16.5 20 22.5c8.66699 5.33301 22.667 8 42 8s39.666 -1.33301 60.999 -4s41.5 -5.33398 60.5 -8.00098s32.833 -3.66699 41.5 -3c2 42 3.5 87.167 4.5 135.5s1.16699 97.333 0.5 147
s-2.33398 98.667 -5.00098 147s-6.66699 93.5 -12 135.5h-140c-17.333 0.666992 -33.5 3.5 -48.5 8.5s-26.167 11.833 -33.5 20.5s-9.83301 19.167 -7.5 31.5s12.166 25.833 29.499 40.5c38.667 -2 76.334 -2.83301 113.001 -2.5s73 1 109 2s72.167 2.66699 108.5 5
s74.166 4.5 113.499 6.5c26 2 45.333 -1.16699 58 -9.5s20 -18.5 22 -30.5s-1 -24 -9 -36s-20 -20 -36 -24c-9.33301 0.666992 -22.166 1.83398 -38.499 3.50098s-33.166 2.66699 -50.499 3s-34 -0.5 -50 -2.5s-28.333 -6.33301 -37 -13l12 -551l176 17
c16.667 3.33301 30.667 2.66602 42 -2.00098s19.333 -11.334 24 -20.001s6.16699 -18.167 4.5 -28.5s-7.16699 -20 -16.5 -29s-22.5 -16 -39.5 -21s-37.833 -6.5 -62.5 -4.5c-58 -5.33301 -107.5 -9.66602 -148.5 -12.999s-75.333 -5.66602 -103 -6.99902
s-50.167 -2 -67.5 -2s-31.833 0.5 -43.5 1.5s-21.667 2.5 -30 4.5s-17.166 4 -26.499 6zM305.001 864l-76 -85c-18.667 -0.666992 -33 0.833008 -43 4.5s-17 8.5 -21 14.5s-5.33301 12.5 -4 19.5s4 13.5 8 19.5c10.667 10 22.834 23.5 36.501 40.5s28 32.5 43 46.5
s30.167 24.333 45.5 31s30 4.66699 44 -6c9.33301 -11.333 19.5 -22.333 30.5 -33l32 -32.5c10.333 -11 20.166 -22.5 29.499 -34.5s17 -25.333 23 -40c0 -6.66699 -2.66699 -13 -8 -19s-11.833 -10.667 -19.5 -14s-16.167 -5.33301 -25.5 -6s-18 1 -26 5z" />
    <glyph glyph-name="Idieresis" unicode="&#xcf;" horiz-adv-x="606" 
d="M61 4c-10.667 2.66699 -19.333 7.5 -26 14.5s-11 15 -13 24s-1.33301 18 2 27s10 16.5 20 22.5c8.66699 5.33301 22.667 8 42 8s39.666 -1.33301 60.999 -4s41.5 -5.33398 60.5 -8.00098s32.833 -3.66699 41.5 -3c2 42 3.5 87.167 4.5 135.5s1.16699 97.333 0.5 147
s-2.33398 98.667 -5.00098 147s-6.66699 93.5 -12 135.5h-140c-17.333 0.666992 -33.5 3.5 -48.5 8.5s-26.167 11.833 -33.5 20.5s-9.83301 19.167 -7.5 31.5s12.166 25.833 29.499 40.5c38.667 -2 76.334 -2.83301 113.001 -2.5s73 1 109 2s72.167 2.66699 108.5 5
s74.166 4.5 113.499 6.5c26 2 45.333 -1.16699 58 -9.5s20 -18.5 22 -30.5s-1 -24 -9 -36s-20 -20 -36 -24c-9.33301 0.666992 -22.166 1.83398 -38.499 3.50098s-33.166 2.66699 -50.499 3s-34 -0.5 -50 -2.5s-28.333 -6.33301 -37 -13l12 -551l176 17
c16.667 3.33301 30.667 2.66602 42 -2.00098s19.333 -11.334 24 -20.001s6.16699 -18.167 4.5 -28.5s-7.16699 -20 -16.5 -29s-22.5 -16 -39.5 -21s-37.833 -6.5 -62.5 -4.5c-58 -5.33301 -107.5 -9.66602 -148.5 -12.999s-75.333 -5.66602 -103 -6.99902
s-50.167 -2 -67.5 -2s-31.833 0.5 -43.5 1.5s-21.667 2.5 -30 4.5s-17.166 4 -26.499 6zM200.001 782c-11.333 9.33301 -18.168 20.334 -20.501 33.001s-1.16602 24 3.50098 34s12.5 17.167 23.5 21.5s24.167 3.16602 39.5 -3.50098c16 -14.667 24.167 -28.667 24.5 -42
s-3.16699 -24.5 -10.5 -33.5s-17 -14.667 -29 -17s-22.333 0.166992 -31 7.5zM347.999 782.001c-13.333 11.333 -21.333 23.168 -24 35.501s-1.5 23.166 3.5 32.499s13 16 24 20s23.167 3 36.5 -3c16 -14.667 24.5 -28.667 25.5 -42s-1.83301 -24.5 -8.5 -33.5
s-15.667 -14.667 -27 -17s-21.333 0.166992 -30 7.5z" />
    <glyph glyph-name="Ntilde" unicode="&#xd1;" horiz-adv-x="579" 
d="M162 42c6 -6 6.83496 -12.3311 2.50195 -18.998s-11.166 -12.5 -20.499 -17.5s-20.333 -8.5 -33 -10.5s-24.5 -1.83301 -35.5 0.5s-19.833 7.66602 -26.5 15.999s-8.66699 20.5 -6 36.5l-7 664c11.333 13.333 22.333 24.166 33 32.499s22.5 10.333 35.5 6
s28.333 -16.833 46 -37.5s39.5 -53.167 65.5 -97.5s57.167 -102.5 93.5 -174.5l129.5 -269c12 28 19.833 57 23.5 87s4.33398 60.833 2.00098 92.5s-6.33301 63.834 -12 96.501l-17 98c-5.66699 32.667 -10.334 65.167 -14.001 97.5s-4.83398 64.5 -3.50098 96.5
c13.333 14 26.166 19.333 38.499 16s23.5 -11.333 33.5 -24s18.833 -27.667 26.5 -45s14.167 -33 19.5 -47c4 -9.33301 7.83301 -26 11.5 -50s6.66699 -52.167 9 -84.5s3.83301 -67.5 4.5 -105.5s0 -76 -2 -114s-5.5 -74.667 -10.5 -110s-11.833 -66.5 -20.5 -93.5
s-19.334 -48.333 -32.001 -64s-27.667 -22.834 -45 -21.501c-18 -4.66699 -33 -2 -45 8s-23.167 26 -33.5 48s-21.333 50 -33 84s-26.5 73 -44.5 117s-40.167 92.333 -66.5 145s-59.5 109 -99.5 169zM463.002 889.002c-5.33301 -25.333 -14.667 -45.1709 -28 -59.5039
s-29.333 -23.166 -48 -26.499s-38.834 -1.33301 -60.501 6s-43.167 20.333 -64.5 39c-13.333 11.333 -24.333 16 -33 14s-16.167 -6.83301 -22.5 -14.5s-11.833 -16.834 -16.5 -27.501s-10.167 -19 -16.5 -25s-14.166 -8.16699 -23.499 -6.5s-21 11.167 -35 28.5
c12 40.667 26 69.834 42 87.501s33 27.334 51 29.001s36.5 -3.16602 55.5 -14.499s37.5 -26 55.5 -44c14 -8 26.167 -10.5 36.5 -7.5s19.5 8 27.5 15s15.167 14.667 21.5 23s12.5 14.333 18.5 18s12.167 3.33398 18.5 -0.999023s13.5 -15.5 21.5 -33.5z" />
    <glyph glyph-name="Ograve" unicode="&#xd2;" horiz-adv-x="564" 
d="M235 16c-37.333 9.33301 -69.501 26.998 -96.501 52.998s-49.167 57.167 -66.5 93.5s-29.666 76 -36.999 119s-9.83301 86.333 -7.5 130s9.66602 86 21.999 127s29.333 77.5 51 109.5s48.334 58 80.001 78s68.167 31 109.5 33
c40.667 -1.33301 76.667 -13.666 108 -36.999s57.5 -53.333 78.5 -90s36.833 -78.167 47.5 -124.5s15.5 -93.166 14.5 -140.499s-7.66699 -93.333 -20 -138s-31 -83.667 -56 -117s-56.333 -59 -94 -77s-82.167 -24.333 -133.5 -19zM242.999 106.998
c28.667 -6.66699 54.1631 -5.33398 76.4961 3.99902s41.833 23.833 58.5 43.5s30.334 43.834 41.001 72.501s18.334 58.834 23.001 90.501s6.33398 64 5.00098 97s-5.5 64.333 -12.5 94s-17.167 56 -30.5 79s-29.666 40.833 -48.999 53.5
c-37.333 12.667 -70 15.334 -98 8.00098s-52 -21.333 -72 -42s-35.833 -46.334 -47.5 -77.001s-19.5 -63.5 -23.5 -98.5s-4.16699 -70.333 -0.5 -106s11 -68.5 22 -98.5s25.5 -55.833 43.5 -77.5s39.333 -35.834 64 -42.501zM216.995 846.998
c-12 10.667 -18.3311 20.5 -18.998 29.5s2 16.333 8 22s13.833 9.33398 23.5 11.001s19.167 0.5 28.5 -3.5c5.33301 -3.33301 11.666 -7 18.999 -11l23 -13l23 -13.5l19 -11.5c13.333 -8 21.666 -17.667 24.999 -29s2.5 -21 -2.5 -29s-14.167 -12.333 -27.5 -13
s-30 5.66602 -50 18.999z" />
    <glyph glyph-name="Oacute" unicode="&#xd3;" horiz-adv-x="564" 
d="M235 16c-37.333 9.33301 -69.501 26.998 -96.501 52.998s-49.167 57.167 -66.5 93.5s-29.666 76 -36.999 119s-9.83301 86.333 -7.5 130s9.66602 86 21.999 127s29.333 77.5 51 109.5s48.334 58 80.001 78s68.167 31 109.5 33
c40.667 -1.33301 76.667 -13.666 108 -36.999s57.5 -53.333 78.5 -90s36.833 -78.167 47.5 -124.5s15.5 -93.166 14.5 -140.499s-7.66699 -93.333 -20 -138s-31 -83.667 -56 -117s-56.333 -59 -94 -77s-82.167 -24.333 -133.5 -19zM242.999 106.998
c28.667 -6.66699 54.1631 -5.33398 76.4961 3.99902s41.833 23.833 58.5 43.5s30.334 43.834 41.001 72.501s18.334 58.834 23.001 90.501s6.33398 64 5.00098 97s-5.5 64.333 -12.5 94s-17.167 56 -30.5 79s-29.666 40.833 -48.999 53.5
c-37.333 12.667 -70 15.334 -98 8.00098s-52 -21.333 -72 -42s-35.833 -46.334 -47.5 -77.001s-19.5 -63.5 -23.5 -98.5s-4.16699 -70.333 -0.5 -106s11 -68.5 22 -98.5s25.5 -55.833 43.5 -77.5s39.333 -35.834 64 -42.501zM276.995 804.998
c-20 -13.333 -36.665 -19.666 -49.998 -18.999s-22.5 5 -27.5 13s-5.83301 17.667 -2.5 29s11.666 21 24.999 29l19 11.5l23 13.5l23 13c7.33301 4 13.666 7.66699 18.999 11c8.66699 4 18 5.16699 28 3.5s18 -5.33398 24 -11.001s8.66699 -13 8 -22s-7 -18.833 -19 -29.5z
" />
    <glyph glyph-name="Ocircumflex" unicode="&#xd4;" horiz-adv-x="564" 
d="M235 16c-37.333 9.33301 -69.501 26.998 -96.501 52.998s-49.167 57.167 -66.5 93.5s-29.666 76 -36.999 119s-9.83301 86.333 -7.5 130s9.66602 86 21.999 127s29.333 77.5 51 109.5s48.334 58 80.001 78s68.167 31 109.5 33
c40.667 -1.33301 76.667 -13.666 108 -36.999s57.5 -53.333 78.5 -90s36.833 -78.167 47.5 -124.5s15.5 -93.166 14.5 -140.499s-7.66699 -93.333 -20 -138s-31 -83.667 -56 -117s-56.333 -59 -94 -77s-82.167 -24.333 -133.5 -19zM242.999 106.998
c28.667 -6.66699 54.1631 -5.33398 76.4961 3.99902s41.833 23.833 58.5 43.5s30.334 43.834 41.001 72.501s18.334 58.834 23.001 90.501s6.33398 64 5.00098 97s-5.5 64.333 -12.5 94s-17.167 56 -30.5 79s-29.666 40.833 -48.999 53.5
c-37.333 12.667 -70 15.334 -98 8.00098s-52 -21.333 -72 -42s-35.833 -46.334 -47.5 -77.001s-19.5 -63.5 -23.5 -98.5s-4.16699 -70.333 -0.5 -106s11 -68.5 22 -98.5s25.5 -55.833 43.5 -77.5s39.333 -35.834 64 -42.501zM283.995 863.998l-76 -85
c-18.667 -0.666992 -33 0.833008 -43 4.5s-17 8.5 -21 14.5s-5.33301 12.5 -4 19.5s4 13.5 8 19.5c10.667 10 22.834 23.5 36.501 40.5s28 32.5 43 46.5s30.167 24.333 45.5 31s30 4.66699 44 -6c9.33301 -11.333 19.5 -22.333 30.5 -33l32 -32.5
c10.333 -11 20.166 -22.5 29.499 -34.5s17 -25.333 23 -40c0 -6.66699 -2.66699 -13 -8 -19s-11.833 -10.667 -19.5 -14s-16.167 -5.33301 -25.5 -6s-18 1 -26 5z" />
    <glyph glyph-name="Otilde" unicode="&#xd5;" horiz-adv-x="564" 
d="M235 16c-37.333 9.33301 -69.501 26.998 -96.501 52.998s-49.167 57.167 -66.5 93.5s-29.666 76 -36.999 119s-9.83301 86.333 -7.5 130s9.66602 86 21.999 127s29.333 77.5 51 109.5s48.334 58 80.001 78s68.167 31 109.5 33
c40.667 -1.33301 76.667 -13.666 108 -36.999s57.5 -53.333 78.5 -90s36.833 -78.167 47.5 -124.5s15.5 -93.166 14.5 -140.499s-7.66699 -93.333 -20 -138s-31 -83.667 -56 -117s-56.333 -59 -94 -77s-82.167 -24.333 -133.5 -19zM242.999 106.998
c28.667 -6.66699 54.1631 -5.33398 76.4961 3.99902s41.833 23.833 58.5 43.5s30.334 43.834 41.001 72.501s18.334 58.834 23.001 90.501s6.33398 64 5.00098 97s-5.5 64.333 -12.5 94s-17.167 56 -30.5 79s-29.666 40.833 -48.999 53.5
c-37.333 12.667 -70 15.334 -98 8.00098s-52 -21.333 -72 -42s-35.833 -46.334 -47.5 -77.001s-19.5 -63.5 -23.5 -98.5s-4.16699 -70.333 -0.5 -106s11 -68.5 22 -98.5s25.5 -55.833 43.5 -77.5s39.333 -35.834 64 -42.501zM455.995 888.998
c-5.33301 -25.333 -14.667 -45.1709 -28 -59.5039s-29.333 -23.166 -48 -26.499s-38.834 -1.33301 -60.501 6s-43.167 20.333 -64.5 39c-13.333 11.333 -24.333 16 -33 14s-16.167 -6.83301 -22.5 -14.5s-11.833 -16.834 -16.5 -27.501s-10.167 -19 -16.5 -25
s-14.166 -8.16699 -23.499 -6.5s-21 11.167 -35 28.5c12 40.667 26 69.834 42 87.501s33 27.334 51 29.001s36.5 -3.16602 55.5 -14.499s37.5 -26 55.5 -44c14 -8 26.167 -10.5 36.5 -7.5s19.5 8 27.5 15s15.167 14.667 21.5 23s12.5 14.333 18.5 18
s12.167 3.33398 18.5 -0.999023s13.5 -15.5 21.5 -33.5z" />
    <glyph glyph-name="Odieresis" unicode="&#xd6;" horiz-adv-x="564" 
d="M235 16c-37.333 9.33301 -69.501 26.998 -96.501 52.998s-49.167 57.167 -66.5 93.5s-29.666 76 -36.999 119s-9.83301 86.333 -7.5 130s9.66602 86 21.999 127s29.333 77.5 51 109.5s48.334 58 80.001 78s68.167 31 109.5 33
c40.667 -1.33301 76.667 -13.666 108 -36.999s57.5 -53.333 78.5 -90s36.833 -78.167 47.5 -124.5s15.5 -93.166 14.5 -140.499s-7.66699 -93.333 -20 -138s-31 -83.667 -56 -117s-56.333 -59 -94 -77s-82.167 -24.333 -133.5 -19zM242.999 106.998
c28.667 -6.66699 54.1631 -5.33398 76.4961 3.99902s41.833 23.833 58.5 43.5s30.334 43.834 41.001 72.501s18.334 58.834 23.001 90.501s6.33398 64 5.00098 97s-5.5 64.333 -12.5 94s-17.167 56 -30.5 79s-29.666 40.833 -48.999 53.5
c-37.333 12.667 -70 15.334 -98 8.00098s-52 -21.333 -72 -42s-35.833 -46.334 -47.5 -77.001s-19.5 -63.5 -23.5 -98.5s-4.16699 -70.333 -0.5 -106s11 -68.5 22 -98.5s25.5 -55.833 43.5 -77.5s39.333 -35.834 64 -42.501zM178.995 781.998
c-11.333 9.33301 -18.168 20.334 -20.501 33.001s-1.16602 24 3.50098 34s12.5 17.167 23.5 21.5s24.167 3.16602 39.5 -3.50098c16 -14.667 24.167 -28.667 24.5 -42s-3.16699 -24.5 -10.5 -33.5s-17 -14.667 -29 -17s-22.333 0.166992 -31 7.5zM326.993 781.999
c-13.333 11.333 -21.333 23.168 -24 35.501s-1.5 23.166 3.5 32.499s13 16 24 20s23.167 3 36.5 -3c16 -14.667 24.5 -28.667 25.5 -42s-1.83301 -24.5 -8.5 -33.5s-15.667 -14.667 -27 -17s-21.333 0.166992 -30 7.5z" />
    <glyph glyph-name="Oslash" unicode="&#xd8;" horiz-adv-x="564" 
d="M235 16c-37.333 9.33301 -69.501 26.998 -96.501 52.998s-49.167 57.167 -66.5 93.5s-29.666 76 -36.999 119s-9.83301 86.333 -7.5 130s9.66602 86 21.999 127s29.333 77.5 51 109.5s48.334 58 80.001 78s68.167 31 109.5 33
c40.667 -1.33301 76.667 -13.666 108 -36.999s57.5 -53.333 78.5 -90s36.833 -78.167 47.5 -124.5s15.5 -93.166 14.5 -140.499s-7.66699 -93.333 -20 -138s-31 -83.667 -56 -117s-56.333 -59 -94 -77s-82.167 -24.333 -133.5 -19zM242.999 106.998
c28.667 -6.66699 54.1631 -5.33398 76.4961 3.99902s41.833 23.833 58.5 43.5s30.334 43.834 41.001 72.501s18.334 58.834 23.001 90.501s6.33398 64 5.00098 97s-5.5 64.333 -12.5 94s-17.167 56 -30.5 79s-29.666 40.833 -48.999 53.5
c-37.333 12.667 -70 15.334 -98 8.00098s-52 -21.333 -72 -42s-35.833 -46.334 -47.5 -77.001s-19.5 -63.5 -23.5 -98.5s-4.16699 -70.333 -0.5 -106s11 -68.5 22 -98.5s25.5 -55.833 43.5 -77.5s39.333 -35.834 64 -42.501zM139.995 21.998
c-8 -9.33301 -16.833 -12 -26.5 -8s-17.667 10.667 -24 20s-10.5 19.5 -12.5 30.5s0.333008 19.167 7 24.5l340 659c6 10 13.5 15.333 22.5 16s17.5 -2 25.5 -8s14.333 -15 19 -27s5 -25.667 1 -41z" />
    <glyph glyph-name="Ugrave" unicode="&#xd9;" horiz-adv-x="530" 
d="M322 1c-58 -8.66699 -106.33 1.8291 -144.997 31.4961s-69.334 75.334 -92.001 137.001s-38.167 137.667 -46.5 228s-11.5 192.166 -9.5 305.499c-2 16 1.83301 29 11.5 39s20.834 16.167 33.501 18.5s24.667 0.833008 36 -4.5s18 -15 20 -29
c5.33301 -31.333 8.83301 -67.666 10.5 -108.999s3.66699 -83.833 6 -127.5s5.33301 -87 9 -130s10 -82.167 19 -117.5s21.5 -65.166 37.5 -89.499s37 -39.5 63 -45.5c32.667 6.66699 58 22 76 46s30.833 53.333 38.5 88s11.5 73 11.5 115s-1.83301 84.667 -5.5 128
s-7.83398 85.333 -12.501 126s-7.33398 77.334 -8.00098 110.001c-1.33301 10.667 2.16699 19.334 10.5 26.001s18.166 10.5 29.499 11.5s22.5 -0.833008 33.5 -5.5s18.5 -13.334 22.5 -26.001c8 -24 15.333 -57.833 22 -101.5s11 -91.5 13 -143.5s1 -105.167 -3 -159.5
s-13 -104.5 -27 -150.5s-33.333 -84.667 -58 -116s-56.667 -49.666 -96 -54.999zM200.003 846.996c-12 10.667 -18.3311 20.5 -18.998 29.5s2 16.333 8 22s13.833 9.33398 23.5 11.001s19.167 0.5 28.5 -3.5c5.33301 -3.33301 11.666 -7 18.999 -11l23 -13l23 -13.5
l19 -11.5c13.333 -8 21.666 -17.667 24.999 -29s2.5 -21 -2.5 -29s-14.167 -12.333 -27.5 -13s-30 5.66602 -50 18.999z" />
    <glyph glyph-name="Uacute" unicode="&#xda;" horiz-adv-x="530" 
d="M322 1c-58 -8.66699 -106.33 1.8291 -144.997 31.4961s-69.334 75.334 -92.001 137.001s-38.167 137.667 -46.5 228s-11.5 192.166 -9.5 305.499c-2 16 1.83301 29 11.5 39s20.834 16.167 33.501 18.5s24.667 0.833008 36 -4.5s18 -15 20 -29
c5.33301 -31.333 8.83301 -67.666 10.5 -108.999s3.66699 -83.833 6 -127.5s5.33301 -87 9 -130s10 -82.167 19 -117.5s21.5 -65.166 37.5 -89.499s37 -39.5 63 -45.5c32.667 6.66699 58 22 76 46s30.833 53.333 38.5 88s11.5 73 11.5 115s-1.83301 84.667 -5.5 128
s-7.83398 85.333 -12.501 126s-7.33398 77.334 -8.00098 110.001c-1.33301 10.667 2.16699 19.334 10.5 26.001s18.166 10.5 29.499 11.5s22.5 -0.833008 33.5 -5.5s18.5 -13.334 22.5 -26.001c8 -24 15.333 -57.833 22 -101.5s11 -91.5 13 -143.5s1 -105.167 -3 -159.5
s-13 -104.5 -27 -150.5s-33.333 -84.667 -58 -116s-56.667 -49.666 -96 -54.999zM260.003 804.996c-20 -13.333 -36.665 -19.666 -49.998 -18.999s-22.5 5 -27.5 13s-5.83301 17.667 -2.5 29s11.666 21 24.999 29l19 11.5l23 13.5l23 13c7.33301 4 13.666 7.66699 18.999 11
c8.66699 4 18 5.16699 28 3.5s18 -5.33398 24 -11.001s8.66699 -13 8 -22s-7 -18.833 -19 -29.5z" />
    <glyph glyph-name="Ucircumflex" unicode="&#xdb;" horiz-adv-x="530" 
d="M322 1c-58 -8.66699 -106.33 1.8291 -144.997 31.4961s-69.334 75.334 -92.001 137.001s-38.167 137.667 -46.5 228s-11.5 192.166 -9.5 305.499c-2 16 1.83301 29 11.5 39s20.834 16.167 33.501 18.5s24.667 0.833008 36 -4.5s18 -15 20 -29
c5.33301 -31.333 8.83301 -67.666 10.5 -108.999s3.66699 -83.833 6 -127.5s5.33301 -87 9 -130s10 -82.167 19 -117.5s21.5 -65.166 37.5 -89.499s37 -39.5 63 -45.5c32.667 6.66699 58 22 76 46s30.833 53.333 38.5 88s11.5 73 11.5 115s-1.83301 84.667 -5.5 128
s-7.83398 85.333 -12.501 126s-7.33398 77.334 -8.00098 110.001c-1.33301 10.667 2.16699 19.334 10.5 26.001s18.166 10.5 29.499 11.5s22.5 -0.833008 33.5 -5.5s18.5 -13.334 22.5 -26.001c8 -24 15.333 -57.833 22 -101.5s11 -91.5 13 -143.5s1 -105.167 -3 -159.5
s-13 -104.5 -27 -150.5s-33.333 -84.667 -58 -116s-56.667 -49.666 -96 -54.999zM267.003 863.996l-76 -85c-18.667 -0.666992 -33 0.833008 -43 4.5s-17 8.5 -21 14.5s-5.33301 12.5 -4 19.5s4 13.5 8 19.5c10.667 10 22.834 23.5 36.501 40.5s28 32.5 43 46.5
s30.167 24.333 45.5 31s30 4.66699 44 -6c9.33301 -11.333 19.5 -22.333 30.5 -33l32 -32.5c10.333 -11 20.166 -22.5 29.499 -34.5s17 -25.333 23 -40c0 -6.66699 -2.66699 -13 -8 -19s-11.833 -10.667 -19.5 -14s-16.167 -5.33301 -25.5 -6s-18 1 -26 5z" />
    <glyph glyph-name="Udieresis" unicode="&#xdc;" horiz-adv-x="530" 
d="M322 1c-58 -8.66699 -106.33 1.8291 -144.997 31.4961s-69.334 75.334 -92.001 137.001s-38.167 137.667 -46.5 228s-11.5 192.166 -9.5 305.499c-2 16 1.83301 29 11.5 39s20.834 16.167 33.501 18.5s24.667 0.833008 36 -4.5s18 -15 20 -29
c5.33301 -31.333 8.83301 -67.666 10.5 -108.999s3.66699 -83.833 6 -127.5s5.33301 -87 9 -130s10 -82.167 19 -117.5s21.5 -65.166 37.5 -89.499s37 -39.5 63 -45.5c32.667 6.66699 58 22 76 46s30.833 53.333 38.5 88s11.5 73 11.5 115s-1.83301 84.667 -5.5 128
s-7.83398 85.333 -12.501 126s-7.33398 77.334 -8.00098 110.001c-1.33301 10.667 2.16699 19.334 10.5 26.001s18.166 10.5 29.499 11.5s22.5 -0.833008 33.5 -5.5s18.5 -13.334 22.5 -26.001c8 -24 15.333 -57.833 22 -101.5s11 -91.5 13 -143.5s1 -105.167 -3 -159.5
s-13 -104.5 -27 -150.5s-33.333 -84.667 -58 -116s-56.667 -49.666 -96 -54.999zM162.003 781.996c-11.333 9.33301 -18.168 20.334 -20.501 33.001s-1.16602 24 3.50098 34s12.5 17.167 23.5 21.5s24.167 3.16602 39.5 -3.50098c16 -14.667 24.167 -28.667 24.5 -42
s-3.16699 -24.5 -10.5 -33.5s-17 -14.667 -29 -17s-22.333 0.166992 -31 7.5zM310.001 781.997c-13.333 11.333 -21.333 23.168 -24 35.501s-1.5 23.166 3.5 32.499s13 16 24 20s23.167 3 36.5 -3c16 -14.667 24.5 -28.667 25.5 -42s-1.83301 -24.5 -8.5 -33.5
s-15.667 -14.667 -27 -17s-21.333 0.166992 -30 7.5z" />
    <glyph glyph-name="Yacute" unicode="&#xdd;" horiz-adv-x="478" 
d="M169 416l-159.002 272.998c-5.33301 8.66699 -7.66602 17.334 -6.99902 26.001s3 16.5 7 23.5s9.66699 13 17 18s15.666 8.16699 24.999 9.5l168 -248l167 217c6.66699 12.667 15.834 22.334 27.501 29.001s22.667 9.66699 33 9s19 -5.33398 26 -14.001
s9.16699 -22 6.5 -40c-15.333 -30.667 -32.833 -59.667 -52.5 -87l-58 -77l-53 -68.5c-16.333 -21.667 -28.5 -42.167 -36.5 -61.5v-404c-7.33301 -10 -16.666 -17.167 -27.999 -21.5s-22.5 -5.66602 -33.5 -3.99902s-20.5 6.5 -28.5 14.5s-12.333 19.333 -13 34z
M233.998 804.998c-20 -13.333 -36.665 -19.666 -49.998 -18.999s-22.5 5 -27.5 13s-5.83301 17.667 -2.5 29s11.666 21 24.999 29l19 11.5l23 13.5l23 13c7.33301 4 13.666 7.66699 18.999 11c8.66699 4 18 5.16699 28 3.5s18 -5.33398 24 -11.001s8.66699 -13 8 -22
s-7 -18.833 -19 -29.5z" />
    <glyph glyph-name="Thorn" unicode="&#xde;" horiz-adv-x="562" 
d="M50 662c0 18 5 30.8271 15 38.4941s21.167 11.334 33.5 11.001s24 -4 35 -11s17.5 -16.5 19.5 -28.5l5 -123c30 2 61.5 -1.66699 94.5 -11s65.5 -23 97.5 -41s61.833 -39.5 89.5 -64.5s50.834 -51.667 69.501 -80s31.5 -57.666 38.5 -87.999s5.5 -59.833 -4.5 -88.5
c-9.33301 -25.333 -27 -48.666 -53 -69.999s-55.833 -39 -89.5 -53s-69 -23.667 -106 -29s-71.5 -4.33301 -103.5 3l8 -93c4 -21.333 1.5 -37.666 -7.5 -48.999s-20 -17.833 -33 -19.5s-25.833 1.33301 -38.5 9s-20.667 19.5 -24 35.5
c3.33301 85.333 3.33301 170.833 0 256.5s-11.666 173.5 -24.999 263.5c-16.667 -7.33301 -30.334 -10 -41.001 -8s-18.167 6.83301 -22.5 14.5s-5.5 17.334 -3.5 29.001s7.33301 24.167 16 37.5c3.33301 4.66699 9.66602 9.5 18.999 14.5s16.333 9.16699 21 12.5
c-1.33301 3.33301 -2.5 11.333 -3.5 24s-2 26.334 -3 41.001s-1.83301 28.5 -2.5 41.5s-1 21.5 -1 25.5zM194 114.994c70.667 4 124.833 14.5 162.5 31.5s62.5 37.333 74.5 61s12.833 49 2.5 76s-27.833 52.333 -52.5 76s-54.667 44.167 -90 61.5s-72.333 28 -111 32z" />
    <glyph glyph-name="germandbls" unicode="&#xdf;" horiz-adv-x="521" 
d="M140 -87c-7.33301 -2.66699 -13.498 -5.16699 -18.498 -7.5s-10.167 -3.33301 -15.5 -3s-11.666 2.33301 -18.999 6s-17 9.83398 -29 18.501c6 16.667 9.5 41.5 10.5 74.5s0.333008 70.5 -2 112.5s-5.33301 87.167 -9 135.5l-10.5 144
c-3.33301 47.667 -5.83301 93.5 -7.5 137.5s-1 82.5 2 115.5s8.66699 59.333 17 79s20.833 28.834 37.5 27.501c38 5.33301 74.333 5.5 109 0.5s65.5 -14.5 92.5 -28.5s49.167 -31.833 66.5 -53.5s27.666 -46.5 30.999 -74.5s-1.5 -59 -14.5 -93s-35.833 -70 -68.5 -108
c48.667 -8.66699 88 -23.5 118 -44.5s51.5 -45 64.5 -72s17.333 -54.667 13 -83s-16.833 -53.833 -37.5 -76.5s-49.334 -40.667 -86.001 -54s-81 -18 -133 -14v82c46.667 -8.66699 84.834 -8.83398 114.501 -0.500977s51.167 21 64.5 38s18.666 36.5 15.999 58.5
s-12.834 42.5 -30.501 61.5s-42.667 34.5 -75 46.5s-71.166 16.667 -116.499 14c-4 12.667 -3.16699 24 2.5 34s13.167 20.167 22.5 30.5l29.5 33c10.333 11.667 18.166 25.667 23.499 42s6.83301 35.833 4.5 58.5s-11.5 49.667 -27.5 81
c-8 9.33301 -18.167 17.5 -30.5 24.5s-25.333 12.5 -39 16.5s-27.5 6.33301 -41.5 7s-27 0 -39 -2c-10 -44 -15.667 -90.333 -17 -139s-0.333008 -97.834 3 -147.501s8 -98.5 14 -146.5s11 -93 15 -135s6.16699 -80 6.5 -114s-3.16699 -61.333 -10.5 -82z" />
    <glyph glyph-name="agrave" unicode="&#xe0;" horiz-adv-x="575" 
d="M552 59c0 -19.333 -3.99414 -32.333 -11.9941 -39s-17.333 -10 -28 -10s-20.834 2.16699 -30.501 6.5s-15.834 8.5 -18.501 12.5l-53 114c-8.66699 -16 -18.667 -31.5 -30 -46.5s-24 -28.333 -38 -40s-29.167 -21.5 -45.5 -29.5s-33.833 -13 -52.5 -15
c-44.667 -1.33301 -81.834 5.5 -111.501 20.5s-53.334 35.167 -71.001 60.5s-29.334 54.5 -35.001 87.5s-6.5 67 -2.5 102s12.333 69.5 25 103.5s28.667 64.5 48 91.5s41.833 49.333 67.5 67s53.167 27.5 82.5 29.5s60.166 -4.83301 92.499 -20.5s65.5 -43.5 99.5 -83.5z
M160.006 125c30.667 -10.667 57.501 -13.168 80.501 -7.50098s42.5 16.5 58.5 32.5s28.167 36 36.5 60s13.5 49 15.5 75s0.833008 51.5 -3.5 76.5s-11.666 47 -21.999 66s-23.5 33.167 -39.5 42.5s-34.667 11.333 -56 6c-17.333 -4 -32.833 -14.167 -46.5 -30.5
s-25.167 -35.666 -34.5 -57.999s-16.333 -46.5 -21 -72.5s-6.83398 -51.333 -6.50098 -76s3.66602 -47.167 9.99902 -67.5s15.833 -35.833 28.5 -46.5zM192.007 670.999c-12 10.667 -18.3311 20.5 -18.998 29.5s2 16.333 8 22s13.833 9.33398 23.5 11.001
s19.167 0.5 28.5 -3.5c5.33301 -3.33301 11.666 -7 18.999 -11l23 -13l23 -13.5l19 -11.5c13.333 -8 21.666 -17.667 24.999 -29s2.5 -21 -2.5 -29s-14.167 -12.333 -27.5 -13s-30 5.66602 -50 18.999z" />
    <glyph glyph-name="aacute" unicode="&#xe1;" horiz-adv-x="575" 
d="M552 59c0 -19.333 -3.99414 -32.333 -11.9941 -39s-17.333 -10 -28 -10s-20.834 2.16699 -30.501 6.5s-15.834 8.5 -18.501 12.5l-53 114c-8.66699 -16 -18.667 -31.5 -30 -46.5s-24 -28.333 -38 -40s-29.167 -21.5 -45.5 -29.5s-33.833 -13 -52.5 -15
c-44.667 -1.33301 -81.834 5.5 -111.501 20.5s-53.334 35.167 -71.001 60.5s-29.334 54.5 -35.001 87.5s-6.5 67 -2.5 102s12.333 69.5 25 103.5s28.667 64.5 48 91.5s41.833 49.333 67.5 67s53.167 27.5 82.5 29.5s60.166 -4.83301 92.499 -20.5s65.5 -43.5 99.5 -83.5z
M160.006 125c30.667 -10.667 57.501 -13.168 80.501 -7.50098s42.5 16.5 58.5 32.5s28.167 36 36.5 60s13.5 49 15.5 75s0.833008 51.5 -3.5 76.5s-11.666 47 -21.999 66s-23.5 33.167 -39.5 42.5s-34.667 11.333 -56 6c-17.333 -4 -32.833 -14.167 -46.5 -30.5
s-25.167 -35.666 -34.5 -57.999s-16.333 -46.5 -21 -72.5s-6.83398 -51.333 -6.50098 -76s3.66602 -47.167 9.99902 -67.5s15.833 -35.833 28.5 -46.5zM252.007 627.999c-20 -13.333 -36.665 -19.666 -49.998 -18.999s-22.5 5 -27.5 13s-5.83301 17.667 -2.5 29
s11.666 21 24.999 29l19 11.5l23 13.5l23 13c7.33301 4 13.666 7.66699 18.999 11c8.66699 4 18 5.16699 28 3.5s18 -5.33398 24 -11.001s8.66699 -13 8 -22s-7 -18.833 -19 -29.5z" />
    <glyph glyph-name="acircumflex" unicode="&#xe2;" horiz-adv-x="575" 
d="M552 59c0 -19.333 -3.99414 -32.333 -11.9941 -39s-17.333 -10 -28 -10s-20.834 2.16699 -30.501 6.5s-15.834 8.5 -18.501 12.5l-53 114c-8.66699 -16 -18.667 -31.5 -30 -46.5s-24 -28.333 -38 -40s-29.167 -21.5 -45.5 -29.5s-33.833 -13 -52.5 -15
c-44.667 -1.33301 -81.834 5.5 -111.501 20.5s-53.334 35.167 -71.001 60.5s-29.334 54.5 -35.001 87.5s-6.5 67 -2.5 102s12.333 69.5 25 103.5s28.667 64.5 48 91.5s41.833 49.333 67.5 67s53.167 27.5 82.5 29.5s60.166 -4.83301 92.499 -20.5s65.5 -43.5 99.5 -83.5z
M160.006 125c30.667 -10.667 57.501 -13.168 80.501 -7.50098s42.5 16.5 58.5 32.5s28.167 36 36.5 60s13.5 49 15.5 75s0.833008 51.5 -3.5 76.5s-11.666 47 -21.999 66s-23.5 33.167 -39.5 42.5s-34.667 11.333 -56 6c-17.333 -4 -32.833 -14.167 -46.5 -30.5
s-25.167 -35.666 -34.5 -57.999s-16.333 -46.5 -21 -72.5s-6.83398 -51.333 -6.50098 -76s3.66602 -47.167 9.99902 -67.5s15.833 -35.833 28.5 -46.5zM273.007 681.999l-76 -85c-18.667 -0.666992 -33 0.833008 -43 4.5s-17 8.5 -21 14.5s-5.33301 12.5 -4 19.5
s4 13.5 8 19.5c10.667 10 22.834 23.5 36.501 40.5s28 32.5 43 46.5s30.167 24.333 45.5 31s30 4.66699 44 -6c9.33301 -11.333 19.5 -22.333 30.5 -33l32 -32.5c10.333 -11 20.166 -22.5 29.499 -34.5s17 -25.333 23 -40c0 -6.66699 -2.66699 -13 -8 -19
s-11.833 -10.667 -19.5 -14s-16.167 -5.33301 -25.5 -6s-18 1 -26 5z" />
    <glyph glyph-name="atilde" unicode="&#xe3;" horiz-adv-x="575" 
d="M552 59c0 -19.333 -3.99414 -32.333 -11.9941 -39s-17.333 -10 -28 -10s-20.834 2.16699 -30.501 6.5s-15.834 8.5 -18.501 12.5l-53 114c-8.66699 -16 -18.667 -31.5 -30 -46.5s-24 -28.333 -38 -40s-29.167 -21.5 -45.5 -29.5s-33.833 -13 -52.5 -15
c-44.667 -1.33301 -81.834 5.5 -111.501 20.5s-53.334 35.167 -71.001 60.5s-29.334 54.5 -35.001 87.5s-6.5 67 -2.5 102s12.333 69.5 25 103.5s28.667 64.5 48 91.5s41.833 49.333 67.5 67s53.167 27.5 82.5 29.5s60.166 -4.83301 92.499 -20.5s65.5 -43.5 99.5 -83.5z
M160.006 125c30.667 -10.667 57.501 -13.168 80.501 -7.50098s42.5 16.5 58.5 32.5s28.167 36 36.5 60s13.5 49 15.5 75s0.833008 51.5 -3.5 76.5s-11.666 47 -21.999 66s-23.5 33.167 -39.5 42.5s-34.667 11.333 -56 6c-17.333 -4 -32.833 -14.167 -46.5 -30.5
s-25.167 -35.666 -34.5 -57.999s-16.333 -46.5 -21 -72.5s-6.83398 -51.333 -6.50098 -76s3.66602 -47.167 9.99902 -67.5s15.833 -35.833 28.5 -46.5zM461.007 690.999c-5.33301 -25.333 -14.667 -45.1709 -28 -59.5039s-29.333 -23.166 -48 -26.499
s-38.834 -1.33301 -60.501 6s-43.167 20.333 -64.5 39c-13.333 11.333 -24.333 16 -33 14s-16.167 -6.83301 -22.5 -14.5s-11.833 -16.834 -16.5 -27.501s-10.167 -19 -16.5 -25s-14.166 -8.16699 -23.499 -6.5s-21 11.167 -35 28.5c12 40.667 26 69.834 42 87.501
s33 27.334 51 29.001s36.5 -3.16602 55.5 -14.499s37.5 -26 55.5 -44c14 -8 26.167 -10.5 36.5 -7.5s19.5 8 27.5 15s15.167 14.667 21.5 23s12.5 14.333 18.5 18s12.167 3.33398 18.5 -0.999023s13.5 -15.5 21.5 -33.5z" />
    <glyph glyph-name="adieresis" unicode="&#xe4;" horiz-adv-x="575" 
d="M552 59c0 -19.333 -3.99414 -32.333 -11.9941 -39s-17.333 -10 -28 -10s-20.834 2.16699 -30.501 6.5s-15.834 8.5 -18.501 12.5l-53 114c-8.66699 -16 -18.667 -31.5 -30 -46.5s-24 -28.333 -38 -40s-29.167 -21.5 -45.5 -29.5s-33.833 -13 -52.5 -15
c-44.667 -1.33301 -81.834 5.5 -111.501 20.5s-53.334 35.167 -71.001 60.5s-29.334 54.5 -35.001 87.5s-6.5 67 -2.5 102s12.333 69.5 25 103.5s28.667 64.5 48 91.5s41.833 49.333 67.5 67s53.167 27.5 82.5 29.5s60.166 -4.83301 92.499 -20.5s65.5 -43.5 99.5 -83.5z
M160.006 125c30.667 -10.667 57.501 -13.168 80.501 -7.50098s42.5 16.5 58.5 32.5s28.167 36 36.5 60s13.5 49 15.5 75s0.833008 51.5 -3.5 76.5s-11.666 47 -21.999 66s-23.5 33.167 -39.5 42.5s-34.667 11.333 -56 6c-17.333 -4 -32.833 -14.167 -46.5 -30.5
s-25.167 -35.666 -34.5 -57.999s-16.333 -46.5 -21 -72.5s-6.83398 -51.333 -6.50098 -76s3.66602 -47.167 9.99902 -67.5s15.833 -35.833 28.5 -46.5zM168.007 621.999c-11.333 9.33301 -18.168 20.334 -20.501 33.001s-1.16602 24 3.50098 34s12.5 17.167 23.5 21.5
s24.167 3.16602 39.5 -3.50098c16 -14.667 24.167 -28.667 24.5 -42s-3.16699 -24.5 -10.5 -33.5s-17 -14.667 -29 -17s-22.333 0.166992 -31 7.5zM316.005 622c-13.333 11.333 -21.333 23.168 -24 35.501s-1.5 23.166 3.5 32.499s13 16 24 20s23.167 3 36.5 -3
c16 -14.667 24.5 -28.667 25.5 -42s-1.83301 -24.5 -8.5 -33.5s-15.667 -14.667 -27 -17s-21.333 0.166992 -30 7.5z" />
    <glyph glyph-name="aring" unicode="&#xe5;" horiz-adv-x="575" 
d="M552 59c0 -19.333 -3.99414 -32.333 -11.9941 -39s-17.333 -10 -28 -10s-20.834 2.16699 -30.501 6.5s-15.834 8.5 -18.501 12.5l-53 114c-8.66699 -16 -18.667 -31.5 -30 -46.5s-24 -28.333 -38 -40s-29.167 -21.5 -45.5 -29.5s-33.833 -13 -52.5 -15
c-44.667 -1.33301 -81.834 5.5 -111.501 20.5s-53.334 35.167 -71.001 60.5s-29.334 54.5 -35.001 87.5s-6.5 67 -2.5 102s12.333 69.5 25 103.5s28.667 64.5 48 91.5s41.833 49.333 67.5 67s53.167 27.5 82.5 29.5s60.166 -4.83301 92.499 -20.5s65.5 -43.5 99.5 -83.5z
M160.006 125c30.667 -10.667 57.501 -13.168 80.501 -7.50098s42.5 16.5 58.5 32.5s28.167 36 36.5 60s13.5 49 15.5 75s0.833008 51.5 -3.5 76.5s-11.666 47 -21.999 66s-23.5 33.167 -39.5 42.5s-34.667 11.333 -56 6c-17.333 -4 -32.833 -14.167 -46.5 -30.5
s-25.167 -35.666 -34.5 -57.999s-16.333 -46.5 -21 -72.5s-6.83398 -51.333 -6.50098 -76s3.66602 -47.167 9.99902 -67.5s15.833 -35.833 28.5 -46.5zM204.007 577.999c-31.333 6.66699 -53.5 18.165 -66.5 34.498s-18.333 33.5 -16 51.5s12 35 29 51s40.167 27 69.5 33
c11.333 2.66699 22.333 5 33 7s20.834 3 30.501 3s18.834 -1.83301 27.501 -5.5s16.667 -10.167 24 -19.5l-4 -5c27.333 -6 47.666 -14.833 60.999 -26.5s20.833 -24.167 22.5 -37.5s-2.33301 -26.666 -12 -39.999s-23.667 -24.666 -42 -33.999s-40.833 -15.5 -67.5 -18.5
s-56.334 -0.833008 -89.001 6.5zM227.007 640.997c15.333 -8 30.499 -11.668 45.499 -11.001s26.833 3.83398 35.5 9.50098s12.834 12.667 12.501 21s-8.16602 16.5 -23.499 24.5c-24.667 8 -44.834 10.667 -60.501 8s-26.5 -7.5 -32.5 -14.5s-7.16699 -14.5 -3.5 -22.5
s12.5 -13 26.5 -15z" />
    <glyph glyph-name="ae" unicode="&#xe6;" horiz-adv-x="860" 
d="M552 59c0 -19.333 -3.99414 -32.333 -11.9941 -39s-17.333 -10 -28 -10s-20.834 2.16699 -30.501 6.5s-15.834 8.5 -18.501 12.5l-53 114c-8.66699 -16 -18.667 -31.5 -30 -46.5s-24 -28.333 -38 -40s-29.167 -21.5 -45.5 -29.5s-33.833 -13 -52.5 -15
c-44.667 -1.33301 -81.834 5.5 -111.501 20.5s-53.334 35.167 -71.001 60.5s-29.334 54.5 -35.001 87.5s-6.5 67 -2.5 102s12.333 69.5 25 103.5s28.667 64.5 48 91.5s41.833 49.333 67.5 67s53.167 27.5 82.5 29.5s60.166 -4.83301 92.499 -20.5s65.5 -43.5 99.5 -83.5z
M160.006 125c30.667 -10.667 57.501 -13.168 80.501 -7.50098s42.5 16.5 58.5 32.5s28.167 36 36.5 60s13.5 49 15.5 75s0.833008 51.5 -3.5 76.5s-11.666 47 -21.999 66s-23.5 33.167 -39.5 42.5s-34.667 11.333 -56 6c-17.333 -4 -32.833 -14.167 -46.5 -30.5
s-25.167 -35.666 -34.5 -57.999s-16.333 -46.5 -21 -72.5s-6.83398 -51.333 -6.50098 -76s3.66602 -47.167 9.99902 -67.5s15.833 -35.833 28.5 -46.5zM846.007 96.999c-12 -22.667 -27.9961 -41.5 -47.9961 -56.5s-42 -26.167 -66 -33.5s-49.167 -10.833 -75.5 -10.5
s-51.833 4.5 -76.5 12.5s-47.834 19.333 -69.501 34s-39.834 32.667 -54.501 54c-24 42 -40.333 87 -49 135s-8.33398 93.333 0.999023 136s28.333 80 57 112s68.667 53.333 120 64c48.667 3.33301 87.167 -2.5 115.5 -17.5s47.666 -35.333 57.999 -61
s12.333 -54.167 6 -85.5s-19.833 -61.833 -40.5 -91.5s-48 -56 -82 -79s-73.333 -38.833 -118 -47.5c13.333 -22 28.5 -37.833 45.5 -47.5s34.833 -15.5 53.5 -17.5s37.167 -0.833008 55.5 3.5s35.333 9.66602 51 15.999s29.5 12.333 41.5 18s20.667 9.5 26 11.5
c24 7.33301 40.333 7.33301 49 0s8.66699 -23.666 0 -48.999zM581.011 453.999c-16 -12 -30.001 -25.668 -42.001 -41.001s-21.667 -31.666 -29 -48.999s-12.166 -35.333 -14.499 -54s-1.83301 -37 1.5 -55c28 4 53.167 12.667 75.5 26s41 28.5 56 45.5
s25.833 34.5 32.5 52.5s8.5 33.667 5.5 47s-11.5 23 -25.5 29s-34 5.66699 -60 -1z" />
    <glyph glyph-name="ccedilla" unicode="&#xe7;" horiz-adv-x="461" 
d="M442 136c-17.333 -40.667 -39.501 -71.0049 -66.501 -91.0049s-55.833 -31.833 -86.5 -35.5s-61.5 0.166016 -92.5 11.499s-59 27.833 -84 49.5s-45.667 47.834 -62 78.501s-25.166 64 -26.499 100c-2.66699 22.667 -3.83398 46.5 -3.50098 71.5s2.83301 49.333 7.5 73
s12.167 46.334 22.5 68.001s24.5 40.834 42.5 57.501c22 18 45.833 29.5 71.5 34.5s50.334 5.33301 74.001 1s45.167 -11.833 64.5 -22.5s33.333 -22.5 42 -35.5s10.667 -25.833 6 -38.5s-18.667 -23 -42 -31c-34.667 20 -64.667 30.333 -90 31s-46 -5.16602 -62 -17.499
s-27.833 -29.666 -35.5 -51.999s-11.667 -46.5 -12 -72.5s3 -52.167 10 -78.5s17 -50 30 -71s29 -37.5 48 -49.5s40.167 -16.5 63.5 -13.5s49 14.833 77 35.5s57.667 53.667 89 99c7.33301 4 13.5 3.33301 18.5 -2s8.33301 -13.166 10 -23.499s1.5 -22.333 -0.5 -36
s-6.33301 -27.167 -13 -40.5zM204.999 -127.005c34.667 0 60.668 3.83398 78.001 11.501s26 15.667 26 24s-8.33301 15.5 -25 21.5s-41.334 7.66699 -74.001 5v97l63 4c-1.33301 -2 -2.16602 -5.16699 -2.49902 -9.5s-0.5 -9 -0.5 -14s0.333008 -9.83301 1 -14.5
s1.66699 -8.33398 3 -11.001c38.667 -9.33301 66 -20.5 82 -33.5s24 -26.5 24 -40.5s-6.16699 -27.667 -18.5 -41s-27.5 -24.666 -45.5 -33.999s-37.333 -15.833 -58 -19.5s-39.334 -2.83398 -56.001 2.49902z" />
    <glyph glyph-name="egrave" unicode="&#xe8;" horiz-adv-x="486" 
d="M464 107c-12 -22.667 -27.9961 -41.5 -47.9961 -56.5s-42 -26.167 -66 -33.5s-49.167 -10.833 -75.5 -10.5s-51.833 4.5 -76.5 12.5s-47.834 19.333 -69.501 34s-39.834 32.667 -54.501 54c-24 42 -40.333 87 -49 135s-8.33398 93.333 0.999023 136s28.333 80 57 112
s68.667 53.333 120 64c48.667 3.33301 87.167 -2.5 115.5 -17.5s47.666 -35.333 57.999 -61s12.333 -54.167 6 -85.5s-19.833 -61.833 -40.5 -91.5s-48 -56 -82 -79s-73.333 -38.833 -118 -47.5c13.333 -22 28.5 -37.833 45.5 -47.5s34.833 -15.5 53.5 -17.5
s37.167 -0.833008 55.5 3.5s35.333 9.66602 51 15.999s29.5 12.333 41.5 18s20.667 9.5 26 11.5c24 7.33301 40.333 7.33301 49 0s8.66699 -23.666 0 -48.999zM199.004 464c-16 -12 -30.001 -25.668 -42.001 -41.001s-21.667 -31.666 -29 -48.999
s-12.166 -35.333 -14.499 -54s-1.83301 -37 1.5 -55c28 4 53.167 12.667 75.5 26s41 28.5 56 45.5s25.833 34.5 32.5 52.5s8.5 33.667 5.5 47s-11.5 23 -25.5 29s-34 5.66699 -60 -1zM178.003 648.999c-12 10.667 -18.3311 20.5 -18.998 29.5s2 16.333 8 22
s13.833 9.33398 23.5 11.001s19.167 0.5 28.5 -3.5c5.33301 -3.33301 11.666 -7 18.999 -11l23 -13l23 -13.5l19 -11.5c13.333 -8 21.666 -17.667 24.999 -29s2.5 -21 -2.5 -29s-14.167 -12.333 -27.5 -13s-30 5.66602 -50 18.999z" />
    <glyph glyph-name="eacute" unicode="&#xe9;" horiz-adv-x="486" 
d="M464 107c-12 -22.667 -27.9961 -41.5 -47.9961 -56.5s-42 -26.167 -66 -33.5s-49.167 -10.833 -75.5 -10.5s-51.833 4.5 -76.5 12.5s-47.834 19.333 -69.501 34s-39.834 32.667 -54.501 54c-24 42 -40.333 87 -49 135s-8.33398 93.333 0.999023 136s28.333 80 57 112
s68.667 53.333 120 64c48.667 3.33301 87.167 -2.5 115.5 -17.5s47.666 -35.333 57.999 -61s12.333 -54.167 6 -85.5s-19.833 -61.833 -40.5 -91.5s-48 -56 -82 -79s-73.333 -38.833 -118 -47.5c13.333 -22 28.5 -37.833 45.5 -47.5s34.833 -15.5 53.5 -17.5
s37.167 -0.833008 55.5 3.5s35.333 9.66602 51 15.999s29.5 12.333 41.5 18s20.667 9.5 26 11.5c24 7.33301 40.333 7.33301 49 0s8.66699 -23.666 0 -48.999zM199.004 464c-16 -12 -30.001 -25.668 -42.001 -41.001s-21.667 -31.666 -29 -48.999
s-12.166 -35.333 -14.499 -54s-1.83301 -37 1.5 -55c28 4 53.167 12.667 75.5 26s41 28.5 56 45.5s25.833 34.5 32.5 52.5s8.5 33.667 5.5 47s-11.5 23 -25.5 29s-34 5.66699 -60 -1zM238.003 606.999c-20 -13.333 -36.665 -19.666 -49.998 -18.999s-22.5 5 -27.5 13
s-5.83301 17.667 -2.5 29s11.666 21 24.999 29l19 11.5l23 13.5l23 13c7.33301 4 13.666 7.66699 18.999 11c8.66699 4 18 5.16699 28 3.5s18 -5.33398 24 -11.001s8.66699 -13 8 -22s-7 -18.833 -19 -29.5z" />
    <glyph glyph-name="ecircumflex" unicode="&#xea;" horiz-adv-x="486" 
d="M464 107c-12 -22.667 -27.9961 -41.5 -47.9961 -56.5s-42 -26.167 -66 -33.5s-49.167 -10.833 -75.5 -10.5s-51.833 4.5 -76.5 12.5s-47.834 19.333 -69.501 34s-39.834 32.667 -54.501 54c-24 42 -40.333 87 -49 135s-8.33398 93.333 0.999023 136s28.333 80 57 112
s68.667 53.333 120 64c48.667 3.33301 87.167 -2.5 115.5 -17.5s47.666 -35.333 57.999 -61s12.333 -54.167 6 -85.5s-19.833 -61.833 -40.5 -91.5s-48 -56 -82 -79s-73.333 -38.833 -118 -47.5c13.333 -22 28.5 -37.833 45.5 -47.5s34.833 -15.5 53.5 -17.5
s37.167 -0.833008 55.5 3.5s35.333 9.66602 51 15.999s29.5 12.333 41.5 18s20.667 9.5 26 11.5c24 7.33301 40.333 7.33301 49 0s8.66699 -23.666 0 -48.999zM199.004 464c-16 -12 -30.001 -25.668 -42.001 -41.001s-21.667 -31.666 -29 -48.999
s-12.166 -35.333 -14.499 -54s-1.83301 -37 1.5 -55c28 4 53.167 12.667 75.5 26s41 28.5 56 45.5s25.833 34.5 32.5 52.5s8.5 33.667 5.5 47s-11.5 23 -25.5 29s-34 5.66699 -60 -1zM245.003 665.999l-76 -85c-18.667 -0.666992 -33 0.833008 -43 4.5s-17 8.5 -21 14.5
s-5.33301 12.5 -4 19.5s4 13.5 8 19.5c10.667 10 22.834 23.5 36.501 40.5s28 32.5 43 46.5s30.167 24.333 45.5 31s30 4.66699 44 -6c9.33301 -11.333 19.5 -22.333 30.5 -33l32 -32.5c10.333 -11 20.166 -22.5 29.499 -34.5s17 -25.333 23 -40
c0 -6.66699 -2.66699 -13 -8 -19s-11.833 -10.667 -19.5 -14s-16.167 -5.33301 -25.5 -6s-18 1 -26 5z" />
    <glyph glyph-name="edieresis" unicode="&#xeb;" horiz-adv-x="486" 
d="M464 107c-12 -22.667 -27.9961 -41.5 -47.9961 -56.5s-42 -26.167 -66 -33.5s-49.167 -10.833 -75.5 -10.5s-51.833 4.5 -76.5 12.5s-47.834 19.333 -69.501 34s-39.834 32.667 -54.501 54c-24 42 -40.333 87 -49 135s-8.33398 93.333 0.999023 136s28.333 80 57 112
s68.667 53.333 120 64c48.667 3.33301 87.167 -2.5 115.5 -17.5s47.666 -35.333 57.999 -61s12.333 -54.167 6 -85.5s-19.833 -61.833 -40.5 -91.5s-48 -56 -82 -79s-73.333 -38.833 -118 -47.5c13.333 -22 28.5 -37.833 45.5 -47.5s34.833 -15.5 53.5 -17.5
s37.167 -0.833008 55.5 3.5s35.333 9.66602 51 15.999s29.5 12.333 41.5 18s20.667 9.5 26 11.5c24 7.33301 40.333 7.33301 49 0s8.66699 -23.666 0 -48.999zM199.004 464c-16 -12 -30.001 -25.668 -42.001 -41.001s-21.667 -31.666 -29 -48.999
s-12.166 -35.333 -14.499 -54s-1.83301 -37 1.5 -55c28 4 53.167 12.667 75.5 26s41 28.5 56 45.5s25.833 34.5 32.5 52.5s8.5 33.667 5.5 47s-11.5 23 -25.5 29s-34 5.66699 -60 -1zM140.003 583.999c-11.333 9.33301 -18.168 20.334 -20.501 33.001
s-1.16602 24 3.50098 34s12.5 17.167 23.5 21.5s24.167 3.16602 39.5 -3.50098c16 -14.667 24.167 -28.667 24.5 -42s-3.16699 -24.5 -10.5 -33.5s-17 -14.667 -29 -17s-22.333 0.166992 -31 7.5zM288.001 584c-13.333 11.333 -21.333 23.168 -24 35.501
s-1.5 23.166 3.5 32.499s13 16 24 20s23.167 3 36.5 -3c16 -14.667 24.5 -28.667 25.5 -42s-1.83301 -24.5 -8.5 -33.5s-15.667 -14.667 -27 -17s-21.333 0.166992 -30 7.5z" />
    <glyph glyph-name="igrave" unicode="&#xec;" horiz-adv-x="194" 
d="M151 88c4.66699 -12.667 6.16895 -24.999 4.50195 -36.999s-5.5 -22.667 -11.5 -32s-13.5 -16.666 -22.5 -21.999s-18.167 -7.66602 -27.5 -6.99902s-18.166 4.83398 -26.499 12.501s-14.833 20.167 -19.5 37.5c-1.33301 4.66699 -2.5 16.167 -3.5 34.5
s-1.83301 39.833 -2.5 64.5s-1.33398 51.167 -2.00098 79.5s-1.33398 54.833 -2.00098 79.5s-1.33398 46.167 -2.00098 64.5s-1.66699 30.166 -3 35.499c-4.66699 32.667 -5 59.167 -1 79.5s10.167 35.666 18.5 45.999s17.833 16 28.5 17s20.5 -1.83301 29.5 -8.5
s16.167 -16.834 21.5 -30.501s7 -29.834 5 -48.501zM33.002 649.001c-12 10.667 -18.3311 20.5 -18.998 29.5s2 16.333 8 22s13.833 9.33398 23.5 11.001s19.167 0.5 28.5 -3.5c5.33301 -3.33301 11.666 -7 18.999 -11l23 -13l23 -13.5l19 -11.5
c13.333 -8 21.666 -17.667 24.999 -29s2.5 -21 -2.5 -29s-14.167 -12.333 -27.5 -13s-30 5.66602 -50 18.999z" />
    <glyph glyph-name="iacute" unicode="&#xed;" horiz-adv-x="194" 
d="M151 88c4.66699 -12.667 6.16895 -24.999 4.50195 -36.999s-5.5 -22.667 -11.5 -32s-13.5 -16.666 -22.5 -21.999s-18.167 -7.66602 -27.5 -6.99902s-18.166 4.83398 -26.499 12.501s-14.833 20.167 -19.5 37.5c-1.33301 4.66699 -2.5 16.167 -3.5 34.5
s-1.83301 39.833 -2.5 64.5s-1.33398 51.167 -2.00098 79.5s-1.33398 54.833 -2.00098 79.5s-1.33398 46.167 -2.00098 64.5s-1.66699 30.166 -3 35.499c-4.66699 32.667 -5 59.167 -1 79.5s10.167 35.666 18.5 45.999s17.833 16 28.5 17s20.5 -1.83301 29.5 -8.5
s16.167 -16.834 21.5 -30.501s7 -29.834 5 -48.501zM93.002 607.001c-20 -13.333 -36.665 -19.666 -49.998 -18.999s-22.5 5 -27.5 13s-5.83301 17.667 -2.5 29s11.666 21 24.999 29l19 11.5l23 13.5l23 13c7.33301 4 13.666 7.66699 18.999 11c8.66699 4 18 5.16699 28 3.5
s18 -5.33398 24 -11.001s8.66699 -13 8 -22s-7 -18.833 -19 -29.5z" />
    <glyph glyph-name="icircumflex" unicode="&#xee;" horiz-adv-x="194" 
d="M151 88c4.66699 -12.667 6.16895 -24.999 4.50195 -36.999s-5.5 -22.667 -11.5 -32s-13.5 -16.666 -22.5 -21.999s-18.167 -7.66602 -27.5 -6.99902s-18.166 4.83398 -26.499 12.501s-14.833 20.167 -19.5 37.5c-1.33301 4.66699 -2.5 16.167 -3.5 34.5
s-1.83301 39.833 -2.5 64.5s-1.33398 51.167 -2.00098 79.5s-1.33398 54.833 -2.00098 79.5s-1.33398 46.167 -2.00098 64.5s-1.66699 30.166 -3 35.499c-4.66699 32.667 -5 59.167 -1 79.5s10.167 35.666 18.5 45.999s17.833 16 28.5 17s20.5 -1.83301 29.5 -8.5
s16.167 -16.834 21.5 -30.501s7 -29.834 5 -48.501zM101.002 666.001l-76 -85c-18.667 -0.666992 -33 0.833008 -43 4.5s-17 8.5 -21 14.5s-5.33301 12.5 -4 19.5s4 13.5 8 19.5c10.667 10 22.834 23.5 36.501 40.5s28 32.5 43 46.5s30.167 24.333 45.5 31s30 4.66699 44 -6
c9.33301 -11.333 19.5 -22.333 30.5 -33l32 -32.5c10.333 -11 20.166 -22.5 29.499 -34.5s17 -25.333 23 -40c0 -6.66699 -2.66699 -13 -8 -19s-11.833 -10.667 -19.5 -14s-16.167 -5.33301 -25.5 -6s-18 1 -26 5z" />
    <glyph glyph-name="idieresis" unicode="&#xef;" horiz-adv-x="194" 
d="M151 88c4.66699 -12.667 6.16895 -24.999 4.50195 -36.999s-5.5 -22.667 -11.5 -32s-13.5 -16.666 -22.5 -21.999s-18.167 -7.66602 -27.5 -6.99902s-18.166 4.83398 -26.499 12.501s-14.833 20.167 -19.5 37.5c-1.33301 4.66699 -2.5 16.167 -3.5 34.5
s-1.83301 39.833 -2.5 64.5s-1.33398 51.167 -2.00098 79.5s-1.33398 54.833 -2.00098 79.5s-1.33398 46.167 -2.00098 64.5s-1.66699 30.166 -3 35.499c-4.66699 32.667 -5 59.167 -1 79.5s10.167 35.666 18.5 45.999s17.833 16 28.5 17s20.5 -1.83301 29.5 -8.5
s16.167 -16.834 21.5 -30.501s7 -29.834 5 -48.501zM-4.99805 584.001c-11.333 9.33301 -18.168 20.334 -20.501 33.001s-1.16602 24 3.50098 34s12.5 17.167 23.5 21.5s24.167 3.16602 39.5 -3.50098c16 -14.667 24.167 -28.667 24.5 -42s-3.16699 -24.5 -10.5 -33.5
s-17 -14.667 -29 -17s-22.333 0.166992 -31 7.5zM143 584.002c-13.333 11.333 -21.333 23.168 -24 35.501s-1.5 23.166 3.5 32.499s13 16 24 20s23.167 3 36.5 -3c16 -14.667 24.5 -28.667 25.5 -42s-1.83301 -24.5 -8.5 -33.5s-15.667 -14.667 -27 -17
s-21.333 0.166992 -30 7.5z" />
    <glyph glyph-name="ntilde" unicode="&#xf1;" horiz-adv-x="543" 
d="M140 50c0 -20.667 -5.49805 -34.498 -16.498 -41.498s-23 -9.33301 -36 -7s-25 8.16602 -36 17.499s-17.167 20.333 -18.5 33c1.33301 68 1.5 140.5 0.5 217.5s-3.16699 157.833 -6.5 242.5c5.33301 18 14.5 29.333 27.5 34s25.5 3.16699 37.5 -4.5
s21.167 -21.334 27.5 -41.001s5.5 -44.834 -2.5 -75.501c42.667 62.667 82.667 103.667 120 123s71.666 23.333 102.999 12s58.833 -34.5 82.5 -69.5s43.167 -75.5 58.5 -121.5s25.833 -94.167 31.5 -144.5s5.83398 -96.5 0.500977 -138.5
c0.666992 -17.333 -4.5 -30.333 -15.5 -39s-23 -13.5 -36 -14.5s-24.833 2.16699 -35.5 9.5s-15.334 18.666 -14.001 33.999c4.66699 84 2.83398 152 -5.49902 204s-20.333 90.833 -36 116.5s-33.834 39.834 -54.501 42.501s-41.5 -2.83301 -62.5 -16.5
s-41 -34.167 -60 -61.5s-34.333 -58 -46 -92s-18.834 -70.167 -21.501 -108.5s2 -75.166 14 -110.499zM445.002 691.002c-5.33301 -25.333 -14.667 -45.1709 -28 -59.5039s-29.333 -23.166 -48 -26.499s-38.834 -1.33301 -60.501 6s-43.167 20.333 -64.5 39
c-13.333 11.333 -24.333 16 -33 14s-16.167 -6.83301 -22.5 -14.5s-11.833 -16.834 -16.5 -27.501s-10.167 -19 -16.5 -25s-14.166 -8.16699 -23.499 -6.5s-21 11.167 -35 28.5c12 40.667 26 69.834 42 87.501s33 27.334 51 29.001s36.5 -3.16602 55.5 -14.499
s37.5 -26 55.5 -44c14 -8 26.167 -10.5 36.5 -7.5s19.5 8 27.5 15s15.167 14.667 21.5 23s12.5 14.333 18.5 18s12.167 3.33398 18.5 -0.999023s13.5 -15.5 21.5 -33.5z" />
    <glyph glyph-name="ograve" unicode="&#xf2;" horiz-adv-x="472" 
d="M125 18c-30 14.667 -53.166 35.167 -69.499 61.5s-27 55.333 -32 87s-5 64.667 0 99s13.5 67.666 25.5 99.999s26.667 61.833 44 88.5s36 48.334 56 65.001c36.667 28 70.667 44.667 102 50s59.333 2.33301 84 -9s46.167 -29.333 64.5 -54s32.666 -52.834 42.999 -84.501
s16.5 -65.667 18.5 -102s-0.5 -71.833 -7.5 -106.5s-18.667 -67 -35 -97s-38 -54.667 -65 -74s-59.333 -31.666 -97 -36.999s-81.5 -1 -131.5 13zM202.001 101c28 -2.66699 53.166 3.50098 75.499 18.501s40.833 34.667 55.5 59s25.334 51.833 32.001 82.5s8 60.167 4 88.5
s-13.333 54 -28 77s-35.667 39.167 -63 48.5c-16.667 3.33301 -34.167 -2 -52.5 -16s-35 -32.833 -50 -56.5s-27.333 -50.334 -37 -80.001s-14.5 -59 -14.5 -88s6 -55.5 18 -79.5s32 -42 60 -54zM206 676.001c-12 10.667 -18.3311 20.5 -18.998 29.5s2 16.333 8 22
s13.833 9.33398 23.5 11.001s19.167 0.5 28.5 -3.5c5.33301 -3.33301 11.666 -7 18.999 -11l23 -13l23 -13.5l19 -11.5c13.333 -8 21.666 -17.667 24.999 -29s2.5 -21 -2.5 -29s-14.167 -12.333 -27.5 -13s-30 5.66602 -50 18.999z" />
    <glyph glyph-name="oacute" unicode="&#xf3;" horiz-adv-x="472" 
d="M125 18c-30 14.667 -53.166 35.167 -69.499 61.5s-27 55.333 -32 87s-5 64.667 0 99s13.5 67.666 25.5 99.999s26.667 61.833 44 88.5s36 48.334 56 65.001c36.667 28 70.667 44.667 102 50s59.333 2.33301 84 -9s46.167 -29.333 64.5 -54s32.666 -52.834 42.999 -84.501
s16.5 -65.667 18.5 -102s-0.5 -71.833 -7.5 -106.5s-18.667 -67 -35 -97s-38 -54.667 -65 -74s-59.333 -31.666 -97 -36.999s-81.5 -1 -131.5 13zM202.001 101c28 -2.66699 53.166 3.50098 75.499 18.501s40.833 34.667 55.5 59s25.334 51.833 32.001 82.5s8 60.167 4 88.5
s-13.333 54 -28 77s-35.667 39.167 -63 48.5c-16.667 3.33301 -34.167 -2 -52.5 -16s-35 -32.833 -50 -56.5s-27.333 -50.334 -37 -80.001s-14.5 -59 -14.5 -88s6 -55.5 18 -79.5s32 -42 60 -54zM231 607.001c-20 -13.333 -36.665 -19.666 -49.998 -18.999s-22.5 5 -27.5 13
s-5.83301 17.667 -2.5 29s11.666 21 24.999 29l19 11.5l23 13.5l23 13c7.33301 4 13.666 7.66699 18.999 11c8.66699 4 18 5.16699 28 3.5s18 -5.33398 24 -11.001s8.66699 -13 8 -22s-7 -18.833 -19 -29.5z" />
    <glyph glyph-name="ocircumflex" unicode="&#xf4;" horiz-adv-x="472" 
d="M125 18c-30 14.667 -53.166 35.167 -69.499 61.5s-27 55.333 -32 87s-5 64.667 0 99s13.5 67.666 25.5 99.999s26.667 61.833 44 88.5s36 48.334 56 65.001c36.667 28 70.667 44.667 102 50s59.333 2.33301 84 -9s46.167 -29.333 64.5 -54s32.666 -52.834 42.999 -84.501
s16.5 -65.667 18.5 -102s-0.5 -71.833 -7.5 -106.5s-18.667 -67 -35 -97s-38 -54.667 -65 -74s-59.333 -31.666 -97 -36.999s-81.5 -1 -131.5 13zM202.001 101c28 -2.66699 53.166 3.50098 75.499 18.501s40.833 34.667 55.5 59s25.334 51.833 32.001 82.5s8 60.167 4 88.5
s-13.333 54 -28 77s-35.667 39.167 -63 48.5c-16.667 3.33301 -34.167 -2 -52.5 -16s-35 -32.833 -50 -56.5s-27.333 -50.334 -37 -80.001s-14.5 -59 -14.5 -88s6 -55.5 18 -79.5s32 -42 60 -54zM292 685.001l-76 -85c-18.667 -0.666992 -33 0.833008 -43 4.5
s-17 8.5 -21 14.5s-5.33301 12.5 -4 19.5s4 13.5 8 19.5c10.667 10 22.834 23.5 36.501 40.5s28 32.5 43 46.5s30.167 24.333 45.5 31s30 4.66699 44 -6c9.33301 -11.333 19.5 -22.333 30.5 -33l32 -32.5c10.333 -11 20.166 -22.5 29.499 -34.5s17 -25.333 23 -40
c0 -6.66699 -2.66699 -13 -8 -19s-11.833 -10.667 -19.5 -14s-16.167 -5.33301 -25.5 -6s-18 1 -26 5z" />
    <glyph glyph-name="otilde" unicode="&#xf5;" horiz-adv-x="472" 
d="M125 18c-30 14.667 -53.166 35.167 -69.499 61.5s-27 55.333 -32 87s-5 64.667 0 99s13.5 67.666 25.5 99.999s26.667 61.833 44 88.5s36 48.334 56 65.001c36.667 28 70.667 44.667 102 50s59.333 2.33301 84 -9s46.167 -29.333 64.5 -54s32.666 -52.834 42.999 -84.501
s16.5 -65.667 18.5 -102s-0.5 -71.833 -7.5 -106.5s-18.667 -67 -35 -97s-38 -54.667 -65 -74s-59.333 -31.666 -97 -36.999s-81.5 -1 -131.5 13zM202.001 101c28 -2.66699 53.166 3.50098 75.499 18.501s40.833 34.667 55.5 59s25.334 51.833 32.001 82.5s8 60.167 4 88.5
s-13.333 54 -28 77s-35.667 39.167 -63 48.5c-16.667 3.33301 -34.167 -2 -52.5 -16s-35 -32.833 -50 -56.5s-27.333 -50.334 -37 -80.001s-14.5 -59 -14.5 -88s6 -55.5 18 -79.5s32 -42 60 -54zM410 691.001c-5.33301 -25.333 -14.667 -45.1709 -28 -59.5039
s-29.333 -23.166 -48 -26.499s-38.834 -1.33301 -60.501 6s-43.167 20.333 -64.5 39c-13.333 11.333 -24.333 16 -33 14s-16.167 -6.83301 -22.5 -14.5s-11.833 -16.834 -16.5 -27.501s-10.167 -19 -16.5 -25s-14.166 -8.16699 -23.499 -6.5s-21 11.167 -35 28.5
c12 40.667 26 69.834 42 87.501s33 27.334 51 29.001s36.5 -3.16602 55.5 -14.499s37.5 -26 55.5 -44c14 -8 26.167 -10.5 36.5 -7.5s19.5 8 27.5 15s15.167 14.667 21.5 23s12.5 14.333 18.5 18s12.167 3.33398 18.5 -0.999023s13.5 -15.5 21.5 -33.5z" />
    <glyph glyph-name="odieresis" unicode="&#xf6;" horiz-adv-x="472" 
d="M125 18c-30 14.667 -53.166 35.167 -69.499 61.5s-27 55.333 -32 87s-5 64.667 0 99s13.5 67.666 25.5 99.999s26.667 61.833 44 88.5s36 48.334 56 65.001c36.667 28 70.667 44.667 102 50s59.333 2.33301 84 -9s46.167 -29.333 64.5 -54s32.666 -52.834 42.999 -84.501
s16.5 -65.667 18.5 -102s-0.5 -71.833 -7.5 -106.5s-18.667 -67 -35 -97s-38 -54.667 -65 -74s-59.333 -31.666 -97 -36.999s-81.5 -1 -131.5 13zM202.001 101c28 -2.66699 53.166 3.50098 75.499 18.501s40.833 34.667 55.5 59s25.334 51.833 32.001 82.5s8 60.167 4 88.5
s-13.333 54 -28 77s-35.667 39.167 -63 48.5c-16.667 3.33301 -34.167 -2 -52.5 -16s-35 -32.833 -50 -56.5s-27.333 -50.334 -37 -80.001s-14.5 -59 -14.5 -88s6 -55.5 18 -79.5s32 -42 60 -54zM193 617.001c-11.333 9.33301 -18.168 20.334 -20.501 33.001
s-1.16602 24 3.50098 34s12.5 17.167 23.5 21.5s24.167 3.16602 39.5 -3.50098c16 -14.667 24.167 -28.667 24.5 -42s-3.16699 -24.5 -10.5 -33.5s-17 -14.667 -29 -17s-22.333 0.166992 -31 7.5zM340.998 617.002c-13.333 11.333 -21.333 23.168 -24 35.501
s-1.5 23.166 3.5 32.499s13 16 24 20s23.167 3 36.5 -3c16 -14.667 24.5 -28.667 25.5 -42s-1.83301 -24.5 -8.5 -33.5s-15.667 -14.667 -27 -17s-21.333 0.166992 -30 7.5z" />
    <glyph glyph-name="divide" unicode="&#xf7;" horiz-adv-x="405" 
d="M175 440c-5.33301 4 -9.5 9.6709 -12.5 17.0039s-4.66699 15.166 -5 23.499s1 16.333 4 24s8.16699 14.167 15.5 19.5c16.667 9.33301 30.167 12.166 40.5 8.49902s17.833 -10.334 22.5 -20.001s6.5 -20.834 5.5 -33.501s-4.33301 -23.667 -10 -33
s-13.667 -15.333 -24 -18s-22.5 1.33301 -36.5 12zM92 287.004c-13.333 3.33301 -24.1641 8.33008 -32.4971 14.9971s-13.5 14 -15.5 22s-0.666992 15.833 4 23.5s13 13.834 25 18.501l276 5c11.333 -11.333 18.5 -22.166 21.5 -32.499s3.16699 -19.5 0.5 -27.5
s-6.83398 -14.167 -12.501 -18.5s-11.5 -6.16602 -17.5 -5.49902c-20.667 1.33301 -41.334 1.5 -62.001 0.5l-62 -3c-20.667 -1 -41.334 -1.5 -62.001 -1.5s-41.667 1.33301 -63 4zM191.002 121.001c-5.33301 4 -9.5 9.6709 -12.5 17.0039s-4.66699 15.166 -5 23.499
s1 16.333 4 24s8.16699 14.167 15.5 19.5c16.667 9.33301 30.167 12.166 40.5 8.49902s17.833 -10.334 22.5 -20.001s6.5 -20.834 5.5 -33.501s-4.33301 -23.667 -10 -33s-13.667 -15.333 -24 -18s-22.5 1.33301 -36.5 12z" />
    <glyph glyph-name="oslash" unicode="&#xf8;" horiz-adv-x="472" 
d="M125 18c-30 14.667 -53.166 35.167 -69.499 61.5s-27 55.333 -32 87s-5 64.667 0 99s13.5 67.666 25.5 99.999s26.667 61.833 44 88.5s36 48.334 56 65.001c36.667 28 70.667 44.667 102 50s59.333 2.33301 84 -9s46.167 -29.333 64.5 -54s32.666 -52.834 42.999 -84.501
s16.5 -65.667 18.5 -102s-0.5 -71.833 -7.5 -106.5s-18.667 -67 -35 -97s-38 -54.667 -65 -74s-59.333 -31.666 -97 -36.999s-81.5 -1 -131.5 13zM202.001 101c28 -2.66699 53.166 3.50098 75.499 18.501s40.833 34.667 55.5 59s25.334 51.833 32.001 82.5s8 60.167 4 88.5
s-13.333 54 -28 77s-35.667 39.167 -63 48.5c-16.667 3.33301 -34.167 -2 -52.5 -16s-35 -32.833 -50 -56.5s-27.333 -50.334 -37 -80.001s-14.5 -59 -14.5 -88s6 -55.5 18 -79.5s32 -42 60 -54zM96.3037 15.0088c-8.24902 -7.21582 -17.3574 -9.27832 -27.3252 -6.18555
c-9.96777 3.0918 -18.2168 8.24512 -24.7471 15.4609s-10.8262 15.0752 -12.8877 23.5791c-2.0625 8.50391 0.34375 14.8174 7.21777 18.9404l350.583 509.454c6.18652 7.73047 13.9199 11.8535 23.2002 12.3691c9.28027 0.514648 18.0449 -1.54688 26.2939 -6.18555
c8.24902 -4.6377 14.7793 -11.5947 19.5908 -20.8711c4.81152 -9.27734 5.15527 -19.8428 1.03125 -31.6963z" />
    <glyph glyph-name="ugrave" unicode="&#xf9;" 
d="M191 3c-28.667 10 -52.668 26.1592 -72.001 48.4922s-35 48.333 -47 78s-21.167 61.5 -27.5 95.5s-10.666 68 -12.999 102s-3.33301 66.5 -3 97.5s1.16602 58.167 2.49902 81.5c1.33301 12.667 6.16602 22 14.499 28s18 9.16699 29 9.5s21.833 -1.83398 32.5 -6.50098
s19 -11 25 -19c4.66699 -6.66699 7.83398 -20.667 9.50098 -42s3 -46.166 4 -74.499s2.33301 -58 4 -89s5 -60 10 -87s12.167 -50.167 21.5 -69.5s22.666 -30.666 39.999 -33.999c26.667 0.666992 47.834 8.33398 63.501 23.001s27 33.834 34 57.501
s10.5 50.334 10.5 80.001s-2 59.834 -6 90.501s-9.16699 60.334 -15.5 89.001s-12.166 53.667 -17.499 75c-3.33301 16 -0.833008 26.333 7.5 31s18.833 5.83398 31.5 3.50098s25.667 -6.83301 39 -13.5s23 -13.667 29 -21c14 -29.333 25 -63.666 33 -102.999
s11.667 -79.666 11 -120.999s-5.66699 -81.833 -15 -121.5s-24 -74.334 -44 -104.001s-45.833 -52.5 -77.5 -68.5s-69.5 -21.333 -113.5 -16zM129.999 667.992c-12 10.667 -18.3311 20.5 -18.998 29.5s2 16.333 8 22s13.833 9.33398 23.5 11.001s19.167 0.5 28.5 -3.5
c5.33301 -3.33301 11.666 -7 18.999 -11l23 -13l23 -13.5l19 -11.5c13.333 -8 21.666 -17.667 24.999 -29s2.5 -21 -2.5 -29s-14.167 -12.333 -27.5 -13s-30 5.66602 -50 18.999z" />
    <glyph glyph-name="uacute" unicode="&#xfa;" 
d="M191 3c-28.667 10 -52.668 26.1592 -72.001 48.4922s-35 48.333 -47 78s-21.167 61.5 -27.5 95.5s-10.666 68 -12.999 102s-3.33301 66.5 -3 97.5s1.16602 58.167 2.49902 81.5c1.33301 12.667 6.16602 22 14.499 28s18 9.16699 29 9.5s21.833 -1.83398 32.5 -6.50098
s19 -11 25 -19c4.66699 -6.66699 7.83398 -20.667 9.50098 -42s3 -46.166 4 -74.499s2.33301 -58 4 -89s5 -60 10 -87s12.167 -50.167 21.5 -69.5s22.666 -30.666 39.999 -33.999c26.667 0.666992 47.834 8.33398 63.501 23.001s27 33.834 34 57.501
s10.5 50.334 10.5 80.001s-2 59.834 -6 90.501s-9.16699 60.334 -15.5 89.001s-12.166 53.667 -17.499 75c-3.33301 16 -0.833008 26.333 7.5 31s18.833 5.83398 31.5 3.50098s25.667 -6.83301 39 -13.5s23 -13.667 29 -21c14 -29.333 25 -63.666 33 -102.999
s11.667 -79.666 11 -120.999s-5.66699 -81.833 -15 -121.5s-24 -74.334 -44 -104.001s-45.833 -52.5 -77.5 -68.5s-69.5 -21.333 -113.5 -16zM229.999 606.992c-20 -13.333 -36.665 -19.666 -49.998 -18.999s-22.5 5 -27.5 13s-5.83301 17.667 -2.5 29s11.666 21 24.999 29
l19 11.5l23 13.5l23 13c7.33301 4 13.666 7.66699 18.999 11c8.66699 4 18 5.16699 28 3.5s18 -5.33398 24 -11.001s8.66699 -13 8 -22s-7 -18.833 -19 -29.5z" />
    <glyph glyph-name="ucircumflex" unicode="&#xfb;" 
d="M191 3c-28.667 10 -52.668 26.1592 -72.001 48.4922s-35 48.333 -47 78s-21.167 61.5 -27.5 95.5s-10.666 68 -12.999 102s-3.33301 66.5 -3 97.5s1.16602 58.167 2.49902 81.5c1.33301 12.667 6.16602 22 14.499 28s18 9.16699 29 9.5s21.833 -1.83398 32.5 -6.50098
s19 -11 25 -19c4.66699 -6.66699 7.83398 -20.667 9.50098 -42s3 -46.166 4 -74.499s2.33301 -58 4 -89s5 -60 10 -87s12.167 -50.167 21.5 -69.5s22.666 -30.666 39.999 -33.999c26.667 0.666992 47.834 8.33398 63.501 23.001s27 33.834 34 57.501
s10.5 50.334 10.5 80.001s-2 59.834 -6 90.501s-9.16699 60.334 -15.5 89.001s-12.166 53.667 -17.499 75c-3.33301 16 -0.833008 26.333 7.5 31s18.833 5.83398 31.5 3.50098s25.667 -6.83301 39 -13.5s23 -13.667 29 -21c14 -29.333 25 -63.666 33 -102.999
s11.667 -79.666 11 -120.999s-5.66699 -81.833 -15 -121.5s-24 -74.334 -44 -104.001s-45.833 -52.5 -77.5 -68.5s-69.5 -21.333 -113.5 -16zM209.999 703.992l-76 -85c-18.667 -0.666992 -33 0.833008 -43 4.5s-17 8.5 -21 14.5s-5.33301 12.5 -4 19.5s4 13.5 8 19.5
c10.667 10 22.834 23.5 36.501 40.5s28 32.5 43 46.5s30.167 24.333 45.5 31s30 4.66699 44 -6c9.33301 -11.333 19.5 -22.333 30.5 -33l32 -32.5c10.333 -11 20.166 -22.5 29.499 -34.5s17 -25.333 23 -40c0 -6.66699 -2.66699 -13 -8 -19s-11.833 -10.667 -19.5 -14
s-16.167 -5.33301 -25.5 -6s-18 1 -26 5z" />
    <glyph glyph-name="udieresis" unicode="&#xfc;" 
d="M191 3c-28.667 10 -52.668 26.1592 -72.001 48.4922s-35 48.333 -47 78s-21.167 61.5 -27.5 95.5s-10.666 68 -12.999 102s-3.33301 66.5 -3 97.5s1.16602 58.167 2.49902 81.5c1.33301 12.667 6.16602 22 14.499 28s18 9.16699 29 9.5s21.833 -1.83398 32.5 -6.50098
s19 -11 25 -19c4.66699 -6.66699 7.83398 -20.667 9.50098 -42s3 -46.166 4 -74.499s2.33301 -58 4 -89s5 -60 10 -87s12.167 -50.167 21.5 -69.5s22.666 -30.666 39.999 -33.999c26.667 0.666992 47.834 8.33398 63.501 23.001s27 33.834 34 57.501
s10.5 50.334 10.5 80.001s-2 59.834 -6 90.501s-9.16699 60.334 -15.5 89.001s-12.166 53.667 -17.499 75c-3.33301 16 -0.833008 26.333 7.5 31s18.833 5.83398 31.5 3.50098s25.667 -6.83301 39 -13.5s23 -13.667 29 -21c14 -29.333 25 -63.666 33 -102.999
s11.667 -79.666 11 -120.999s-5.66699 -81.833 -15 -121.5s-24 -74.334 -44 -104.001s-45.833 -52.5 -77.5 -68.5s-69.5 -21.333 -113.5 -16zM98.999 613.992c-11.333 9.33301 -18.168 20.334 -20.501 33.001s-1.16602 24 3.50098 34s12.5 17.167 23.5 21.5
s24.167 3.16602 39.5 -3.50098c16 -14.667 24.167 -28.667 24.5 -42s-3.16699 -24.5 -10.5 -33.5s-17 -14.667 -29 -17s-22.333 0.166992 -31 7.5zM246.997 613.993c-13.333 11.333 -21.333 23.168 -24 35.501s-1.5 23.166 3.5 32.499s13 16 24 20s23.167 3 36.5 -3
c16 -14.667 24.5 -28.667 25.5 -42s-1.83301 -24.5 -8.5 -33.5s-15.667 -14.667 -27 -17s-21.333 0.166992 -30 7.5z" />
    <glyph glyph-name="yacute" unicode="&#xfd;" horiz-adv-x="540" 
d="M66 -284c-8 9.33301 -11.001 20.9971 -9.00098 34.9971s6.66699 26.833 14 38.5s16.333 20 27 25s20 3.16699 28 -5.5c26.667 -44.667 51.834 -77 75.501 -97s45.667 -30.333 66 -31s38.666 6.5 54.999 21.5s30.5 35.167 42.5 60.5s22 54.166 30 86.499
s13.667 65.166 17 98.499s4 65.833 2 97.5s-6.33301 59.167 -13 82.5c-12.667 -16 -27.5 -32 -44.5 -48s-35.667 -29.5 -56 -40.5s-42.333 -18.167 -66 -21.5s-48.167 0 -73.5 10c-23.333 12.667 -42.666 30.834 -57.999 54.501s-27.833 50.667 -37.5 81
s-16.834 62.666 -21.501 96.999s-7.66699 68.166 -9 101.499s-1.66602 65 -0.999023 95s1.66699 56.333 3 79c6.66699 10.667 16 19.167 28 25.5s24 9.33301 36 9s22.667 -4.16602 32 -11.499s15 -19 17 -35c-0.666992 -13.333 -1.5 -31.666 -2.5 -54.999
s-1.33301 -48.666 -1 -75.999s1.66602 -55.333 3.99902 -84s7 -55 14 -79s16.333 -44.667 28 -62s26.834 -28.333 45.501 -33c30.667 4 55.5 14.833 74.5 32.5s33.5 39.334 43.5 65.001s16.5 53.834 19.5 84.501s4 61 3 91s-3.33301 58 -7 84s-6.83398 47.333 -9.50098 64
c4.66699 10.667 13 17.5 25 20.5s24.167 3.16699 36.5 0.5s23.666 -8 33.999 -16s16.166 -17.667 17.499 -29c28.667 -161.333 43.334 -300.666 44.001 -417.999s-8.16602 -214.5 -26.499 -291.5s-44.166 -135.333 -77.499 -175s-69.833 -62.667 -109.5 -69
s-80.5 2.5 -122.5 26.5s-81 61 -117 111zM264.999 606.997c-20 -13.333 -36.665 -19.666 -49.998 -18.999s-22.5 5 -27.5 13s-5.83301 17.667 -2.5 29s11.666 21 24.999 29l19 11.5l23 13.5l23 13c7.33301 4 13.666 7.66699 18.999 11c8.66699 4 18 5.16699 28 3.5
s18 -5.33398 24 -11.001s8.66699 -13 8 -22s-7 -18.833 -19 -29.5z" />
    <glyph glyph-name="thorn" unicode="&#xfe;" horiz-adv-x="498" 
d="M55 19c0 6 0.335938 14.1611 1.00293 24.4941s1 25.166 1 44.499s-0.166992 44.333 -0.5 75s-1.66602 68.667 -3.99902 114s-5.5 99.5 -9.5 162.5s-9.66699 136.833 -17 221.5c-1.33301 22.667 2 43.334 10 62.001s18 31.834 30 39.501s24.333 8.33398 37 2.00098
s22.667 -22.833 30 -49.5l-2 -135c52 38.667 100 58.667 144 60s82 -9.66699 114 -33s57.333 -55.666 76 -96.999s28.5 -85.166 29.5 -131.499s-7.33301 -91.666 -25 -135.999s-46.834 -81.5 -87.501 -111.5c-17.333 -11.333 -38.333 -20.5 -63 -27.5
s-49.334 -11.667 -74.001 -14s-47.334 -2 -68.001 1s-35.334 9.16699 -44.001 18.5c8 -35.333 8.33301 -61.666 1 -78.999s-16.833 -28.333 -28.5 -33s-23 -4.5 -34 0.5s-16.5 12.167 -16.5 21.5zM139.003 442.994c-4 -6.66699 -7.16504 -18.1719 -9.49805 -34.5049
s-3.5 -34.666 -3.5 -54.999s1.5 -41.333 4.5 -63s8.16699 -41.5 15.5 -59.5s17 -33 29 -45s27.333 -18.333 46 -19c48.667 10.667 87.167 27.334 115.5 50.001s48.5 48 60.5 76s17.167 56.833 15.5 86.5s-8.33398 57 -20.001 82s-27.334 45.833 -47.001 62.5
s-41 25.834 -64 27.501s-47 -5.66602 -72 -21.999s-48.5 -45.166 -70.5 -86.499z" />
    <glyph glyph-name="ydieresis" unicode="&#xff;" horiz-adv-x="540" 
d="M66 -284c-8 9.33301 -11.001 20.9971 -9.00098 34.9971s6.66699 26.833 14 38.5s16.333 20 27 25s20 3.16699 28 -5.5c26.667 -44.667 51.834 -77 75.501 -97s45.667 -30.333 66 -31s38.666 6.5 54.999 21.5s30.5 35.167 42.5 60.5s22 54.166 30 86.499
s13.667 65.166 17 98.499s4 65.833 2 97.5s-6.33301 59.167 -13 82.5c-12.667 -16 -27.5 -32 -44.5 -48s-35.667 -29.5 -56 -40.5s-42.333 -18.167 -66 -21.5s-48.167 0 -73.5 10c-23.333 12.667 -42.666 30.834 -57.999 54.501s-27.833 50.667 -37.5 81
s-16.834 62.666 -21.501 96.999s-7.66699 68.166 -9 101.499s-1.66602 65 -0.999023 95s1.66699 56.333 3 79c6.66699 10.667 16 19.167 28 25.5s24 9.33301 36 9s22.667 -4.16602 32 -11.499s15 -19 17 -35c-0.666992 -13.333 -1.5 -31.666 -2.5 -54.999
s-1.33301 -48.666 -1 -75.999s1.66602 -55.333 3.99902 -84s7 -55 14 -79s16.333 -44.667 28 -62s26.834 -28.333 45.501 -33c30.667 4 55.5 14.833 74.5 32.5s33.5 39.334 43.5 65.001s16.5 53.834 19.5 84.501s4 61 3 91s-3.33301 58 -7 84s-6.83398 47.333 -9.50098 64
c4.66699 10.667 13 17.5 25 20.5s24.167 3.16699 36.5 0.5s23.666 -8 33.999 -16s16.166 -17.667 17.499 -29c28.667 -161.333 43.334 -300.666 44.001 -417.999s-8.16602 -214.5 -26.499 -291.5s-44.166 -135.333 -77.499 -175s-69.833 -62.667 -109.5 -69
s-80.5 2.5 -122.5 26.5s-81 61 -117 111zM164.999 614.997c-11.333 9.33301 -18.168 20.334 -20.501 33.001s-1.16602 24 3.50098 34s12.5 17.167 23.5 21.5s24.167 3.16602 39.5 -3.50098c16 -14.667 24.167 -28.667 24.5 -42s-3.16699 -24.5 -10.5 -33.5
s-17 -14.667 -29 -17s-22.333 0.166992 -31 7.5zM312.997 614.998c-13.333 11.333 -21.333 23.168 -24 35.501s-1.5 23.166 3.5 32.499s13 16 24 20s23.167 3 36.5 -3c16 -14.667 24.5 -28.667 25.5 -42s-1.83301 -24.5 -8.5 -33.5s-15.667 -14.667 -27 -17
s-21.333 0.166992 -30 7.5z" />
    <glyph glyph-name="Amacron" unicode="&#x100;" horiz-adv-x="549" 
d="M106 15c-11.333 9.33301 -18.666 22.166 -21.999 38.499s-4.16602 34 -2.49902 53s4.66699 38.333 9 58s8 37.5 11 53.5s4.33301 29.167 4 39.5s-4.16602 15.5 -11.499 15.5l-40 -5c-24.667 14 -41 27.833 -49 41.5s-8.66699 25.334 -2 35.001s20.334 16.667 41.001 21
s47.334 4.16602 80.001 -0.500977c3.33301 6.66699 6.16602 14.834 8.49902 24.501s5.16602 24.667 8.49902 45l13 82.5c5.33301 34.667 13 80.334 23 137.001c4.66699 32 12.5 56.333 23.5 73s23.667 27.167 38 31.5s29.166 3.5 44.499 -2.5s30 -15.333 44 -28
s26.167 -27.667 36.5 -45s17.5 -35 21.5 -53c2 -4.66699 5 -13.667 9 -27s8.16699 -28.5 12.5 -45.5l14 -54l14.5 -54l12.5 -45c3.66699 -13 6.5 -22.167 8.5 -27.5c4 0 10.833 1.33301 20.5 4s20.5 5.16699 32.5 7.5s23.667 3.83301 35 4.5s21 -1.33301 29 -6
s12.833 -12.834 14.5 -24.501s-1.5 -28.5 -9.5 -50.5l-98 -24l41 -265c0.666992 -4 -2.83301 -7.66699 -10.5 -11s-16.834 -5.83301 -27.501 -7.5s-21.167 -1.66699 -31.5 0s-17.833 5.5 -22.5 11.5c-4.66699 12 -8.66699 29 -12 51s-6.33301 45.167 -9 69.5l-8 72.5
c-2.66699 24 -5.66699 44.333 -9 61l-6 6c-14 2 -27.667 2.66699 -41 2s-27 -1.66699 -41 -3s-29 -3.33301 -45 -6s-33.333 -5 -52 -7l-34 -237c-2 -6 -5.5 -10.667 -10.5 -14s-10.833 -5.5 -17.5 -6.5s-13.334 -0.5 -20.001 1.5s-12.667 5 -18 9zM225 365
c23.333 0 45.835 0.669922 67.502 2.00293s44.5 2.66602 68.5 3.99902v6c-8.66699 19.333 -15.334 40.666 -20.001 63.999l-14.5 70.5c-5 23.667 -11 46.5 -18 68.5s-17.167 41 -30.5 57c-4.66699 -6 -9 -16 -13 -30s-7.83301 -29.833 -11.5 -47.5
s-6.83398 -36.334 -9.50098 -56.001l-7.5 -56.5l-6.5 -49c-2 -14.667 -3.66699 -25.667 -5 -33zM99.002 791.003c-20 14 -29.8301 28.5 -29.4971 43.5s12.166 26.167 35.499 33.5l348 2c9.33301 -3.33301 15.666 -9.33301 18.999 -18s3.5 -17.667 0.5 -27
s-8.83301 -18 -17.5 -26s-20.334 -12.667 -35.001 -14z" />
    <glyph glyph-name="amacron" unicode="&#x101;" horiz-adv-x="575" 
d="M552 59c0 -19.333 -3.99414 -32.333 -11.9941 -39s-17.333 -10 -28 -10s-20.834 2.16699 -30.501 6.5s-15.834 8.5 -18.501 12.5l-53 114c-8.66699 -16 -18.667 -31.5 -30 -46.5s-24 -28.333 -38 -40s-29.167 -21.5 -45.5 -29.5s-33.833 -13 -52.5 -15
c-44.667 -1.33301 -81.834 5.5 -111.501 20.5s-53.334 35.167 -71.001 60.5s-29.334 54.5 -35.001 87.5s-6.5 67 -2.5 102s12.333 69.5 25 103.5s28.667 64.5 48 91.5s41.833 49.333 67.5 67s53.167 27.5 82.5 29.5s60.166 -4.83301 92.499 -20.5s65.5 -43.5 99.5 -83.5z
M160.006 125c30.667 -10.667 57.501 -13.168 80.501 -7.50098s42.5 16.5 58.5 32.5s28.167 36 36.5 60s13.5 49 15.5 75s0.833008 51.5 -3.5 76.5s-11.666 47 -21.999 66s-23.5 33.167 -39.5 42.5s-34.667 11.333 -56 6c-17.333 -4 -32.833 -14.167 -46.5 -30.5
s-25.167 -35.666 -34.5 -57.999s-16.333 -46.5 -21 -72.5s-6.83398 -51.333 -6.50098 -76s3.66602 -47.167 9.99902 -67.5s15.833 -35.833 28.5 -46.5zM107.007 613.999c-20 14 -29.8301 28.5 -29.4971 43.5s12.166 26.167 35.499 33.5l348 2
c9.33301 -3.33301 15.666 -9.33301 18.999 -18s3.5 -17.667 0.5 -27s-8.83301 -18 -17.5 -26s-20.334 -12.667 -35.001 -14z" />
    <glyph glyph-name="Abreve" unicode="&#x102;" horiz-adv-x="549" 
d="M106 15c-11.333 9.33301 -18.666 22.166 -21.999 38.499s-4.16602 34 -2.49902 53s4.66699 38.333 9 58s8 37.5 11 53.5s4.33301 29.167 4 39.5s-4.16602 15.5 -11.499 15.5l-40 -5c-24.667 14 -41 27.833 -49 41.5s-8.66699 25.334 -2 35.001s20.334 16.667 41.001 21
s47.334 4.16602 80.001 -0.500977c3.33301 6.66699 6.16602 14.834 8.49902 24.501s5.16602 24.667 8.49902 45l13 82.5c5.33301 34.667 13 80.334 23 137.001c4.66699 32 12.5 56.333 23.5 73s23.667 27.167 38 31.5s29.166 3.5 44.499 -2.5s30 -15.333 44 -28
s26.167 -27.667 36.5 -45s17.5 -35 21.5 -53c2 -4.66699 5 -13.667 9 -27s8.16699 -28.5 12.5 -45.5l14 -54l14.5 -54l12.5 -45c3.66699 -13 6.5 -22.167 8.5 -27.5c4 0 10.833 1.33301 20.5 4s20.5 5.16699 32.5 7.5s23.667 3.83301 35 4.5s21 -1.33301 29 -6
s12.833 -12.834 14.5 -24.501s-1.5 -28.5 -9.5 -50.5l-98 -24l41 -265c0.666992 -4 -2.83301 -7.66699 -10.5 -11s-16.834 -5.83301 -27.501 -7.5s-21.167 -1.66699 -31.5 0s-17.833 5.5 -22.5 11.5c-4.66699 12 -8.66699 29 -12 51s-6.33301 45.167 -9 69.5l-8 72.5
c-2.66699 24 -5.66699 44.333 -9 61l-6 6c-14 2 -27.667 2.66699 -41 2s-27 -1.66699 -41 -3s-29 -3.33301 -45 -6s-33.333 -5 -52 -7l-34 -237c-2 -6 -5.5 -10.667 -10.5 -14s-10.833 -5.5 -17.5 -6.5s-13.334 -0.5 -20.001 1.5s-12.667 5 -18 9zM225 365
c23.333 0 45.835 0.669922 67.502 2.00293s44.5 2.66602 68.5 3.99902v6c-8.66699 19.333 -15.334 40.666 -20.001 63.999l-14.5 70.5c-5 23.667 -11 46.5 -18 68.5s-17.167 41 -30.5 57c-4.66699 -6 -9 -16 -13 -30s-7.83301 -29.833 -11.5 -47.5
s-6.83398 -36.334 -9.50098 -56.001l-7.5 -56.5l-6.5 -49c-2 -14.667 -3.66699 -25.667 -5 -33zM178.002 908.003c14.667 -27.333 29.666 -43.6699 44.999 -49.0029s29.666 -5.16602 42.999 0.500977s25 13.667 35 24l21 21.5c0.666992 4.66699 5.5 8 14.5 10
s17.833 1.83301 26.5 -0.5s15 -7.66602 19 -15.999s1.33301 -20.833 -8 -37.5c-18 -28.667 -39.167 -49.667 -63.5 -63s-48.166 -19.666 -71.499 -18.999s-44.5 8 -63.5 22s-31.833 34 -38.5 60c-4 6 -5.33301 13.333 -4 22s4.33301 16.167 9 22.5s10.334 10.333 17.001 12
s13 -1.5 19 -9.5z" />
    <glyph glyph-name="abreve" unicode="&#x103;" horiz-adv-x="575" 
d="M552 59c0 -19.333 -3.99414 -32.333 -11.9941 -39s-17.333 -10 -28 -10s-20.834 2.16699 -30.501 6.5s-15.834 8.5 -18.501 12.5l-53 114c-8.66699 -16 -18.667 -31.5 -30 -46.5s-24 -28.333 -38 -40s-29.167 -21.5 -45.5 -29.5s-33.833 -13 -52.5 -15
c-44.667 -1.33301 -81.834 5.5 -111.501 20.5s-53.334 35.167 -71.001 60.5s-29.334 54.5 -35.001 87.5s-6.5 67 -2.5 102s12.333 69.5 25 103.5s28.667 64.5 48 91.5s41.833 49.333 67.5 67s53.167 27.5 82.5 29.5s60.166 -4.83301 92.499 -20.5s65.5 -43.5 99.5 -83.5z
M160.006 125c30.667 -10.667 57.501 -13.168 80.501 -7.50098s42.5 16.5 58.5 32.5s28.167 36 36.5 60s13.5 49 15.5 75s0.833008 51.5 -3.5 76.5s-11.666 47 -21.999 66s-23.5 33.167 -39.5 42.5s-34.667 11.333 -56 6c-17.333 -4 -32.833 -14.167 -46.5 -30.5
s-25.167 -35.666 -34.5 -57.999s-16.333 -46.5 -21 -72.5s-6.83398 -51.333 -6.50098 -76s3.66602 -47.167 9.99902 -67.5s15.833 -35.833 28.5 -46.5zM191.007 741.999c14.667 -27.333 29.666 -43.6699 44.999 -49.0029s29.666 -5.16602 42.999 0.500977s25 13.667 35 24
l21 21.5c0.666992 4.66699 5.5 8 14.5 10s17.833 1.83301 26.5 -0.5s15 -7.66602 19 -15.999s1.33301 -20.833 -8 -37.5c-18 -28.667 -39.167 -49.667 -63.5 -63s-48.166 -19.666 -71.499 -18.999s-44.5 8 -63.5 22s-31.833 34 -38.5 60c-4 6 -5.33301 13.333 -4 22
s4.33301 16.167 9 22.5s10.334 10.333 17.001 12s13 -1.5 19 -9.5z" />
    <glyph glyph-name="Aogonek" unicode="&#x104;" horiz-adv-x="549" 
d="M106 15c-11.333 9.33301 -18.666 22.166 -21.999 38.499s-4.16602 34 -2.49902 53s4.66699 38.333 9 58s8 37.5 11 53.5s4.33301 29.167 4 39.5s-4.16602 15.5 -11.499 15.5l-40 -5c-24.667 14 -41 27.833 -49 41.5s-8.66699 25.334 -2 35.001s20.334 16.667 41.001 21
s47.334 4.16602 80.001 -0.500977c3.33301 6.66699 6.16602 14.834 8.49902 24.501s5.16602 24.667 8.49902 45l13 82.5c5.33301 34.667 13 80.334 23 137.001c4.66699 32 12.5 56.333 23.5 73s23.667 27.167 38 31.5s29.166 3.5 44.499 -2.5s30 -15.333 44 -28
s26.167 -27.667 36.5 -45s17.5 -35 21.5 -53c2 -4.66699 5 -13.667 9 -27s8.16699 -28.5 12.5 -45.5l14 -54l14.5 -54l12.5 -45c3.66699 -13 6.5 -22.167 8.5 -27.5c4 0 10.833 1.33301 20.5 4s20.5 5.16699 32.5 7.5s23.667 3.83301 35 4.5s21 -1.33301 29 -6
s12.833 -12.834 14.5 -24.501s-1.5 -28.5 -9.5 -50.5l-98 -24l41 -265c0.666992 -4 -2.83301 -7.66699 -10.5 -11s-16.834 -5.83301 -27.501 -7.5s-21.167 -1.66699 -31.5 0s-17.833 5.5 -22.5 11.5c-4.66699 12 -8.66699 29 -12 51s-6.33301 45.167 -9 69.5l-8 72.5
c-2.66699 24 -5.66699 44.333 -9 61l-6 6c-14 2 -27.667 2.66699 -41 2s-27 -1.66699 -41 -3s-29 -3.33301 -45 -6s-33.333 -5 -52 -7l-34 -237c-2 -6 -5.5 -10.667 -10.5 -14s-10.833 -5.5 -17.5 -6.5s-13.334 -0.5 -20.001 1.5s-12.667 5 -18 9zM225 365
c23.333 0 45.835 0.669922 67.502 2.00293s44.5 2.66602 68.5 3.99902v6c-8.66699 19.333 -15.334 40.666 -20.001 63.999l-14.5 70.5c-5 23.667 -11 46.5 -18 68.5s-17.167 41 -30.5 57c-4.66699 -6 -9 -16 -13 -30s-7.83301 -29.833 -11.5 -47.5
s-6.83398 -36.334 -9.50098 -56.001l-7.5 -56.5l-6.5 -49c-2 -14.667 -3.66699 -25.667 -5 -33zM531.002 -132.997c-22.667 0 -45.332 2.33105 -67.999 6.99805c-34.667 6.66699 -59.167 20.334 -73.5 41.001s-20.5 42.834 -18.5 66.501s11.167 45.5 27.5 65.5
s37.833 32.667 64.5 38l3 -60c-19.333 -4 -31 -12.167 -35 -24.5s-2.5 -24.833 4.5 -37.5s18.167 -23 33.5 -31s32.666 -9.66699 51.999 -5z" />
    <glyph glyph-name="aogonek" unicode="&#x105;" horiz-adv-x="575" 
d="M552 59c0 -19.333 -3.99414 -32.333 -11.9941 -39s-17.333 -10 -28 -10s-20.834 2.16699 -30.501 6.5s-15.834 8.5 -18.501 12.5l-53 114c-8.66699 -16 -18.667 -31.5 -30 -46.5s-24 -28.333 -38 -40s-29.167 -21.5 -45.5 -29.5s-33.833 -13 -52.5 -15
c-44.667 -1.33301 -81.834 5.5 -111.501 20.5s-53.334 35.167 -71.001 60.5s-29.334 54.5 -35.001 87.5s-6.5 67 -2.5 102s12.333 69.5 25 103.5s28.667 64.5 48 91.5s41.833 49.333 67.5 67s53.167 27.5 82.5 29.5s60.166 -4.83301 92.499 -20.5s65.5 -43.5 99.5 -83.5z
M160.006 125c30.667 -10.667 57.501 -13.168 80.501 -7.50098s42.5 16.5 58.5 32.5s28.167 36 36.5 60s13.5 49 15.5 75s0.833008 51.5 -3.5 76.5s-11.666 47 -21.999 66s-23.5 33.167 -39.5 42.5s-34.667 11.333 -56 6c-17.333 -4 -32.833 -14.167 -46.5 -30.5
s-25.167 -35.666 -34.5 -57.999s-16.333 -46.5 -21 -72.5s-6.83398 -51.333 -6.50098 -76s3.66602 -47.167 9.99902 -67.5s15.833 -35.833 28.5 -46.5zM550.007 -133.001c-22.667 0 -45.332 2.33105 -67.999 6.99805c-34.667 6.66699 -59.167 20.334 -73.5 41.001
s-20.5 42.834 -18.5 66.501s11.167 45.5 27.5 65.5s37.833 32.667 64.5 38l3 -60c-19.333 -4 -31 -12.167 -35 -24.5s-2.5 -24.833 4.5 -37.5s18.167 -23 33.5 -31s32.666 -9.66699 51.999 -5z" />
    <glyph glyph-name="Cacute" unicode="&#x106;" 
d="M382 22c-70.667 -16.667 -130.334 -17.0029 -179.001 -1.00293s-87.167 42.5 -115.5 79.5s-47.5 81.5 -57.5 133.5s-12 105.667 -6 161s19.167 109.333 39.5 162s46.5 98 78.5 136c28.667 32 59.667 51 93 57s64.5 1.5 93.5 -13.5s54 -39 75 -72
s33.833 -72.5 38.5 -118.5c2.66699 -6 2 -13 -2 -21s-9.83301 -14.5 -17.5 -19.5s-16 -7.16699 -25 -6.5s-16.833 6.66699 -23.5 18c-12 44.667 -26.5 77 -43.5 97s-34.167 31.5 -51.5 34.5s-34.333 -0.5 -51 -10.5s-30.667 -22.333 -42 -37
c-35.333 -59.333 -58.833 -116.166 -70.5 -170.499s-14.167 -103.5 -7.5 -147.5s21 -81.167 43 -111.5s48.667 -51.166 80 -62.499s66 -11.5 104 -0.5s76.333 35.833 115 74.5c12 -8 19.5 -17.5 22.5 -28.5s3 -22.5 0 -34.5s-8.33301 -23.833 -16 -35.5
s-16.167 -22.167 -25.5 -31.5c-8.66699 -8.66699 -17.167 -15.667 -25.5 -21s-16.166 -8.66602 -23.499 -9.99902zM230 804.997c-20 -13.333 -36.665 -19.666 -49.998 -18.999s-22.5 5 -27.5 13s-5.83301 17.667 -2.5 29s11.666 21 24.999 29l19 11.5l23 13.5l23 13
c7.33301 4 13.666 7.66699 18.999 11c8.66699 4 18 5.16699 28 3.5s18 -5.33398 24 -11.001s8.66699 -13 8 -22s-7 -18.833 -19 -29.5z" />
    <glyph glyph-name="cacute" unicode="&#x107;" horiz-adv-x="461" 
d="M442 136c-17.333 -40.667 -39.501 -71.0049 -66.501 -91.0049s-55.833 -31.833 -86.5 -35.5s-61.5 0.166016 -92.5 11.499s-59 27.833 -84 49.5s-45.667 47.834 -62 78.501s-25.166 64 -26.499 100c-2.66699 22.667 -3.83398 46.5 -3.50098 71.5s2.83301 49.333 7.5 73
s12.167 46.334 22.5 68.001s24.5 40.834 42.5 57.501c22 18 45.833 29.5 71.5 34.5s50.334 5.33301 74.001 1s45.167 -11.833 64.5 -22.5s33.333 -22.5 42 -35.5s10.667 -25.833 6 -38.5s-18.667 -23 -42 -31c-34.667 20 -64.667 30.333 -90 31s-46 -5.16602 -62 -17.499
s-27.833 -29.666 -35.5 -51.999s-11.667 -46.5 -12 -72.5s3 -52.167 10 -78.5s17 -50 30 -71s29 -37.5 48 -49.5s40.167 -16.5 63.5 -13.5s49 14.833 77 35.5s57.667 53.667 89 99c7.33301 4 13.5 3.33301 18.5 -2s8.33301 -13.166 10 -23.499s1.5 -22.333 -0.5 -36
s-6.33301 -27.167 -13 -40.5zM224.999 606.995c-20 -13.333 -36.665 -19.666 -49.998 -18.999s-22.5 5 -27.5 13s-5.83301 17.667 -2.5 29s11.666 21 24.999 29l19 11.5l23 13.5l23 13c7.33301 4 13.666 7.66699 18.999 11c8.66699 4 18 5.16699 28 3.5
s18 -5.33398 24 -11.001s8.66699 -13 8 -22s-7 -18.833 -19 -29.5z" />
    </font>
</defs>
</svg>
