<?xml version="1.0" encoding="UTF-8" standalone="no"?>
<!-- Created with Inkscape (http://www.inkscape.org/) -->

<svg
   xmlns:dc="http://purl.org/dc/elements/1.1/"
   xmlns:cc="http://creativecommons.org/ns#"
   xmlns:rdf="http://www.w3.org/1999/02/22-rdf-syntax-ns#"
   xmlns:svg="http://www.w3.org/2000/svg"
   xmlns="http://www.w3.org/2000/svg"
   xmlns:xlink="http://www.w3.org/1999/xlink"
   xmlns:sodipodi="http://sodipodi.sourceforge.net/DTD/sodipodi-0.dtd"
   xmlns:inkscape="http://www.inkscape.org/namespaces/inkscape"
   width="502.00003"
   height="601.99994"
   id="svg3194"
   sodipodi:version="0.32"
   inkscape:version="0.48.2 r9819"
   version="1.0"
   sodipodi:docname="Escudo_de_Beinza-Labayen.svg"
   inkscape:output_extension="org.inkscape.output.svg.inkscape">
  <defs
     id="defs3196">
    <inkscape:perspective
       sodipodi:type="inkscape:persp3d"
       inkscape:vp_x="0 : 325 : 1"
       inkscape:vp_y="0 : 1000 : 0"
       inkscape:vp_z="550 : 325 : 1"
       inkscape:persp3d-origin="275 : 216.66667 : 1"
       id="perspective207" />
    <linearGradient
       id="linearGradient4476">
      <stop
         style="stop-color:#a89200;stop-opacity:1;"
         offset="0"
         id="stop4478" />
      <stop
         id="stop3321"
         offset="0.5"
         style="stop-color:#fcdc00;stop-opacity:1;" />
      <stop
         style="stop-color:#a89600;stop-opacity:1;"
         offset="1"
         id="stop4480" />
    </linearGradient>
    <clipPath
       id="id39">
      <path
         d="M 14684500,13624900 C 14684500,13624900 14440720,14050650 14009580,14218200 C 13578450,14385830 13448790,14437740 12880410,14310160 C 12312110,14182620 12296220,14073300 12079230,14058780 C 11862280,14044290 11832040,14013830 11832040,14013830 L 11838070,13976660 C 12328090,13650420 12854820,13458600 13444350,13353540 C 13834380,13284010 14126160,13534440 14489650,13581370 C 14600110,13595630 14684500,13624900 14684500,13624900 z"
         id="path19701" />
    </clipPath>
    <clipPath
       id="id38">
      <path
         d="M 14684500,13624900 C 14684500,13624900 14440720,14050650 14009580,14218200 C 13578450,14385830 13448790,14437740 12880410,14310160 C 12312110,14182620 12296220,14073300 12079230,14058780 C 11862280,14044290 11832040,14013830 11832040,14013830 L 11838070,13976660 C 12328090,13650420 12854820,13458600 13444350,13353540 C 13834380,13284010 14126160,13534440 14489650,13581370 C 14600110,13595630 14684500,13624900 14684500,13624900 z"
         id="path19698" />
    </clipPath>
    <clipPath
       id="id37">
      <path
         d="M 14450300,12388500 C 14777910,12129250 15496290,12313860 15884390,12180350 C 16009310,12137370 16190630,12078500 16190630,12078500 C 16190630,12078500 16156820,12468470 15828080,12812580 C 15499350,13156730 15153600,13414340 14723540,13482840 C 14293530,13551290 14137590,13458470 13893930,13458990 C 13650320,13459510 13127480,13474290 13127480,13474290 C 13144150,13345330 13482450,13186080 13567310,13087330 C 13811740,12802780 14155940,12621440 14450300,12388500 z"
         id="path19695" />
    </clipPath>
    <clipPath
       id="id36">
      <path
         d="M 14450300,12388500 C 14777910,12129250 15496290,12313860 15884390,12180350 C 16009310,12137370 16190630,12078500 16190630,12078500 C 16190630,12078500 16156820,12468470 15828080,12812580 C 15499350,13156730 15153600,13414340 14723540,13482840 C 14293530,13551290 14137590,13458470 13893930,13458990 C 13650320,13459510 13127480,13474290 13127480,13474290 C 13144150,13345330 13482450,13186080 13567310,13087330 C 13811740,12802780 14155940,12621440 14450300,12388500 z"
         id="path19692" />
    </clipPath>
    <clipPath
       id="id35">
      <path
         d="M 13692900,11728500 C 13692900,11728500 13262030,11754150 12961940,12027490 C 12661940,12300740 12570400,12382340 12449910,12878270 C 12329290,13374200 12409330,13429240 12336400,13605210 C 12263340,13781180 12303490,14017820 12303490,14017820 L 12492950,13824450 L 12673490,13615910 C 12673490,13615910 13309290,12963220 13424310,12807880 C 13630960,12528660 13546910,12202080 13651370,11898400 C 13683120,11806100 13692900,11728500 13692900,11728500 z"
         id="path19689" />
    </clipPath>
    <clipPath
       id="id34">
      <path
         d="M 13692900,11728500 C 13692900,11728500 13262030,11754150 12961940,12027490 C 12661940,12300740 12570400,12382340 12449910,12878270 C 12329290,13374200 12409330,13429240 12336400,13605210 C 12263340,13781180 12303490,14017820 12303490,14017820 L 12492950,13824450 L 12673490,13615910 C 12673490,13615910 13309290,12963220 13424310,12807880 C 13630960,12528660 13546910,12202080 13651370,11898400 C 13683120,11806100 13692900,11728500 13692900,11728500 z"
         id="path19686" />
    </clipPath>
    <clipPath
       id="id33">
      <path
         d="M 11216900,2958840 C 11216900,2958840 11343980,2922570 11470720,2751590 C 11597370,2580690 11761590,2407690 11989340,2333050 C 12217190,2258330 12359520,2228420 12624060,2249950 C 12888740,2271600 13084060,2246040 13084060,2246040 C 13084060,2246040 13025130,2293050 12895460,2489590 C 12765750,2686230 12500860,2897690 12228470,2989350 C 11955960,3081180 11770760,3066050 11585440,3050970 C 11400280,3035930 11216900,2958840 11216900,2958840 z"
         id="path19683" />
    </clipPath>
    <clipPath
       id="id32">
      <path
         d="M 11216900,2958840 C 11216900,2958840 11343980,2922570 11470720,2751590 C 11597370,2580690 11761590,2407690 11989340,2333050 C 12217190,2258330 12359520,2228420 12624060,2249950 C 12888740,2271600 13084060,2246040 13084060,2246040 C 13084060,2246040 13025130,2293050 12895460,2489590 C 12765750,2686230 12500860,2897690 12228470,2989350 C 11955960,3081180 11770760,3066050 11585440,3050970 C 11400280,3035930 11216900,2958840 11216900,2958840 z"
         id="path19680" />
    </clipPath>
    <clipPath
       id="id31">
      <path
         d="M 10942800,1832570 C 10942800,1832570 11069800,1869180 11268180,1791660 C 11466510,1713970 11697890,1654540 11930600,1711950 C 12163220,1769490 12299740,1819680 12512420,1978200 C 12725140,2136760 12904130,2218660 12904130,2218660 C 12904130,2218660 12829220,2227260 12614640,2325020 C 12400070,2422860 12062930,2461490 11783310,2394760 C 11503690,2328020 11354850,2216990 11205970,2106080 C 11057000,1995130 10942800,1832570 10942800,1832570 z"
         id="path19677" />
    </clipPath>
    <clipPath
       id="id30">
      <path
         d="M 10942800,1832570 C 10942800,1832570 11069800,1869180 11268180,1791660 C 11466510,1713970 11697890,1654540 11930600,1711950 C 12163220,1769490 12299740,1819680 12512420,1978200 C 12725140,2136760 12904130,2218660 12904130,2218660 C 12904130,2218660 12829220,2227260 12614640,2325020 C 12400070,2422860 12062930,2461490 11783310,2394760 C 11503690,2328020 11354850,2216990 11205970,2106080 C 11057000,1995130 10942800,1832570 10942800,1832570 z"
         id="path19674" />
    </clipPath>
    <clipPath
       id="id29">
      <path
         d="M 16131400,10733900 C 16493300,10524930 17177130,10811850 17580570,10736090 C 17710360,10711680 17898400,10679760 17898400,10679760 C 17898400,10679760 17808020,11060650 17432590,11353410 C 17057160,11646220 16677510,11850890 16242070,11856220 C 15806670,11861540 15665890,11747070 15424780,11712220 C 15183670,11677330 14841280,11936100 14841280,11936100 C 14876600,11810920 15057490,11382460 15155800,11297120 C 15439210,11051070 15806200,10921640 16131400,10733900 z"
         id="path19671" />
    </clipPath>
    <clipPath
       id="id28">
      <path
         d="M 16131400,10733900 C 16493300,10524930 17177130,10811850 17580570,10736090 C 17710360,10711680 17898400,10679760 17898400,10679760 C 17898400,10679760 17808020,11060650 17432590,11353410 C 17057160,11646220 16677510,11850890 16242070,11856220 C 15806670,11861540 15665890,11747070 15424780,11712220 C 15183670,11677330 14841280,11936100 14841280,11936100 C 14876600,11810920 15057490,11382460 15155800,11297120 C 15439210,11051070 15806200,10921640 16131400,10733900 z"
         id="path19668" />
    </clipPath>
    <clipPath
       id="id27">
      <path
         d="M 17887700,5978240 C 17887700,5978240 17888990,6904050 17620740,7339640 C 17352490,7775200 16983390,8024940 16713930,8236960 C 16444560,8448980 16244120,8612140 16244120,8612140 C 16244120,8612140 16218270,8082830 16362410,7610700 C 16506600,7138580 16710270,6943840 16986750,6740500 C 17263230,6537200 17467730,6334510 17588950,6243110 C 17710130,6151750 17887700,5978240 17887700,5978240 z"
         id="path19665" />
    </clipPath>
    <clipPath
       id="id26">
      <path
         d="M 17887700,5978240 C 17887700,5978240 17888990,6904050 17620740,7339640 C 17352490,7775200 16983390,8024940 16713930,8236960 C 16444560,8448980 16244120,8612140 16244120,8612140 C 16244120,8612140 16218270,8082830 16362410,7610700 C 16506600,7138580 16710270,6943840 16986750,6740500 C 17263230,6537200 17467730,6334510 17588950,6243110 C 17710130,6151750 17887700,5978240 17887700,5978240 z"
         id="path19662" />
    </clipPath>
    <clipPath
       id="id25">
      <path
         d="M 16911800,4552070 C 17345390,5195780 17459330,5991940 16999470,6647940 C 16741120,7016330 16428070,7174810 16365090,7270590 C 16302070,7366330 16252780,7413080 16252780,7413080 C 16252780,7413080 16069270,6920800 16119500,6571450 C 16169690,6222050 16299440,5856280 16466840,5457210 C 16634290,5058180 16733030,4904090 16787780,4768690 C 16842570,4633240 16911800,4552070 16911800,4552070 z"
         id="path19659" />
    </clipPath>
    <clipPath
       id="id24">
      <path
         d="M 16911800,4552070 C 17345390,5195780 17459330,5991940 16999470,6647940 C 16741120,7016330 16428070,7174810 16365090,7270590 C 16302070,7366330 16252780,7413080 16252780,7413080 C 16252780,7413080 16069270,6920800 16119500,6571450 C 16169690,6222050 16299440,5856280 16466840,5457210 C 16634290,5058180 16733030,4904090 16787780,4768690 C 16842570,4633240 16911800,4552070 16911800,4552070 z"
         id="path19656" />
    </clipPath>
    <clipPath
       id="id23">
      <path
         d="M 13618500,13165000 C 13618500,13165000 13805810,12765500 13672690,12491780 C 13539580,12218050 13341760,12063480 13349470,11467820 C 13357180,10870650 13447350,10464360 13763330,9899680 C 13842900,10347570 14249000,10667060 14353770,11133760 C 14426910,11459480 14354710,11848070 14303060,12103190 C 14251450,12358270 14197480,12646940 14197480,12646940 L 14020120,12926900 L 13761260,13161740 L 13618500,13165000 z"
         id="path19653" />
    </clipPath>
    <clipPath
       id="id22">
      <path
         d="M 13618500,13165000 C 13618500,13165000 13805810,12765500 13672690,12491780 C 13539580,12218050 13341760,12063480 13349470,11467820 C 13357180,10870650 13447350,10464360 13763330,9899680 C 13842900,10347570 14249000,10667060 14353770,11133760 C 14426910,11459480 14354710,11848070 14303060,12103190 C 14251450,12358270 14197480,12646940 14197480,12646940 L 14020120,12926900 L 13761260,13161740 L 13618500,13165000 z"
         id="path19650" />
    </clipPath>
    <clipPath
       id="id21">
      <path
         d="M 14636800,8617900 C 14636800,8617900 14385650,9019550 14363250,9378490 C 14340890,9737470 14358680,10016090 14444370,10272150 C 14638910,10853640 14843450,11133980 14920430,11806220 L 15473780,10842030 C 15577120,10440810 15364140,9664670 15147630,9293150 C 14931200,8921620 14636800,8617900 14636800,8617900 z"
         id="path19647" />
    </clipPath>
    <clipPath
       id="id20">
      <path
         d="M 14636800,8617900 C 14636800,8617900 14385650,9019550 14363250,9378490 C 14340890,9737470 14358680,10016090 14444370,10272150 C 14638910,10853640 14843450,11133980 14920430,11806220 L 15473780,10842030 C 15577120,10440810 15364140,9664670 15147630,9293150 C 14931200,8921620 14636800,8617900 14636800,8617900 z"
         id="path19644" />
    </clipPath>
    <clipPath
       id="id19">
      <path
         d="M 16890700,8377910 C 17051130,8942290 17125050,9845500 16795330,10364410 C 16616980,10645140 16241680,11040220 16241680,11040220 L 15958610,11235260 L 15003810,11419950 C 15003810,11419950 15606050,10073760 15963870,9583720 C 16246550,9196630 16555640,8723440 16890700,8377910 z"
         id="path19641" />
    </clipPath>
    <clipPath
       id="id18">
      <path
         d="M 16890700,8377910 C 17051130,8942290 17125050,9845500 16795330,10364410 C 16616980,10645140 16241680,11040220 16241680,11040220 L 15958610,11235260 L 15003810,11419950 C 15003810,11419950 15606050,10073760 15963870,9583720 C 16246550,9196630 16555640,8723440 16890700,8377910 z"
         id="path19638" />
    </clipPath>
    <clipPath
       id="id17">
      <path
         d="M 14817100,7359190 C 14817100,7359190 14642160,7744560 14622560,8108780 C 14602910,8472960 14617520,8681280 14798320,8973570 C 14979160,9265900 15078200,9394690 15304230,9636270 C 15530230,9877810 15634050,10047200 15634050,10047200 C 15634050,10047200 15922410,9912400 15899710,9442510 C 15877050,8972580 15772410,8747930 15509160,8323420 C 15245990,7899000 15032280,7786500 14933280,7657670 C 14834250,7528890 14817100,7359190 14817100,7359190 z"
         id="path19635" />
    </clipPath>
    <clipPath
       id="id16">
      <path
         d="M 14817100,7359190 C 14817100,7359190 14642160,7744560 14622560,8108780 C 14602910,8472960 14617520,8681280 14798320,8973570 C 14979160,9265900 15078200,9394690 15304230,9636270 C 15530230,9877810 15634050,10047200 15634050,10047200 C 15634050,10047200 15922410,9912400 15899710,9442510 C 15877050,8972580 15772410,8747930 15509160,8323420 C 15245990,7899000 15032280,7786500 14933280,7657670 C 14834250,7528890 14817100,7359190 14817100,7359190 z"
         id="path19632" />
    </clipPath>
    <clipPath
       id="id15">
      <path
         d="M 14778300,5948840 C 14778300,5948840 14744050,6582620 14863040,6978300 C 14982060,7373980 15020010,7603400 15258890,7816880 C 15497670,8030360 15592570,8094900 15840580,8240620 C 16088580,8386290 16176460,8311900 16311900,8459600 C 16447340,8607330 16408400,8576220 16408400,8576220 C 16408400,8576220 16456260,8159920 16268950,7694580 C 16081650,7229290 16018230,6996390 15541050,6629930 C 15063870,6263480 14778300,5948840 14778300,5948840 z"
         id="path19629" />
    </clipPath>
    <clipPath
       id="id14">
      <path
         d="M 14778300,5948840 C 14778300,5948840 14744050,6582620 14863040,6978300 C 14982060,7373980 15020010,7603400 15258890,7816880 C 15497670,8030360 15592570,8094900 15840580,8240620 C 16088580,8386290 16176460,8311900 16311900,8459600 C 16447340,8607330 16408400,8576220 16408400,8576220 C 16408400,8576220 16456260,8159920 16268950,7694580 C 16081650,7229290 16018230,6996390 15541050,6629930 C 15063870,6263480 14778300,5948840 14778300,5948840 z"
         id="path19626" />
    </clipPath>
    <clipPath
       id="id13">
      <path
         d="M 15415100,2266750 C 15415100,2266750 15072500,3067250 15040750,3598120 C 15009000,4128940 15121780,4606430 15384170,5019470 C 15646520,5432590 15990630,5524080 16064380,5797370 C 16138090,6070620 16184830,6344820 16184830,6344820 C 16184830,6344820 16436200,5568890 16450110,4989950 C 16464070,4411040 16475700,4097140 16285080,3557340 C 16094500,3017540 15910080,2839770 15741730,2656110 C 15573330,2472360 15415100,2266750 15415100,2266750 z"
         id="path19623" />
    </clipPath>
    <clipPath
       id="id12">
      <path
         d="M 15415100,2266750 C 15415100,2266750 15072500,3067250 15040750,3598120 C 15009000,4128940 15121780,4606430 15384170,5019470 C 15646520,5432590 15990630,5524080 16064380,5797370 C 16138090,6070620 16184830,6344820 16184830,6344820 C 16184830,6344820 16436200,5568890 16450110,4989950 C 16464070,4411040 16475700,4097140 16285080,3557340 C 16094500,3017540 15910080,2839770 15741730,2656110 C 15573330,2472360 15415100,2266750 15415100,2266750 z"
         id="path19620" />
    </clipPath>
    <clipPath
       id="id11">
      <path
         d="M 12394500,3395680 C 12394500,3395680 12811850,3944420 13034430,4022580 C 13256980,4100790 13528460,4187810 13791840,4105950 C 14055180,4024090 14274840,3982840 14458190,3975320 C 14641440,3967880 14933340,4076680 14933340,4076680 C 14933340,4076680 14623180,3565160 14279880,3435210 C 13444760,3119120 13136060,3552010 12394500,3395680 z"
         id="path19617" />
    </clipPath>
    <clipPath
       id="id10">
      <path
         d="M 12394500,3395680 C 12394500,3395680 12811850,3944420 13034430,4022580 C 13256980,4100790 13528460,4187810 13791840,4105950 C 14055180,4024090 14274840,3982840 14458190,3975320 C 14641440,3967880 14933340,4076680 14933340,4076680 C 14933340,4076680 14623180,3565160 14279880,3435210 C 13444760,3119120 13136060,3552010 12394500,3395680 z"
         id="path19614" />
    </clipPath>
    <clipPath
       id="id9">
      <path
         d="M 13855800,1063560 C 13855800,1063560 14144730,1236390 14395840,1520260 C 14646900,1804080 15009320,2125850 14902180,2599900 C 14794960,3074000 14653620,3080320 14614760,3339730 C 14575910,3599150 14626830,3770220 14626830,3770220 C 14626830,3770220 14383000,3523520 14206080,3269900 C 14029190,3016290 13814960,2784680 13855160,2317540 C 13895350,1850360 13925940,1717060 13919990,1487000 C 13914050,1256930 13855800,1063560 13855800,1063560 z"
         id="path19611" />
    </clipPath>
    <clipPath
       id="id8">
      <path
         d="M 13855800,1063560 C 13855800,1063560 14144730,1236390 14395840,1520260 C 14646900,1804080 15009320,2125850 14902180,2599900 C 14794960,3074000 14653620,3080320 14614760,3339730 C 14575910,3599150 14626830,3770220 14626830,3770220 C 14626830,3770220 14383000,3523520 14206080,3269900 C 14029190,3016290 13814960,2784680 13855160,2317540 C 13895350,1850360 13925940,1717060 13919990,1487000 C 13914050,1256930 13855800,1063560 13855800,1063560 z"
         id="path19608" />
    </clipPath>
    <clipPath
       id="id7">
      <path
         d="M 12245000,694180 C 12245000,694180 12263490,790010 12381440,894380 C 12499470,998800 12616520,1131070 12656750,1303380 C 12696940,1475740 12709610,1582390 12676310,1775590 C 12642970,1968740 12649000,2114030 12649000,2114030 C 12649000,2114030 12618150,2067620 12481420,1959330 C 12344650,1851050 12205760,1642340 12155920,1435950 C 12106030,1229640 12129340,1094410 12152690,959180 C 12176040,823950 12245000,694180 12245000,694180 z"
         id="path19605" />
    </clipPath>
    <clipPath
       id="id6">
      <path
         d="M 12245000,694180 C 12245000,694180 12263490,790010 12381440,894380 C 12499470,998800 12616520,1131070 12656750,1303380 C 12696940,1475740 12709610,1582390 12676310,1775590 C 12642970,1968740 12649000,2114030 12649000,2114030 C 12649000,2114030 12618150,2067620 12481420,1959330 C 12344650,1851050 12205760,1642340 12155920,1435950 C 12106030,1229640 12129340,1094410 12152690,959180 C 12176040,823950 12245000,694180 12245000,694180 z"
         id="path19602" />
    </clipPath>
    <clipPath
       id="id5">
      <path
         d="M 13581500,896020 C 13581500,896020 13507750,1005420 13521230,1217530 C 13534760,1429720 13520850,1667650 13394930,1871110 C 13269010,2074540 13179400,2188840 12963110,2342420 C 12746770,2496000 12613910,2641020 12613910,2641020 C 12613910,2641020 12628560,2567290 12600770,2333610 C 12572990,2099930 12639030,1767900 12788160,1522660 C 12937260,1277430 13088640,1169960 13240060,1062440 C 13391520,954890 13581500,896020 13581500,896020 z"
         id="path19599" />
    </clipPath>
    <clipPath
       id="id4">
      <path
         d="M 13581500,896020 C 13581500,896020 13507750,1005420 13521230,1217530 C 13534760,1429720 13520850,1667650 13394930,1871110 C 13269010,2074540 13179400,2188840 12963110,2342420 C 12746770,2496000 12613910,2641020 12613910,2641020 C 12613910,2641020 12628560,2567290 12600770,2333610 C 12572990,2099930 12639030,1767900 12788160,1522660 C 12937260,1277430 13088640,1169960 13240060,1062440 C 13391520,954890 13581500,896020 13581500,896020 z"
         id="path19596" />
    </clipPath>
    <clipPath
       id="id3">
      <path
         d="M 17905000,7712850 C 18073520,8364410 17965740,9360050 17380990,9792250 C 17019130,10059750 16677260,10107020 16376780,10183810 C 16076350,10260640 15880690,10357280 15880690,10357280 C 15880690,10357280 15826240,10281910 15860480,10024640 C 15894730,9767370 16336720,9229590 16750100,8823770 C 17163530,8417910 17586690,8075310 17705930,7942530 C 17825130,7809750 17905000,7712850 17905000,7712850 z"
         id="path19593" />
    </clipPath>
    <clipPath
       id="id2">
      <path
         d="M 17905000,7712850 C 18073520,8364410 17965740,9360050 17380990,9792250 C 17019130,10059750 16677260,10107020 16376780,10183810 C 16076350,10260640 15880690,10357280 15880690,10357280 C 15880690,10357280 15826240,10281910 15860480,10024640 C 15894730,9767370 16336720,9229590 16750100,8823770 C 17163530,8417910 17586690,8075310 17705930,7942530 C 17825130,7809750 17905000,7712850 17905000,7712850 z"
         id="path19590" />
    </clipPath>
    <clipPath
       id="id1">
      <path
         d="M 14186300,5152250 C 14186300,5152250 14378820,5683670 14655820,5960100 C 14932770,6236530 15134550,6393980 15317940,6457620 C 15501320,6521220 15561370,6529000 15786290,6564360 C 16011200,6599730 16324300,6799880 16324300,6799880 C 16324300,6799880 16231080,6355950 16039160,6146210 C 15847240,5936430 15696860,5756210 15255950,5542640 C 14815080,5329070 14716770,5332170 14507150,5292460 C 14297530,5252800 14186300,5152250 14186300,5152250 z"
         id="path19587" />
    </clipPath>
    <clipPath
       id="id0">
      <path
         d="M 14186300,5152250 C 14186300,5152250 14378820,5683670 14655820,5960100 C 14932770,6236530 15134550,6393980 15317940,6457620 C 15501320,6521220 15561370,6529000 15786290,6564360 C 16011200,6599730 16324300,6799880 16324300,6799880 C 16324300,6799880 16231080,6355950 16039160,6146210 C 15847240,5936430 15696860,5756210 15255950,5542640 C 14815080,5329070 14716770,5332170 14507150,5292460 C 14297530,5252800 14186300,5152250 14186300,5152250 z"
         id="path19584" />
    </clipPath>
    <linearGradient
       id="linearGradient8135">
      <stop
         style="stop-color:#5d070b;stop-opacity:1;"
         offset="0"
         id="stop8137" />
      <stop
         id="stop8139"
         offset="0.51546389"
         style="stop-color:#e20a0a;stop-opacity:1;" />
      <stop
         style="stop-color:#5d070a;stop-opacity:1;"
         offset="1"
         id="stop8141" />
    </linearGradient>
    <linearGradient
       inkscape:collect="always"
       xlink:href="#linearGradient8135"
       id="linearGradient2401"
       gradientUnits="userSpaceOnUse"
       gradientTransform="matrix(1.1773172,0,0,1.1773172,657.8819,-479.55183)"
       x1="-418.38882"
       y1="700.10571"
       x2="-136.18279"
       y2="700.10571" />
    <linearGradient
       inkscape:collect="always"
       xlink:href="#linearGradient4476"
       id="linearGradient61528"
       x1="48.500076"
       y1="720.1427"
       x2="298.65634"
       y2="720.1427"
       gradientUnits="userSpaceOnUse" />
    <linearGradient
       inkscape:collect="always"
       xlink:href="#linearGradient8135"
       id="linearGradient61550"
       gradientUnits="userSpaceOnUse"
       x1="48.500076"
       y1="720.1427"
       x2="298.65634"
       y2="720.1427"
       gradientTransform="matrix(-1,0,0,1,595.83003,0)" />
  </defs>
  <sodipodi:namedview
     id="base"
     pagecolor="#ffffff"
     bordercolor="#666666"
     borderopacity="1.0"
     gridtolerance="10000"
     guidetolerance="10"
     objecttolerance="10"
     inkscape:pageopacity="0.0"
     inkscape:pageshadow="2"
     inkscape:zoom="0.63646855"
     inkscape:cx="14.971441"
     inkscape:cy="325"
     inkscape:document-units="px"
     inkscape:current-layer="layer6"
     inkscape:window-width="1366"
     inkscape:window-height="706"
     inkscape:window-x="-8"
     inkscape:window-y="-8"
     showguides="true"
     showgrid="false"
     inkscape:guide-bbox="true"
     height="650px"
     width="550px"
     inkscape:showpageshadow="false"
     inkscape:window-maximized="1" />
  <metadata
     id="metadata3199">
    <rdf:RDF>
      <cc:Work
         rdf:about="">
        <dc:format>image/svg+xml</dc:format>
        <dc:type
           rdf:resource="http://purl.org/dc/dcmitype/StillImage" />
        <dc:title></dc:title>
      </cc:Work>
    </rdf:RDF>
  </metadata>
  <g
     inkscape:groupmode="layer"
     id="layer3"
     inkscape:label="Timbre"
     transform="translate(-103.42872,-342.21937)"
     style="display:inline" />
  <g
     inkscape:label="Escudo"
     inkscape:groupmode="layer"
     id="layer1"
     transform="translate(-103.42872,-342.21937)"
     style="display:inline" />
  <g
     inkscape:groupmode="layer"
     id="layer4"
     inkscape:label="Piezas"
     style="display:inline"
     transform="translate(-47,-418.85972)" />
  <g
     inkscape:groupmode="layer"
     id="layer5"
     inkscape:label="Muebles"
     style="display:inline"
     transform="translate(-47,-418.85972)" />
  <g
     inkscape:groupmode="layer"
     id="layer2"
     inkscape:label="Ornamento"
     transform="translate(-47,-418.85972)" />
  <g
     inkscape:groupmode="layer"
     id="layer6"
     inkscape:label="Borde 3px"
     style="display:inline"
     transform="translate(-47,-418.85972)">
    <path
       id="path4560"
       d="M 61.47975,354.71938 C 61.68403,475.46411 61.06863,596.22221 61.79198,716.95848 C 65.63886,825.31505 148.57929,924.28463 254.49184,947.16813 C 352.47467,971.03808 462.16414,928.14103 517.46923,843.54691 C 550.59132,796.23618 562.78933,737.68676 560.05817,680.69446 C 560.05817,572.0361 560.05817,463.37774 560.05817,354.71938 C 393.8654,354.71938 227.67262,354.71938 61.47975,354.71938 z"
       style="fill:none;fill-opacity:1;fill-rule:evenodd;stroke:none;stroke-width:1;stroke-linecap:butt;stroke-linejoin:miter;marker:none;marker-start:none;marker-mid:none;marker-end:none;stroke-miterlimit:4;stroke-dasharray:none;stroke-dashoffset:0;stroke-opacity:1;visibility:visible;display:inline;overflow:visible;enable-background:accumulate" />
    <path
       id="path4172"
       d="M 548.51111,420.60787 C 548.30683,541.35259 548.92223,662.11069 548.19888,782.84696 C 544.352,891.20353 461.41157,990.1731 355.49902,1013.0567 C 257.51619,1036.9266 147.82671,994.0295 92.521603,909.43539 C 59.399503,862.12466 47.201503,803.57524 49.932703,746.58294 C 49.932703,637.92458 49.932703,529.26622 49.932703,420.60787 C 216.12551,420.60787 382.31824,420.60787 548.51111,420.60787 z"
       style="fill:#e3e4e5;fill-opacity:1;fill-rule:evenodd;stroke:none;stroke-width:3;stroke-linecap:butt;stroke-linejoin:miter;marker:none;marker-start:none;marker-mid:none;marker-end:none;stroke-miterlimit:4;stroke-dasharray:none;stroke-dashoffset:0;stroke-opacity:1;visibility:visible;display:inline;overflow:visible;enable-background:accumulate" />
    <path
       style="fill:url(#linearGradient61528);fill-opacity:1.0;fill-rule:evenodd;stroke:#000000;stroke-width:1;stroke-linecap:butt;stroke-linejoin:miter;marker:none;marker-start:none;marker-mid:none;marker-end:none;stroke-miterlimit:4;stroke-dasharray:none;stroke-dashoffset:0;stroke-opacity:1;visibility:visible;display:inline;overflow:visible;enable-background:accumulate"
       d="M 49.000075,420.64096 L 49.000075,784.14096 C 53.450225,891.99718 136.12878,990.2849 241.62508,1013.0786 C 260.19075,1017.6014 279.19967,1019.7418 298.15633,1019.6411 L 298.15633,420.64096 C 215.10681,420.64096 132.04964,420.64096 49.000075,420.64096 z"
       id="path62053" />
    <path
       id="path4511"
       d="M 547.44868,420.35972 C 547.2444,541.10443 547.8598,661.86253 547.13645,782.5988 C 543.28957,890.95537 460.34914,989.9249 354.43659,1012.8084 C 256.45376,1036.6784 146.76428,993.7813 91.459175,909.18723 C 58.337075,861.8765 46.139075,803.32708 48.870275,746.33478 C 48.870275,637.67642 48.870275,529.01806 48.870275,420.35972 C 215.06308,420.35972 381.25581,420.35972 547.44868,420.35972 z"
       style="fill:none;fill-opacity:1;fill-rule:evenodd;stroke:#000000;stroke-width:3;stroke-linecap:butt;stroke-linejoin:miter;marker:none;marker-start:none;marker-mid:none;marker-end:none;stroke-miterlimit:4;stroke-dasharray:none;stroke-dashoffset:0;stroke-opacity:1;visibility:visible;display:inline;overflow:visible;enable-background:accumulate" />
    <g
       style="fill:#eac102;fill-opacity:1;stroke:#000000;stroke-opacity:1;display:inline"
       id="g10135"
       transform="matrix(0.5968025,0,0,0.5968025,-5.5570687,611.39053)" />
    <path
       id="path61548"
       d="m 546.82995,420.64096 0,363.5 c -4.45015,107.85622 -87.1287,206.14394 -192.625,228.93764 -18.56568,4.5228 -37.5746,6.6632 -56.53126,6.5625 l 0,-599.00014 c 83.04953,0 166.1067,0 249.15626,0 z"
       style="fill:url(#linearGradient61550);fill-opacity:1.0;fill-rule:evenodd;stroke:#000000;stroke-width:1;stroke-linecap:butt;stroke-linejoin:miter;stroke-miterlimit:4;stroke-opacity:1;stroke-dasharray:none;stroke-dashoffset:0;marker:none;visibility:visible;display:inline;overflow:visible;enable-background:accumulate"
       inkscape:connector-curvature="0" />
  </g>
</svg>
