<?xml version="1.0" encoding="UTF-8" standalone="no"?>
<!-- Created with Inkscape (http://www.inkscape.org/) -->
<svg
   xmlns:dc="http://purl.org/dc/elements/1.1/"
   xmlns:cc="http://creativecommons.org/ns#"
   xmlns:rdf="http://www.w3.org/1999/02/22-rdf-syntax-ns#"
   xmlns:svg="http://www.w3.org/2000/svg"
   xmlns="http://www.w3.org/2000/svg"
   xmlns:sodipodi="http://sodipodi.sourceforge.net/DTD/sodipodi-0.dtd"
   xmlns:inkscape="http://www.inkscape.org/namespaces/inkscape"
   width="501.66049"
   height="602.77386"
   id="svg3364"
   sodipodi:version="0.32"
   inkscape:version="0.46"
   sodipodi:docbase="F:\Mis documentos\Mis imágenes\Banderas y escudos\svg\figuras y ornamentos\escudos realizados"
   sodipodi:docname="Escudo_de_Amescoa_Baja.svg"
   inkscape:output_extension="org.inkscape.output.svg.inkscape"
   version="1.0">
  <defs
     id="defs3366">
    <inkscape:perspective
       sodipodi:type="inkscape:persp3d"
       inkscape:vp_x="0 : 325 : 1"
       inkscape:vp_y="0 : 1000 : 0"
       inkscape:vp_z="550 : 325 : 1"
       inkscape:persp3d-origin="275 : 216.66667 : 1"
       id="perspective62" />
    <linearGradient
       id="linearGradient8135">
      <stop
         style="stop-color:#5d070b;stop-opacity:1;"
         offset="0"
         id="stop8137" />
      <stop
         id="stop8139"
         offset="0.5"
         style="stop-color:#ed1c24;stop-opacity:1;" />
      <stop
         style="stop-color:#5d070a;stop-opacity:1;"
         offset="1"
         id="stop8141" />
    </linearGradient>
    <linearGradient
       id="linearGradient4476">
      <stop
         style="stop-color:#403800;stop-opacity:1;"
         offset="0"
         id="stop4478" />
      <stop
         id="stop3321"
         offset="0.5"
         style="stop-color:#c8af00;stop-opacity:1;" />
      <stop
         style="stop-color:#403900;stop-opacity:1;"
         offset="1"
         id="stop4480" />
    </linearGradient>
  </defs>
  <sodipodi:namedview
     id="base"
     pagecolor="#ffffff"
     bordercolor="#666666"
     borderopacity="1.0"
     inkscape:pageopacity="0.0"
     inkscape:pageshadow="2"
     inkscape:zoom="0.79384615"
     inkscape:cx="275"
     inkscape:cy="325"
     inkscape:document-units="px"
     inkscape:current-layer="layer1"
     inkscape:window-width="1280"
     inkscape:window-height="753"
     inkscape:window-x="-4"
     inkscape:window-y="-4"
     width="550px"
     height="650px"
     showguides="true"
     inkscape:guide-bbox="true"
     showgrid="false">
    <sodipodi:guide
       orientation="vertical"
       position="-734.01283"
       id="guide5427" />
  </sodipodi:namedview>
  <metadata
     id="metadata3369">
    <rdf:RDF>
      <cc:Work
         rdf:about="">
        <dc:format>image/svg+xml</dc:format>
        <dc:type
           rdf:resource="http://purl.org/dc/dcmitype/StillImage" />
      </cc:Work>
    </rdf:RDF>
  </metadata>
  <g
     inkscape:label="Escudo"
     inkscape:groupmode="layer"
     id="layer1"
     transform="translate(-108.82734,-522.61856)">
    <path
       sodipodi:nodetypes="cccscccc"
       style="fill:#0071bc;fill-opacity:1;stroke:#000000;stroke-width:3;stroke-linecap:round;stroke-miterlimit:3.863693;stroke-dasharray:none"
       id="path2640"
       d="M 110.32734,524.11856 L 608.98782,524.11856 L 608.98782,857.26983 C 608.93468,1004.6788 497.69629,1123.8924 359.94064,1123.8924 C 225.31297,1123.8924 115.24042,1015.8767 110.32734,880.74752 L 110.32734,880.7467 L 110.32734,524.11856 L 110.32734,524.11856 z"
       stroke-miterlimit="3.863693" />
    <path
       style="fill:#999999;fill-opacity:1;stroke:#000000;stroke-width:0.99554861;stroke-miterlimit:4;stroke-dasharray:none;stroke-opacity:1"
       d="M 302.13528,910.71415 C 345.79847,887.30452 371.54407,896.17775 395.28027,908.67136 C 415.39246,924.97699 457.39452,919.37155 448.77375,964.43791 C 459.62257,990.07359 468.37937,1013.8453 486.08676,1019.8746 C 505.77002,1026.5767 526.39711,1026.8868 531.30434,1048.707 C 452.65813,1132.4069 293.7536,1164.4397 175.47198,1040.4141 C 181.44252,1027.3051 192.96774,1005.7713 201.38707,995.22695 C 209.14927,985.50558 220.69582,977.63006 241.08573,972.99417 C 273.61327,956.54562 285.65204,939.20757 302.13528,910.71415 z"
       id="rect3180"
       sodipodi:nodetypes="cccsccscc" />
    <path
       style="fill:none;fill-rule:evenodd;stroke:#000000;stroke-width:0.99554861;stroke-linecap:butt;stroke-linejoin:miter;stroke-miterlimit:4;stroke-dasharray:none;stroke-opacity:1"
       d="M 214.45878,1076.1166 C 215.87849,1074.0459 217.97739,1056.141 226.44583,1057.9999 C 241.69319,1061.3468 212.4283,1045.8187 229.8936,1042.8455 C 213.67898,1003.1262 263.50322,1004.4604 272.41408,997.07656 C 306.05433,985.11115 278.6276,952.91527 310.39504,951.7868 C 326.615,953.86104 340.04259,920.28119 340.07717,894.0036"
       id="path3183"
       sodipodi:nodetypes="cscccc" />
    <path
       style="fill:none;fill-rule:evenodd;stroke:#000000;stroke-width:0.99554861;stroke-linecap:butt;stroke-linejoin:miter;stroke-miterlimit:4;stroke-opacity:1"
       d="M 429.24211,1004.1197 C 419.54792,988.34259 434.78553,982.44597 419.92599,954.55675 C 395.0777,940.95532 404.48267,927.35389 400.78421,913.75245"
       id="path3185"
       sodipodi:nodetypes="ccc" />
    <path
       style="fill:none;fill-rule:evenodd;stroke:#000000;stroke-width:0.99554861;stroke-linecap:butt;stroke-linejoin:miter;stroke-miterlimit:4;stroke-dasharray:none;stroke-opacity:1"
       d="M 360.42972,1121.6157 C 363.94761,1116.7264 345.81451,1103.6639 355.62072,1098.4957 C 369.22094,1091.3281 351.78859,1077.5407 349.9105,1070.9721 C 345.834,1056.7145 361.97637,1043.4047 351.27098,1029.621 C 346.87348,1024.3223 344.53829,1023.4717 343.65031,1019.3361 C 341.03073,1007.1358 351.00579,999.2349 357.78323,991.13739 C 327.7915,965.3112 365.53871,920.77614 368.91302,900.08018"
       id="path3187"
       sodipodi:nodetypes="csscscc" />
    <path
       style="fill:none;fill-rule:evenodd;stroke:#000000;stroke-width:0.99554861;stroke-linecap:butt;stroke-linejoin:miter;stroke-miterlimit:4;stroke-opacity:1"
       d="M 293.02922,1112.9446 C 285.96421,1103.7113 296.05092,1096.6753 301.36791,1086.6241 C 306.80071,1076.354 296.30485,1050.5053 305.61847,1044.3322"
       id="path3191"
       sodipodi:nodetypes="csc" />
    <path
       style="fill:none;fill-rule:evenodd;stroke:#000000;stroke-width:0.99554861;stroke-linecap:butt;stroke-linejoin:miter;stroke-miterlimit:4;stroke-dasharray:none;stroke-opacity:1"
       d="M 423.45864,1113.7606 C 423.45864,1113.7606 410.84194,1088.4542 407.85987,1075.1161 C 400.37536,1041.6397 397.83461,1060.4429 408.20927,1041.3322 C 414.4319,1029.8698 400.96032,1014.0566 394.19934,1002.6311"
       id="path3193"
       sodipodi:nodetypes="csss" />
    <g
       id="g3163"
       transform="matrix(0.6722186,0,0,0.6728688,206.20496,623.72242)"
       style="stroke:#000000;stroke-width:1.48689246;stroke-miterlimit:4;stroke-dasharray:none;stroke-opacity:1">
      <path
         style="fill:#e6e6e6;fill-opacity:1;fill-rule:nonzero;stroke:#000000;stroke-width:1.48689246;stroke-miterlimit:4;stroke-dasharray:none;stroke-opacity:1"
         sodipodi:nodetypes="cccccccscsccccccccccccccc"
         d="M 428.002,319.136 C 430.52767,334.9085 462.1459,343.6679 470.9109,362.1991 C 440.9104,357.29771 414.3285,341.0254 384.4754,335.819 C 411.3691,356.5499 438.6775,376.7482 465.6107,397.4377 C 459.0913,428.0493 430.6785,448.1878 401.8453,455.6305 C 374.5661,421.1119 346.6102,387.1182 319.1881,352.7025 C 309.45732,353.4242 299.7362,354.19466 290.0306,355.1454 C 290.65229,355.44318 279.8888,362.74377 278.57774,362.37718 C 276.73942,361.86315 264.35355,345.98027 262.05639,341.59542 C 259.97554,346.57313 254.43998,352.01486 254.53542,353.77088 C 254.62232,355.36979 241.7132,350.19473 242.33002,351.01204 C 231.81572,340.28404 229.07262,325.27544 226.51442,311.05764 C 195.75592,293.41794 168.34432,270.58254 145.17052,243.77304 C 116.10032,208.51404 104.93472,159.24674 116.86002,115.02904 C 91.02642,75.186139 97.47782,95.382639 56.08402,76.776039 C 77.10552,72.367599 96.44772,72.872729 117.77132,71.768349 C 91.96072,68.855469 65.96592,69.596729 40.09092,70.309919 C 49.43902,58.258719 64.85982,50.438719 80.11412,52.402319 C 91.91902,44.115229 99.07312,32.896219 110.68152,24.406519 C 138.73712,11.182919 172.40572,20.263399 187.16652,48.872319 C 199.69002,73.484419 210.21472,101.00972 233.44412,118.48502 C 264.99712,143.82192 293.61402,172.94422 314.04132,208.17272 C 327.44522,233.72452 348.72942,258.67002 375.43812,270.21752 C 390.57402,290.27432 407.28142,303.73042 428.00182,319.13592 L 428.002,319.136 z"
         id="path3523" />
      <path
         style="fill:#000000;fill-rule:nonzero;stroke:#000000;stroke-width:1.48689246;stroke-miterlimit:4;stroke-dasharray:none;stroke-opacity:1"
         d="M 129.349,46.3093 C 138.67896,45.630119 136.00418,60.0398 128.01275,59.3444 C 118.4118,59.973692 121.15716,45.6273 129.349,46.3093 z"
         id="path3527" />
      <path
         id="path22"
         d="M 265.318,346.526 C 258.92077,341.29324 253.8031,330.9408 249.2665,318.2615"
         style="fill:none;stroke:#000000;stroke-width:1.48689246;stroke-miterlimit:4;stroke-dasharray:none;stroke-opacity:1" />
      <path
         style="fill:#e6e6e6;fill-opacity:1;fill-rule:nonzero;stroke:#000000;stroke-width:1.48689246;stroke-miterlimit:4;stroke-dasharray:none;stroke-opacity:1"
         sodipodi:nodetypes="ccscccccccscccsccs"
         d="M 256.52884,351.62497 C 257.2532,350.92739 233.67763,386.23437 224.39881,404.63146 C 229.78711,408.70312 235.01492,408.2374 240.73881,407.34651 C 243.29118,406.94925 246.06077,406.5859 249.21153,406.72673 C 255.34145,407.00056 256.86096,415.7883 260.72966,419.37385 C 256.5582,412.5436 250.04957,414.5684 246.63744,417.89847 C 222.67274,410.94621 204.13411,430.78736 196.68181,451.72117 C 194.11504,452.76744 185.13412,451.11858 182.56649,452.16513 C 180.81326,455.4193 193.82196,434.08201 203.54926,421.9021 C 194.75477,426.91659 182.63236,434.14551 174.52076,442.70641 C 171.53332,442.70063 166.54754,435.50247 169.27308,432.45039 C 172.46824,428.87244 179.20744,425.22169 189.27043,413.58468 C 179.9674,414.42232 171.94686,419.97646 163.00276,422.74932 C 157.97778,423.22809 153.52884,422.50149 148.50394,422.98027 C 151.89556,419.48867 151.6629,416.07489 155.93224,414.32172 C 171.26137,408.02691 191.12594,410.10319 207.46675,400.19539 C 221.15045,384.72839 230.04617,366.35421 241.66477,349.35021 C 240.18132,348.78191 256.27161,351.87269 256.52884,351.62497 z"
         id="path3152" />
      <path
         style="fill:#e6e6e6;fill-opacity:1;fill-rule:nonzero;stroke:#000000;stroke-width:1.48689246;stroke-miterlimit:4;stroke-dasharray:none;stroke-opacity:1"
         sodipodi:nodetypes="cscccccc"
         d="M 120.99863,70.601458 C 121.73781,70.656398 107.6876,100.67657 103.42175,96.378829 C 91.685662,84.555009 84.742032,90.040319 54.383132,76.393929 C 75.404632,71.985489 96.903932,72.490619 118.22763,71.386239 C 92.417032,68.473359 66.422432,70.292629 40.547532,71.006119 C 49.895352,58.954919 64.237232,52.213519 79.491932,54.177419 C 97.397628,38.264334 112.80942,74.326491 124.41782,65.836491 C 125.02014,67.864881 121.27492,70.588388 120.99863,70.601458 z"
         id="path3154" />
      <path
         style="fill:#e6e6e6;fill-opacity:1;fill-rule:nonzero;stroke:#000000;stroke-width:1.48689246;stroke-miterlimit:4;stroke-dasharray:none;stroke-opacity:1"
         sodipodi:nodetypes="ccscscccccscsccccccc"
         d="M 293.1494,353.17148 C 292.05778,379.32448 283.80102,405.13112 284.66729,431.46272 C 292.55599,433.36429 302.24479,432.70888 310.59693,433.60867 C 318.51002,434.46115 322.74014,442.53648 325.58595,449.67808 C 324.02567,444.851 318.41599,444.39085 312.70067,445.13143 C 307.40866,445.81716 300.55967,447.02781 298.95559,445.44406 C 289.5525,444.76148 289.90144,447.94223 280.58539,449.32611 C 271.73477,460.14621 260.87379,470.05361 257.16889,484.05821 C 250.14378,488.75352 245.34529,491.40193 238.64959,496.56351 C 236.63784,478.84041 263.47585,461.87977 261.12195,455.16357 C 250.50278,463.95182 237.88301,470.05403 228.23436,475.38683 C 222.2459,478.69666 217.50188,480.21243 214.99109,483.38771 C 216.33043,478.83067 216.53181,471.94306 222.87664,465.57323 C 227.9998,460.42989 236.08582,454.06182 249.28434,445.44555 C 242.04947,446.65028 236.09219,450.03243 229.15439,453.46178 C 223.45278,453.98307 215.53869,453.97939 208.44138,457.64147 C 210.57928,449.75605 222.11889,441.55657 226.43519,440.40397 C 241.12659,439.90337 255.47299,440.3504 269.67069,436.43802 C 271.83409,413.60352 275.96616,387.05052 277.99038,364.25312 C 274.32206,355.73982 293.25972,353.91402 293.1494,353.17148 z"
         id="path3156" />
      <path
         sodipodi:nodetypes="csc"
         id="path3158"
         d="M 324.86737,320.29178 C 334.00106,343.2812 365.12466,363.29192 382.60104,381.51409 C 403.32645,403.12394 411.67659,422.21841 437.7321,440.78249"
         style="fill:none;fill-rule:evenodd;stroke:#000000;stroke-width:1.48689246;stroke-linecap:butt;stroke-linejoin:miter;stroke-miterlimit:4;stroke-dasharray:none;stroke-opacity:1" />
      <path
         sodipodi:nodetypes="csc"
         id="path3161"
         d="M 361.47215,327.15517 C 370.60584,350.14459 401.72944,370.15531 419.20582,388.37748 C 439.93123,409.98733 428.45378,406.20382 454.50929,424.7679"
         style="fill:none;fill-rule:evenodd;stroke:#000000;stroke-width:1.48689246;stroke-linecap:butt;stroke-linejoin:miter;stroke-miterlimit:4;stroke-dasharray:none;stroke-opacity:1" />
    </g>
    <path
       sodipodi:nodetypes="cccc"
       id="path5248"
       d="M 310.01237,902.97345 L 311.44148,908.30905 C 307.99345,908.04286 306.29932,909.28829 304.72489,911.50019 C 304.31102,907.39588 304.74904,904.81977 310.01237,902.97345 z"
       style="fill:#e6e6e6;fill-opacity:1;fill-rule:evenodd;stroke:#000000;stroke-width:1;stroke-linecap:butt;stroke-linejoin:miter;stroke-miterlimit:4;stroke-dasharray:none;stroke-opacity:1" />
    <path
       sodipodi:nodetypes="cccc"
       id="path5250"
       d="M 319.75209,914.96055 C 314.66012,919.12545 312.39237,924.73664 317.46639,929.24256 C 318.24953,926.91197 317.12096,926.22612 323.18622,921.39246 L 319.75209,914.96055 z"
       style="fill:#e6e6e6;fill-opacity:1;fill-rule:evenodd;stroke:#000000;stroke-width:1;stroke-linecap:butt;stroke-linejoin:miter;stroke-miterlimit:4;stroke-dasharray:none;stroke-opacity:1" />
    <path
       sodipodi:nodetypes="cccc"
       id="path5252"
       d="M 331.82547,923.97031 C 326.61457,929.20618 327.87884,933.21086 332.17361,936.63933 C 333.31076,933.68054 334.1599,930.71653 337.12574,927.79098 L 331.82547,923.97031 z"
       style="fill:#e6e6e6;fill-opacity:1;fill-rule:evenodd;stroke:#000000;stroke-width:1;stroke-linecap:butt;stroke-linejoin:miter;stroke-miterlimit:4;stroke-dasharray:none;stroke-opacity:1" />
    <path
       sodipodi:nodetypes="cccc"
       id="path5260"
       d="M 369.75921,897.49312 C 376.77993,895.18132 381.75866,898.50908 381.61497,905.78236 C 379.40537,904.75936 379.66602,903.36597 372.10684,904.81384 L 369.75921,897.49312 z"
       style="fill:#e6e6e6;fill-opacity:1;fill-rule:evenodd;stroke:#000000;stroke-width:1;stroke-linecap:butt;stroke-linejoin:miter;stroke-miterlimit:4;stroke-dasharray:none;stroke-opacity:1" />
    <g
       style="fill:#e6e6e6;fill-opacity:1;stroke:#000000;stroke-width:1.09892619;stroke-miterlimit:4;stroke-dasharray:none;stroke-opacity:1"
       id="g3810"
       transform="matrix(0.9980665,-0.1527263,0.4280384,0.7641669,92.350685,625.25556)">
      <path
         style="fill:#e6e6e6;fill-opacity:1;fill-rule:evenodd;stroke:#000000;stroke-width:1.09892619;stroke-linecap:butt;stroke-linejoin:miter;stroke-miterlimit:4;stroke-dasharray:none;stroke-opacity:1"
         d="M 131.99396,186.9139 C 133.35285,205.59259 116.3716,225.57238 159.71656,250.71046 C 173.75497,278.65322 171.64933,281.78741 195.98686,273.61801 C 220.16706,296.6596 248.67,383.9317 255.16471,372.88408 C 258.79379,381.99375 263.42679,388.34263 270.43641,388.15579 C 280.38904,398.00463 283.16719,395.0419 281.25387,383.70154 C 266.74393,340.31058 251.13009,297.77821 229.07555,260.25527 C 245.81478,273.47464 265.28939,292.62067 277.43594,295.88925 C 284.06676,301.79253 290.10358,303.53783 295.88925,303.5251 C 305.80814,305.19689 312.8865,305.44841 314.34256,302.88878 C 262.08741,255.18909 222.32819,181.24976 205.2371,157.98382 C 172.40642,136.07834 138.14691,156.19185 131.99396,186.9139 z"
         id="path3812"
         sodipodi:nodetypes="cccccccccccc" />
      <g
         style="fill:#e6e6e6;fill-opacity:1;stroke:#000000;stroke-width:1.09892619;stroke-miterlimit:4;stroke-dasharray:none;stroke-opacity:1"
         id="g3814"
         transform="translate(-234.87227,24.297131)">
        <g
           style="fill:#e6e6e6;fill-opacity:1;stroke:#000000;stroke-width:1.09892619;stroke-miterlimit:4;stroke-dasharray:none;stroke-opacity:1"
           id="g3816">
          <path
             sodipodi:nodetypes="cs"
             style="fill:#e6e6e6;fill-opacity:1;fill-rule:evenodd;stroke:#000000;stroke-width:1.09892619;stroke-linecap:butt;stroke-linejoin:miter;stroke-miterlimit:4;stroke-dasharray:none;stroke-opacity:1"
             d="M 383.70155,167.98873 C 372.57835,196.65986 399.1944,230.41978 393.82618,225.85719"
             id="path3818" />
          <path
             sodipodi:nodetypes="cc"
             style="fill:#e6e6e6;fill-opacity:1;fill-rule:evenodd;stroke:#000000;stroke-width:1.09892619;stroke-linecap:butt;stroke-linejoin:miter;stroke-miterlimit:4;stroke-dasharray:none;stroke-opacity:1"
             d="M 407.56358,165.12529 C 416.21194,187.72703 435.87637,214.43374 467.37775,239.57484"
             id="path3820" />
          <path
             sodipodi:nodetypes="cc"
             style="fill:#e6e6e6;fill-opacity:1;fill-rule:evenodd;stroke:#000000;stroke-width:1.09892619;stroke-linecap:butt;stroke-linejoin:miter;stroke-miterlimit:4;stroke-dasharray:none;stroke-opacity:1"
             d="M 425.06241,170.53401 C 439.3315,195.54333 453.6089,220.54988 475.33177,243.0746"
             id="path3822" />
          <path
             sodipodi:nodetypes="cc"
             style="fill:#e6e6e6;fill-opacity:1;fill-rule:evenodd;stroke:#000000;stroke-width:1.09892619;stroke-linecap:butt;stroke-linejoin:miter;stroke-miterlimit:4;stroke-dasharray:none;stroke-opacity:1"
             d="M 440.97044,164.1708 C 460.73189,202.4207 479.41188,237.64019 511.66492,270.89345"
             id="path3824" />
          <path
             sodipodi:nodetypes="cc"
             style="fill:#e6e6e6;fill-opacity:1;fill-rule:evenodd;stroke:#000000;stroke-width:1.09892619;stroke-linecap:butt;stroke-linejoin:miter;stroke-miterlimit:4;stroke-dasharray:none;stroke-opacity:1"
             d="M 456.18123,158.18262 C 469.86959,201.1318 500.15627,240.52757 528.77956,278.49844"
             id="path3826" />
          <path
             sodipodi:nodetypes="cccsccccc"
             style="fill:#e6e6e6;fill-opacity:1;fill-rule:evenodd;stroke:#000000;stroke-width:1.09892619;stroke-linecap:butt;stroke-linejoin:miter;stroke-miterlimit:4;stroke-dasharray:none;stroke-opacity:1"
             d="M 435.29052,210.02856 C 421.3052,216.51101 422.13717,225.13856 434.60723,223.98498 L 434.0095,232.25715 C 432.94924,232.71127 429.95638,235.5302 425.18197,234.05013 C 420.372,232.55904 422.82716,247.38457 435.99566,240.41352 L 430.7893,247.52885 C 436.09197,251.65306 441.39465,254.95629 446.69732,251.9831 C 451.92828,253.88901 457.7787,257.65332 461.33271,254.52838 C 465.15051,256.54358 467.55137,260.68421 474.69545,257.70999"
             id="path3828" />
          <path
             sodipodi:nodetypes="cc"
             style="fill:#e6e6e6;fill-opacity:1;fill-rule:evenodd;stroke:#000000;stroke-width:1.09892619;stroke-linecap:butt;stroke-linejoin:miter;stroke-miterlimit:4;stroke-dasharray:none;stroke-opacity:1"
             d="M 490.64207,348.02897 C 477.86851,309.59646 463.04191,271.30583 434.64582,231.58223"
             id="path3830" />
          <path
             sodipodi:nodetypes="cc"
             style="fill:#e6e6e6;fill-opacity:1;fill-rule:evenodd;stroke:#000000;stroke-width:1.09892619;stroke-linecap:butt;stroke-linejoin:miter;stroke-miterlimit:4;stroke-dasharray:none;stroke-opacity:1"
             d="M 506.82965,362.38479 C 485.85774,302.59707 472.48432,271.77442 445.10652,225.57578"
             id="path3832" />
          <path
             sodipodi:nodetypes="cc"
             style="fill:#e6e6e6;fill-opacity:1;fill-rule:evenodd;stroke:#000000;stroke-width:1.09892619;stroke-linecap:butt;stroke-linejoin:miter;stroke-miterlimit:4;stroke-dasharray:none;stroke-opacity:1"
             d="M 418.74935,186.69482 C 431.01414,193.86904 432.94641,192.41707 435.24355,189.62364"
             id="path3834" />
          <path
             sodipodi:nodetypes="cc"
             style="fill:#e6e6e6;fill-opacity:1;fill-rule:evenodd;stroke:#000000;stroke-width:1.09892619;stroke-linecap:butt;stroke-linejoin:miter;stroke-miterlimit:4;stroke-dasharray:none;stroke-opacity:1"
             d="M 440.39062,196.34177 C 448.09668,199.45169 457.22672,206.12213 460.06006,199.48662"
             id="path3836" />
          <path
             sodipodi:nodetypes="cc"
             style="fill:#e6e6e6;fill-opacity:1;fill-rule:evenodd;stroke:#000000;stroke-width:1.09892619;stroke-linecap:butt;stroke-linejoin:miter;stroke-miterlimit:4;stroke-dasharray:none;stroke-opacity:1"
             d="M 456.24531,219.74087 C 462.60852,224.37095 469.60488,232.14103 475.96809,227.16658"
             id="path3838" />
          <path
             sodipodi:nodetypes="cc"
             style="fill:#e6e6e6;fill-opacity:1;fill-rule:evenodd;stroke:#000000;stroke-width:1.09892619;stroke-linecap:butt;stroke-linejoin:miter;stroke-miterlimit:4;stroke-dasharray:none;stroke-opacity:1"
             d="M 464.83247,207.75879 C 472.01911,215.26962 478.32081,218.3558 482.96762,213.16752"
             id="path3840" />
          <path
             sodipodi:nodetypes="cc"
             style="fill:#e6e6e6;fill-opacity:1;fill-rule:evenodd;stroke:#000000;stroke-width:1.09892619;stroke-linecap:butt;stroke-linejoin:miter;stroke-miterlimit:4;stroke-dasharray:none;stroke-opacity:1"
             d="M 482.3313,234.16611 C 492.22351,243.9815 497.88992,245.34529 500.14829,239.893"
             id="path3842" />
          <path
             style="fill:#e6e6e6;fill-opacity:1;fill-rule:evenodd;stroke:#000000;stroke-width:1.09892619;stroke-linecap:butt;stroke-linejoin:miter;stroke-miterlimit:4;stroke-dasharray:none;stroke-opacity:1"
             d="M 505.23885,246.25621 C 514.12648,254.98309 522.57684,262.29803 526.89852,256.28161"
             id="path3844"
             sodipodi:nodetypes="cc" />
        </g>
        <path
           sodipodi:nodetypes="cc"
           id="path3846"
           d="M 449.29276,275.77976 C 456.72275,285.99837 462.79782,293.22612 467.69592,288.25339"
           style="fill:#e6e6e6;fill-opacity:1;fill-rule:evenodd;stroke:#000000;stroke-width:1.09892619;stroke-linecap:butt;stroke-linejoin:miter;stroke-miterlimit:4;stroke-dasharray:none;stroke-opacity:1" />
        <path
           sodipodi:nodetypes="cc"
           id="path3848"
           d="M 469.60488,292.07132 C 474.05913,298.77365 477.8269,299.62574 482.28115,298.81807"
           style="fill:#e6e6e6;fill-opacity:1;fill-rule:evenodd;stroke:#000000;stroke-width:1.09892619;stroke-linecap:butt;stroke-linejoin:miter;stroke-miterlimit:4;stroke-dasharray:none;stroke-opacity:1" />
        <path
           sodipodi:nodetypes="cc"
           id="path3850"
           d="M 483.65409,300.59627 C 495.97892,311.54806 494.8766,309.47181 497.55285,308.36288"
           style="fill:#e6e6e6;fill-opacity:1;fill-rule:evenodd;stroke:#000000;stroke-width:1.09892619;stroke-linecap:butt;stroke-linejoin:miter;stroke-miterlimit:4;stroke-dasharray:none;stroke-opacity:1" />
      </g>
    </g>
    <path
       sodipodi:nodetypes="cccc"
       id="path4107"
       d="M 351.3304,924.33854 L 352.75951,929.67414 C 349.31149,929.40795 347.61735,930.65338 346.04292,932.86528 C 345.62906,928.76097 346.06708,926.18486 351.3304,924.33854 z"
       style="fill:#e6e6e6;fill-opacity:1;fill-rule:evenodd;stroke:#000000;stroke-width:1;stroke-linecap:butt;stroke-linejoin:miter;stroke-miterlimit:4;stroke-dasharray:none;stroke-opacity:1" />
    <path
       sodipodi:nodetypes="cccc"
       id="path4109"
       d="M 355.35966,937.73647 C 350.26769,941.90136 347.99994,947.51256 353.07396,952.01848 C 353.8571,949.68789 352.72854,949.00204 358.79379,944.16838 L 355.35966,937.73647 z"
       style="fill:#e6e6e6;fill-opacity:1;fill-rule:evenodd;stroke:#000000;stroke-width:1;stroke-linecap:butt;stroke-linejoin:miter;stroke-miterlimit:4;stroke-dasharray:none;stroke-opacity:1" />
    <path
       sodipodi:nodetypes="cccc"
       id="path4111"
       d="M 368.91104,948.56013 C 363.70015,953.79599 364.96442,957.80068 369.25918,961.22914 C 370.39634,958.27035 371.24547,955.30635 374.21132,952.3808 L 368.91104,948.56013 z"
       style="fill:#e6e6e6;fill-opacity:1;fill-rule:evenodd;stroke:#000000;stroke-width:1;stroke-linecap:butt;stroke-linejoin:miter;stroke-miterlimit:4;stroke-dasharray:none;stroke-opacity:1" />
    <path
       sodipodi:nodetypes="cccc"
       id="path4113"
       d="M 415.90245,915.63927 C 423.27624,915.12744 427.28225,919.5787 425.352,926.59264 C 423.46234,925.05705 424.05807,923.77075 416.37513,923.31265 L 415.90245,915.63927 z"
       style="fill:#e6e6e6;fill-opacity:1;fill-rule:evenodd;stroke:#000000;stroke-width:1;stroke-linecap:butt;stroke-linejoin:miter;stroke-miterlimit:4;stroke-dasharray:none;stroke-opacity:1" />
    <path
       style="fill:none;fill-rule:evenodd;stroke:#000000;stroke-width:1.10000002px;stroke-linecap:butt;stroke-linejoin:miter;stroke-opacity:1"
       d="M 231.76459,976.19084 C 217.15889,1016.9265 232.39654,1019.4895 241.96541,1022.395 C 245.42677,1023.4459 262.01164,1061.3663 265.92209,1047.9571 C 270.11205,1033.5896 284.69986,1041.546 303.49558,1045.3053 C 318.69185,1048.3447 336.09032,1039.6558 329.24038,1050.1464 C 322.81068,1059.9934 340.40952,1056.3417 351.27953,1057.8501 C 368.5893,1060.252 365.12935,997.98313 395.39692,1003.585 C 404.1174,1005.199 419.61605,994.07246 428.92141,1002.1056 C 433.82413,1006.3381 434.68881,1022.3402 436.89044,1034.3196 C 440.16062,1052.1131 467.02605,1055.0428 474.89499,1068.1115 C 479.64543,1076.001 502.94839,1043.2748 487.19504,1040.2258 C 473.19005,1037.5153 471.99243,1015.2775 474.88476,1015.2412"
       id="path4115"
       sodipodi:nodetypes="cssssssssssc" />
  </g>
</svg>
