<?xml version="1.0" encoding="UTF-8" standalone="no"?>
<!-- Created with Inkscape (http://www.inkscape.org/) -->
<svg
   xmlns:dc="http://purl.org/dc/elements/1.1/"
   xmlns:cc="http://creativecommons.org/ns#"
   xmlns:rdf="http://www.w3.org/1999/02/22-rdf-syntax-ns#"
   xmlns:svg="http://www.w3.org/2000/svg"
   xmlns="http://www.w3.org/2000/svg"
   xmlns:xlink="http://www.w3.org/1999/xlink"
   xmlns:sodipodi="http://sodipodi.sourceforge.net/DTD/sodipodi-0.dtd"
   xmlns:inkscape="http://www.inkscape.org/namespaces/inkscape"
   width="502.00003"
   height="601.99994"
   id="svg3194"
   sodipodi:version="0.32"
   inkscape:version="0.46"
   version="1.0"
   sodipodi:docbase="D:\Mis documentos\Mis imágenes\Banderas y Escudos\SVG"
   sodipodi:docname="Escudo_de_Beinza-Labayen.svg"
   inkscape:output_extension="org.inkscape.output.svg.inkscape">
  <defs
     id="defs3196">
    <inkscape:perspective
       sodipodi:type="inkscape:persp3d"
       inkscape:vp_x="0 : 325 : 1"
       inkscape:vp_y="0 : 1000 : 0"
       inkscape:vp_z="550 : 325 : 1"
       inkscape:persp3d-origin="275 : 216.66667 : 1"
       id="perspective207" />
    <linearGradient
       id="linearGradient4476">
      <stop
         style="stop-color:#403800;stop-opacity:1;"
         offset="0"
         id="stop4478" />
      <stop
         id="stop3321"
         offset="0.5"
         style="stop-color:#c8af00;stop-opacity:1;" />
      <stop
         style="stop-color:#403900;stop-opacity:1;"
         offset="1"
         id="stop4480" />
    </linearGradient>
    <clipPath
       id="id39">
      <path
         d="M 14684500,13624900 C 14684500,13624900 14440720,14050650 14009580,14218200 C 13578450,14385830 13448790,14437740 12880410,14310160 C 12312110,14182620 12296220,14073300 12079230,14058780 C 11862280,14044290 11832040,14013830 11832040,14013830 L 11838070,13976660 C 12328090,13650420 12854820,13458600 13444350,13353540 C 13834380,13284010 14126160,13534440 14489650,13581370 C 14600110,13595630 14684500,13624900 14684500,13624900 z"
         id="path19701" />
    </clipPath>
    <clipPath
       id="id38">
      <path
         d="M 14684500,13624900 C 14684500,13624900 14440720,14050650 14009580,14218200 C 13578450,14385830 13448790,14437740 12880410,14310160 C 12312110,14182620 12296220,14073300 12079230,14058780 C 11862280,14044290 11832040,14013830 11832040,14013830 L 11838070,13976660 C 12328090,13650420 12854820,13458600 13444350,13353540 C 13834380,13284010 14126160,13534440 14489650,13581370 C 14600110,13595630 14684500,13624900 14684500,13624900 z"
         id="path19698" />
    </clipPath>
    <clipPath
       id="id37">
      <path
         d="M 14450300,12388500 C 14777910,12129250 15496290,12313860 15884390,12180350 C 16009310,12137370 16190630,12078500 16190630,12078500 C 16190630,12078500 16156820,12468470 15828080,12812580 C 15499350,13156730 15153600,13414340 14723540,13482840 C 14293530,13551290 14137590,13458470 13893930,13458990 C 13650320,13459510 13127480,13474290 13127480,13474290 C 13144150,13345330 13482450,13186080 13567310,13087330 C 13811740,12802780 14155940,12621440 14450300,12388500 z"
         id="path19695" />
    </clipPath>
    <clipPath
       id="id36">
      <path
         d="M 14450300,12388500 C 14777910,12129250 15496290,12313860 15884390,12180350 C 16009310,12137370 16190630,12078500 16190630,12078500 C 16190630,12078500 16156820,12468470 15828080,12812580 C 15499350,13156730 15153600,13414340 14723540,13482840 C 14293530,13551290 14137590,13458470 13893930,13458990 C 13650320,13459510 13127480,13474290 13127480,13474290 C 13144150,13345330 13482450,13186080 13567310,13087330 C 13811740,12802780 14155940,12621440 14450300,12388500 z"
         id="path19692" />
    </clipPath>
    <clipPath
       id="id35">
      <path
         d="M 13692900,11728500 C 13692900,11728500 13262030,11754150 12961940,12027490 C 12661940,12300740 12570400,12382340 12449910,12878270 C 12329290,13374200 12409330,13429240 12336400,13605210 C 12263340,13781180 12303490,14017820 12303490,14017820 L 12492950,13824450 L 12673490,13615910 C 12673490,13615910 13309290,12963220 13424310,12807880 C 13630960,12528660 13546910,12202080 13651370,11898400 C 13683120,11806100 13692900,11728500 13692900,11728500 z"
         id="path19689" />
    </clipPath>
    <clipPath
       id="id34">
      <path
         d="M 13692900,11728500 C 13692900,11728500 13262030,11754150 12961940,12027490 C 12661940,12300740 12570400,12382340 12449910,12878270 C 12329290,13374200 12409330,13429240 12336400,13605210 C 12263340,13781180 12303490,14017820 12303490,14017820 L 12492950,13824450 L 12673490,13615910 C 12673490,13615910 13309290,12963220 13424310,12807880 C 13630960,12528660 13546910,12202080 13651370,11898400 C 13683120,11806100 13692900,11728500 13692900,11728500 z"
         id="path19686" />
    </clipPath>
    <clipPath
       id="id33">
      <path
         d="M 11216900,2958840 C 11216900,2958840 11343980,2922570 11470720,2751590 C 11597370,2580690 11761590,2407690 11989340,2333050 C 12217190,2258330 12359520,2228420 12624060,2249950 C 12888740,2271600 13084060,2246040 13084060,2246040 C 13084060,2246040 13025130,2293050 12895460,2489590 C 12765750,2686230 12500860,2897690 12228470,2989350 C 11955960,3081180 11770760,3066050 11585440,3050970 C 11400280,3035930 11216900,2958840 11216900,2958840 z"
         id="path19683" />
    </clipPath>
    <clipPath
       id="id32">
      <path
         d="M 11216900,2958840 C 11216900,2958840 11343980,2922570 11470720,2751590 C 11597370,2580690 11761590,2407690 11989340,2333050 C 12217190,2258330 12359520,2228420 12624060,2249950 C 12888740,2271600 13084060,2246040 13084060,2246040 C 13084060,2246040 13025130,2293050 12895460,2489590 C 12765750,2686230 12500860,2897690 12228470,2989350 C 11955960,3081180 11770760,3066050 11585440,3050970 C 11400280,3035930 11216900,2958840 11216900,2958840 z"
         id="path19680" />
    </clipPath>
    <clipPath
       id="id31">
      <path
         d="M 10942800,1832570 C 10942800,1832570 11069800,1869180 11268180,1791660 C 11466510,1713970 11697890,1654540 11930600,1711950 C 12163220,1769490 12299740,1819680 12512420,1978200 C 12725140,2136760 12904130,2218660 12904130,2218660 C 12904130,2218660 12829220,2227260 12614640,2325020 C 12400070,2422860 12062930,2461490 11783310,2394760 C 11503690,2328020 11354850,2216990 11205970,2106080 C 11057000,1995130 10942800,1832570 10942800,1832570 z"
         id="path19677" />
    </clipPath>
    <clipPath
       id="id30">
      <path
         d="M 10942800,1832570 C 10942800,1832570 11069800,1869180 11268180,1791660 C 11466510,1713970 11697890,1654540 11930600,1711950 C 12163220,1769490 12299740,1819680 12512420,1978200 C 12725140,2136760 12904130,2218660 12904130,2218660 C 12904130,2218660 12829220,2227260 12614640,2325020 C 12400070,2422860 12062930,2461490 11783310,2394760 C 11503690,2328020 11354850,2216990 11205970,2106080 C 11057000,1995130 10942800,1832570 10942800,1832570 z"
         id="path19674" />
    </clipPath>
    <clipPath
       id="id29">
      <path
         d="M 16131400,10733900 C 16493300,10524930 17177130,10811850 17580570,10736090 C 17710360,10711680 17898400,10679760 17898400,10679760 C 17898400,10679760 17808020,11060650 17432590,11353410 C 17057160,11646220 16677510,11850890 16242070,11856220 C 15806670,11861540 15665890,11747070 15424780,11712220 C 15183670,11677330 14841280,11936100 14841280,11936100 C 14876600,11810920 15057490,11382460 15155800,11297120 C 15439210,11051070 15806200,10921640 16131400,10733900 z"
         id="path19671" />
    </clipPath>
    <clipPath
       id="id28">
      <path
         d="M 16131400,10733900 C 16493300,10524930 17177130,10811850 17580570,10736090 C 17710360,10711680 17898400,10679760 17898400,10679760 C 17898400,10679760 17808020,11060650 17432590,11353410 C 17057160,11646220 16677510,11850890 16242070,11856220 C 15806670,11861540 15665890,11747070 15424780,11712220 C 15183670,11677330 14841280,11936100 14841280,11936100 C 14876600,11810920 15057490,11382460 15155800,11297120 C 15439210,11051070 15806200,10921640 16131400,10733900 z"
         id="path19668" />
    </clipPath>
    <clipPath
       id="id27">
      <path
         d="M 17887700,5978240 C 17887700,5978240 17888990,6904050 17620740,7339640 C 17352490,7775200 16983390,8024940 16713930,8236960 C 16444560,8448980 16244120,8612140 16244120,8612140 C 16244120,8612140 16218270,8082830 16362410,7610700 C 16506600,7138580 16710270,6943840 16986750,6740500 C 17263230,6537200 17467730,6334510 17588950,6243110 C 17710130,6151750 17887700,5978240 17887700,5978240 z"
         id="path19665" />
    </clipPath>
    <clipPath
       id="id26">
      <path
         d="M 17887700,5978240 C 17887700,5978240 17888990,6904050 17620740,7339640 C 17352490,7775200 16983390,8024940 16713930,8236960 C 16444560,8448980 16244120,8612140 16244120,8612140 C 16244120,8612140 16218270,8082830 16362410,7610700 C 16506600,7138580 16710270,6943840 16986750,6740500 C 17263230,6537200 17467730,6334510 17588950,6243110 C 17710130,6151750 17887700,5978240 17887700,5978240 z"
         id="path19662" />
    </clipPath>
    <clipPath
       id="id25">
      <path
         d="M 16911800,4552070 C 17345390,5195780 17459330,5991940 16999470,6647940 C 16741120,7016330 16428070,7174810 16365090,7270590 C 16302070,7366330 16252780,7413080 16252780,7413080 C 16252780,7413080 16069270,6920800 16119500,6571450 C 16169690,6222050 16299440,5856280 16466840,5457210 C 16634290,5058180 16733030,4904090 16787780,4768690 C 16842570,4633240 16911800,4552070 16911800,4552070 z"
         id="path19659" />
    </clipPath>
    <clipPath
       id="id24">
      <path
         d="M 16911800,4552070 C 17345390,5195780 17459330,5991940 16999470,6647940 C 16741120,7016330 16428070,7174810 16365090,7270590 C 16302070,7366330 16252780,7413080 16252780,7413080 C 16252780,7413080 16069270,6920800 16119500,6571450 C 16169690,6222050 16299440,5856280 16466840,5457210 C 16634290,5058180 16733030,4904090 16787780,4768690 C 16842570,4633240 16911800,4552070 16911800,4552070 z"
         id="path19656" />
    </clipPath>
    <clipPath
       id="id23">
      <path
         d="M 13618500,13165000 C 13618500,13165000 13805810,12765500 13672690,12491780 C 13539580,12218050 13341760,12063480 13349470,11467820 C 13357180,10870650 13447350,10464360 13763330,9899680 C 13842900,10347570 14249000,10667060 14353770,11133760 C 14426910,11459480 14354710,11848070 14303060,12103190 C 14251450,12358270 14197480,12646940 14197480,12646940 L 14020120,12926900 L 13761260,13161740 L 13618500,13165000 z"
         id="path19653" />
    </clipPath>
    <clipPath
       id="id22">
      <path
         d="M 13618500,13165000 C 13618500,13165000 13805810,12765500 13672690,12491780 C 13539580,12218050 13341760,12063480 13349470,11467820 C 13357180,10870650 13447350,10464360 13763330,9899680 C 13842900,10347570 14249000,10667060 14353770,11133760 C 14426910,11459480 14354710,11848070 14303060,12103190 C 14251450,12358270 14197480,12646940 14197480,12646940 L 14020120,12926900 L 13761260,13161740 L 13618500,13165000 z"
         id="path19650" />
    </clipPath>
    <clipPath
       id="id21">
      <path
         d="M 14636800,8617900 C 14636800,8617900 14385650,9019550 14363250,9378490 C 14340890,9737470 14358680,10016090 14444370,10272150 C 14638910,10853640 14843450,11133980 14920430,11806220 L 15473780,10842030 C 15577120,10440810 15364140,9664670 15147630,9293150 C 14931200,8921620 14636800,8617900 14636800,8617900 z"
         id="path19647" />
    </clipPath>
    <clipPath
       id="id20">
      <path
         d="M 14636800,8617900 C 14636800,8617900 14385650,9019550 14363250,9378490 C 14340890,9737470 14358680,10016090 14444370,10272150 C 14638910,10853640 14843450,11133980 14920430,11806220 L 15473780,10842030 C 15577120,10440810 15364140,9664670 15147630,9293150 C 14931200,8921620 14636800,8617900 14636800,8617900 z"
         id="path19644" />
    </clipPath>
    <clipPath
       id="id19">
      <path
         d="M 16890700,8377910 C 17051130,8942290 17125050,9845500 16795330,10364410 C 16616980,10645140 16241680,11040220 16241680,11040220 L 15958610,11235260 L 15003810,11419950 C 15003810,11419950 15606050,10073760 15963870,9583720 C 16246550,9196630 16555640,8723440 16890700,8377910 z"
         id="path19641" />
    </clipPath>
    <clipPath
       id="id18">
      <path
         d="M 16890700,8377910 C 17051130,8942290 17125050,9845500 16795330,10364410 C 16616980,10645140 16241680,11040220 16241680,11040220 L 15958610,11235260 L 15003810,11419950 C 15003810,11419950 15606050,10073760 15963870,9583720 C 16246550,9196630 16555640,8723440 16890700,8377910 z"
         id="path19638" />
    </clipPath>
    <clipPath
       id="id17">
      <path
         d="M 14817100,7359190 C 14817100,7359190 14642160,7744560 14622560,8108780 C 14602910,8472960 14617520,8681280 14798320,8973570 C 14979160,9265900 15078200,9394690 15304230,9636270 C 15530230,9877810 15634050,10047200 15634050,10047200 C 15634050,10047200 15922410,9912400 15899710,9442510 C 15877050,8972580 15772410,8747930 15509160,8323420 C 15245990,7899000 15032280,7786500 14933280,7657670 C 14834250,7528890 14817100,7359190 14817100,7359190 z"
         id="path19635" />
    </clipPath>
    <clipPath
       id="id16">
      <path
         d="M 14817100,7359190 C 14817100,7359190 14642160,7744560 14622560,8108780 C 14602910,8472960 14617520,8681280 14798320,8973570 C 14979160,9265900 15078200,9394690 15304230,9636270 C 15530230,9877810 15634050,10047200 15634050,10047200 C 15634050,10047200 15922410,9912400 15899710,9442510 C 15877050,8972580 15772410,8747930 15509160,8323420 C 15245990,7899000 15032280,7786500 14933280,7657670 C 14834250,7528890 14817100,7359190 14817100,7359190 z"
         id="path19632" />
    </clipPath>
    <clipPath
       id="id15">
      <path
         d="M 14778300,5948840 C 14778300,5948840 14744050,6582620 14863040,6978300 C 14982060,7373980 15020010,7603400 15258890,7816880 C 15497670,8030360 15592570,8094900 15840580,8240620 C 16088580,8386290 16176460,8311900 16311900,8459600 C 16447340,8607330 16408400,8576220 16408400,8576220 C 16408400,8576220 16456260,8159920 16268950,7694580 C 16081650,7229290 16018230,6996390 15541050,6629930 C 15063870,6263480 14778300,5948840 14778300,5948840 z"
         id="path19629" />
    </clipPath>
    <clipPath
       id="id14">
      <path
         d="M 14778300,5948840 C 14778300,5948840 14744050,6582620 14863040,6978300 C 14982060,7373980 15020010,7603400 15258890,7816880 C 15497670,8030360 15592570,8094900 15840580,8240620 C 16088580,8386290 16176460,8311900 16311900,8459600 C 16447340,8607330 16408400,8576220 16408400,8576220 C 16408400,8576220 16456260,8159920 16268950,7694580 C 16081650,7229290 16018230,6996390 15541050,6629930 C 15063870,6263480 14778300,5948840 14778300,5948840 z"
         id="path19626" />
    </clipPath>
    <clipPath
       id="id13">
      <path
         d="M 15415100,2266750 C 15415100,2266750 15072500,3067250 15040750,3598120 C 15009000,4128940 15121780,4606430 15384170,5019470 C 15646520,5432590 15990630,5524080 16064380,5797370 C 16138090,6070620 16184830,6344820 16184830,6344820 C 16184830,6344820 16436200,5568890 16450110,4989950 C 16464070,4411040 16475700,4097140 16285080,3557340 C 16094500,3017540 15910080,2839770 15741730,2656110 C 15573330,2472360 15415100,2266750 15415100,2266750 z"
         id="path19623" />
    </clipPath>
    <clipPath
       id="id12">
      <path
         d="M 15415100,2266750 C 15415100,2266750 15072500,3067250 15040750,3598120 C 15009000,4128940 15121780,4606430 15384170,5019470 C 15646520,5432590 15990630,5524080 16064380,5797370 C 16138090,6070620 16184830,6344820 16184830,6344820 C 16184830,6344820 16436200,5568890 16450110,4989950 C 16464070,4411040 16475700,4097140 16285080,3557340 C 16094500,3017540 15910080,2839770 15741730,2656110 C 15573330,2472360 15415100,2266750 15415100,2266750 z"
         id="path19620" />
    </clipPath>
    <clipPath
       id="id11">
      <path
         d="M 12394500,3395680 C 12394500,3395680 12811850,3944420 13034430,4022580 C 13256980,4100790 13528460,4187810 13791840,4105950 C 14055180,4024090 14274840,3982840 14458190,3975320 C 14641440,3967880 14933340,4076680 14933340,4076680 C 14933340,4076680 14623180,3565160 14279880,3435210 C 13444760,3119120 13136060,3552010 12394500,3395680 z"
         id="path19617" />
    </clipPath>
    <clipPath
       id="id10">
      <path
         d="M 12394500,3395680 C 12394500,3395680 12811850,3944420 13034430,4022580 C 13256980,4100790 13528460,4187810 13791840,4105950 C 14055180,4024090 14274840,3982840 14458190,3975320 C 14641440,3967880 14933340,4076680 14933340,4076680 C 14933340,4076680 14623180,3565160 14279880,3435210 C 13444760,3119120 13136060,3552010 12394500,3395680 z"
         id="path19614" />
    </clipPath>
    <clipPath
       id="id9">
      <path
         d="M 13855800,1063560 C 13855800,1063560 14144730,1236390 14395840,1520260 C 14646900,1804080 15009320,2125850 14902180,2599900 C 14794960,3074000 14653620,3080320 14614760,3339730 C 14575910,3599150 14626830,3770220 14626830,3770220 C 14626830,3770220 14383000,3523520 14206080,3269900 C 14029190,3016290 13814960,2784680 13855160,2317540 C 13895350,1850360 13925940,1717060 13919990,1487000 C 13914050,1256930 13855800,1063560 13855800,1063560 z"
         id="path19611" />
    </clipPath>
    <clipPath
       id="id8">
      <path
         d="M 13855800,1063560 C 13855800,1063560 14144730,1236390 14395840,1520260 C 14646900,1804080 15009320,2125850 14902180,2599900 C 14794960,3074000 14653620,3080320 14614760,3339730 C 14575910,3599150 14626830,3770220 14626830,3770220 C 14626830,3770220 14383000,3523520 14206080,3269900 C 14029190,3016290 13814960,2784680 13855160,2317540 C 13895350,1850360 13925940,1717060 13919990,1487000 C 13914050,1256930 13855800,1063560 13855800,1063560 z"
         id="path19608" />
    </clipPath>
    <clipPath
       id="id7">
      <path
         d="M 12245000,694180 C 12245000,694180 12263490,790010 12381440,894380 C 12499470,998800 12616520,1131070 12656750,1303380 C 12696940,1475740 12709610,1582390 12676310,1775590 C 12642970,1968740 12649000,2114030 12649000,2114030 C 12649000,2114030 12618150,2067620 12481420,1959330 C 12344650,1851050 12205760,1642340 12155920,1435950 C 12106030,1229640 12129340,1094410 12152690,959180 C 12176040,823950 12245000,694180 12245000,694180 z"
         id="path19605" />
    </clipPath>
    <clipPath
       id="id6">
      <path
         d="M 12245000,694180 C 12245000,694180 12263490,790010 12381440,894380 C 12499470,998800 12616520,1131070 12656750,1303380 C 12696940,1475740 12709610,1582390 12676310,1775590 C 12642970,1968740 12649000,2114030 12649000,2114030 C 12649000,2114030 12618150,2067620 12481420,1959330 C 12344650,1851050 12205760,1642340 12155920,1435950 C 12106030,1229640 12129340,1094410 12152690,959180 C 12176040,823950 12245000,694180 12245000,694180 z"
         id="path19602" />
    </clipPath>
    <clipPath
       id="id5">
      <path
         d="M 13581500,896020 C 13581500,896020 13507750,1005420 13521230,1217530 C 13534760,1429720 13520850,1667650 13394930,1871110 C 13269010,2074540 13179400,2188840 12963110,2342420 C 12746770,2496000 12613910,2641020 12613910,2641020 C 12613910,2641020 12628560,2567290 12600770,2333610 C 12572990,2099930 12639030,1767900 12788160,1522660 C 12937260,1277430 13088640,1169960 13240060,1062440 C 13391520,954890 13581500,896020 13581500,896020 z"
         id="path19599" />
    </clipPath>
    <clipPath
       id="id4">
      <path
         d="M 13581500,896020 C 13581500,896020 13507750,1005420 13521230,1217530 C 13534760,1429720 13520850,1667650 13394930,1871110 C 13269010,2074540 13179400,2188840 12963110,2342420 C 12746770,2496000 12613910,2641020 12613910,2641020 C 12613910,2641020 12628560,2567290 12600770,2333610 C 12572990,2099930 12639030,1767900 12788160,1522660 C 12937260,1277430 13088640,1169960 13240060,1062440 C 13391520,954890 13581500,896020 13581500,896020 z"
         id="path19596" />
    </clipPath>
    <clipPath
       id="id3">
      <path
         d="M 17905000,7712850 C 18073520,8364410 17965740,9360050 17380990,9792250 C 17019130,10059750 16677260,10107020 16376780,10183810 C 16076350,10260640 15880690,10357280 15880690,10357280 C 15880690,10357280 15826240,10281910 15860480,10024640 C 15894730,9767370 16336720,9229590 16750100,8823770 C 17163530,8417910 17586690,8075310 17705930,7942530 C 17825130,7809750 17905000,7712850 17905000,7712850 z"
         id="path19593" />
    </clipPath>
    <clipPath
       id="id2">
      <path
         d="M 17905000,7712850 C 18073520,8364410 17965740,9360050 17380990,9792250 C 17019130,10059750 16677260,10107020 16376780,10183810 C 16076350,10260640 15880690,10357280 15880690,10357280 C 15880690,10357280 15826240,10281910 15860480,10024640 C 15894730,9767370 16336720,9229590 16750100,8823770 C 17163530,8417910 17586690,8075310 17705930,7942530 C 17825130,7809750 17905000,7712850 17905000,7712850 z"
         id="path19590" />
    </clipPath>
    <clipPath
       id="id1">
      <path
         d="M 14186300,5152250 C 14186300,5152250 14378820,5683670 14655820,5960100 C 14932770,6236530 15134550,6393980 15317940,6457620 C 15501320,6521220 15561370,6529000 15786290,6564360 C 16011200,6599730 16324300,6799880 16324300,6799880 C 16324300,6799880 16231080,6355950 16039160,6146210 C 15847240,5936430 15696860,5756210 15255950,5542640 C 14815080,5329070 14716770,5332170 14507150,5292460 C 14297530,5252800 14186300,5152250 14186300,5152250 z"
         id="path19587" />
    </clipPath>
    <clipPath
       id="id0">
      <path
         d="M 14186300,5152250 C 14186300,5152250 14378820,5683670 14655820,5960100 C 14932770,6236530 15134550,6393980 15317940,6457620 C 15501320,6521220 15561370,6529000 15786290,6564360 C 16011200,6599730 16324300,6799880 16324300,6799880 C 16324300,6799880 16231080,6355950 16039160,6146210 C 15847240,5936430 15696860,5756210 15255950,5542640 C 14815080,5329070 14716770,5332170 14507150,5292460 C 14297530,5252800 14186300,5152250 14186300,5152250 z"
         id="path19584" />
    </clipPath>
    <linearGradient
       id="linearGradient8135">
      <stop
         style="stop-color:#5d070b;stop-opacity:1;"
         offset="0"
         id="stop8137" />
      <stop
         id="stop8139"
         offset="0.5"
         style="stop-color:#ed1c24;stop-opacity:1;" />
      <stop
         style="stop-color:#5d070a;stop-opacity:1;"
         offset="1"
         id="stop8141" />
    </linearGradient>
    <linearGradient
       inkscape:collect="always"
       xlink:href="#linearGradient8135"
       id="linearGradient2401"
       gradientUnits="userSpaceOnUse"
       gradientTransform="matrix(1.1773172,0,0,1.1773172,657.8819,-479.55183)"
       x1="-418.38882"
       y1="700.10571"
       x2="-136.18279"
       y2="700.10571" />
  </defs>
  <sodipodi:namedview
     id="base"
     pagecolor="#ffffff"
     bordercolor="#666666"
     borderopacity="1.0"
     gridtolerance="10000"
     guidetolerance="10"
     objecttolerance="10"
     inkscape:pageopacity="0.0"
     inkscape:pageshadow="2"
     inkscape:zoom="0.63646855"
     inkscape:cx="275"
     inkscape:cy="576.38713"
     inkscape:document-units="px"
     inkscape:current-layer="layer6"
     inkscape:window-width="1280"
     inkscape:window-height="785"
     inkscape:window-x="0"
     inkscape:window-y="0"
     showguides="true"
     showgrid="false"
     inkscape:guide-bbox="true"
     height="650px"
     width="550px"
     inkscape:showpageshadow="false" />
  <metadata
     id="metadata3199">
    <rdf:RDF>
      <cc:Work
         rdf:about="">
        <dc:format>image/svg+xml</dc:format>
        <dc:type
           rdf:resource="http://purl.org/dc/dcmitype/StillImage" />
      </cc:Work>
    </rdf:RDF>
  </metadata>
  <g
     inkscape:groupmode="layer"
     id="layer3"
     inkscape:label="Timbre"
     transform="translate(-103.42872,-342.21937)"
     style="display:inline" />
  <g
     inkscape:label="Escudo"
     inkscape:groupmode="layer"
     id="layer1"
     transform="translate(-103.42872,-342.21937)"
     style="display:inline" />
  <g
     inkscape:groupmode="layer"
     id="layer4"
     inkscape:label="Piezas"
     style="display:inline"
     transform="translate(-47,-418.85972)" />
  <g
     inkscape:groupmode="layer"
     id="layer5"
     inkscape:label="Muebles"
     style="display:inline"
     transform="translate(-47,-418.85972)" />
  <g
     inkscape:groupmode="layer"
     id="layer2"
     inkscape:label="Ornamento"
     transform="translate(-47,-418.85972)" />
  <g
     inkscape:groupmode="layer"
     id="layer6"
     inkscape:label="Borde 3px"
     style="display:inline"
     transform="translate(-47,-418.85972)">
    <path
       id="path4560"
       d="M 61.47975,354.71938 C 61.68403,475.46411 61.06863,596.22221 61.79198,716.95848 C 65.63886,825.31505 148.57929,924.28463 254.49184,947.16813 C 352.47467,971.03808 462.16414,928.14103 517.46923,843.54691 C 550.59132,796.23618 562.78933,737.68676 560.05817,680.69446 C 560.05817,572.0361 560.05817,463.37774 560.05817,354.71938 C 393.8654,354.71938 227.67262,354.71938 61.47975,354.71938 z"
       style="fill:none;fill-opacity:1;fill-rule:evenodd;stroke:none;stroke-width:1;stroke-linecap:butt;stroke-linejoin:miter;marker:none;marker-start:none;marker-mid:none;marker-end:none;stroke-miterlimit:4;stroke-dasharray:none;stroke-dashoffset:0;stroke-opacity:1;visibility:visible;display:inline;overflow:visible;enable-background:accumulate" />
    <path
       id="path4172"
       d="M 548.51111,420.60787 C 548.30683,541.35259 548.92223,662.11069 548.19888,782.84696 C 544.352,891.20353 461.41157,990.1731 355.49902,1013.0567 C 257.51619,1036.9266 147.82671,994.0295 92.521603,909.43539 C 59.399503,862.12466 47.201503,803.57524 49.932703,746.58294 C 49.932703,637.92458 49.932703,529.26622 49.932703,420.60787 C 216.12551,420.60787 382.31824,420.60787 548.51111,420.60787 z"
       style="fill:#e3e4e5;fill-opacity:1;fill-rule:evenodd;stroke:none;stroke-width:3;stroke-linecap:butt;stroke-linejoin:miter;marker:none;marker-start:none;marker-mid:none;marker-end:none;stroke-miterlimit:4;stroke-dasharray:none;stroke-dashoffset:0;stroke-opacity:1;visibility:visible;display:inline;overflow:visible;enable-background:accumulate" />
    <path
       style="fill:#ed1c24;fill-opacity:1;fill-rule:evenodd;stroke:#000000;stroke-width:1;stroke-linecap:butt;stroke-linejoin:miter;marker:none;marker-start:none;marker-mid:none;marker-end:none;stroke-miterlimit:4;stroke-dasharray:none;stroke-dashoffset:0;stroke-opacity:1;visibility:visible;display:inline;overflow:visible;enable-background:accumulate"
       d="M 49.000075,420.64096 L 49.000075,784.14096 C 53.450225,891.99718 136.12878,990.2849 241.62508,1013.0786 C 260.19075,1017.6014 279.19967,1019.7418 298.15633,1019.6411 L 298.15633,420.64096 C 215.10681,420.64096 132.04964,420.64096 49.000075,420.64096 z"
       id="path62053" />
    <path
       id="path4511"
       d="M 547.44868,420.35972 C 547.2444,541.10443 547.8598,661.86253 547.13645,782.5988 C 543.28957,890.95537 460.34914,989.9249 354.43659,1012.8084 C 256.45376,1036.6784 146.76428,993.7813 91.459175,909.18723 C 58.337075,861.8765 46.139075,803.32708 48.870275,746.33478 C 48.870275,637.67642 48.870275,529.01806 48.870275,420.35972 C 215.06308,420.35972 381.25581,420.35972 547.44868,420.35972 z"
       style="fill:none;fill-opacity:1;fill-rule:evenodd;stroke:#000000;stroke-width:3;stroke-linecap:butt;stroke-linejoin:miter;marker:none;marker-start:none;marker-mid:none;marker-end:none;stroke-miterlimit:4;stroke-dasharray:none;stroke-dashoffset:0;stroke-opacity:1;visibility:visible;display:inline;overflow:visible;enable-background:accumulate" />
    <g
       style="fill:#eac102;fill-opacity:1;stroke:#000000;stroke-opacity:1;display:inline"
       id="g10135"
       transform="matrix(0.5968025,0,0,0.5968025,-5.5570687,611.39053)" />
    <g
       id="g3811"
       transform="translate(18.636339,-16.1403)"
       style="stroke:#000000;stroke-width:1;stroke-miterlimit:4;stroke-dasharray:none;stroke-opacity:1">
      <g
         id="g10078"
         transform="matrix(0.3313765,0.1703361,-0.1772074,0.3185272,-204.04798,650.12345)"
         style="fill:#eac102;fill-opacity:1;stroke:#000000;stroke-width:2.7142539;stroke-miterlimit:4;stroke-dasharray:none;stroke-opacity:1;display:inline">
        <path
           d="M 841.4589,-122.98088 L 838.22494,-116.62548 L 814.94121,-128.47583 L 805.61924,-111.54221 L 815.91418,-106.04196 L 812.10835,-99.130576 L 802.08611,-104.49712 L 787.69677,-76.547117 L 808.5858,-64.130186 L 814.65262,-75.702554 L 820.15288,-72.03572 L 813.94705,-61.585907 L 831.15338,-52.413528 L 845.27003,-79.79167 L 834.68651,-85.580501 L 836.09765,-89.813907 L 848.0923,-83.880785 L 853.73684,-95.458448 L 859.53097,-92.064311 L 853.74213,-80.780523 L 863.33679,-76.547117 L 861.22538,-72.607588 L 852.6037,-75.98584 L 839.06421,-48.190711 L 858.8201,-38.168474 L 863.89807,-48.335003 L 869.40891,-45.229445 L 864.32565,-35.201913 L 878.85928,-27.023682 L 896.78176,-60.324357 L 885.0704,-65.680317 L 888.89211,-72.880284 L 899.89791,-66.957751 L 907.08728,-82.768821 L 883.08739,-95.474333 L 885.48738,-101.10299 L 841.4589,-122.98088 z"
           id="path2849"
           style="fill:#eac102;fill-opacity:1;fill-rule:evenodd;stroke:#000000;stroke-width:2.7142539;stroke-linecap:butt;stroke-linejoin:miter;stroke-miterlimit:4;stroke-dasharray:none;stroke-opacity:1" />
        <path
           d="M 804.08277,-139.50707 L 818.62996,-162.06157 C 820.02636,-183.05883 793.31115,-169.01561 778.13616,-170.78961 C 785.16342,-157.61721 785.2665,-131.52285 804.08277,-139.50707 z"
           id="path3261"
           style="fill:#eac102;fill-opacity:1;fill-rule:evenodd;stroke:#000000;stroke-width:2.7142539;stroke-linecap:butt;stroke-linejoin:miter;stroke-miterlimit:4;stroke-dasharray:none;stroke-opacity:1" />
        <path
           d="M 818.83062,-161.99059 L 804.25203,-139.1508 C 800.75922,-133.69449 808.85997,-127.33581 813.48514,-132.46895 L 828.67117,-156.03766 C 831.97298,-161.48494 821.82982,-166.66146 818.83062,-161.99059 z"
           id="path3263"
           style="fill:#eac102;fill-opacity:1;fill-rule:evenodd;stroke:#000000;stroke-width:2.7142539;stroke-linecap:butt;stroke-linejoin:miter;stroke-miterlimit:4;stroke-dasharray:none;stroke-opacity:1" />
        <path
           d="M 828.96522,-155.77138 L 1227.8365,31.820988 L 1213.403,54.359638 L 815.25351,-134.87417 L 828.96522,-155.77138 z"
           id="path3265"
           style="fill:#eac102;fill-opacity:1;fill-rule:evenodd;stroke:#000000;stroke-width:2.7142539;stroke-linecap:butt;stroke-linejoin:miter;stroke-miterlimit:4;stroke-dasharray:none;stroke-opacity:1" />
        <path
           d="M 1213.5693,54.201449 L 1227.9033,32.011255 C 1231.2605,24.904621 1235.8989,27.076857 1239.6187,28.841227 C 1230.2159,37.283542 1222.6975,51.210861 1220.3229,64.676323 C 1211.7271,63.117631 1212.8023,59.001102 1213.5693,54.201449 z"
           id="path3267"
           style="fill:#eac102;fill-opacity:1;fill-rule:evenodd;stroke:#000000;stroke-width:2.7142539;stroke-linecap:butt;stroke-linejoin:miter;stroke-miterlimit:4;stroke-dasharray:none;stroke-opacity:1" />
        <path
           d="M 1286.875,9.8125 C 1249.2543,9.8125 1218.7188,40.714686 1218.7188,78.8125 C 1218.7188,116.91031 1249.2543,147.84375 1286.875,147.84375 C 1324.4957,147.84375 1355.0312,116.91031 1355.0313,78.8125 C 1355.0313,40.714689 1324.4957,9.8124998 1286.875,9.8125 z M 1287,35.03125 C 1310.8572,35.03125 1330.2188,55.108762 1330.2188,79.875 C 1330.2188,104.64124 1310.8571,124.75 1287,124.75 C 1263.1429,124.75 1243.7813,104.64124 1243.7813,79.875 C 1243.7812,55.108764 1263.1429,35.03125 1287,35.03125 z"
           id="path3269"
           style="fill:#eac102;fill-opacity:1;fill-rule:evenodd;stroke:#000000;stroke-width:2.7142539;stroke-linecap:butt;stroke-linejoin:miter;stroke-miterlimit:4;stroke-dasharray:none;stroke-opacity:1" />
        <path
           d="M 1337.6821,4.674192 C 1337.6821,12.254053 1332.1928,18.398744 1325.4215,18.398744 C 1318.6502,18.398744 1313.1609,12.254053 1313.1609,4.674192 C 1313.1609,-2.9056686 1318.6502,-9.0503597 1325.4215,-9.0503597 C 1332.1928,-9.0503597 1337.6821,-2.9056686 1337.6821,4.674192 z"
           transform="matrix(1.3355479,0,0,1.0597562,-448.95128,-2.2922396)"
           id="path4240"
           style="fill:#eac102;fill-opacity:1;fill-rule:evenodd;stroke:#000000;stroke-width:2.2814858;stroke-linecap:butt;stroke-linejoin:miter;stroke-miterlimit:4;stroke-dasharray:none;stroke-opacity:1" />
        <path
           d="M 1337.6821,4.674192 C 1337.6821,12.254053 1332.1928,18.398744 1325.4215,18.398744 C 1318.6502,18.398744 1313.1609,12.254053 1313.1609,4.674192 C 1313.1609,-2.9056686 1318.6502,-9.0503597 1325.4215,-9.0503597 C 1332.1928,-9.0503597 1337.6821,-2.9056686 1337.6821,4.674192 z"
           transform="matrix(1.3355479,0,0,1.0597562,-405.76483,107.13784)"
           id="path5211"
           style="fill:#eac102;fill-opacity:1;fill-rule:evenodd;stroke:#000000;stroke-width:2.2814858;stroke-linecap:butt;stroke-linejoin:miter;stroke-miterlimit:4;stroke-dasharray:none;stroke-opacity:1" />
        <path
           d="M 1337.6821,4.674192 C 1337.6821,12.254053 1332.1928,18.398744 1325.4215,18.398744 C 1318.6502,18.398744 1313.1609,12.254053 1313.1609,4.674192 C 1313.1609,-2.9056686 1318.6502,-9.0503597 1325.4215,-9.0503597 C 1332.1928,-9.0503597 1337.6821,-2.9056686 1337.6821,4.674192 z"
           transform="matrix(1.3355479,0,0,1.0597562,-511.16905,152.8862)"
           id="path5213"
           style="fill:#eac102;fill-opacity:1;fill-rule:evenodd;stroke:#000000;stroke-width:2.2814858;stroke-linecap:butt;stroke-linejoin:miter;stroke-miterlimit:4;stroke-dasharray:none;stroke-opacity:1" />
        <path
           d="M 1268.5106,65.611008 C 1268.5106,71.068496 1264.6599,75.492664 1259.9099,75.492664 C 1255.1599,75.492664 1251.3092,71.068496 1251.3092,65.611008 C 1251.3092,60.15352 1255.1599,55.729352 1259.9099,55.729352 C 1264.6599,55.729352 1268.5106,60.15352 1268.5106,65.611008 z"
           transform="matrix(1.222498,0,0,1.1751371,-282.34027,-11.49092)"
           id="path5215"
           style="fill:#eac102;fill-opacity:1;fill-rule:evenodd;stroke:#000000;stroke-width:2.26455116;stroke-linecap:butt;stroke-linejoin:miter;stroke-miterlimit:4;stroke-dasharray:none;stroke-opacity:1" />
        <path
           d="M 1268.5106,65.611008 C 1268.5106,71.068496 1264.6599,75.492664 1259.9099,75.492664 C 1255.1599,75.492664 1251.3092,71.068496 1251.3092,65.611008 C 1251.3092,60.15352 1255.1599,55.729352 1259.9099,55.729352 C 1264.6599,55.729352 1268.5106,60.15352 1268.5106,65.611008 z"
           transform="matrix(1.222498,0,0,1.1751371,-236.59191,-25.764409)"
           id="path6186"
           style="fill:#eac102;fill-opacity:1;fill-rule:evenodd;stroke:#000000;stroke-width:2.26455116;stroke-linecap:butt;stroke-linejoin:miter;stroke-miterlimit:4;stroke-dasharray:none;stroke-opacity:1" />
        <path
           d="M 1268.5106,65.611008 C 1268.5106,71.068496 1264.6599,75.492664 1259.9099,75.492664 C 1255.1599,75.492664 1251.3092,71.068496 1251.3092,65.611008 C 1251.3092,60.15352 1255.1599,55.729352 1259.9099,55.729352 C 1264.6599,55.729352 1268.5106,60.15352 1268.5106,65.611008 z"
           transform="matrix(1.222498,0,0,1.1751371,-221.58645,12.298228)"
           id="path6188"
           style="fill:#eac102;fill-opacity:1;fill-rule:evenodd;stroke:#000000;stroke-width:2.26455116;stroke-linecap:butt;stroke-linejoin:miter;stroke-miterlimit:4;stroke-dasharray:none;stroke-opacity:1" />
        <path
           d="M 1268.5106,65.611008 C 1268.5106,71.068496 1264.6599,75.492664 1259.9099,75.492664 C 1255.1599,75.492664 1251.3092,71.068496 1251.3092,65.611008 C 1251.3092,60.15352 1255.1599,55.729352 1259.9099,55.729352 C 1264.6599,55.729352 1268.5106,60.15352 1268.5106,65.611008 z"
           transform="matrix(1.222498,0,0,1.1751371,-260.01507,36.087376)"
           id="path6190"
           style="fill:#eac102;fill-opacity:1;fill-rule:evenodd;stroke:#000000;stroke-width:2.26455116;stroke-linecap:butt;stroke-linejoin:miter;stroke-miterlimit:4;stroke-dasharray:none;stroke-opacity:1" />
        <path
           d="M 1287,58.21875 C 1275.1378,58.21875 1265.5,68.171248 1265.5,80.4375 C 1265.5,92.703751 1275.1378,102.65625 1287,102.65625 C 1298.8622,102.65625 1308.4688,92.70375 1308.4688,80.4375 C 1308.4688,68.171249 1298.8622,58.218749 1287,58.21875 z M 1287.5313,65.90625 C 1294.8504,65.906253 1300.8125,72.411313 1300.8125,80.4375 C 1300.8125,88.463684 1294.8504,94.96875 1287.5313,94.96875 C 1280.2122,94.968748 1274.2813,88.463687 1274.2813,80.4375 C 1274.2813,72.41131 1280.2121,65.90625 1287.5313,65.90625 z"
           id="path7164"
           style="fill:#eac102;fill-opacity:1;fill-rule:evenodd;stroke:#000000;stroke-width:2.7142539;stroke-linecap:butt;stroke-linejoin:miter;stroke-miterlimit:4;stroke-dasharray:none;stroke-opacity:1" />
      </g>
      <g
         transform="matrix(-0.5968025,0,0,0.5968025,315.4408,611.39053)"
         id="g10153"
         style="fill:#eac102;fill-opacity:1;stroke:#000000;stroke-width:1.67559624;stroke-miterlimit:4;stroke-dasharray:none;stroke-opacity:1;display:inline">
        <g
           id="g10155"
           transform="matrix(0.5552532,0.2854145,-0.2969281,0.5337229,-332.59061,64.900743)"
           style="fill:#eac102;fill-opacity:1;stroke:#000000;stroke-width:2.71425414;stroke-miterlimit:4;stroke-dasharray:none;stroke-opacity:1">
          <path
             d="M 841.4589,-122.98088 L 838.22494,-116.62548 L 814.94121,-128.47583 L 805.61924,-111.54221 L 815.91418,-106.04196 L 812.10835,-99.130576 L 802.08611,-104.49712 L 787.69677,-76.547117 L 808.5858,-64.130186 L 814.65262,-75.702554 L 820.15288,-72.03572 L 813.94705,-61.585907 L 831.15338,-52.413528 L 845.27003,-79.79167 L 834.68651,-85.580501 L 836.09765,-89.813907 L 848.0923,-83.880785 L 853.73684,-95.458448 L 859.53097,-92.064311 L 853.74213,-80.780523 L 863.33679,-76.547117 L 861.22538,-72.607588 L 852.6037,-75.98584 L 839.06421,-48.190711 L 858.8201,-38.168474 L 863.89807,-48.335003 L 869.40891,-45.229445 L 864.32565,-35.201913 L 878.85928,-27.023682 L 896.78176,-60.324357 L 885.0704,-65.680317 L 888.89211,-72.880284 L 899.89791,-66.957751 L 907.08728,-82.768821 L 883.08739,-95.474333 L 885.48738,-101.10299 L 841.4589,-122.98088 z"
             id="path10157"
             style="fill:#eac102;fill-opacity:1;fill-rule:evenodd;stroke:#000000;stroke-width:2.71425414;stroke-linecap:butt;stroke-linejoin:miter;stroke-miterlimit:4;stroke-dasharray:none;stroke-opacity:1" />
          <path
             d="M 804.08277,-139.50707 L 818.62996,-162.06157 C 820.02636,-183.05883 793.31115,-169.01561 778.13616,-170.78961 C 785.16342,-157.61721 785.2665,-131.52285 804.08277,-139.50707 z"
             id="path10159"
             style="fill:#eac102;fill-opacity:1;fill-rule:evenodd;stroke:#000000;stroke-width:2.71425414;stroke-linecap:butt;stroke-linejoin:miter;stroke-miterlimit:4;stroke-dasharray:none;stroke-opacity:1" />
          <path
             d="M 818.83062,-161.99059 L 804.25203,-139.1508 C 800.75922,-133.69449 808.85997,-127.33581 813.48514,-132.46895 L 828.67117,-156.03766 C 831.97298,-161.48494 821.82982,-166.66146 818.83062,-161.99059 z"
             id="path10161"
             style="fill:#eac102;fill-opacity:1;fill-rule:evenodd;stroke:#000000;stroke-width:2.71425414;stroke-linecap:butt;stroke-linejoin:miter;stroke-miterlimit:4;stroke-dasharray:none;stroke-opacity:1" />
          <path
             d="M 828.96522,-155.77138 L 1227.8365,31.820988 L 1213.403,54.359638 L 815.25351,-134.87417 L 828.96522,-155.77138 z"
             id="path10163"
             style="fill:#eac102;fill-opacity:1;fill-rule:evenodd;stroke:#000000;stroke-width:2.71425414;stroke-linecap:butt;stroke-linejoin:miter;stroke-miterlimit:4;stroke-dasharray:none;stroke-opacity:1" />
          <path
             d="M 1213.5693,54.201449 L 1227.9033,32.011255 C 1231.2605,24.904621 1235.8989,27.076857 1239.6187,28.841227 C 1230.2159,37.283542 1222.6975,51.210861 1220.3229,64.676323 C 1211.7271,63.117631 1212.8023,59.001102 1213.5693,54.201449 z"
             id="path10165"
             style="fill:#eac102;fill-opacity:1;fill-rule:evenodd;stroke:#000000;stroke-width:2.71425414;stroke-linecap:butt;stroke-linejoin:miter;stroke-miterlimit:4;stroke-dasharray:none;stroke-opacity:1" />
          <path
             d="M 1286.875,9.8125 C 1249.2543,9.8125 1218.7188,40.714686 1218.7188,78.8125 C 1218.7188,116.91031 1249.2543,147.84375 1286.875,147.84375 C 1324.4957,147.84375 1355.0312,116.91031 1355.0313,78.8125 C 1355.0313,40.714689 1324.4957,9.8124998 1286.875,9.8125 z M 1287,35.03125 C 1310.8572,35.03125 1330.2188,55.108762 1330.2188,79.875 C 1330.2188,104.64124 1310.8571,124.75 1287,124.75 C 1263.1429,124.75 1243.7813,104.64124 1243.7813,79.875 C 1243.7812,55.108764 1263.1429,35.03125 1287,35.03125 z"
             id="path10167"
             style="fill:#eac102;fill-opacity:1;fill-rule:evenodd;stroke:#000000;stroke-width:2.71425414;stroke-linecap:butt;stroke-linejoin:miter;stroke-miterlimit:4;stroke-dasharray:none;stroke-opacity:1" />
          <path
             d="M 1337.6821,4.674192 C 1337.6821,12.254053 1332.1928,18.398744 1325.4215,18.398744 C 1318.6502,18.398744 1313.1609,12.254053 1313.1609,4.674192 C 1313.1609,-2.9056686 1318.6502,-9.0503597 1325.4215,-9.0503597 C 1332.1928,-9.0503597 1337.6821,-2.9056686 1337.6821,4.674192 z"
             id="path10169"
             style="fill:#eac102;fill-opacity:1;fill-rule:evenodd;stroke:#000000;stroke-width:2.2814858;stroke-linecap:butt;stroke-linejoin:miter;stroke-miterlimit:4;stroke-dasharray:none;stroke-opacity:1"
             transform="matrix(1.3355479,0,0,1.0597562,-448.95128,-2.2922396)" />
          <path
             d="M 1337.6821,4.674192 C 1337.6821,12.254053 1332.1928,18.398744 1325.4215,18.398744 C 1318.6502,18.398744 1313.1609,12.254053 1313.1609,4.674192 C 1313.1609,-2.9056686 1318.6502,-9.0503597 1325.4215,-9.0503597 C 1332.1928,-9.0503597 1337.6821,-2.9056686 1337.6821,4.674192 z"
             id="path10171"
             style="fill:#eac102;fill-opacity:1;fill-rule:evenodd;stroke:#000000;stroke-width:2.2814858;stroke-linecap:butt;stroke-linejoin:miter;stroke-miterlimit:4;stroke-dasharray:none;stroke-opacity:1"
             transform="matrix(1.3355479,0,0,1.0597562,-405.76483,107.13784)" />
          <path
             d="M 1337.6821,4.674192 C 1337.6821,12.254053 1332.1928,18.398744 1325.4215,18.398744 C 1318.6502,18.398744 1313.1609,12.254053 1313.1609,4.674192 C 1313.1609,-2.9056686 1318.6502,-9.0503597 1325.4215,-9.0503597 C 1332.1928,-9.0503597 1337.6821,-2.9056686 1337.6821,4.674192 z"
             id="path10173"
             style="fill:#eac102;fill-opacity:1;fill-rule:evenodd;stroke:#000000;stroke-width:2.2814858;stroke-linecap:butt;stroke-linejoin:miter;stroke-miterlimit:4;stroke-dasharray:none;stroke-opacity:1"
             transform="matrix(1.3355479,0,0,1.0597562,-511.16905,152.8862)" />
          <path
             d="M 1268.5106,65.611008 C 1268.5106,71.068496 1264.6599,75.492664 1259.9099,75.492664 C 1255.1599,75.492664 1251.3092,71.068496 1251.3092,65.611008 C 1251.3092,60.15352 1255.1599,55.729352 1259.9099,55.729352 C 1264.6599,55.729352 1268.5106,60.15352 1268.5106,65.611008 z"
             id="path10175"
             style="fill:#eac102;fill-opacity:1;fill-rule:evenodd;stroke:#000000;stroke-width:2.26455116;stroke-linecap:butt;stroke-linejoin:miter;stroke-miterlimit:4;stroke-dasharray:none;stroke-opacity:1"
             transform="matrix(1.222498,0,0,1.1751371,-282.34027,-11.49092)" />
          <path
             d="M 1268.5106,65.611008 C 1268.5106,71.068496 1264.6599,75.492664 1259.9099,75.492664 C 1255.1599,75.492664 1251.3092,71.068496 1251.3092,65.611008 C 1251.3092,60.15352 1255.1599,55.729352 1259.9099,55.729352 C 1264.6599,55.729352 1268.5106,60.15352 1268.5106,65.611008 z"
             id="path10177"
             style="fill:#eac102;fill-opacity:1;fill-rule:evenodd;stroke:#000000;stroke-width:2.26455116;stroke-linecap:butt;stroke-linejoin:miter;stroke-miterlimit:4;stroke-dasharray:none;stroke-opacity:1"
             transform="matrix(1.222498,0,0,1.1751371,-236.59191,-25.764409)" />
          <path
             d="M 1268.5106,65.611008 C 1268.5106,71.068496 1264.6599,75.492664 1259.9099,75.492664 C 1255.1599,75.492664 1251.3092,71.068496 1251.3092,65.611008 C 1251.3092,60.15352 1255.1599,55.729352 1259.9099,55.729352 C 1264.6599,55.729352 1268.5106,60.15352 1268.5106,65.611008 z"
             id="path10179"
             style="fill:#eac102;fill-opacity:1;fill-rule:evenodd;stroke:#000000;stroke-width:2.26455116;stroke-linecap:butt;stroke-linejoin:miter;stroke-miterlimit:4;stroke-dasharray:none;stroke-opacity:1"
             transform="matrix(1.222498,0,0,1.1751371,-221.58645,12.298228)" />
          <path
             d="M 1268.5106,65.611008 C 1268.5106,71.068496 1264.6599,75.492664 1259.9099,75.492664 C 1255.1599,75.492664 1251.3092,71.068496 1251.3092,65.611008 C 1251.3092,60.15352 1255.1599,55.729352 1259.9099,55.729352 C 1264.6599,55.729352 1268.5106,60.15352 1268.5106,65.611008 z"
             id="path10181"
             style="fill:#eac102;fill-opacity:1;fill-rule:evenodd;stroke:#000000;stroke-width:2.26455116;stroke-linecap:butt;stroke-linejoin:miter;stroke-miterlimit:4;stroke-dasharray:none;stroke-opacity:1"
             transform="matrix(1.222498,0,0,1.1751371,-260.01507,36.087376)" />
          <path
             d="M 1287,58.21875 C 1275.1378,58.21875 1265.5,68.171248 1265.5,80.4375 C 1265.5,92.703751 1275.1378,102.65625 1287,102.65625 C 1298.8622,102.65625 1308.4688,92.70375 1308.4688,80.4375 C 1308.4688,68.171249 1298.8622,58.218749 1287,58.21875 z M 1287.5313,65.90625 C 1294.8504,65.906253 1300.8125,72.411313 1300.8125,80.4375 C 1300.8125,88.463684 1294.8504,94.96875 1287.5313,94.96875 C 1280.2122,94.968748 1274.2813,88.463687 1274.2813,80.4375 C 1274.2813,72.41131 1280.2121,65.90625 1287.5313,65.90625 z"
             id="path10183"
             style="fill:#eac102;fill-opacity:1;fill-rule:evenodd;stroke:#000000;stroke-width:2.71425414;stroke-linecap:butt;stroke-linejoin:miter;stroke-miterlimit:4;stroke-dasharray:none;stroke-opacity:1" />
        </g>
      </g>
    </g>
    <g
       style="fill:#eac102;fill-opacity:1;stroke:#000000;stroke-width:0.21745916;stroke-miterlimit:4;stroke-dasharray:none;stroke-opacity:1;display:inline"
       transform="matrix(4.7746859,0,0,4.4289397,-894.94222,112.201)"
       id="g5857">
      <ellipse
         style="font-size:12px;fill:#eac102;fill-opacity:1;fill-rule:evenodd;stroke:#000000;stroke-width:7.97957897;stroke-miterlimit:4;stroke-dasharray:none;stroke-opacity:1"
         id="path3411"
         sodipodi:cy="-822.10712"
         sodipodi:cx="234.13409"
         rx="375.86639"
         cy="-822.10712"
         transform="matrix(3.24033e-2,7.209006e-4,-5.459615e-4,2.290741e-2,215.9582,150.168)"
         cx="234.13409"
         ry="120.53223"
         sodipodi:rx="375.86639"
         sodipodi:ry="120.53223" />
      <g
         style="fill:#eac102;fill-opacity:1;stroke:#000000;stroke-width:0.21745916;stroke-miterlimit:4;stroke-dasharray:none;stroke-opacity:1"
         id="g5665">
        <path
           style="font-size:12px;fill:#eac102;fill-opacity:1;fill-rule:evenodd;stroke:#000000;stroke-width:0.21745916;stroke-miterlimit:4;stroke-dasharray:none;stroke-opacity:1"
           d="M 223.15388,75.104413 L 223.15388,77.911655 L 221.20188,77.911655 L 221.20188,79.783502 L 223.15388,79.783502 L 223.15388,85.397986 L 224.45521,85.397986 L 224.45521,79.783502 L 226.40719,79.783502 L 226.40719,77.911655 L 224.45521,77.911655 L 224.45521,75.104413 L 223.15388,75.104413 z"
           id="path3410" />
        <ellipse
           style="font-size:12px;fill:#eac102;fill-opacity:1;fill-rule:evenodd;stroke:#000000;stroke-width:9.61014652;stroke-miterlimit:4;stroke-dasharray:none;stroke-opacity:1"
           id="path3409"
           sodipodi:cy="-1813.5461"
           sodipodi:cx="239.17322"
           rx="62.007866"
           cy="-1813.5461"
           transform="matrix(1.930615e-2,0,0,2.65216e-2,219.1157,133.7099)"
           cx="239.17322"
           ry="57.320068"
           sodipodi:rx="62.007866"
           sodipodi:ry="57.320068" />
      </g>
      <path
         style="font-size:12px;fill:#eac102;fill-opacity:1;fill-rule:evenodd;stroke:#000000;stroke-width:0.21745916;stroke-miterlimit:4;stroke-dasharray:none;stroke-opacity:1"
         d="M 238.32447,115.87488 C 238.32447,120.32949 236.90865,127.16472 236.23563,131.02621 C 231.94504,129.30456 226.65713,128.44377 224.12078,128.44377 C 220.99113,128.44377 215.32514,129.30456 211.78388,130.16542 C 211.11087,126.30393 209.30122,120.81651 209.30122,116.3619 C 209.30122,98.542803 214.45424,92.28958 223.82413,85.402993 C 232.16047,92.28958 238.32447,98.05579 238.32447,115.87488 z"
         id="path3408" />
      <g
         style="fill:#eac102;fill-opacity:1;stroke:#000000;stroke-width:0.21745916;stroke-miterlimit:4;stroke-dasharray:none;stroke-opacity:1"
         id="g5829">
        <path
           style="font-size:12px;fill:#eac102;fill-opacity:1;fill-rule:evenodd;stroke:#000000;stroke-width:0.21745916;stroke-miterlimit:4;stroke-dasharray:none;stroke-opacity:1"
           d="M 236.20101,130.38298 C 236.20101,128.7908 230.7316,127.49855 223.9925,127.49855 C 217.25339,127.49855 211.78399,128.7908 211.78399,130.38298 L 211.78399,131.34446 C 211.78399,129.75228 217.25339,128.78052 223.9925,128.78052 C 230.7316,128.78052 236.20101,130.39329 236.20101,131.98547 L 236.20101,130.38298 z"
           id="path3391" />
        <g
           style="fill:#eac102;fill-opacity:1;stroke:#000000;stroke-width:0.21745916;stroke-miterlimit:4;stroke-dasharray:none;stroke-opacity:1"
           id="g5695">
          <path
             style="font-size:12px;fill:#eac102;fill-opacity:1;fill-rule:evenodd;stroke:#000000;stroke-width:0.21745916;stroke-miterlimit:4;stroke-dasharray:none;stroke-opacity:1"
             d="M 238.08288,118.57534 C 238.08288,116.77791 231.67463,115.31907 223.77873,115.31907 C 215.88282,115.31907 209.47456,116.77791 209.47456,118.57534 L 209.47456,119.66076 C 209.47456,117.86333 215.88282,116.7663 223.77873,116.7663 C 231.67463,116.7663 238.08288,118.58697 238.08288,120.38441 L 238.08288,118.57534 z"
             id="path3321" />
          <g
             style="font-size:12px;fill:#eac102;fill-opacity:1;stroke:#000000;stroke-width:5.32879543;stroke-miterlimit:4;stroke-dasharray:none;stroke-opacity:1"
             transform="matrix(4.270144e-2,0,0,3.899912e-2,213.8744,154.9491)"
             id="g3384">
            <path
               style="fill:#eac102;fill-opacity:1;fill-rule:evenodd;stroke:#000000;stroke-width:5.32879543;stroke-miterlimit:4;stroke-dasharray:none;stroke-opacity:1"
               d="M 230.315,-825.591 L 177.165,-772.441 L 212.598,-737.008 L 194.882,-719.291 L 159.449,-754.724 L 106.299,-701.575 L 159.449,-648.425 L 194.882,-683.858 L 212.598,-666.142 L 212.598,-612.992 L 248.031,-612.992 L 248.031,-666.142 L 265.748,-683.858 L 301.181,-648.425 L 354.331,-701.575 L 301.181,-754.724 L 265.748,-719.291 L 248.031,-737.008 L 283.465,-772.441 L 230.315,-825.591 z"
               transform="translate(-7.152557e-6,-460.6301)"
               id="path3303" />
            <path
               style="fill:#eac102;fill-opacity:1;fill-rule:evenodd;stroke:#000000;stroke-width:5.328794;stroke-miterlimit:4;stroke-dasharray:none;stroke-opacity:1"
               d="M 220.977,-825.591 L 212.598,-772.441 L 212.598,-737.008 L 194.882,-719.291 L 194.882,-754.725 L 177.165,-701.575 L 194.882,-648.426 L 194.882,-683.858 L 212.598,-666.142 L 212.598,-612.992 L 230.315,-612.993 L 230.315,-666.143 L 248.032,-683.859 L 248.031,-648.427 L 265.748,-701.576 L 248.031,-754.726 L 248.032,-719.292 L 230.315,-737.009 L 230.315,-772.442 L 220.977,-825.591 z"
               transform="matrix(0.96815,-0.250372,0.250372,0.96815,-133.8786,-375.8071)"
               id="path3305" />
            <path
               style="fill:#eac102;fill-opacity:1;fill-rule:evenodd;stroke:#000000;stroke-width:5.32879686;stroke-miterlimit:4;stroke-dasharray:none;stroke-opacity:1"
               d="M 220.977,-825.591 L 212.598,-772.441 L 212.598,-737.008 L 194.882,-719.291 L 194.882,-754.725 L 177.165,-701.575 L 194.882,-648.426 L 194.882,-683.858 L 212.598,-666.142 L 212.598,-612.992 L 230.315,-612.993 L 230.315,-666.143 L 248.032,-683.859 L 248.031,-648.427 L 265.748,-701.576 L 248.031,-754.726 L 248.032,-719.292 L 230.315,-737.009 L 230.315,-772.442 L 220.977,-825.591 z"
               transform="matrix(0.973636,0.228106,-0.228106,0.973636,183.5867,-476.1766)"
               id="path3306" />
            <path
               style="fill:#eac102;fill-opacity:1;fill-rule:evenodd;stroke:#000000;stroke-width:5.95777464;stroke-miterlimit:4;stroke-dasharray:none;stroke-opacity:1"
               d="M 141.732,-1020.47 C 141.732,-1038.19 159.449,-1055.91 177.165,-1055.91 C 194.882,-1055.91 212.598,-1038.19 212.598,-1020.47 C 212.598,-1002.75 194.882,-985.039 194.882,-985.039 L 265.748,-914.173 L 230.315,-914.173 L 177.165,-967.323 L 124.016,-914.173 L 88.5827,-914.173 L 159.449,-985.039 C 159.449,-985.039 141.732,-1002.75 141.732,-1020.47 z"
               transform="matrix(0.789742,-0.127702,0.159628,0.987177,52.75845,-131.7343)"
               id="path3307" />
            <path
               style="fill:#eac102;fill-opacity:1;fill-rule:evenodd;stroke:#000000;stroke-width:5.9577713;stroke-miterlimit:4;stroke-dasharray:none;stroke-opacity:1"
               d="M 141.732,-1020.47 C 141.732,-1038.19 159.449,-1055.91 177.165,-1055.91 C 194.882,-1055.91 212.598,-1038.19 212.598,-1020.47 C 212.598,-1002.75 194.882,-985.039 194.882,-985.039 L 265.748,-914.173 L 230.315,-914.173 L 177.165,-967.323 L 124.016,-914.173 L 88.5827,-914.173 L 159.449,-985.039 C 159.449,-985.039 141.732,-1002.75 141.732,-1020.47 z"
               transform="matrix(0.790613,0.122196,-0.152745,0.988266,134.6676,-174.9403)"
               id="path3308" />
            <path
               style="fill:#eac102;fill-opacity:1;fill-rule:evenodd;stroke:#000000;stroke-width:5.32879543;stroke-miterlimit:4;stroke-dasharray:none;stroke-opacity:1"
               d="M 566.929,-657.284 C 566.929,-701.291 416.126,-737.008 230.315,-737.008 C 44.5037,-737.008 -106.299,-701.291 -106.299,-657.284 L -106.299,-630.709 C -106.299,-674.716 44.5038,-701.575 230.315,-701.575 C 416.126,-701.575 566.929,-656.999 566.929,-612.992 L 566.929,-657.284 z"
               transform="translate(0,-336.6143)"
               id="path3320" />
          </g>
        </g>
        <g
           style="font-size:12px;fill:#eac102;fill-opacity:1;stroke:#000000;stroke-width:5.91892099;stroke-miterlimit:4;stroke-dasharray:none;stroke-opacity:1"
           transform="matrix(3.730786e-2,0,0,3.618012e-2,215.5163,164.321)"
           id="g3392">
          <path
             style="fill:#eac102;fill-opacity:1;fill-rule:evenodd;stroke:#000000;stroke-width:5.91892099;stroke-miterlimit:4;stroke-dasharray:none;stroke-opacity:1"
             d="M 230.315,-825.591 L 177.165,-772.441 L 212.598,-737.008 L 194.882,-719.291 L 159.449,-754.724 L 106.299,-701.575 L 159.449,-648.425 L 194.882,-683.858 L 212.598,-666.142 L 212.598,-612.992 L 248.031,-612.992 L 248.031,-666.142 L 265.748,-683.858 L 301.181,-648.425 L 354.331,-701.575 L 301.181,-754.724 L 265.748,-719.291 L 248.031,-737.008 L 283.465,-772.441 L 230.315,-825.591 z"
             transform="translate(-7.152557e-6,-460.6301)"
             id="path3393" />
          <path
             style="fill:#eac102;fill-opacity:1;fill-rule:evenodd;stroke:#000000;stroke-width:5.91891909;stroke-miterlimit:4;stroke-dasharray:none;stroke-opacity:1"
             d="M 220.977,-825.591 L 212.598,-772.441 L 212.598,-737.008 L 194.882,-719.291 L 194.882,-754.725 L 177.165,-701.575 L 194.882,-648.426 L 194.882,-683.858 L 212.598,-666.142 L 212.598,-612.992 L 230.315,-612.993 L 230.315,-666.143 L 248.032,-683.859 L 248.031,-648.427 L 265.748,-701.576 L 248.031,-754.726 L 248.032,-719.292 L 230.315,-737.009 L 230.315,-772.442 L 220.977,-825.591 z"
             transform="matrix(0.96815,-0.250372,0.250372,0.96815,-133.8786,-375.8071)"
             id="path3394" />
          <path
             style="fill:#eac102;fill-opacity:1;fill-rule:evenodd;stroke:#000000;stroke-width:5.9189229;stroke-miterlimit:4;stroke-dasharray:none;stroke-opacity:1"
             d="M 220.977,-825.591 L 212.598,-772.441 L 212.598,-737.008 L 194.882,-719.291 L 194.882,-754.725 L 177.165,-701.575 L 194.882,-648.426 L 194.882,-683.858 L 212.598,-666.142 L 212.598,-612.992 L 230.315,-612.993 L 230.315,-666.143 L 248.032,-683.859 L 248.031,-648.427 L 265.748,-701.576 L 248.031,-754.726 L 248.032,-719.292 L 230.315,-737.009 L 230.315,-772.442 L 220.977,-825.591 z"
             transform="matrix(0.973636,0.228106,-0.228106,0.973636,183.5867,-476.1766)"
             id="path3395" />
          <path
             style="fill:#eac102;fill-opacity:1;fill-rule:evenodd;stroke:#000000;stroke-width:6.61755514;stroke-miterlimit:4;stroke-dasharray:none;stroke-opacity:1"
             d="M 141.732,-1020.47 C 141.732,-1038.19 159.449,-1055.91 177.165,-1055.91 C 194.882,-1055.91 212.598,-1038.19 212.598,-1020.47 C 212.598,-1002.75 194.882,-985.039 194.882,-985.039 L 265.748,-914.173 L 230.315,-914.173 L 177.165,-967.323 L 124.016,-914.173 L 88.5827,-914.173 L 159.449,-985.039 C 159.449,-985.039 141.732,-1002.75 141.732,-1020.47 z"
             transform="matrix(0.789742,-0.127702,0.159628,0.987177,52.75845,-131.7343)"
             id="path3396" />
          <path
             style="fill:#eac102;fill-opacity:1;fill-rule:evenodd;stroke:#000000;stroke-width:6.6175518;stroke-miterlimit:4;stroke-dasharray:none;stroke-opacity:1"
             d="M 141.732,-1020.47 C 141.732,-1038.19 159.449,-1055.91 177.165,-1055.91 C 194.882,-1055.91 212.598,-1038.19 212.598,-1020.47 C 212.598,-1002.75 194.882,-985.039 194.882,-985.039 L 265.748,-914.173 L 230.315,-914.173 L 177.165,-967.323 L 124.016,-914.173 L 88.5827,-914.173 L 159.449,-985.039 C 159.449,-985.039 141.732,-1002.75 141.732,-1020.47 z"
             transform="matrix(0.790613,0.122196,-0.152745,0.988266,134.6676,-174.9403)"
             id="path3397" />
          <path
             style="fill:#eac102;fill-opacity:1;fill-rule:evenodd;stroke:#000000;stroke-width:5.91892099;stroke-miterlimit:4;stroke-dasharray:none;stroke-opacity:1"
             d="M 566.929,-657.284 C 566.929,-701.291 416.126,-737.008 230.315,-737.008 C 44.5037,-737.008 -106.299,-701.291 -106.299,-657.284 L -106.299,-630.709 C -106.299,-674.716 44.5038,-701.575 230.315,-701.575 C 416.126,-701.575 566.929,-656.999 566.929,-612.992 L 566.929,-657.284 z"
             transform="translate(0,-336.6143)"
             id="path3398" />
        </g>
        <g
           style="fill:#eac102;fill-opacity:1;stroke:#000000;stroke-width:0.21745916;stroke-miterlimit:4;stroke-dasharray:none;stroke-opacity:1"
           id="g5677">
          <path
             style="font-size:12px;fill:#eac102;fill-opacity:1;fill-rule:evenodd;stroke:#000000;stroke-width:0.21745916;stroke-miterlimit:4;stroke-dasharray:none;stroke-opacity:1"
             d="M 237.8375,106.30634 C 237.8375,104.54248 231.6006,103.11089 223.91584,103.11089 C 216.23107,103.11089 209.99418,104.54248 209.99418,106.30634 L 209.99418,107.37149 C 209.99418,105.60763 216.23107,104.53109 223.91584,104.53109 C 231.6006,104.53109 237.8375,106.31776 237.8375,108.08161 L 237.8375,106.30634 z"
             id="path3399" />
          <g
             style="font-size:12px;fill:#eac102;fill-opacity:1;stroke:#000000;stroke-width:5.61477041;stroke-miterlimit:4;stroke-dasharray:none;stroke-opacity:1"
             transform="matrix(4.004558e-2,0,0,3.745733e-2,214.7103,140.7911)"
             id="g3400">
            <path
               style="fill:#eac102;fill-opacity:1;fill-rule:evenodd;stroke:#000000;stroke-width:5.61477041;stroke-miterlimit:4;stroke-dasharray:none;stroke-opacity:1"
               d="M 230.315,-825.591 L 177.165,-772.441 L 212.598,-737.008 L 194.882,-719.291 L 159.449,-754.724 L 106.299,-701.575 L 159.449,-648.425 L 194.882,-683.858 L 212.598,-666.142 L 212.598,-612.992 L 248.031,-612.992 L 248.031,-666.142 L 265.748,-683.858 L 301.181,-648.425 L 354.331,-701.575 L 301.181,-754.724 L 265.748,-719.291 L 248.031,-737.008 L 283.465,-772.441 L 230.315,-825.591 z"
               transform="translate(-7.152557e-6,-460.6301)"
               id="path3401" />
            <path
               style="fill:#eac102;fill-opacity:1;fill-rule:evenodd;stroke:#000000;stroke-width:5.61476898;stroke-miterlimit:4;stroke-dasharray:none;stroke-opacity:1"
               d="M 220.977,-825.591 L 212.598,-772.441 L 212.598,-737.008 L 194.882,-719.291 L 194.882,-754.725 L 177.165,-701.575 L 194.882,-648.426 L 194.882,-683.858 L 212.598,-666.142 L 212.598,-612.992 L 230.315,-612.993 L 230.315,-666.143 L 248.032,-683.859 L 248.031,-648.427 L 265.748,-701.576 L 248.031,-754.726 L 248.032,-719.292 L 230.315,-737.009 L 230.315,-772.442 L 220.977,-825.591 z"
               transform="matrix(0.96815,-0.250372,0.250372,0.96815,-133.8786,-375.8071)"
               id="path3402" />
            <path
               style="fill:#eac102;fill-opacity:1;fill-rule:evenodd;stroke:#000000;stroke-width:5.61477232;stroke-miterlimit:4;stroke-dasharray:none;stroke-opacity:1"
               d="M 220.977,-825.591 L 212.598,-772.441 L 212.598,-737.008 L 194.882,-719.291 L 194.882,-754.725 L 177.165,-701.575 L 194.882,-648.426 L 194.882,-683.858 L 212.598,-666.142 L 212.598,-612.992 L 230.315,-612.993 L 230.315,-666.143 L 248.032,-683.859 L 248.031,-648.427 L 265.748,-701.576 L 248.031,-754.726 L 248.032,-719.292 L 230.315,-737.009 L 230.315,-772.442 L 220.977,-825.591 z"
               transform="matrix(0.973636,0.228106,-0.228106,0.973636,183.5867,-476.1766)"
               id="path3403" />
            <path
               style="fill:#eac102;fill-opacity:1;fill-rule:evenodd;stroke:#000000;stroke-width:6.27750444;stroke-miterlimit:4;stroke-dasharray:none;stroke-opacity:1"
               d="M 141.732,-1020.47 C 141.732,-1038.19 159.449,-1055.91 177.165,-1055.91 C 194.882,-1055.91 212.598,-1038.19 212.598,-1020.47 C 212.598,-1002.75 194.882,-985.039 194.882,-985.039 L 265.748,-914.173 L 230.315,-914.173 L 177.165,-967.323 L 124.016,-914.173 L 88.5827,-914.173 L 159.449,-985.039 C 159.449,-985.039 141.732,-1002.75 141.732,-1020.47 z"
               transform="matrix(0.789742,-0.127702,0.159628,0.987177,52.75845,-131.7343)"
               id="path3404" />
            <path
               style="fill:#eac102;fill-opacity:1;fill-rule:evenodd;stroke:#000000;stroke-width:6.27750111;stroke-miterlimit:4;stroke-dasharray:none;stroke-opacity:1"
               d="M 141.732,-1020.47 C 141.732,-1038.19 159.449,-1055.91 177.165,-1055.91 C 194.882,-1055.91 212.598,-1038.19 212.598,-1020.47 C 212.598,-1002.75 194.882,-985.039 194.882,-985.039 L 265.748,-914.173 L 230.315,-914.173 L 177.165,-967.323 L 124.016,-914.173 L 88.5827,-914.173 L 159.449,-985.039 C 159.449,-985.039 141.732,-1002.75 141.732,-1020.47 z"
               transform="matrix(0.790613,0.122196,-0.152745,0.988266,134.6676,-174.9403)"
               id="path3405" />
            <path
               style="fill:#eac102;fill-opacity:1;fill-rule:evenodd;stroke:#000000;stroke-width:5.61477041;stroke-miterlimit:4;stroke-dasharray:none;stroke-opacity:1"
               d="M 566.929,-657.284 C 566.929,-701.291 416.126,-737.008 230.315,-737.008 C 44.5037,-737.008 -106.299,-701.291 -106.299,-657.284 L -106.299,-630.709 C -106.299,-674.716 44.5038,-701.575 230.315,-701.575 C 416.126,-701.575 566.929,-656.999 566.929,-612.992 L 566.929,-657.284 z"
               transform="translate(0,-336.6143)"
               id="path3406" />
          </g>
        </g>
      </g>
    </g>
    <path
       style="fill:#000000;fill-opacity:1;fill-rule:evenodd;stroke:none;stroke-width:45.77002716;stroke-miterlimit:4;stroke-dasharray:none;stroke-opacity:1"
       id="path2303"
       d="M 298.31987,471.60674 L 348.42018,471.60674 L 348.42018,421.32523 L 298.31987,421.32523 L 298.31987,471.60674 z"
       class="fil2" />
    <path
       style="fill:#000000;fill-opacity:1;fill-rule:evenodd;stroke:none;stroke-width:45.77002716;stroke-miterlimit:4;stroke-dasharray:none;stroke-opacity:1"
       id="path2305"
       d="M 496.1968,471.60674 L 546.29712,471.60674 L 546.29712,421.32523 L 496.1968,421.32523 L 496.1968,471.60674 z"
       class="fil2" />
    <path
       style="fill:#000000;fill-opacity:1;fill-rule:evenodd;stroke:none;stroke-width:45.77002716;stroke-miterlimit:4;stroke-dasharray:none;stroke-opacity:1"
       id="path2307"
       d="M 397.25835,471.65669 L 447.35865,471.65669 L 447.35865,421.37517 L 397.25835,421.37517 L 397.25835,471.65669 z"
       class="fil2" />
    <path
       style="fill:#000000;fill-opacity:1;fill-rule:evenodd;stroke:none;stroke-width:45.77002716;stroke-miterlimit:4;stroke-dasharray:none;stroke-opacity:1"
       id="path2311"
       d="M 347.719,521.74837 L 397.81931,521.74837 L 397.81931,471.50185 L 347.719,471.50185 L 347.719,521.74837 z"
       class="fil2" />
    <path
       style="fill:#000000;fill-opacity:1;fill-rule:evenodd;stroke:none;stroke-width:45.77002716;stroke-miterlimit:4;stroke-dasharray:none;stroke-opacity:1"
       id="path2313"
       d="M 446.65746,521.95819 L 496.75775,521.95819 L 496.75775,471.67668 L 446.65746,471.67668 L 446.65746,521.95819 z"
       class="fil2" />
    <path
       style="fill:#000000;fill-opacity:1;fill-rule:evenodd;stroke:none;stroke-width:45.77002716;stroke-miterlimit:4;stroke-dasharray:none;stroke-opacity:1"
       id="path2315"
       d="M 298.00434,570.876 L 348.10464,570.876 L 348.10464,520.62947 L 298.00434,520.62947 L 298.00434,570.876 z"
       class="fil2" />
    <path
       style="fill:#000000;fill-opacity:1;fill-rule:evenodd;stroke:none;stroke-width:45.77002716;stroke-miterlimit:4;stroke-dasharray:none;stroke-opacity:1"
       id="path2317"
       d="M 495.91635,570.876 L 546.01665,570.876 L 546.01665,520.62947 L 495.91635,520.62947 L 495.91635,570.876 z"
       class="fil2" />
    <path
       style="fill:#000000;fill-opacity:1;fill-rule:evenodd;stroke:none;stroke-width:45.77002716;stroke-miterlimit:4;stroke-dasharray:none;stroke-opacity:1"
       id="path2319"
       d="M 396.94281,570.876 L 447.04313,570.876 L 447.04313,520.62947 L 396.94281,520.62947 L 396.94281,570.876 z"
       class="fil2" />
    <path
       class="fil2"
       d="M 347.719,619.88049 L 397.81931,619.88049 L 397.81931,569.63397 L 347.719,569.63397 L 347.719,619.88049 z"
       id="path4889"
       style="fill:#000000;fill-opacity:1;fill-rule:evenodd;stroke:none;stroke-width:45.77002716;stroke-miterlimit:4;stroke-dasharray:none;stroke-opacity:1" />
    <path
       class="fil2"
       d="M 446.65746,620.09031 L 496.75775,620.09031 L 496.75775,569.8088 L 446.65746,569.8088 L 446.65746,620.09031 z"
       id="path4891"
       style="fill:#000000;fill-opacity:1;fill-rule:evenodd;stroke:none;stroke-width:45.77002716;stroke-miterlimit:4;stroke-dasharray:none;stroke-opacity:1" />
    <path
       class="fil2"
       d="M 298.00434,669.00812 L 348.10464,669.00812 L 348.10464,618.76159 L 298.00434,618.76159 L 298.00434,669.00812 z"
       id="path4893"
       style="fill:#000000;fill-opacity:1;fill-rule:evenodd;stroke:none;stroke-width:45.77002716;stroke-miterlimit:4;stroke-dasharray:none;stroke-opacity:1" />
    <path
       class="fil2"
       d="M 495.91635,669.00812 L 546.01665,669.00812 L 546.01665,618.76159 L 495.91635,618.76159 L 495.91635,669.00812 z"
       id="path4895"
       style="fill:#000000;fill-opacity:1;fill-rule:evenodd;stroke:none;stroke-width:45.77002716;stroke-miterlimit:4;stroke-dasharray:none;stroke-opacity:1" />
    <path
       class="fil2"
       d="M 396.94281,669.00812 L 447.04313,669.00812 L 447.04313,618.76159 L 396.94281,618.76159 L 396.94281,669.00812 z"
       id="path4897"
       style="fill:#000000;fill-opacity:1;fill-rule:evenodd;stroke:none;stroke-width:45.77002716;stroke-miterlimit:4;stroke-dasharray:none;stroke-opacity:1" />
    <path
       style="fill:#000000;fill-opacity:1;fill-rule:evenodd;stroke:none;stroke-width:45.77002716;stroke-miterlimit:4;stroke-dasharray:none;stroke-opacity:1"
       id="path4899"
       d="M 347.719,717.88049 L 397.81931,717.88049 L 397.81931,667.63397 L 347.719,667.63397 L 347.719,717.88049 z"
       class="fil2" />
    <path
       style="fill:#000000;fill-opacity:1;fill-rule:evenodd;stroke:none;stroke-width:45.77002716;stroke-miterlimit:4;stroke-dasharray:none;stroke-opacity:1"
       id="path4901"
       d="M 446.65746,718.09031 L 496.75775,718.09031 L 496.75775,667.8088 L 446.65746,667.8088 L 446.65746,718.09031 z"
       class="fil2" />
    <path
       style="fill:#000000;fill-opacity:1;fill-rule:evenodd;stroke:none;stroke-width:45.77002716;stroke-miterlimit:4;stroke-dasharray:none;stroke-opacity:1"
       id="path4903"
       d="M 298.00434,767.00812 L 348.10464,767.00812 L 348.10464,716.76159 L 298.00434,716.76159 L 298.00434,767.00812 z"
       class="fil2" />
    <path
       style="fill:#000000;fill-opacity:1;fill-rule:evenodd;stroke:none;stroke-width:45.77002716;stroke-miterlimit:4;stroke-dasharray:none;stroke-opacity:1"
       id="path4905"
       d="M 495.91635,767.00812 L 546.01665,767.00812 L 546.01665,716.76159 L 495.91635,716.76159 L 495.91635,767.00812 z"
       class="fil2" />
    <path
       style="fill:#000000;fill-opacity:1;fill-rule:evenodd;stroke:none;stroke-width:45.77002716;stroke-miterlimit:4;stroke-dasharray:none;stroke-opacity:1"
       id="path4907"
       d="M 396.94281,767.00812 L 447.04313,767.00812 L 447.04313,716.76159 L 396.94281,716.76159 L 396.94281,767.00812 z"
       class="fil2" />
    <path
       class="fil2"
       d="M 347.719,815.88049 L 397.81931,815.88049 L 397.81931,765.63397 L 347.719,765.63397 L 347.719,815.88049 z"
       id="path4909"
       style="fill:#000000;fill-opacity:1;fill-rule:evenodd;stroke:none;stroke-width:45.77002716;stroke-miterlimit:4;stroke-dasharray:none;stroke-opacity:1" />
    <path
       class="fil2"
       d="M 446.65746,816.09031 L 496.75775,816.09031 L 496.75775,765.8088 L 446.65746,765.8088 L 446.65746,816.09031 z"
       id="path4911"
       style="fill:#000000;fill-opacity:1;fill-rule:evenodd;stroke:none;stroke-width:45.77002716;stroke-miterlimit:4;stroke-dasharray:none;stroke-opacity:1" />
    <path
       class="fil2"
       d="M 298.00434,865.00812 L 348.10464,865.00812 L 348.10464,814.76159 L 298.00434,814.76159 L 298.00434,865.00812 z"
       id="path4913"
       style="fill:#000000;fill-opacity:1;fill-rule:evenodd;stroke:none;stroke-width:45.77002716;stroke-miterlimit:4;stroke-dasharray:none;stroke-opacity:1" />
    <path
       class="fil2"
       d="M 495.91635,865.00812 L 528.43555,865.00812 C 534.4706,848.25928 539.36211,831.51043 543.66571,814.76159 L 495.91635,814.76159 L 495.91635,865.00812 z"
       id="path4915"
       style="fill:#000000;fill-opacity:1;fill-rule:evenodd;stroke:none;stroke-width:45.77002716;stroke-miterlimit:4;stroke-dasharray:none;stroke-opacity:1"
       sodipodi:nodetypes="ccccc" />
    <path
       class="fil2"
       d="M 396.94281,865.00812 L 447.04313,865.00812 L 447.04313,814.76159 L 396.94281,814.76159 L 396.94281,865.00812 z"
       id="path4917"
       style="fill:#000000;fill-opacity:1;fill-rule:evenodd;stroke:none;stroke-width:45.77002716;stroke-miterlimit:4;stroke-dasharray:none;stroke-opacity:1" />
    <path
       style="fill:#000000;fill-opacity:1;fill-rule:evenodd;stroke:none;stroke-width:45.77002716;stroke-miterlimit:4;stroke-dasharray:none;stroke-opacity:1"
       id="path4919"
       d="M 347.719,913.88049 L 397.81931,913.88049 L 397.81931,863.63397 L 347.719,863.63397 L 347.719,913.88049 z"
       class="fil2" />
    <path
       style="fill:#000000;fill-opacity:1;fill-rule:evenodd;stroke:none;stroke-width:45.77002716;stroke-miterlimit:4;stroke-dasharray:none;stroke-opacity:1"
       id="path4921"
       d="M 446.65746,914.09031 L 496.75775,914.09031 L 496.75775,863.8088 L 446.65746,863.8088 L 446.65746,914.09031 z"
       class="fil2" />
    <path
       style="fill:#000000;fill-opacity:1;fill-rule:evenodd;stroke:none;stroke-width:45.77002716;stroke-miterlimit:4;stroke-dasharray:none;stroke-opacity:1"
       id="path4923"
       d="M 298.00434,963.00812 L 348.10464,963.00812 L 348.10464,912.76159 L 298.00434,912.76159 L 298.00434,963.00812 z"
       class="fil2" />
    <path
       style="fill:#000000;fill-opacity:1;fill-rule:evenodd;stroke:none;stroke-width:45.77002716;stroke-miterlimit:4;stroke-dasharray:none;stroke-opacity:1"
       id="path4925"
       d="M 500.58609,912.76159 L 495.91635,912.76159 L 495.91635,918.66839 L 500.58609,912.76159 z"
       class="fil2"
       sodipodi:nodetypes="cccc" />
    <path
       style="fill:#000000;fill-opacity:1;fill-rule:evenodd;stroke:none;stroke-width:45.77002716;stroke-miterlimit:4;stroke-dasharray:none;stroke-opacity:1"
       id="path4927"
       d="M 396.94281,963.00812 L 447.04313,963.00812 L 447.04313,912.76159 L 396.94281,912.76159 L 396.94281,963.00812 z"
       class="fil2" />
    <path
       class="fil2"
       d="M 347.719,1011.8805 L 362.0102,1011.8805 L 397.81931,997.75409 L 397.81931,961.63397 L 347.719,961.63397 L 347.719,1011.8805 z"
       id="path4929"
       style="fill:#000000;fill-opacity:1;fill-rule:evenodd;stroke:none;stroke-width:45.77002716;stroke-miterlimit:4;stroke-dasharray:none;stroke-opacity:1"
       sodipodi:nodetypes="cccccc" />
    <path
       class="fil2"
       d="M 456.60326,961.8088 L 446.65746,961.8088 L 446.65746,968.36373 L 456.60326,961.8088 z"
       id="path4931"
       style="fill:#000000;fill-opacity:1;fill-rule:evenodd;stroke:none;stroke-width:45.77002716;stroke-miterlimit:4;stroke-dasharray:none;stroke-opacity:1"
       sodipodi:nodetypes="cccc" />
    <path
       class="fil2"
       d="M 348.10464,1014.9368 L 348.10464,1010.7616 L 298.00434,1010.7616 L 298.00434,1018.5166 L 348.10464,1014.9368 z"
       id="path4933"
       style="fill:#000000;fill-opacity:1;fill-rule:evenodd;stroke:none;stroke-width:45.77002716;stroke-miterlimit:4;stroke-dasharray:none;stroke-opacity:1"
       sodipodi:nodetypes="ccccc" />
    <g
       style="fill:#eac102;fill-opacity:1;stroke:#000000;stroke-width:2.61511517;stroke-miterlimit:4;stroke-dasharray:none;stroke-opacity:1;display:inline"
       id="g10659"
       transform="matrix(0.361119,0,0,0.4049189,-212.65488,457.59376)">
      <g
         style="fill:#eac102;fill-opacity:1;stroke:#000000;stroke-width:3.11484098;stroke-miterlimit:4;stroke-dasharray:none;stroke-opacity:1;display:inline"
         transform="matrix(0.8501815,1.6660219e-2,-1.7224564e-2,0.8287458,-36.063676,328.13097)"
         id="g9574">
        <path
           style="stroke:#000000;stroke-width:3.11484098;stroke-opacity:1"
           d="M 1180.7836,867.7413 C 1291.4097,921.81679 1315.8874,927.27395 1451.0232,858.01932 L 1463.6074,870.0319 C 1333.4201,974.58388 1293.7655,976.49546 1165.9023,877.70672 L 1180.7836,867.7413 z"
           id="rect7070"
           sodipodi:nodetypes="ccccc" />
      </g>
    </g>
    <path
       style="fill:#eac102;fill-opacity:1;stroke:#000000;stroke-width:1;stroke-miterlimit:4;stroke-opacity:1"
       d="M 121.35233,893.5119 L 125.98316,893.5119 C 127.94168,899.54601 118.07995,915.89424 115.03756,921.92835 L 110.40673,921.92835 C 113.33728,915.52792 122.8016,899.36485 121.35233,893.5119 z"
       id="rect7073"
       sodipodi:nodetypes="ccccc" />
    <path
       sodipodi:nodetypes="ccccc"
       id="path7076"
       d="M 223.29274,893.5119 L 218.66191,893.5119 C 216.70339,899.54601 226.56512,915.89424 229.60751,921.92835 L 234.23834,921.92835 C 231.30779,915.52792 221.84347,899.36485 223.29274,893.5119 z"
       style="fill:#eac102;fill-opacity:1;stroke:#000000;stroke-width:1;stroke-miterlimit:4;stroke-opacity:1" />
  </g>
</svg>
