<?xml version="1.0" encoding="UTF-8" standalone="no"?>
<!-- Creator: CorelDRAW -->

<svg
   xmlns:dc="http://purl.org/dc/elements/1.1/"
   xmlns:cc="http://creativecommons.org/ns#"
   xmlns:rdf="http://www.w3.org/1999/02/22-rdf-syntax-ns#"
   xmlns:svg="http://www.w3.org/2000/svg"
   xmlns="http://www.w3.org/2000/svg"
   xmlns:xlink="http://www.w3.org/1999/xlink"
   xmlns:sodipodi="http://sodipodi.sourceforge.net/DTD/sodipodi-0.dtd"
   xmlns:inkscape="http://www.inkscape.org/namespaces/inkscape"
   xml:space="preserve"
   width="998.8725"
   height="822.44031"
   shape-rendering="geometricPrecision"
   text-rendering="geometricPrecision"
   image-rendering="optimizeQuality"
   clip-rule="evenodd"
   viewBox="0 0 281.90401 232.11093"
   id="svg2"
   version="1.1"
   inkscape:version="0.48.2 r9819"
   sodipodi:docname="Isle_of_Man_coat_of_arms.svg"
   style="fill-rule:evenodd"><metadata
   id="metadata940"><rdf:RDF><cc:Work
       rdf:about=""><dc:format>image/svg+xml</dc:format><dc:type
         rdf:resource="http://purl.org/dc/dcmitype/StillImage" /></cc:Work></rdf:RDF></metadata><sodipodi:namedview
   pagecolor="#ffffff"
   bordercolor="#666666"
   borderopacity="1"
   objecttolerance="10"
   gridtolerance="10"
   guidetolerance="10"
   inkscape:pageopacity="0"
   inkscape:pageshadow="2"
   inkscape:window-width="1366"
   inkscape:window-height="706"
   id="namedview938"
   showgrid="false"
   inkscape:zoom="0.40030475"
   inkscape:cx="499.43692"
   inkscape:cy="319.41757"
   inkscape:window-x="-8"
   inkscape:window-y="-8"
   inkscape:window-maximized="1"
   inkscape:current-layer="svg2" />
 <defs
   id="defs4"><inkscape:perspective
   sodipodi:type="inkscape:persp3d"
   inkscape:vp_x="0 : 416.8754 : 1"
   inkscape:vp_y="0 : 1000 : 0"
   inkscape:vp_z="1027.5591 : 416.8754 : 1"
   inkscape:persp3d-origin="513.77954 : 277.91693 : 1"
   id="perspective942" />
    <radialGradient
   id="id0"
   gradientUnits="userSpaceOnUse"
   cx="-34.671501"
   cy="225.349"
   r="9.2004004"
   fx="-34.671501"
   fy="225.349">
     <stop
   offset="0"
   stop-color="#7A4C57"
   id="stop7" />
     <stop
   offset="1"
   stop-color="#0082C9"
   id="stop9" />
    </radialGradient>
    <radialGradient
   id="id1"
   gradientUnits="userSpaceOnUse"
   cx="-34.671501"
   cy="225.349"
   r="9.2004004"
   fx="-34.671501"
   fy="225.349">
     <stop
   offset="0"
   stop-color="#AA1F6F"
   id="stop12" />
     <stop
   offset="1"
   stop-color="white"
   id="stop14" />
    </radialGradient>
    <radialGradient
   id="id2"
   gradientUnits="userSpaceOnUse"
   cx="75.4217"
   cy="188.51401"
   r="9.2004004"
   fx="75.4217"
   fy="188.51401">
     <stop
   offset="0"
   stop-color="white"
   id="stop17" />
     <stop
   offset="1"
   stop-color="white"
   id="stop19" />
    </radialGradient>
    <radialGradient
   id="id3"
   gradientUnits="userSpaceOnUse"
   cx="111.857"
   cy="226.936"
   r="8.9751997"
   fx="111.857"
   fy="226.936">
     <stop
   offset="0"
   stop-color="#7A4C57"
   id="stop22" />
     <stop
   offset="1"
   stop-color="#091113"
   id="stop24" />
    </radialGradient>
    <radialGradient
   id="id4"
   gradientUnits="userSpaceOnUse"
   cx="111.857"
   cy="226.936"
   r="8.9751997"
   fx="111.857"
   fy="226.936">
     <stop
   offset="0"
   stop-color="#AA1F6F"
   id="stop27" />
     <stop
   offset="1"
   stop-color="white"
   id="stop29" />
    </radialGradient>
    <radialGradient
   id="id5"
   gradientUnits="userSpaceOnUse"
   cx="219.255"
   cy="187.735"
   r="8.9751997"
   fx="219.255"
   fy="187.735">
     <stop
   offset="0"
   stop-color="white"
   id="stop32" />
     <stop
   offset="1"
   stop-color="white"
   id="stop34" />
    </radialGradient>
    <radialGradient
   id="id6"
   gradientUnits="userSpaceOnUse"
   cx="70.475502"
   cy="249.998"
   r="6.3371"
   fx="70.475502"
   fy="249.998">
     <stop
   offset="0"
   stop-color="#7A4C57"
   id="stop37" />
     <stop
   offset="1"
   stop-color="#0082C9"
   id="stop39" />
    </radialGradient>
    <radialGradient
   id="id7"
   gradientUnits="userSpaceOnUse"
   cx="70.475502"
   cy="249.998"
   r="6.3371"
   fx="70.475502"
   fy="249.998">
     <stop
   offset="0"
   stop-color="#AA1F6F"
   id="stop42" />
     <stop
   offset="1"
   stop-color="white"
   id="stop44" />
    </radialGradient>
    <radialGradient
   id="id8"
   gradientUnits="userSpaceOnUse"
   cx="146.306"
   cy="220.56"
   r="6.3371"
   fx="146.306"
   fy="220.56">
     <stop
   offset="0"
   stop-color="white"
   id="stop47" />
     <stop
   offset="1"
   stop-color="white"
   id="stop49" />
    </radialGradient>
    <radialGradient
   id="id9"
   gradientUnits="userSpaceOnUse"
   cx="21.9289"
   cy="235.149"
   r="11.1562"
   fx="21.9289"
   fy="235.149">
     <stop
   offset="0"
   stop-color="white"
   id="stop52" />
     <stop
   offset="1"
   stop-color="white"
   id="stop54" />
    </radialGradient>
    <radialGradient
   id="id10"
   gradientUnits="userSpaceOnUse"
   cx="21.9289"
   cy="235.149"
   r="11.1562"
   fx="21.9289"
   fy="235.149">
     <stop
   offset="0"
   stop-color="#C2C1C1"
   id="stop57" />
     <stop
   offset="1"
   stop-color="#00A3DF"
   id="stop59" />
    </radialGradient>
    <radialGradient
   id="id11"
   gradientUnits="userSpaceOnUse"
   cx="21.9289"
   cy="235.149"
   r="11.1562"
   fx="21.9289"
   fy="235.149">
     <stop
   offset="0"
   stop-color="#B86194"
   id="stop62" />
     <stop
   offset="1"
   stop-color="white"
   id="stop64" />
    </radialGradient>
    <radialGradient
   id="id12"
   gradientUnits="userSpaceOnUse"
   cx="147.416"
   cy="203.976"
   r="11.1562"
   fx="147.416"
   fy="203.976">
     <stop
   offset="0"
   stop-color="white"
   id="stop67" />
     <stop
   offset="1"
   stop-color="white"
   id="stop69" />
    </radialGradient>
    <linearGradient
   id="id13"
   gradientUnits="userSpaceOnUse"
   x1="129.17799"
   y1="39.366699"
   x2="133.64"
   y2="44.684399">
     <stop
   offset="0"
   stop-color="#894968"
   id="stop72" />
     <stop
   offset="1"
   stop-color="#397FBC"
   id="stop74" />
    </linearGradient>
    <linearGradient
   id="id14"
   gradientUnits="userSpaceOnUse"
   x1="157.967"
   y1="39.3661"
   x2="162.429"
   y2="44.685001">
     <stop
   offset="0"
   stop-color="#894968"
   id="stop77" />
     <stop
   offset="1"
   stop-color="#397FBC"
   id="stop79" />
    </linearGradient>
    <linearGradient
   id="id15"
   gradientUnits="userSpaceOnUse"
   x1="48.9132"
   y1="117.833"
   x2="68.8619"
   y2="129.35001">
     <stop
   offset="0"
   stop-color="#B79EAD"
   id="stop82" />
     <stop
   offset="1"
   stop-color="#00A3DF"
   id="stop84" />
    </linearGradient>
    <linearGradient
   id="id16"
   gradientUnits="userSpaceOnUse"
   x1="43.966999"
   y1="108.194"
   x2="47.103298"
   y2="110.004">
     <stop
   offset="0"
   stop-color="#FDEEC4"
   id="stop87" />
     <stop
   offset="1"
   stop-color="#626A6E"
   id="stop89" />
    </linearGradient>
    <linearGradient
   id="id17"
   gradientUnits="userSpaceOnUse"
   x1="39.3923"
   y1="111.857"
   x2="43.803001"
   y2="114.403">
     <stop
   offset="0"
   stop-color="#FDEEC4"
   id="stop92" />
     <stop
   offset="1"
   stop-color="#626A6E"
   id="stop94" />
    </linearGradient>
    <linearGradient
   id="id18"
   gradientUnits="userSpaceOnUse"
   x1="39.928398"
   y1="107.7"
   x2="43.974098"
   y2="110.036">
     <stop
   offset="0"
   stop-color="#FDEEC4"
   id="stop97" />
     <stop
   offset="1"
   stop-color="#626A6E"
   id="stop99" />
    </linearGradient>
    <linearGradient
   id="id19"
   gradientUnits="userSpaceOnUse"
   x1="40.495602"
   y1="104.132"
   x2="43.7803"
   y2="106.028">
     <stop
   offset="0"
   stop-color="#FDEEC4"
   id="stop102" />
     <stop
   offset="1"
   stop-color="#626A6E"
   id="stop104" />
    </linearGradient>
    <linearGradient
   id="id20"
   gradientUnits="userSpaceOnUse"
   x1="34.801498"
   y1="114.754"
   x2="40.029499"
   y2="118.15">
     <stop
   offset="0"
   stop-color="#FDEEC4"
   id="stop107" />
     <stop
   offset="1"
   stop-color="#626A6E"
   id="stop109" />
    </linearGradient>
    <linearGradient
   id="id21"
   gradientUnits="userSpaceOnUse"
   x1="35.8647"
   y1="110.036"
   x2="40.989799"
   y2="112.761">
     <stop
   offset="0"
   stop-color="#FDEEC4"
   id="stop112" />
     <stop
   offset="1"
   stop-color="#626A6E"
   id="stop114" />
    </linearGradient>
    <linearGradient
   id="id22"
   gradientUnits="userSpaceOnUse"
   x1="57.8321"
   y1="99.327698"
   x2="57.8321"
   y2="103.642">
     <stop
   offset="0"
   stop-color="#C8E27B"
   id="stop117" />
     <stop
   offset="1"
   stop-color="#BB98C1"
   id="stop119" />
    </linearGradient>
    <linearGradient
   id="id23"
   gradientUnits="userSpaceOnUse"
   x1="55.333"
   y1="101.928"
   x2="55.333"
   y2="106.242">
     <stop
   offset="0"
   stop-color="#C8E27B"
   id="stop122" />
     <stop
   offset="1"
   stop-color="#BB98C1"
   id="stop124" />
    </linearGradient>
    <linearGradient
   id="id24"
   gradientUnits="userSpaceOnUse"
   x1="52.994202"
   y1="104.528"
   x2="52.994202"
   y2="108.842">
     <stop
   offset="0"
   stop-color="#C8E27B"
   id="stop127" />
     <stop
   offset="1"
   stop-color="#BB98C1"
   id="stop129" />
    </linearGradient>
    <linearGradient
   id="id25"
   gradientUnits="userSpaceOnUse"
   x1="50.087601"
   y1="106.924"
   x2="50.087601"
   y2="111.24">
     <stop
   offset="0"
   stop-color="#C8E27B"
   id="stop132" />
     <stop
   offset="1"
   stop-color="#BB98C1"
   id="stop134" />
    </linearGradient>
    <linearGradient
   id="id26"
   gradientUnits="userSpaceOnUse"
   x1="60.4324"
   y1="96.726898"
   x2="60.4324"
   y2="101.043">
     <stop
   offset="0"
   stop-color="#C8E27B"
   id="stop137" />
     <stop
   offset="1"
   stop-color="#BB98C1"
   id="stop139" />
    </linearGradient>
    <linearGradient
   id="id27"
   gradientUnits="userSpaceOnUse"
   x1="65.591599"
   y1="86.9739"
   x2="65.591599"
   y2="88.980598">
     <stop
   offset="0"
   stop-color="#C8E27B"
   id="stop142" />
     <stop
   offset="1"
   stop-color="#BB98C1"
   id="stop144" />
    </linearGradient>
    <linearGradient
   id="id28"
   gradientUnits="userSpaceOnUse"
   x1="64.902901"
   y1="89.367699"
   x2="64.902901"
   y2="91.479797">
     <stop
   offset="0"
   stop-color="#C8E27B"
   id="stop147" />
     <stop
   offset="1"
   stop-color="#BB98C1"
   id="stop149" />
    </linearGradient>
    <linearGradient
   id="id29"
   gradientUnits="userSpaceOnUse"
   x1="63.997101"
   y1="91.9524"
   x2="63.997101"
   y2="94.914001">
     <stop
   offset="0"
   stop-color="#C8E27B"
   id="stop152" />
     <stop
   offset="1"
   stop-color="#BB98C1"
   id="stop154" />
    </linearGradient>
    <linearGradient
   id="id30"
   gradientUnits="userSpaceOnUse"
   x1="62.321201"
   y1="94.322899"
   x2="62.321201"
   y2="97.592102">
     <stop
   offset="0"
   stop-color="#C8E27B"
   id="stop157" />
     <stop
   offset="1"
   stop-color="#BB98C1"
   id="stop159" />
    </linearGradient>
    <linearGradient
   id="id31"
   gradientUnits="userSpaceOnUse"
   x1="66.120499"
   y1="84.012299"
   x2="66.120499"
   y2="85.935303">
     <stop
   offset="0"
   stop-color="#C8E27B"
   id="stop162" />
     <stop
   offset="1"
   stop-color="#BB98C1"
   id="stop164" />
    </linearGradient>
    <linearGradient
   id="id32"
   gradientUnits="userSpaceOnUse"
   x1="66.731903"
   y1="81.061401"
   x2="66.731903"
   y2="82.984398">
     <stop
   offset="0"
   stop-color="#C8E27B"
   id="stop167" />
     <stop
   offset="1"
   stop-color="#BB98C1"
   id="stop169" />
    </linearGradient>
    <linearGradient
   id="id33"
   gradientUnits="userSpaceOnUse"
   x1="65.409698"
   y1="80.942398"
   x2="66.662498"
   y2="73.839302">
     <stop
   offset="0"
   stop-color="#CCA888"
   id="stop172" />
     <stop
   offset="1"
   stop-color="#EB77A6"
   id="stop174" />
    </linearGradient>
    <linearGradient
   id="id34"
   gradientUnits="userSpaceOnUse"
   x1="64.267502"
   y1="74.495598"
   x2="62.212898"
   y2="68.528099">
     <stop
   offset="0"
   stop-color="#CCA888"
   id="stop177" />
     <stop
   offset="1"
   stop-color="#EB77A6"
   id="stop179" />
    </linearGradient>
    <linearGradient
   id="id35"
   gradientUnits="userSpaceOnUse"
   x1="48.545799"
   y1="49.652699"
   x2="45.709801"
   y2="54.987202">
     <stop
   offset="0"
   stop-color="#130C11"
   id="stop182" />
     <stop
   offset="1"
   stop-color="white"
   id="stop184" />
    </linearGradient>
    <linearGradient
   id="id36"
   gradientUnits="userSpaceOnUse"
   x1="49.2943"
   y1="43.005001"
   x2="45.8325"
   y2="49.515701">
     <stop
   offset="0"
   stop-color="#130C11"
   id="stop187" />
     <stop
   offset="1"
   stop-color="white"
   id="stop189" />
    </linearGradient>
    <linearGradient
   id="id37"
   gradientUnits="userSpaceOnUse"
   x1="44.019001"
   y1="51.604401"
   x2="43.758202"
   y2="59.071301">
     <stop
   offset="0"
   stop-color="#130C11"
   id="stop192" />
     <stop
   offset="1"
   stop-color="white"
   id="stop194" />
    </linearGradient>
    <linearGradient
   id="id38"
   gradientUnits="userSpaceOnUse"
   x1="45.627899"
   y1="54.386002"
   x2="45.356201"
   y2="62.150799">
     <stop
   offset="0"
   stop-color="#130C11"
   id="stop197" />
     <stop
   offset="1"
   stop-color="white"
   id="stop199" />
    </linearGradient>
    <linearGradient
   id="id39"
   gradientUnits="userSpaceOnUse"
   x1="45.389702"
   y1="59.401001"
   x2="45.064301"
   y2="68.738098">
     <stop
   offset="0"
   stop-color="#130C11"
   id="stop202" />
     <stop
   offset="1"
   stop-color="white"
   id="stop204" />
    </linearGradient>
    <linearGradient
   id="id40"
   gradientUnits="userSpaceOnUse"
   x1="56.8545"
   y1="50.178699"
   x2="49.007099"
   y2="64.937698">
     <stop
   offset="0"
   stop-color="#130C11"
   id="stop207" />
     <stop
   offset="1"
   stop-color="white"
   id="stop209" />
    </linearGradient>
    <linearGradient
   id="id41"
   gradientUnits="userSpaceOnUse"
   x1="54.134602"
   y1="61.508202"
   x2="50.878601"
   y2="63.622601">
     <stop
   offset="0"
   stop-color="#CCA888"
   id="stop212" />
     <stop
   offset="1"
   stop-color="#EB77A6"
   id="stop214" />
    </linearGradient>
    <linearGradient
   id="id42"
   gradientUnits="userSpaceOnUse"
   x1="55.237301"
   y1="61.669701"
   x2="52.857201"
   y2="64.715103">
     <stop
   offset="0"
   stop-color="#CCA888"
   id="stop217" />
     <stop
   offset="1"
   stop-color="#EB77A6"
   id="stop219" />
    </linearGradient>
 
  
  
 <radialGradient
   inkscape:collect="always"
   xlink:href="#id0"
   id="radialGradient17492"
   gradientUnits="userSpaceOnUse"
   cx="-34.671501"
   cy="225.349"
   fx="-34.671501"
   fy="225.349"
   r="9.2004004" /><radialGradient
   inkscape:collect="always"
   xlink:href="#id1"
   id="radialGradient17494"
   gradientUnits="userSpaceOnUse"
   cx="-34.671501"
   cy="225.349"
   fx="-34.671501"
   fy="225.349"
   r="9.2004004" /><radialGradient
   inkscape:collect="always"
   xlink:href="#id2"
   id="radialGradient17496"
   gradientUnits="userSpaceOnUse"
   cx="75.4217"
   cy="188.51401"
   fx="75.4217"
   fy="188.51401"
   r="9.2004004" /><radialGradient
   inkscape:collect="always"
   xlink:href="#id3"
   id="radialGradient17498"
   gradientUnits="userSpaceOnUse"
   cx="111.857"
   cy="226.936"
   fx="111.857"
   fy="226.936"
   r="8.9751997" /><radialGradient
   inkscape:collect="always"
   xlink:href="#id4"
   id="radialGradient17500"
   gradientUnits="userSpaceOnUse"
   cx="111.857"
   cy="226.936"
   fx="111.857"
   fy="226.936"
   r="8.9751997" /><radialGradient
   inkscape:collect="always"
   xlink:href="#id5"
   id="radialGradient17502"
   gradientUnits="userSpaceOnUse"
   cx="219.255"
   cy="187.735"
   fx="219.255"
   fy="187.735"
   r="8.9751997" /><radialGradient
   inkscape:collect="always"
   xlink:href="#id6"
   id="radialGradient17504"
   gradientUnits="userSpaceOnUse"
   cx="70.475502"
   cy="249.998"
   fx="70.475502"
   fy="249.998"
   r="6.3371" /><radialGradient
   inkscape:collect="always"
   xlink:href="#id7"
   id="radialGradient17506"
   gradientUnits="userSpaceOnUse"
   cx="70.475502"
   cy="249.998"
   fx="70.475502"
   fy="249.998"
   r="6.3371" /><radialGradient
   inkscape:collect="always"
   xlink:href="#id8"
   id="radialGradient17508"
   gradientUnits="userSpaceOnUse"
   cx="146.306"
   cy="220.56"
   fx="146.306"
   fy="220.56"
   r="6.3371" /><radialGradient
   inkscape:collect="always"
   xlink:href="#id9"
   id="radialGradient17510"
   gradientUnits="userSpaceOnUse"
   cx="21.9289"
   cy="235.149"
   fx="21.9289"
   fy="235.149"
   r="11.1562" /><radialGradient
   inkscape:collect="always"
   xlink:href="#id10"
   id="radialGradient17512"
   gradientUnits="userSpaceOnUse"
   cx="21.9289"
   cy="235.149"
   fx="21.9289"
   fy="235.149"
   r="11.1562" /><radialGradient
   inkscape:collect="always"
   xlink:href="#id11"
   id="radialGradient17514"
   gradientUnits="userSpaceOnUse"
   cx="21.9289"
   cy="235.149"
   fx="21.9289"
   fy="235.149"
   r="11.1562" /><radialGradient
   inkscape:collect="always"
   xlink:href="#id12"
   id="radialGradient17516"
   gradientUnits="userSpaceOnUse"
   cx="147.416"
   cy="203.976"
   fx="147.416"
   fy="203.976"
   r="11.1562" /><linearGradient
   inkscape:collect="always"
   xlink:href="#id13"
   id="linearGradient17518"
   gradientUnits="userSpaceOnUse"
   x1="129.17799"
   y1="39.366699"
   x2="133.64"
   y2="44.684399" /><linearGradient
   inkscape:collect="always"
   xlink:href="#id14"
   id="linearGradient17520"
   gradientUnits="userSpaceOnUse"
   x1="157.967"
   y1="39.3661"
   x2="162.429"
   y2="44.685001" /><linearGradient
   inkscape:collect="always"
   xlink:href="#id15"
   id="linearGradient17522"
   gradientUnits="userSpaceOnUse"
   x1="48.9132"
   y1="117.833"
   x2="68.8619"
   y2="129.35001" /><linearGradient
   inkscape:collect="always"
   xlink:href="#id16"
   id="linearGradient17524"
   gradientUnits="userSpaceOnUse"
   x1="43.966999"
   y1="108.194"
   x2="47.103298"
   y2="110.004" /><linearGradient
   inkscape:collect="always"
   xlink:href="#id17"
   id="linearGradient17526"
   gradientUnits="userSpaceOnUse"
   x1="39.3923"
   y1="111.857"
   x2="43.803001"
   y2="114.403" /><linearGradient
   inkscape:collect="always"
   xlink:href="#id18"
   id="linearGradient17528"
   gradientUnits="userSpaceOnUse"
   x1="39.928398"
   y1="107.7"
   x2="43.974098"
   y2="110.036" /><linearGradient
   inkscape:collect="always"
   xlink:href="#id19"
   id="linearGradient17530"
   gradientUnits="userSpaceOnUse"
   x1="40.495602"
   y1="104.132"
   x2="43.7803"
   y2="106.028" /><linearGradient
   inkscape:collect="always"
   xlink:href="#id20"
   id="linearGradient17532"
   gradientUnits="userSpaceOnUse"
   x1="34.801498"
   y1="114.754"
   x2="40.029499"
   y2="118.15" /><linearGradient
   inkscape:collect="always"
   xlink:href="#id21"
   id="linearGradient17534"
   gradientUnits="userSpaceOnUse"
   x1="35.8647"
   y1="110.036"
   x2="40.989799"
   y2="112.761" /><linearGradient
   inkscape:collect="always"
   xlink:href="#id22"
   id="linearGradient17536"
   gradientUnits="userSpaceOnUse"
   x1="57.8321"
   y1="99.327698"
   x2="57.8321"
   y2="103.642" /><linearGradient
   inkscape:collect="always"
   xlink:href="#id23"
   id="linearGradient17538"
   gradientUnits="userSpaceOnUse"
   x1="55.333"
   y1="101.928"
   x2="55.333"
   y2="106.242" /><linearGradient
   inkscape:collect="always"
   xlink:href="#id24"
   id="linearGradient17540"
   gradientUnits="userSpaceOnUse"
   x1="52.994202"
   y1="104.528"
   x2="52.994202"
   y2="108.842" /><linearGradient
   inkscape:collect="always"
   xlink:href="#id25"
   id="linearGradient17542"
   gradientUnits="userSpaceOnUse"
   x1="50.087601"
   y1="106.924"
   x2="50.087601"
   y2="111.24" /><linearGradient
   inkscape:collect="always"
   xlink:href="#id26"
   id="linearGradient17544"
   gradientUnits="userSpaceOnUse"
   x1="60.4324"
   y1="96.726898"
   x2="60.4324"
   y2="101.043" /><linearGradient
   inkscape:collect="always"
   xlink:href="#id27"
   id="linearGradient17546"
   gradientUnits="userSpaceOnUse"
   x1="65.591599"
   y1="86.9739"
   x2="65.591599"
   y2="88.980598" /><linearGradient
   inkscape:collect="always"
   xlink:href="#id28"
   id="linearGradient17548"
   gradientUnits="userSpaceOnUse"
   x1="64.902901"
   y1="89.367699"
   x2="64.902901"
   y2="91.479797" /><linearGradient
   inkscape:collect="always"
   xlink:href="#id29"
   id="linearGradient17550"
   gradientUnits="userSpaceOnUse"
   x1="63.997101"
   y1="91.9524"
   x2="63.997101"
   y2="94.914001" /><linearGradient
   inkscape:collect="always"
   xlink:href="#id30"
   id="linearGradient17552"
   gradientUnits="userSpaceOnUse"
   x1="62.321201"
   y1="94.322899"
   x2="62.321201"
   y2="97.592102" /><linearGradient
   inkscape:collect="always"
   xlink:href="#id31"
   id="linearGradient17554"
   gradientUnits="userSpaceOnUse"
   x1="66.120499"
   y1="84.012299"
   x2="66.120499"
   y2="85.935303" /><linearGradient
   inkscape:collect="always"
   xlink:href="#id32"
   id="linearGradient17556"
   gradientUnits="userSpaceOnUse"
   x1="66.731903"
   y1="81.061401"
   x2="66.731903"
   y2="82.984398" /><linearGradient
   inkscape:collect="always"
   xlink:href="#id33"
   id="linearGradient17558"
   gradientUnits="userSpaceOnUse"
   x1="65.409698"
   y1="80.942398"
   x2="66.662498"
   y2="73.839302" /><linearGradient
   inkscape:collect="always"
   xlink:href="#id34"
   id="linearGradient17560"
   gradientUnits="userSpaceOnUse"
   x1="64.267502"
   y1="74.495598"
   x2="62.212898"
   y2="68.528099" /><linearGradient
   inkscape:collect="always"
   xlink:href="#id35"
   id="linearGradient17562"
   gradientUnits="userSpaceOnUse"
   x1="48.545799"
   y1="49.652699"
   x2="45.709801"
   y2="54.987202" /><linearGradient
   inkscape:collect="always"
   xlink:href="#id36"
   id="linearGradient17564"
   gradientUnits="userSpaceOnUse"
   x1="49.2943"
   y1="43.005001"
   x2="45.8325"
   y2="49.515701" /><linearGradient
   inkscape:collect="always"
   xlink:href="#id37"
   id="linearGradient17566"
   gradientUnits="userSpaceOnUse"
   x1="44.019001"
   y1="51.604401"
   x2="43.758202"
   y2="59.071301" /><linearGradient
   inkscape:collect="always"
   xlink:href="#id38"
   id="linearGradient17568"
   gradientUnits="userSpaceOnUse"
   x1="45.627899"
   y1="54.386002"
   x2="45.356201"
   y2="62.150799" /><linearGradient
   inkscape:collect="always"
   xlink:href="#id39"
   id="linearGradient17570"
   gradientUnits="userSpaceOnUse"
   x1="45.389702"
   y1="59.401001"
   x2="45.064301"
   y2="68.738098" /><linearGradient
   inkscape:collect="always"
   xlink:href="#id40"
   id="linearGradient17572"
   gradientUnits="userSpaceOnUse"
   x1="56.8545"
   y1="50.178699"
   x2="49.007099"
   y2="64.937698" /><linearGradient
   inkscape:collect="always"
   xlink:href="#id41"
   id="linearGradient17574"
   gradientUnits="userSpaceOnUse"
   x1="54.134602"
   y1="61.508202"
   x2="50.878601"
   y2="63.622601" /><linearGradient
   inkscape:collect="always"
   xlink:href="#id42"
   id="linearGradient17576"
   gradientUnits="userSpaceOnUse"
   x1="55.237301"
   y1="61.669701"
   x2="52.857201"
   y2="64.715103" />
   
   
   
   
   
   
   
   
   
   
   
   
   
   
   
   
   
   
   
   
   
   
   
   
   
   
   
   
   
   
   
   
   
   
   
   
   
   
   
   
   
   
   
   
   
   
   
   
   
   
   
   
   
   
   
   
   
   
   
   
   
   
   
   
   
   
   
   
   
   
   
   
   
   
   
   
   
   
   
   
   
   
   
   
   
   
   
   
   
   
   
   
   
   
   
   
   
   
   
   
   
   
   
   
   
   
   
   
   
   
   
   
   
   
   
   
   
   
   
   
   
   
   
   
   
   
   
   
   
   
   
   
   
   
   
   
   
   
   
   
   
   
   
   
   
   
   
   
   
   
   
   
   
   
   
   
   
   
   
   
   
   
   
   
   
   
   
   
   
   
   
   
   
   
   
   
   
   
   
   
   
   
   
   
   
   
   
   
   
   
   
   
   
   
   
   
   
   
   
   
   
   
   
   
   
   
   
   
   
   
   
   
   
   
   
   
   
   
   
   
   
   
   
   
   
   
   
   
   
   
   
   
   
   
   
   
   
   
   
   
   
   
   
   
   
   
   
   
   
   
   
   
   
   
   
   
   
   
   
   
   
   
   
   
   
   
   
   
   
   
   
   
   
   
   
   
   
   
   
   
   
   
   
   
   
   
   
   
   
   
   
   
   
   
   
   
   
   
   
   
   
   
   
   
   
   
   
   
   
   
   
   
   
   
   
   
   
   
   
   
   
   
   
   
   
   
   
   
   
   
   
   
   
   
   
   
   
   
   
   
   
   
   
   
   
   
   
   
   
   
   
   
   
   
   
   
   
   
   
   
   
   
   
   
   
   
   
   
   
   
   
   
   
   
   
   
   
   
   
   
   
   
   
   
   
   
   
   
   
   
   
   
   
   
   
   
   
   
   
   
   
   
   
   
   
   
   
   
   
   
   
   
   
   
   
   
   
   
   
   
   
   
   
   
   
   
   
   
   
   
   
   
   
   
   
   
   
   
   
   
   
   
   
   
   
   
   
   
   
   
   
   
   
   
   
   
   
   
   
   
   
   
   
   
   
   
   
   
   
   
   
   
   
   
   
   
   
   
   
   
   
   
   
   
   
   
   
   
   
   
   
   
   
   
   
   
   
   
   
   
   
   
   
   
   
   
   
   
   
   
   
   
   
   
   
   
   
   
   
   
   
   
   
   
   
   
   
   
   
   
   
   
   
   
   
   
   
   
   
   
   
   
   
   
   
   
   
   
   
   
   
   
   
   
   
   
   
   
   
   
   
   
   
   
   
   
   
   
   
   
   
   
   
   
   
   
   
   
   
   
   
   
   
   
   
   
   
   
   
   
   
   
   
   
   
   
   
   
   
   
   
   
   
   
   
   
   
   
   
   
   
   
   
   
   
   
   
   
   
   
   
   
   
   
   
   
   
   
   
   
   
   
   
   
   
   
   
   
   
   
   
   
   
   
   
   
   
   
   
   
   
   
   
   
   
   
   
   
   
   
   
   
   
   
   
   
   
   
   
   
   
   
   
   
   
   
   
   
   
   
   
   
   
   
   
   
   
   
   
   
   
   
   
   
   
   
   
   
   
   
   
   
   
   
   
   
   
   
   
   
   
  <linearGradient
   inkscape:collect="always"
   xlink:href="#id42"
   id="linearGradient17773"
   gradientUnits="userSpaceOnUse"
   x1="55.237301"
   y1="61.669701"
   x2="52.857201"
   y2="64.715103"
   gradientTransform="translate(-4.0478059,-1.57925)" /><linearGradient
   inkscape:collect="always"
   xlink:href="#id41"
   id="linearGradient17776"
   gradientUnits="userSpaceOnUse"
   x1="54.134602"
   y1="61.508202"
   x2="50.878601"
   y2="63.622601"
   gradientTransform="translate(-4.0478059,-1.57925)" /><linearGradient
   inkscape:collect="always"
   xlink:href="#id40"
   id="linearGradient17788"
   gradientUnits="userSpaceOnUse"
   x1="56.8545"
   y1="50.178699"
   x2="49.007099"
   y2="64.937698"
   gradientTransform="translate(-4.0478059,-1.57925)" /><linearGradient
   inkscape:collect="always"
   xlink:href="#id39"
   id="linearGradient17791"
   gradientUnits="userSpaceOnUse"
   x1="45.389702"
   y1="59.401001"
   x2="45.064301"
   y2="68.738098"
   gradientTransform="translate(-4.0478059,-1.57925)" /><linearGradient
   inkscape:collect="always"
   xlink:href="#id38"
   id="linearGradient17795"
   gradientUnits="userSpaceOnUse"
   x1="45.627899"
   y1="54.386002"
   x2="45.356201"
   y2="62.150799"
   gradientTransform="translate(-4.0478059,-1.57925)" /><linearGradient
   inkscape:collect="always"
   xlink:href="#id37"
   id="linearGradient17798"
   gradientUnits="userSpaceOnUse"
   x1="44.019001"
   y1="51.604401"
   x2="43.758202"
   y2="59.071301"
   gradientTransform="translate(-4.0478059,-1.57925)" /><linearGradient
   inkscape:collect="always"
   xlink:href="#id36"
   id="linearGradient17801"
   gradientUnits="userSpaceOnUse"
   x1="49.2943"
   y1="43.005001"
   x2="45.8325"
   y2="49.515701"
   gradientTransform="translate(-4.0478059,-1.57925)" /><linearGradient
   inkscape:collect="always"
   xlink:href="#id35"
   id="linearGradient17804"
   gradientUnits="userSpaceOnUse"
   x1="48.545799"
   y1="49.652699"
   x2="45.709801"
   y2="54.987202"
   gradientTransform="translate(-4.0478059,-1.57925)" /><linearGradient
   inkscape:collect="always"
   xlink:href="#id34"
   id="linearGradient17909"
   gradientUnits="userSpaceOnUse"
   x1="64.267502"
   y1="74.495598"
   x2="62.212898"
   y2="68.528099"
   gradientTransform="translate(-4.0478059,-1.57925)" /><linearGradient
   inkscape:collect="always"
   xlink:href="#id33"
   id="linearGradient17912"
   gradientUnits="userSpaceOnUse"
   x1="65.409698"
   y1="80.942398"
   x2="66.662498"
   y2="73.839302"
   gradientTransform="translate(-4.0478059,-1.57925)" /><linearGradient
   inkscape:collect="always"
   xlink:href="#id32"
   id="linearGradient17960"
   gradientUnits="userSpaceOnUse"
   x1="66.731903"
   y1="81.061401"
   x2="66.731903"
   y2="82.984398"
   gradientTransform="translate(-4.0478059,-1.57925)" /><linearGradient
   inkscape:collect="always"
   xlink:href="#id31"
   id="linearGradient17963"
   gradientUnits="userSpaceOnUse"
   x1="66.120499"
   y1="84.012299"
   x2="66.120499"
   y2="85.935303"
   gradientTransform="translate(-4.0478059,-1.57925)" /><linearGradient
   inkscape:collect="always"
   xlink:href="#id30"
   id="linearGradient17966"
   gradientUnits="userSpaceOnUse"
   x1="62.321201"
   y1="94.322899"
   x2="62.321201"
   y2="97.592102"
   gradientTransform="translate(-4.0478059,-1.57925)" /><linearGradient
   inkscape:collect="always"
   xlink:href="#id29"
   id="linearGradient17969"
   gradientUnits="userSpaceOnUse"
   x1="63.997101"
   y1="91.9524"
   x2="63.997101"
   y2="94.914001"
   gradientTransform="translate(-4.0478059,-1.57925)" /><linearGradient
   inkscape:collect="always"
   xlink:href="#id28"
   id="linearGradient17972"
   gradientUnits="userSpaceOnUse"
   x1="64.902901"
   y1="89.367699"
   x2="64.902901"
   y2="91.479797"
   gradientTransform="translate(-4.0478059,-1.57925)" /><linearGradient
   inkscape:collect="always"
   xlink:href="#id27"
   id="linearGradient17975"
   gradientUnits="userSpaceOnUse"
   x1="65.591599"
   y1="86.9739"
   x2="65.591599"
   y2="88.980598"
   gradientTransform="translate(-4.0478059,-1.57925)" /><linearGradient
   inkscape:collect="always"
   xlink:href="#id26"
   id="linearGradient17978"
   gradientUnits="userSpaceOnUse"
   x1="60.4324"
   y1="96.726898"
   x2="60.4324"
   y2="101.043"
   gradientTransform="translate(-4.0478059,-1.57925)" /><linearGradient
   inkscape:collect="always"
   xlink:href="#id25"
   id="linearGradient17981"
   gradientUnits="userSpaceOnUse"
   x1="50.087601"
   y1="106.924"
   x2="50.087601"
   y2="111.24"
   gradientTransform="translate(-4.0478059,-1.57925)" /><linearGradient
   inkscape:collect="always"
   xlink:href="#id24"
   id="linearGradient17984"
   gradientUnits="userSpaceOnUse"
   x1="52.994202"
   y1="104.528"
   x2="52.994202"
   y2="108.842"
   gradientTransform="translate(-4.0478059,-1.57925)" /><linearGradient
   inkscape:collect="always"
   xlink:href="#id23"
   id="linearGradient17987"
   gradientUnits="userSpaceOnUse"
   x1="55.333"
   y1="101.928"
   x2="55.333"
   y2="106.242"
   gradientTransform="translate(-4.0478059,-1.57925)" /><linearGradient
   inkscape:collect="always"
   xlink:href="#id22"
   id="linearGradient17990"
   gradientUnits="userSpaceOnUse"
   x1="57.8321"
   y1="99.327698"
   x2="57.8321"
   y2="103.642"
   gradientTransform="translate(-4.0478059,-1.57925)" /><linearGradient
   inkscape:collect="always"
   xlink:href="#id21"
   id="linearGradient18005"
   gradientUnits="userSpaceOnUse"
   x1="35.8647"
   y1="110.036"
   x2="40.989799"
   y2="112.761"
   gradientTransform="translate(-4.0478059,-1.57925)" /><linearGradient
   inkscape:collect="always"
   xlink:href="#id20"
   id="linearGradient18008"
   gradientUnits="userSpaceOnUse"
   x1="34.801498"
   y1="114.754"
   x2="40.029499"
   y2="118.15"
   gradientTransform="translate(-4.0478059,-1.57925)" /><linearGradient
   inkscape:collect="always"
   xlink:href="#id19"
   id="linearGradient18015"
   gradientUnits="userSpaceOnUse"
   x1="40.495602"
   y1="104.132"
   x2="43.7803"
   y2="106.028"
   gradientTransform="translate(-4.0478059,-1.57925)" /><linearGradient
   inkscape:collect="always"
   xlink:href="#id18"
   id="linearGradient18018"
   gradientUnits="userSpaceOnUse"
   x1="39.928398"
   y1="107.7"
   x2="43.974098"
   y2="110.036"
   gradientTransform="translate(-4.0478059,-1.57925)" /><linearGradient
   inkscape:collect="always"
   xlink:href="#id17"
   id="linearGradient18021"
   gradientUnits="userSpaceOnUse"
   x1="39.3923"
   y1="111.857"
   x2="43.803001"
   y2="114.403"
   gradientTransform="translate(-4.0478059,-1.57925)" /><linearGradient
   inkscape:collect="always"
   xlink:href="#id16"
   id="linearGradient18034"
   gradientUnits="userSpaceOnUse"
   x1="43.966999"
   y1="108.194"
   x2="47.103298"
   y2="110.004"
   gradientTransform="translate(-4.0478059,-1.57925)" /><linearGradient
   inkscape:collect="always"
   xlink:href="#id15"
   id="linearGradient18120"
   gradientUnits="userSpaceOnUse"
   x1="48.9132"
   y1="117.833"
   x2="68.8619"
   y2="129.35001"
   gradientTransform="translate(-4.0478059,-1.57925)" /><linearGradient
   inkscape:collect="always"
   xlink:href="#id14"
   id="linearGradient18125"
   gradientUnits="userSpaceOnUse"
   x1="157.967"
   y1="39.3661"
   x2="162.429"
   y2="44.685001"
   gradientTransform="translate(-4.0478059,-1.57925)" /><linearGradient
   inkscape:collect="always"
   xlink:href="#id13"
   id="linearGradient18130"
   gradientUnits="userSpaceOnUse"
   x1="129.17799"
   y1="39.366699"
   x2="133.64"
   y2="44.684399"
   gradientTransform="translate(-4.0478059,-1.57925)" /><radialGradient
   inkscape:collect="always"
   xlink:href="#id12"
   id="radialGradient18335"
   gradientUnits="userSpaceOnUse"
   cx="147.416"
   cy="203.976"
   fx="147.416"
   fy="203.976"
   r="11.1562"
   gradientTransform="translate(-4.0478059,-1.57925)" /><radialGradient
   inkscape:collect="always"
   xlink:href="#id11"
   id="radialGradient18338"
   gradientUnits="userSpaceOnUse"
   cx="21.9289"
   cy="235.149"
   fx="21.9289"
   fy="235.149"
   r="11.1562"
   gradientTransform="translate(-4.0478059,-1.57925)" /><radialGradient
   inkscape:collect="always"
   xlink:href="#id10"
   id="radialGradient18341"
   gradientUnits="userSpaceOnUse"
   cx="21.9289"
   cy="235.149"
   fx="21.9289"
   fy="235.149"
   r="11.1562"
   gradientTransform="translate(-4.0478059,-1.57925)" /><radialGradient
   inkscape:collect="always"
   xlink:href="#id9"
   id="radialGradient18344"
   gradientUnits="userSpaceOnUse"
   cx="21.9289"
   cy="235.149"
   fx="21.9289"
   fy="235.149"
   r="11.1562"
   gradientTransform="translate(-4.0478059,-1.57925)" /><radialGradient
   inkscape:collect="always"
   xlink:href="#id8"
   id="radialGradient18347"
   gradientUnits="userSpaceOnUse"
   cx="146.306"
   cy="220.56"
   fx="146.306"
   fy="220.56"
   r="6.3371"
   gradientTransform="translate(-4.0478059,-1.57925)" /><radialGradient
   inkscape:collect="always"
   xlink:href="#id7"
   id="radialGradient18350"
   gradientUnits="userSpaceOnUse"
   cx="70.475502"
   cy="249.998"
   fx="70.475502"
   fy="249.998"
   r="6.3371"
   gradientTransform="translate(-4.0478059,-1.57925)" /><radialGradient
   inkscape:collect="always"
   xlink:href="#id6"
   id="radialGradient18353"
   gradientUnits="userSpaceOnUse"
   cx="70.475502"
   cy="249.998"
   fx="70.475502"
   fy="249.998"
   r="6.3371"
   gradientTransform="translate(-4.0478059,-1.57925)" /><radialGradient
   inkscape:collect="always"
   xlink:href="#id5"
   id="radialGradient18356"
   gradientUnits="userSpaceOnUse"
   cx="219.255"
   cy="187.735"
   fx="219.255"
   fy="187.735"
   r="8.9751997"
   gradientTransform="translate(-4.0478059,-1.57925)" /><radialGradient
   inkscape:collect="always"
   xlink:href="#id4"
   id="radialGradient18359"
   gradientUnits="userSpaceOnUse"
   cx="111.857"
   cy="226.936"
   fx="111.857"
   fy="226.936"
   r="8.9751997"
   gradientTransform="translate(-4.0478059,-1.57925)" /><radialGradient
   inkscape:collect="always"
   xlink:href="#id3"
   id="radialGradient18362"
   gradientUnits="userSpaceOnUse"
   cx="111.857"
   cy="226.936"
   fx="111.857"
   fy="226.936"
   r="8.9751997"
   gradientTransform="translate(-4.0478059,-1.57925)" /><radialGradient
   inkscape:collect="always"
   xlink:href="#id2"
   id="radialGradient18365"
   gradientUnits="userSpaceOnUse"
   cx="75.4217"
   cy="188.51401"
   fx="75.4217"
   fy="188.51401"
   r="9.2004004"
   gradientTransform="translate(-4.0478059,-1.57925)" /><radialGradient
   inkscape:collect="always"
   xlink:href="#id1"
   id="radialGradient18368"
   gradientUnits="userSpaceOnUse"
   cx="-34.671501"
   cy="225.349"
   fx="-34.671501"
   fy="225.349"
   r="9.2004004"
   gradientTransform="translate(-4.0478059,-1.57925)" /><radialGradient
   inkscape:collect="always"
   xlink:href="#id0"
   id="radialGradient18371"
   gradientUnits="userSpaceOnUse"
   cx="-34.671501"
   cy="225.349"
   fx="-34.671501"
   fy="225.349"
   r="9.2004004"
   gradientTransform="translate(-4.0478059,-1.57925)" /></defs>
 <g
   id="g18377"
   transform="translate(66.97675,-57.811511)"><path
     inkscape:connector-curvature="0"
     style="fill:#626a6e;fill-rule:nonzero"
     d="m 67.405394,174.07975 c 0.1268,0.3799 0.4726,2.6553 0.2848,2.4967 -0.1897,-0.1561 -1.2302,2.8139 -1.3869,2.687 -0.158,-0.1268 -0.0945,-2.6553 -0.2214,-2.6553 -0.1268,0 -1.1104,-1.1649 -1.1104,-1.1649 0,0 1.4251,-1.8362 1.2373,-2.3094 -0.1903,-0.4727 1.0721,0.5678 1.1966,0.9459 z"
     id="_174813152" /><path
     inkscape:connector-curvature="0"
     style="fill:#626a6e;fill-rule:nonzero"
     d="m 38.319894,165.49275 -0.6629,2.2754 -0.8502,-1.5832 c 0,0 0.8819,-3.0645 0.7239,-3.1895 -0.1585,-0.1263 2.5285,-2.9634 3.128,-1.357 0.0442,0.1185 -0.9771,1.7034 -0.9771,1.7034 0,0 -0.3081,1.5891 -0.3781,0.9836 -0.0592,-0.5068 -0.9836,1.1673 -0.9836,1.1673 z"
     id="_174810968" /><path
     inkscape:connector-curvature="0"
     style="fill:#626a6e;fill-rule:nonzero"
     d="m 67.116394,164.19275 1.3928,0.3141 0.9143,0.545 c 0,0 1.1038,0.9137 1.1984,1.1015 0.0933,0.1903 0.5043,0.5678 0.6294,0.9454 0.1262,0.3799 0.4493,1.4586 0.542,1.6782 0.0952,0.2214 -0.0927,1.5131 -0.0927,1.5131 0,0 -0.7574,-0.8502 -0.9453,-1.0087 -0.1903,-0.158 -0.6312,-1.2601 -0.7898,-1.3869 -0.1561,-0.1262 -0.7933,-0.5044 -0.9202,-0.5044 -0.1268,0 -1.4503,-0.2596 -1.4503,-0.2596 0,0 0.1185,-0.6289 -0.0694,-1.1015 -0.1896,-0.4751 -0.4092,-1.8362 -0.4092,-1.8362 z"
     id="_174812624" /><path
     inkscape:connector-curvature="0"
     style="fill:#626a6e;fill-rule:nonzero"
     d="m 64.813494,159.26775 1.3953,0.3147 0.9136,0.5427 c 0,0 1.1038,0.916 1.1972,1.1039 0.0945,0.1896 0.5044,0.5678 0.6306,0.9453 0.1268,0.3781 0.4792,1.2684 0.5744,1.488 0.0951,0.222 -0.3207,0.1585 -0.3207,0.1585 0,0 -0.4434,-0.3841 -0.6312,-0.5426 -0.1903,-0.158 -0.6947,-0.6312 -0.8508,-0.7557 -0.158,-0.1262 -1.0088,-0.5678 -1.1356,-0.5678 -0.1263,0 -0.9136,-0.1262 -0.9136,-0.1262 0,0 -0.2597,-0.2537 -0.4476,-0.7264 -0.1902,-0.4726 -0.4116,-1.8344 -0.4116,-1.8344 z"
     id="_174813688" /><path
     inkscape:connector-curvature="0"
     style="fill:none;stroke:#1f1a17;stroke-width:0.1132;stroke-linejoin:round"
     d="m 63.817294,159.36975 c 0,0 2.7014,-0.7239 4.5442,2.1761 1.5005,2.3597 1.7141,3.2272 1.7141,3.2272 0,0 -2.3053,-2.5033 -3.4911,-2.8323 -1.1865,-0.3297 -1.4228,-0.0174 -1.4228,-0.0174 m 1.2242,1.9613 c 0,0 2.4123,-0.1418 4.0864,2.106 1.6693,2.246 1.7117,6.062 1.7117,6.062 0,0 -1.1188,-3.4235 -2.3046,-4.215 -1.1889,-0.7916 -2.9006,-0.6582 -2.9006,-0.6582 m -1.1183,5.4937 c 0,0 1.7034,0.5217 1.8422,2.7229 0.1227,1.9062 -1.6459,5.4667 -1.6459,5.4667 0,0 0.5169,-3.4253 -0.1502,-4.5106 -0.6964,-1.1356 -1.8805,-0.709 -1.8805,-0.709 m -22.3102,-14.3863 c 0,0 -2.5033,-0.3799 -3.4911,0.8041 -0.9878,1.1859 -1.7477,3.1196 -1.1566,4.6369 0.5936,1.5155 0.5553,1.7225 0.5553,1.7225 0,0 0.5654,-3.6323 1.5556,-3.962 1.1882,-0.3943 1.1164,-0.0903 1.1164,-0.0903"
     id="_174817192" /><path
     inkscape:connector-curvature="0"
     style="fill:#e8bb5c;fill-rule:nonzero"
     d="m 65.053994,160.81975 c -0.1454,-0.8526 -1.4329,-1.8781 -2.5685,-1.5807 -1.5179,0.3967 -1.7794,1.7142 -3.2949,1.9104 -1.5155,0.198 -3.1345,1.1416 -3.5563,0.3967 -6.0704,-10.7247 -5.8365,-14.4288 -7.7864,-20.1193 l -4.8738,8.9285 c 0,1.3145 2.419,1.6358 3.5019,3.4822 0.6881,1.1697 4.1517,6.1931 4.4807,6.917 0.3291,0.724 0.9202,1.4503 0.3949,1.6466 -0.5277,0.198 -1.978,0.5929 -3.2297,0 -1.2516,-0.5936 -2.3722,-1.5138 -3.7549,-1.3827 -1.3821,0.131 -2.5033,-0.1311 -3.031,0.6587 -0.5254,0.7892 -1.7118,1.5825 -1.3169,2.2395 0.3949,0.6605 1.5179,1.5155 2.7671,1.5155 1.2517,0 3.755,-0.0658 5.2047,0.2632 1.0219,0.2328 1.7525,0.4607 2.6068,0.9017 0.0659,0.5253 -0.2489,0.7173 1.4204,1.6908 1.1356,0.6623 1.847,0.3668 1.847,0.3668 0.1394,0.627 6.1404,4.0846 6.3785,4.4202 0.3297,0.4601 0.2639,1.0531 0.6588,1.4479 0.3949,0.3943 2.252,1.5299 2.9107,1.2661 0.6582,-0.2639 1.2918,-0.5888 1.57,-1.3319 1.0554,-2.8324 1.6465,-2.3046 -2.8976,-4.0188 -0.9962,-0.3757 -5.2053,-2.7013 -5.931,-3.3601 -0.724,-0.6581 -1.0536,-1.1188 -1.0536,-1.1188 0,0 2.0432,-0.6582 3.6897,-0.1328 1.6466,0.5277 3.1681,0.9501 3.4911,0.8567 0.4619,-0.1328 0.0192,0.085 0.1981,0.4607 0.7239,1.5173 3.7549,1.3211 4.0846,0.3309 0.3291,-0.9896 0.5929,-2.6361 -0.131,-3.2273 -0.724,-0.5929 -0.0826,-1.108 -2.2544,-1.1565 -0.8,-0.0191 0.6755,-1.0871 0.475,-2.2712 z"
     id="_174815312" /><path
     inkscape:connector-curvature="0"
     style="fill:none;stroke:#1f1a17;stroke-width:0.2261;stroke-linecap:round;stroke-linejoin:round"
     d="m 65.053994,160.81975 c -0.1454,-0.8526 -1.4329,-1.8781 -2.5685,-1.5807 -1.5179,0.3967 -1.7794,1.7142 -3.2949,1.9104 -1.5155,0.198 -3.1345,1.1416 -3.5563,0.3967 -6.0704,-10.7247 -5.8365,-14.4288 -7.7864,-20.1193 l -4.8738,8.9285 c 0,1.3145 2.419,1.6358 3.5019,3.4822 0.6881,1.1697 4.1517,6.1931 4.4807,6.917 0.3291,0.724 0.9202,1.4503 0.3949,1.6466 -0.5277,0.198 -1.978,0.5929 -3.2297,0 -1.2516,-0.5936 -2.3722,-1.5138 -3.7549,-1.3827 -1.3821,0.131 -2.5033,-0.1311 -3.031,0.6587 -0.5254,0.7892 -1.7118,1.5825 -1.3169,2.2395 0.3949,0.6605 1.5179,1.5155 2.7671,1.5155 1.2517,0 3.755,-0.0658 5.2047,0.2632 1.0219,0.2328 1.7525,0.4607 2.6068,0.9017 0.0659,0.5253 -0.2489,0.7173 1.4204,1.6908 1.1356,0.6623 1.847,0.3668 1.847,0.3668 0.1394,0.627 6.1404,4.0846 6.3785,4.4202 0.3297,0.4601 0.2639,1.0531 0.6588,1.4479 0.3949,0.3943 2.252,1.5299 2.9107,1.2661 0.6582,-0.2639 1.2918,-0.5888 1.57,-1.3319 1.0554,-2.8324 1.6465,-2.3046 -2.8976,-4.0188 -0.9962,-0.3757 -5.2053,-2.7013 -5.931,-3.3601 -0.724,-0.6581 -1.0536,-1.1188 -1.0536,-1.1188 0,0 2.0432,-0.6582 3.6897,-0.1328 1.6466,0.5277 3.1681,0.9501 3.4911,0.8567 0.4619,-0.1328 0.0192,0.085 0.1981,0.4607 0.7239,1.5173 3.7549,1.3211 4.0846,0.3309 0.3291,-0.9896 0.5929,-2.6361 -0.131,-3.2273 -0.724,-0.5929 -0.0826,-1.108 -2.2544,-1.1565 -0.8,-0.0191 0.6755,-1.0871 0.475,-2.2712 z"
     id="_174818592" /><path
     inkscape:connector-curvature="0"
     style="fill:#896940;fill-rule:nonzero"
     d="m 49.966494,153.47075 c 0.3213,-0.7221 -0.8544,-2.2568 -0.8101,-2.1317 0.5152,1.4521 -1.0303,1.7536 -0.4517,2.6822 1.6717,2.681 0.3189,1.5598 1.2618,-0.5505 z"
     id="_174819568" /><path
     inkscape:connector-curvature="0"
     style="fill:#896940;fill-rule:nonzero"
     d="m 52.045594,157.06475 c 0.3231,-0.7198 -0.8525,-2.2539 -0.8083,-2.1294 0.5152,1.4521 -1.0297,1.7518 -0.4517,2.6828 1.6699,2.678 0.3165,1.5598 1.26,-0.5534 z"
     id="_174825456" /><path
     inkscape:connector-curvature="0"
     style="fill:#896940;fill-rule:nonzero"
     d="m 54.475394,161.43875 c 0.2046,-0.7623 -1.1966,-2.0941 -1.1338,-1.978 0.7371,1.3533 -0.7425,1.8936 -0.0252,2.7187 2.0684,2.3872 0.5571,1.4922 1.159,-0.7407 z"
     id="_174826200" /><path
     inkscape:connector-curvature="0"
     style="fill:#896940;fill-rule:nonzero"
     d="m 58.223794,162.95175 c -0.2555,-0.5762 -1.7962,-0.6982 -1.6992,-0.6581 1.1379,0.4702 0.49,1.549 1.3533,1.7033 2.486,0.441 1.0955,0.6456 0.3459,-1.0452 z"
     id="_174829488" /><path
     inkscape:connector-curvature="0"
     style="fill:#896940;fill-rule:nonzero"
     d="m 61.926094,164.36175 c -0.1945,-0.5995 -1.7142,-0.8825 -1.6208,-0.8316 1.0823,0.5869 0.3248,1.5915 1.1667,1.8344 2.4255,0.6982 1.0237,0.7574 0.4541,-1.0028 z"
     id="_174826960" /><path
     inkscape:connector-curvature="0"
     style="fill:#896940;fill-rule:nonzero"
     d="m 65.505694,165.10075 c -0.137,-0.779 -1.9732,-1.3952 -1.8679,-1.3175 1.2433,0.9184 0.1269,2.0349 1.129,2.4824 2.8875,1.2894 1.138,1.1165 0.7389,-1.1649 z"
     id="_174827608" /><path
     inkscape:connector-curvature="0"
     style="fill:#896940;fill-rule:nonzero"
     d="m 63.582794,160.97975 c -0.1837,-0.6037 -1.6992,-0.9136 -1.6059,-0.861 1.0722,0.6061 0.2974,1.5981 1.135,1.8554 2.413,0.7407 1.0094,0.7748 0.4709,-0.9944 z"
     id="_174829224" /><path
     inkscape:connector-curvature="0"
     style="fill:#896940;fill-rule:nonzero"
     d="m 61.449194,161.95775 c -0.1837,-0.6037 -1.6992,-0.9142 -1.6088,-0.8616 1.0745,0.6061 0.2979,1.5981 1.1356,1.8554 2.4147,0.7413 1.0093,0.7748 0.4732,-0.9938 z"
     id="_174830432" /><path
     inkscape:connector-curvature="0"
     style="fill:none;stroke:#1f1a17;stroke-width:0.1132;stroke-linecap:round;stroke-linejoin:round"
     d="m 63.916594,162.90975 c 0.0653,0.7916 -3.8608,0.2555 -3.7298,0.4535"
     id="_174832944" /><path
     inkscape:connector-curvature="0"
     style="fill:#896940;fill-rule:nonzero"
     d="m 51.678894,164.07475 c -0.1669,-0.6773 -1.8219,-1.1057 -1.7225,-1.0428 1.1481,0.7305 0.2363,1.7793 1.1457,2.1108 2.6194,0.9585 1.068,0.9142 0.5768,-1.068 z"
     id="_174833560" /><path
     inkscape:connector-curvature="0"
     style="fill:#896940;fill-rule:nonzero"
     d="m 43.561094,162.71975 c -0.2364,-0.6564 -1.9272,-0.9095 -1.8219,-0.8586 1.2182,0.6079 0.42,1.7476 1.3594,1.9816 2.7061,0.6779 1.1589,0.7957 0.4625,-1.123 z"
     id="_174831672" /><path
     inkscape:connector-curvature="0"
     style="fill:#896940;fill-rule:nonzero"
     d="m 47.391994,162.99575 c -0.2369,-0.6564 -1.9271,-0.9095 -1.8218,-0.8568 1.2181,0.6061 0.4224,1.7459 1.3593,1.9798 2.7062,0.6779 1.1589,0.7957 0.4625,-1.123 z"
     id="_174832504" /><path
     inkscape:connector-curvature="0"
     style="fill:#896940;fill-rule:nonzero"
     d="m 57.795394,168.80075 c -0.1837,-0.6037 -1.6992,-0.9118 -1.6065,-0.8609 1.0722,0.6055 0.298,1.5998 1.1338,1.8547 2.4148,0.7413 1.0111,0.7748 0.4727,-0.9938 z"
     id="_174834456" /><path
     inkscape:connector-curvature="0"
     style="fill:#896940;fill-rule:nonzero"
     d="m 60.721094,170.47175 c -0.1837,-0.6037 -1.6992,-0.9142 -1.6089,-0.861 1.0746,0.6055 0.2998,1.5975 1.1356,1.8548 2.4148,0.7413 1.0112,0.7748 0.4733,-0.9938 z"
     id="_174837728" /><path
     inkscape:connector-curvature="0"
     style="fill:#896940;fill-rule:nonzero"
     d="m 63.734794,172.62275 c -0.1837,-0.6037 -1.6992,-0.9142 -1.6059,-0.8633 1.0722,0.6078 0.2974,1.5998 1.135,1.8571 2.413,0.7407 1.0093,0.7748 0.4709,-0.9938 z"
     id="_174835776" /></g>
</svg>