<?xml version="1.0" encoding="UTF-8" standalone="no"?>
<!-- Created with Inkscape (http://www.inkscape.org/) -->

<svg
   xmlns:dc="http://purl.org/dc/elements/1.1/"
   xmlns:cc="http://creativecommons.org/ns#"
   xmlns:rdf="http://www.w3.org/1999/02/22-rdf-syntax-ns#"
   xmlns:svg="http://www.w3.org/2000/svg"
   xmlns="http://www.w3.org/2000/svg"
   xmlns:xlink="http://www.w3.org/1999/xlink"
   xmlns:sodipodi="http://sodipodi.sourceforge.net/DTD/sodipodi-0.dtd"
   xmlns:inkscape="http://www.inkscape.org/namespaces/inkscape"
   width="696.82391"
   height="898.03546"
   id="svg3364"
   sodipodi:version="0.32"
   inkscape:version="0.48.2 r9819"
   sodipodi:docname="pata2.svg"
   inkscape:output_extension="org.inkscape.output.svg.inkscape"
   version="1.0">
  <defs
     id="defs3366">
    <linearGradient
       id="linearGradient75091">
      <stop
         style="stop-color:#b2b2b2;stop-opacity:1;"
         offset="0"
         id="stop75093" />
      <stop
         id="stop75101"
         offset="1"
         style="stop-color:#cccccc;stop-opacity:0.49803922;" />
    </linearGradient>
    <inkscape:perspective
       sodipodi:type="inkscape:persp3d"
       inkscape:vp_x="0 : 450 : 1"
       inkscape:vp_y="0 : 1000 : 0"
       inkscape:vp_z="710.00006 : 450 : 1"
       inkscape:persp3d-origin="355.00003 : 300 : 1"
       id="perspective257" />
    <linearGradient
       id="linearGradient4476">
      <stop
         style="stop-color:#403800;stop-opacity:1;"
         offset="0"
         id="stop4478" />
      <stop
         id="stop3321"
         offset="0.5"
         style="stop-color:#c8af00;stop-opacity:1;" />
      <stop
         style="stop-color:#403900;stop-opacity:1;"
         offset="1"
         id="stop4480" />
    </linearGradient>
    <radialGradient
       inkscape:collect="always"
       xlink:href="#linearGradient75091"
       id="radialGradient75099"
       cx="645.54163"
       cy="903.95789"
       fx="645.54163"
       fy="903.95789"
       r="63.703068"
       gradientTransform="matrix(1,0,0,1.1968753,0,-177.96698)"
       gradientUnits="userSpaceOnUse"
       spreadMethod="reflect" />
    <radialGradient
       inkscape:collect="always"
       xlink:href="#linearGradient75091"
       id="radialGradient75103"
       gradientUnits="userSpaceOnUse"
       gradientTransform="matrix(1,0,0,1.1968753,0,-177.96698)"
       spreadMethod="reflect"
       cx="645.54163"
       cy="903.95789"
       fx="645.54163"
       fy="903.95789"
       r="63.703068" />
    <radialGradient
       inkscape:collect="always"
       xlink:href="#linearGradient75091"
       id="radialGradient75105"
       gradientUnits="userSpaceOnUse"
       gradientTransform="matrix(1,0,0,1.1968753,0,-177.96698)"
       spreadMethod="reflect"
       cx="645.54163"
       cy="903.95789"
       fx="645.54163"
       fy="903.95789"
       r="63.703068" />
    <radialGradient
       inkscape:collect="always"
       xlink:href="#linearGradient75091"
       id="radialGradient75107"
       gradientUnits="userSpaceOnUse"
       gradientTransform="matrix(1,0,0,1.1968753,0,-177.96698)"
       spreadMethod="reflect"
       cx="645.54163"
       cy="903.95789"
       fx="645.54163"
       fy="903.95789"
       r="63.703068" />
    <radialGradient
       inkscape:collect="always"
       xlink:href="#linearGradient75091"
       id="radialGradient75109"
       gradientUnits="userSpaceOnUse"
       gradientTransform="matrix(1,0,0,1.1968753,0,-177.96698)"
       spreadMethod="reflect"
       cx="645.54163"
       cy="903.95789"
       fx="645.54163"
       fy="903.95789"
       r="63.703068" />
    <radialGradient
       inkscape:collect="always"
       xlink:href="#linearGradient75091"
       id="radialGradient75111"
       gradientUnits="userSpaceOnUse"
       gradientTransform="matrix(1,0,0,1.1968753,0,-177.96698)"
       spreadMethod="reflect"
       cx="645.54163"
       cy="903.95789"
       fx="645.54163"
       fy="903.95789"
       r="63.703068" />
    <radialGradient
       inkscape:collect="always"
       xlink:href="#linearGradient75091"
       id="radialGradient75113"
       gradientUnits="userSpaceOnUse"
       gradientTransform="matrix(1,0,0,1.1968753,0,-177.96698)"
       spreadMethod="reflect"
       cx="645.54163"
       cy="903.95789"
       fx="645.54163"
       fy="903.95789"
       r="63.703068" />
    <radialGradient
       inkscape:collect="always"
       xlink:href="#linearGradient75091"
       id="radialGradient75115"
       gradientUnits="userSpaceOnUse"
       gradientTransform="matrix(1,0,0,1.1968753,0,-177.96698)"
       spreadMethod="reflect"
       cx="645.54163"
       cy="903.95789"
       fx="645.54163"
       fy="903.95789"
       r="63.703068" />
    <radialGradient
       inkscape:collect="always"
       xlink:href="#linearGradient75091"
       id="radialGradient75117"
       gradientUnits="userSpaceOnUse"
       gradientTransform="matrix(1,0,0,1.1968753,0,-177.96698)"
       spreadMethod="reflect"
       cx="645.54163"
       cy="903.95789"
       fx="645.54163"
       fy="903.95789"
       r="63.703068" />
    <radialGradient
       inkscape:collect="always"
       xlink:href="#linearGradient75091"
       id="radialGradient75119"
       gradientUnits="userSpaceOnUse"
       gradientTransform="matrix(1,0,0,1.1968753,0,-177.96698)"
       spreadMethod="reflect"
       cx="645.54163"
       cy="903.95789"
       fx="645.54163"
       fy="903.95789"
       r="63.703068" />
    <radialGradient
       inkscape:collect="always"
       xlink:href="#linearGradient75091"
       id="radialGradient75122"
       gradientUnits="userSpaceOnUse"
       gradientTransform="matrix(1,0,0,1.1968753,-271.82321,-330.45317)"
       spreadMethod="reflect"
       cx="645.54163"
       cy="903.95789"
       fx="645.54163"
       fy="903.95789"
       r="63.703068" />
    <radialGradient
       inkscape:collect="always"
       xlink:href="#linearGradient75091"
       id="radialGradient75125"
       gradientUnits="userSpaceOnUse"
       gradientTransform="matrix(1,0,0,1.1968753,-271.82321,-330.45317)"
       spreadMethod="reflect"
       cx="645.54163"
       cy="903.95789"
       fx="645.54163"
       fy="903.95789"
       r="63.703068" />
    <radialGradient
       inkscape:collect="always"
       xlink:href="#linearGradient75091"
       id="radialGradient75128"
       gradientUnits="userSpaceOnUse"
       gradientTransform="matrix(1,0,0,1.1968753,-271.82321,-330.45317)"
       spreadMethod="reflect"
       cx="645.54163"
       cy="903.95789"
       fx="645.54163"
       fy="903.95789"
       r="63.703068" />
    <radialGradient
       inkscape:collect="always"
       xlink:href="#linearGradient75091"
       id="radialGradient75131"
       gradientUnits="userSpaceOnUse"
       gradientTransform="matrix(1,0,0,1.1968753,-271.82321,-330.45317)"
       spreadMethod="reflect"
       cx="645.54163"
       cy="903.95789"
       fx="645.54163"
       fy="903.95789"
       r="63.703068" />
    <radialGradient
       inkscape:collect="always"
       xlink:href="#linearGradient75091"
       id="radialGradient75134"
       gradientUnits="userSpaceOnUse"
       gradientTransform="matrix(1,0,0,1.1968753,-271.82321,-330.45317)"
       spreadMethod="reflect"
       cx="645.54163"
       cy="903.95789"
       fx="645.54163"
       fy="903.95789"
       r="63.703068" />
    <radialGradient
       inkscape:collect="always"
       xlink:href="#linearGradient75091"
       id="radialGradient75137"
       gradientUnits="userSpaceOnUse"
       gradientTransform="matrix(1,0,0,1.1968753,-271.82321,-330.45317)"
       spreadMethod="reflect"
       cx="645.54163"
       cy="903.95789"
       fx="645.54163"
       fy="903.95789"
       r="63.703068" />
    <radialGradient
       inkscape:collect="always"
       xlink:href="#linearGradient75091"
       id="radialGradient75140"
       gradientUnits="userSpaceOnUse"
       gradientTransform="matrix(1,0,0,1.1968753,-271.82321,-330.45317)"
       spreadMethod="reflect"
       cx="645.54163"
       cy="903.95789"
       fx="645.54163"
       fy="903.95789"
       r="63.703068" />
    <radialGradient
       inkscape:collect="always"
       xlink:href="#linearGradient75091"
       id="radialGradient75143"
       gradientUnits="userSpaceOnUse"
       gradientTransform="matrix(1,0,0,1.1968753,-271.82321,-330.45317)"
       spreadMethod="reflect"
       cx="645.54163"
       cy="903.95789"
       fx="645.54163"
       fy="903.95789"
       r="63.703068" />
    <radialGradient
       inkscape:collect="always"
       xlink:href="#linearGradient75091"
       id="radialGradient75146"
       gradientUnits="userSpaceOnUse"
       gradientTransform="matrix(1,0,0,1.1968753,-271.82321,-330.45317)"
       spreadMethod="reflect"
       cx="645.54163"
       cy="903.95789"
       fx="645.54163"
       fy="903.95789"
       r="63.703068" />
  </defs>
  <sodipodi:namedview
     id="base"
     pagecolor="#ffffff"
     bordercolor="#666666"
     borderopacity="1.0"
     inkscape:pageopacity="0.0"
     inkscape:pageshadow="2"
     inkscape:zoom="1.2066667"
     inkscape:cx="361.00467"
     inkscape:cy="484.60065"
     inkscape:document-units="px"
     inkscape:current-layer="layer1"
     inkscape:window-width="1366"
     inkscape:window-height="706"
     inkscape:window-x="-8"
     inkscape:window-y="-8"
     width="710.00006px"
     height="900px"
     showguides="true"
     inkscape:guide-bbox="true"
     borderlayer="true"
     showgrid="false"
     inkscape:window-maximized="1">
    <sodipodi:guide
       orientation="vertical"
       position="-734.01283"
       id="guide5427" />
  </sodipodi:namedview>
  <metadata
     id="metadata3369">
    <rdf:RDF>
      <cc:Work
         rdf:about="">
        <dc:format>image/svg+xml</dc:format>
        <dc:type
           rdf:resource="http://purl.org/dc/dcmitype/StillImage" />
        <dc:title></dc:title>
      </cc:Work>
    </rdf:RDF>
  </metadata>
  <g
     inkscape:label="Capa 1"
     inkscape:groupmode="layer"
     id="layer1"
     transform="translate(-11.357406,-372.86586)">
    <g
       id="g5283"
       transform="matrix(-1,0,0,1,718.96357,0)" />
    <g
       id="g75148">
      <path
         inkscape:connector-curvature="0"
         style="fill:url(#radialGradient75146);fill-opacity:1;stroke:#666666;stroke-width:1;stroke-miterlimit:4;stroke-opacity:1;stroke-dasharray:none"
         d="m 432.32644,732.17521 c -0.25555,4.3895 -1.91664,8.0217 -5.11104,10.972 3.1944,-2.9511 4.85549,-6.5832 5.11104,-10.972 z"
         id="path9227" />
      <path
         sodipodi:nodetypes="cccccc"
         inkscape:connector-curvature="0"
         d="m 402.23519,789.05095 c -3.38606,0.3026 -6.38879,-0.57834 -9.07208,1.16206 2.23608,0.2271 4.02493,1.0594 5.43047,2.4215 0.89443,1.362 1.5972,2.6484 1.98053,3.9348 2.80643,2.17982 5.39482,-2.94185 3.41429,7.57625 7.92838,-8.78626 3.98939,-11.91268 -1.75321,-15.09461 z"
         style="fill:url(#radialGradient75143);fill-opacity:1;stroke:#666666;stroke-width:1;stroke-miterlimit:4;stroke-opacity:1;stroke-dasharray:none"
         id="path7237" />
      <path
         sodipodi:nodetypes="ccc"
         inkscape:connector-curvature="0"
         d="m 312.34116,796.34144 c -3.65169,6.26079 -1.97145,18.0928 5.93333,20.72793 3.17397,-16.22768 -1.82721,-17.6107 -5.93333,-20.72793 z"
         style="fill:url(#radialGradient75140);fill-opacity:1;stroke:#666666;stroke-width:1;stroke-miterlimit:4;stroke-opacity:1;stroke-dasharray:none"
         id="path7239" />
      <path
         sodipodi:nodetypes="ccccc"
         inkscape:connector-curvature="0"
         d="m 320.72946,762.36932 c 0.0846,1.91412 1.00301,-2.58732 -4.93471,3.78149 -2.74719,2.8755 -1.72498,7.0373 2.93884,12.4099 2.71071,-6.30846 -1.4412,-4.86909 3.57673,-7.69858 1.65412,-6.03796 -0.28497,-3.24319 -1.58086,-8.49281 z"
         style="fill:url(#radialGradient75137);fill-opacity:1;stroke:#666666;stroke-width:1;stroke-miterlimit:4;stroke-opacity:1;stroke-dasharray:none"
         id="path7259" />
      <path
         inkscape:connector-curvature="0"
         d="m 329.27511,771.14511 -0.12777,-0.076 c 0,0.076 0.0639,0.076 0.12777,0.076 z"
         id="path7261"
         style="fill:url(#radialGradient75134);fill-opacity:1;stroke:#666666;stroke-width:1;stroke-miterlimit:4;stroke-opacity:1;stroke-dasharray:none" />
      <path
         sodipodi:nodetypes="ccccc"
         inkscape:connector-curvature="0"
         d="m 362.75242,811.32571 -1.48131,3.27438 c -2.35191,4.58512 -7.44568,-1.38705 -7.44568,-1.38705 -2.07891,4.66776 -1.88773,9.33551 1.00488,14.00327 4.62915,-3.40877 6.06936,-9.5344 7.92211,-15.8906 z"
         style="fill:url(#radialGradient75131);fill-opacity:1;stroke:#666666;stroke-width:1;stroke-miterlimit:4;stroke-opacity:1;stroke-dasharray:none"
         id="path7263" />
      <path
         sodipodi:nodetypes="ccccccccccccccccccccccccccccccccccccccccccccc"
         inkscape:connector-curvature="0"
         d="m 403.00185,770.46401 c -0.0639,-0.1514 -0.0639,-0.227 -0.0639,-0.3784 -0.12778,-1.2863 0.0639,-2.6483 0.57499,-4.0861 -4.7916,5.2212 -10.03041,7.4913 -15.65256,6.7346 1.6611,-2.7249 4.02495,-5.4482 7.02768,-8.1723 -3.1944,2.572 -6.83601,4.0854 -10.98873,4.3124 -0.57499,-1.7404 -0.0639,-3.7835 1.66109,-5.9772 -1.98053,0.7567 -3.83328,0.9081 -5.49437,0.3784 -3.51385,5.4482 -7.73045,9.61 -12.71371,12.5612 -0.44722,0.3026 -0.89443,0.6053 -1.34165,0.9837 -6.96379,4.9185 -12.26649,8.3236 -15.84421,10.0648 -0.19168,0.076 -23.31669,6.78043 -23.92271,6.64965 -4.11162,-3.65892 -6.67983,-3.8426 -13.5213,2.42507 2.52267,6.86408 6.76306,4.42487 5.61308,6.77067 2.73992,9.72463 8.76736,9.42751 12.47287,9.88231 3.7055,0.3019 5.94158,-2.1195 6.64434,-7.1129 0.19167,-1.2865 0.25556,-2.7999 0.25556,-4.3889 0,1.589 -0.0639,3.1024 -0.25556,4.3889 6.13326,-1.2865 12.26649,-4.3132 18.39974,-9.2318 0.95832,-3.1024 2.6833,-6.1292 5.11103,-9.2317 -2.42773,3.1032 -4.15271,6.13 -5.11103,9.2317 -0.76665,2.5728 -2.29996,5.1456 -4.66382,7.794 -2.04442,1.7412 -2.04442,3.4052 0,4.9186 2.41766,6.54392 11.2078,9.63481 11.94705,1.8917 0,0 0,0 0.0639,0 1.66109,-1.437 3.32218,-1.8917 4.98327,-1.2856 2.55552,-2.1945 2.93885,-3.9349 1.14998,-5.1464 -4.47216,-3.4808 -5.43048,-7.1121 -2.74718,-10.9721 0.83054,-1.2856 2.04441,-2.4971 3.57773,-3.7834 -1.53332,1.2863 -2.74719,2.4978 -3.57773,3.7834 6.96379,6.3563 14.94979,9.4588 24.08577,9.2317 -0.44722,-1.2107 -0.83055,-2.6484 -1.0861,-4.3132 0.25555,1.6648 0.63888,3.1033 1.0861,4.3132 1.53332,4.0862 4.02495,4.995 7.4749,2.7999 2.6194,-2.7242 3.38606,-5.6753 2.42774,-8.9291 -0.38333,-1.2864 -1.0861,-2.5727 -1.98053,-3.9348 -1.40554,-1.3621 -3.19439,-2.1944 -5.43047,-2.4215 -0.31945,0.2271 -0.70277,0.4549 -1.02222,0.7567 -2.87496,2.1945 -6.06936,2.6485 -9.5193,1.3621 -0.95832,-0.6054 -1.78887,-1.2856 -2.55553,-1.9674 -1.72498,-1.8161 -2.6833,-4.0862 -2.87495,-6.8103 0.19165,2.7241 1.14997,4.9942 2.87495,6.8103 0.25556,-1.7404 1.08609,-3.0268 2.61941,-3.9348 4.91938,-3.2539 9.45542,-7.1887 13.54426,-11.7288 2.1083,-1.9682 4.34438,-3.406 6.77212,-4.2383 z"
         id="path7265"
         style="fill:url(#radialGradient75128);fill-opacity:1;stroke:#666666;stroke-width:1;stroke-miterlimit:4;stroke-opacity:1;stroke-dasharray:none" />
      <path
         sodipodi:nodetypes="ccccsccccccc"
         inkscape:connector-curvature="0"
         d="m 350.16649,786.88431 c 3.57773,-1.7412 8.88043,-5.1463 15.84421,-10.0648 -13.2248,2.3465 -24.81776,-1.66113 -32.22875,-10.51443 -1.61455,-1.53855 -6.8461,-6.39122 -8.4433,-5.10552 l -4.20755,0.90473 c -1.22113,0.26257 1.52968,4.84119 1.4658,4.91659 0.0119,1.5133 -1.45754,5.43649 0.77128,8.73963 -1.40554,2.7241 0.6681,4.8421 3.54306,6.4319 1.66109,0.076 3.32218,-0.7567 4.91938,-2.4971 4.47216,4.2375 10.41374,6.7339 17.82475,7.4156 0.19166,-0.076 0.31943,-0.1513 0.51111,-0.227 z"
         id="path7267"
         style="fill:url(#radialGradient75125);fill-opacity:1;stroke:#666666;stroke-width:1;stroke-miterlimit:4;stroke-opacity:1;stroke-dasharray:none" />
      <path
         style="fill:url(#radialGradient75122);fill-opacity:1;stroke:#676767;stroke-width:2;stroke-miterlimit:4;stroke-opacity:1;stroke-dasharray:none;display:inline"
         d="m 435.44796,676.65486 c -1.69032,8.7227 -9.84456,16.79775 -13.83366,23.09745 -1.6227,2.6158 -7.85344,2.3384 -9.88178,4.5685 -3.64563,3.9748 -3.13196,10.2308 -5.31514,14.613 -2.53486,5.0882 -6.00014,9.2714 -8.18732,13.8697 -0.27045,0.5815 -0.54972,1.1716 -0.75253,1.85 -0.0676,0 -0.0564,0.1105 -0.0564,0.1105 -2.29878,5.7182 -4.80941,10.4396 -7.58154,14.4133 -1.96072,2.7137 -4.007,4.951 -6.17058,6.7925 -4.73285,2.7137 -9.33088,3.0975 -13.65805,1.3529 1.75793,3.8768 3.86823,6.3068 6.30227,7.1791 1.75789,0.6784 3.71716,0.4722 5.81313,-0.497 -1.82552,2.8096 -2.35809,5.4202 -1.74958,7.6484 4.39477,-0.2907 8.26447,-2.2281 11.64509,-5.5223 -3.17777,3.4891 -5.69193,7.0024 -7.44985,10.4924 5.94989,0.9692 11.48432,-1.955 16.55523,-8.6425 -0.5409,1.8415 -0.75606,3.5986 -0.62082,5.2463 -2e-5,0.1938 0.0264,0.2755 0.0941,0.4694 0.0677,0.7753 0.25631,1.4612 0.52676,2.2365 1.89314,-1.3569 3.58079,-3.0041 5.13588,-4.9425 2.50163,2.9076 4.84512,-14.5061 6.80585,-14.2154 1.89312,0.097 2.89365,-2.0445 3.02886,-6.4059 0,-0.3867 0.0111,-0.773 -0.0564,-1.1597 -0.0677,-0.6784 -0.12818,-1.1721 -0.26339,-1.6567 -0.13521,-1.3569 0.40441,-2.7026 1.4862,-3.8656 0.4057,0.9692 0.65491,2.0399 0.79014,3.2029 1.08178,-1.6476 1.82954,-3.4183 2.37041,-5.3567 -2.23119,10.0797 -1.29126,17.8487 2.76548,23.47 -0.94658,-8.336 0.74107,-16.6812 5.13587,-25.0162 l 8.0953,-3.16066 c -1.06347,25.03591 0.10849,-67.62186 -0.97353,-60.17169 z"
         id="path2788"
         sodipodi:nodetypes="cccsccccccccccccccccccccccccccc"
         inkscape:connector-curvature="0" />
    </g>
  </g>
</svg>
